<svg width="11" height="11" viewBox="0 0 11 11" fill="none" xmlns="http://www.w3.org/2000/svg">
<path opacity="0.45" d="M6.35381 5.49607L10.8325 1.01841C11.0558 0.788772 11.0558 0.42308 10.8325 0.193437L10.8066 0.16751C10.5769 -0.0558365 10.2112 -0.0558365 9.98153 0.16751L5.50286 4.65381L1.02418 0.16751C0.794525 -0.0558365 0.428814 -0.0558365 0.199159 0.16751L0.174016 0.193437L0.174016 0.193437C-0.0538069 0.415404 -0.0585455 0.78002 0.163433 1.00783C0.166914 1.0114 0.170442 1.01493 0.174016 1.01841L4.65269 5.49607L0.174016 9.98159C-0.0493422 10.2112 -0.0493422 10.5769 0.174016 10.8066L0.199159 10.8325H0.199159C0.428814 11.0558 0.794525 11.0558 1.02418 10.8325L5.50286 6.35484L9.98153 10.8325C10.2112 11.0558 10.5769 11.0558 10.8066 10.8325L10.8325 10.8066C11.0558 10.5769 11.0558 10.2112 10.8325 9.98159L6.35381 5.49528V5.49607Z" fill="#060606"/>
</svg>
