<svg width="20" height="20" viewBox="0 0 20 20" fill="none" xmlns="http://www.w3.org/2000/svg">
<mask id="path-1-inside-1_646_156263" fill="white">
<path d="M4.52504 13.8773L3.41083 6.79153C3.34894 6.39798 3.70618 6.0675 4.09374 6.15977L6.55255 6.7452C6.71679 6.78431 6.88967 6.73789 7.01223 6.62178L9.61819 4.15298C9.83843 3.94433 10.1848 3.94901 10.3993 4.16353L12.8485 6.61269C12.9699 6.73418 13.1453 6.78478 13.3128 6.7467L15.9229 6.1535C16.3138 6.06466 16.6687 6.40329 16.5983 6.79792L15.3355 13.8773H4.52504Z"/>
</mask>
<path d="M4.52504 13.8773L3.41083 6.79153C3.34894 6.39798 3.70618 6.0675 4.09374 6.15977L6.55255 6.7452C6.71679 6.78431 6.88967 6.73789 7.01223 6.62178L9.61819 4.15298C9.83843 3.94433 10.1848 3.94901 10.3993 4.16353L12.8485 6.61269C12.9699 6.73418 13.1453 6.78478 13.3128 6.7467L15.9229 6.1535C16.3138 6.06466 16.6687 6.40329 16.5983 6.79792L15.3355 13.8773H4.52504Z" fill="url(#paint0_linear_646_156263)"/>
<path d="M4.52504 13.8773L4.03111 13.955L4.09752 14.3773H4.52504V13.8773ZM3.41083 6.79153L2.9169 6.8692L3.41083 6.79153ZM4.09374 6.15977L3.97793 6.64617H3.97793L4.09374 6.15977ZM6.55255 6.7452L6.66836 6.2588L6.55255 6.7452ZM7.01223 6.62178L6.66836 6.2588L7.01223 6.62178ZM9.61819 4.15298L9.27431 3.79V3.79L9.61819 4.15298ZM10.3993 4.16353L10.7529 3.80998L10.7529 3.80998L10.3993 4.16353ZM12.8485 6.61269L13.202 6.25914V6.25914L12.8485 6.61269ZM13.3128 6.7467L13.4236 7.23427H13.4236L13.3128 6.7467ZM15.9229 6.1535L16.0338 6.64106L15.9229 6.1535ZM16.5983 6.79792L16.1061 6.71011L16.5983 6.79792ZM15.3355 13.8773V14.3773H15.7542L15.8277 13.9652L15.3355 13.8773ZM5.01897 13.7997L3.90476 6.71386L2.9169 6.8692L4.03111 13.955L5.01897 13.7997ZM3.90476 6.71386C3.89813 6.6717 3.9364 6.63629 3.97793 6.64617L4.20955 5.67337C3.47597 5.49871 2.79976 6.12427 2.9169 6.8692L3.90476 6.71386ZM3.97793 6.64617L6.43674 7.23161L6.66836 6.2588L4.20955 5.67337L3.97793 6.64617ZM6.43674 7.23161C6.76522 7.30982 7.11098 7.21698 7.35611 6.98475L6.66836 6.2588H6.66836L6.43674 7.23161ZM7.35611 6.98475L9.96206 4.51595L9.27431 3.79L6.66836 6.2588L7.35611 6.98475ZM9.96206 4.51595C9.98566 4.4936 10.0228 4.4941 10.0458 4.51709L10.7529 3.80998C10.3468 3.40391 9.69121 3.39505 9.27431 3.79L9.96206 4.51595ZM10.0458 4.51709L12.4949 6.96624L13.202 6.25914L10.7529 3.80998L10.0458 4.51709ZM12.4949 6.96624C12.7379 7.20921 13.0886 7.31042 13.4236 7.23427L13.202 6.25914L13.202 6.25914L12.4949 6.96624ZM13.4236 7.23427L16.0338 6.64106L15.8121 5.66593L13.202 6.25914L13.4236 7.23427ZM16.0338 6.64106C16.0756 6.63154 16.1137 6.66783 16.1061 6.71011L17.0906 6.88572C17.2238 6.13875 16.552 5.49777 15.8121 5.66593L16.0338 6.64106ZM16.1061 6.71011L14.8432 13.7895L15.8277 13.9652L17.0906 6.88572L16.1061 6.71011ZM15.3355 13.3773H4.52504V14.3773H15.3355V13.3773Z" fill="url(#paint1_linear_646_156263)" mask="url(#path-1-inside-1_646_156263)"/>
<path d="M14.8162 15.7997H5.04576L4.75357 14.4848H15.1084L14.8162 15.7997Z" fill="#9881F2" stroke="url(#paint2_linear_646_156263)" stroke-width="0.2"/>
<g opacity="0.9" filter="url(#filter0_d_646_156263)">
<mask id="path-4-outside-2_646_156263" maskUnits="userSpaceOnUse" x="6.99219" y="7.53516" width="6" height="6" fill="black">
<rect fill="white" x="6.99219" y="7.53516" width="6" height="6"/>
<path fill-rule="evenodd" clip-rule="evenodd" d="M9.48438 12.526C9.48438 12.5812 9.52915 12.626 9.58437 12.626H10.4753C10.5305 12.626 10.5753 12.5812 10.5753 12.526V9.62605H11.983C12.0382 9.62605 12.083 9.58128 12.083 9.52605V8.63516C12.083 8.57994 12.0382 8.53516 11.983 8.53516H10.5753V8.53516H9.48438V8.53516H8.09219C8.03696 8.53516 7.99219 8.57994 7.99219 8.63516V9.52605C7.99219 9.58128 8.03696 9.62605 8.09219 9.62605H9.48438V12.526Z"/>
</mask>
<path fill-rule="evenodd" clip-rule="evenodd" d="M9.48438 12.526C9.48438 12.5812 9.52915 12.626 9.58437 12.626H10.4753C10.5305 12.626 10.5753 12.5812 10.5753 12.526V9.62605H11.983C12.0382 9.62605 12.083 9.58128 12.083 9.52605V8.63516C12.083 8.57994 12.0382 8.53516 11.983 8.53516H10.5753V8.53516H9.48438V8.53516H8.09219C8.03696 8.53516 7.99219 8.57994 7.99219 8.63516V9.52605C7.99219 9.58128 8.03696 9.62605 8.09219 9.62605H9.48438V12.526Z" fill="white" fill-opacity="0.8" shape-rendering="crispEdges"/>
<path d="M10.5753 9.62605V9.52605H10.4753V9.62605H10.5753ZM10.5753 8.53516H10.4753V8.63516H10.5753V8.53516ZM10.5753 8.53516H10.6753V8.43516H10.5753V8.53516ZM9.48438 8.53516V8.43516H9.38438V8.53516H9.48438ZM9.48438 8.53516V8.63516H9.58438V8.53516H9.48438ZM9.48438 9.62605H9.58438V9.52605H9.48438V9.62605ZM9.58437 12.526H9.58438H9.38438C9.38438 12.6364 9.47392 12.726 9.58437 12.726V12.526ZM10.4753 12.526H9.58437V12.726H10.4753V12.526ZM10.4753 12.526V12.726C10.5857 12.726 10.6753 12.6364 10.6753 12.526H10.4753ZM10.4753 9.62605V12.526H10.6753V9.62605H10.4753ZM11.983 9.52605H10.5753V9.72605H11.983V9.52605ZM11.983 9.52605V9.72605C12.0935 9.72605 12.183 9.63651 12.183 9.52605H11.983ZM11.983 8.63516V9.52605H12.183V8.63516H11.983ZM11.983 8.63516V8.63516H12.183C12.183 8.52471 12.0935 8.43516 11.983 8.43516V8.63516ZM10.5753 8.63516H11.983V8.43516H10.5753V8.63516ZM10.4753 8.53516V8.53516H10.6753V8.53516H10.4753ZM9.48438 8.63516H10.5753V8.43516H9.48438V8.63516ZM9.58438 8.53516V8.53516H9.38438V8.53516H9.58438ZM8.09219 8.63516H9.48438V8.43516H8.09219L8.09219 8.63516ZM8.09219 8.63516V8.63516L8.09219 8.43516C7.98173 8.43516 7.89219 8.52471 7.89219 8.63516H8.09219ZM8.09219 9.52605V8.63516H7.89219V9.52605H8.09219ZM8.09219 9.52605H8.09219H7.89219C7.89219 9.63651 7.98173 9.72605 8.09219 9.72605V9.52605ZM9.48438 9.52605H8.09219V9.72605H9.48438V9.52605ZM9.58438 12.526V9.62605H9.38438V12.526H9.58438Z" fill="#F4F0FF" fill-opacity="0.9" mask="url(#path-4-outside-2_646_156263)"/>
</g>
<defs>
<filter id="filter0_d_646_156263" x="6.09209" y="6.63506" width="8.29102" height="8.29102" filterUnits="userSpaceOnUse" color-interpolation-filters="sRGB">
<feFlood flood-opacity="0" result="BackgroundImageFix"/>
<feColorMatrix in="SourceAlpha" type="matrix" values="0 0 0 0 0 0 0 0 0 0 0 0 0 0 0 0 0 0 127 0" result="hardAlpha"/>
<feOffset dx="0.2" dy="0.2"/>
<feGaussianBlur stdDeviation="1"/>
<feComposite in2="hardAlpha" operator="out"/>
<feColorMatrix type="matrix" values="0 0 0 0 0.141711 0 0 0 0 0.13125 0 0 0 0 0.5 0 0 0 0.1 0"/>
<feBlend mode="normal" in2="BackgroundImageFix" result="effect1_dropShadow_646_156263"/>
<feBlend mode="normal" in="SourceGraphic" in2="effect1_dropShadow_646_156263" result="shape"/>
</filter>
<linearGradient id="paint0_linear_646_156263" x1="14.7626" y1="14.1126" x2="4.95648" y2="4.2283" gradientUnits="userSpaceOnUse">
<stop stop-color="#A274EE"/>
<stop offset="1" stop-color="#91B1FF"/>
</linearGradient>
<linearGradient id="paint1_linear_646_156263" x1="14.4923" y1="13.8881" x2="5.21999" y2="4.07879" gradientUnits="userSpaceOnUse">
<stop stop-color="#AA87FE"/>
<stop offset="0.48958" stop-color="#EDE6FF"/>
<stop offset="1" stop-color="#ACC1FF"/>
</linearGradient>
<linearGradient id="paint2_linear_646_156263" x1="13.5344" y1="15.9013" x2="13.0365" y2="13.1426" gradientUnits="userSpaceOnUse">
<stop stop-color="#D2BFFF"/>
<stop offset="1" stop-color="#CAD7FF"/>
</linearGradient>
</defs>
</svg>
