<svg width="396" height="220" viewBox="0 0 396 220" fill="none" xmlns="http://www.w3.org/2000/svg">
<rect width="396" height="220" rx="8" fill="white"/>
<mask id="mask0_690_174848" style="mask-type:luminance" maskUnits="userSpaceOnUse" x="0" y="0" width="396" height="220">
<rect width="396" height="220" rx="8" fill="white"/>
</mask>
<g mask="url(#mask0_690_174848)">
<rect x="50" y="64.6343" width="24.6648" height="24.6648" rx="3.52355" fill="#FFEFDA"/>
<path d="M62.5215 73.5901C62.2375 73.8978 61.8826 74.1699 61.4566 74.4303C61.0306 74.6669 60.6401 74.8326 60.2615 74.9272V76.2052C61.0424 75.9804 61.6932 75.6254 62.202 75.1402V82.0388H63.4918V73.5901H62.5215Z" fill="#734C24"/>
<rect x="50" y="95.4653" width="24.6648" height="24.6648" rx="3.52355" fill="#F0F0F0"/>
<path opacity="0.1" d="M62.1703 104.255C61.271 104.255 60.5492 104.492 60.0285 104.965C59.5552 105.391 59.3186 105.924 59.3186 106.551C59.3186 106.989 59.4132 107.356 59.6026 107.651C59.8156 107.971 60.135 108.208 60.561 108.373V108.409C60.1469 108.503 59.8037 108.74 59.5197 109.119C59.1884 109.521 59.0228 109.983 59.0228 110.515C59.0228 111.26 59.2949 111.864 59.8392 112.337C60.3835 112.799 61.1645 113.035 62.1703 113.035C63.1642 113.035 63.9452 112.799 64.5013 112.337C65.0457 111.864 65.3178 111.26 65.3178 110.515C65.3178 109.983 65.1521 109.521 64.8208 109.119C64.5368 108.74 64.1819 108.503 63.7795 108.409V108.373C64.2055 108.208 64.525 107.971 64.738 107.651C64.9273 107.356 65.022 106.989 65.022 106.551C65.022 105.924 64.7853 105.391 64.312 104.965C63.7795 104.492 63.0696 104.255 62.1703 104.255ZM62.1703 105.285C62.6909 105.285 63.1051 105.415 63.4127 105.699C63.673 105.936 63.815 106.243 63.815 106.598C63.815 107.001 63.6967 107.32 63.4837 107.557C63.1997 107.841 62.7619 107.983 62.1703 107.983C61.5668 107.983 61.129 107.841 60.8568 107.557C60.632 107.32 60.5255 107.001 60.5255 106.598C60.5255 106.243 60.6557 105.936 60.9278 105.699C61.2355 105.415 61.6496 105.285 62.1703 105.285ZM62.1703 108.941C62.7856 108.941 63.2471 109.095 63.5784 109.403C63.886 109.675 64.0399 110.042 64.0399 110.515C64.0399 110.953 63.886 111.308 63.5784 111.58C63.2352 111.852 62.7619 111.994 62.1703 111.994C61.5668 111.994 61.1053 111.852 60.7858 111.58C60.4545 111.308 60.3007 110.953 60.3007 110.515C60.3007 110.042 60.4545 109.675 60.774 109.391C61.0817 109.083 61.555 108.941 62.1703 108.941Z" fill="black"/>
<rect opacity="0.8" x="50" y="126.296" width="24.6648" height="24.6648" rx="3.52355" fill="#F0F0F0"/>
<rect opacity="0.5" x="50" y="157.127" width="24.6648" height="24.6648" rx="3.52355" fill="#F0F0F0"/>
<rect x="79.9531" y="64.6343" width="24.6648" height="24.6648" rx="3.52355" fill="#FFEFDA"/>
<path d="M92.8942 73.4245C91.9949 73.4245 91.2613 73.7203 90.717 74.3356C90.1845 74.9036 89.9123 75.6609 89.9005 76.6075H91.1903C91.2139 75.9212 91.3559 75.4124 91.6399 75.0574C91.9121 74.6906 92.3144 74.5131 92.8469 74.5131C93.3438 74.5131 93.7343 74.6314 93.9946 74.8681C94.255 75.1047 94.3851 75.4597 94.3851 75.933C94.3851 76.43 94.184 76.8915 93.8053 77.3175C93.5687 77.566 93.1663 77.8854 92.5984 78.2878C91.6399 78.9504 91.0009 79.4592 90.6933 79.826C90.1253 80.465 89.8532 81.1986 89.8532 82.0388H95.6749V80.9028H91.4506C91.6281 80.4413 92.1724 79.9089 93.0835 79.3054C93.9236 78.7374 94.5035 78.2878 94.8348 77.9446C95.3791 77.3411 95.6631 76.6785 95.6631 75.9449C95.6631 75.1994 95.4027 74.5959 94.8939 74.1226C94.3733 73.6493 93.6988 73.4245 92.8942 73.4245Z" fill="#734C24"/>
<rect x="79.9531" y="95.4653" width="24.6648" height="24.6648" rx="3.52355" fill="#F0F0F0"/>
<path opacity="0.1" d="M92.7905 104.255C91.9503 104.255 91.2522 104.528 90.6842 105.084C90.1162 105.628 89.8441 106.314 89.8441 107.166C89.8441 107.995 90.0807 108.669 90.5659 109.19C91.0629 109.722 91.7373 109.994 92.5656 109.994C93.0035 109.994 93.3939 109.9 93.7371 109.734C94.0921 109.545 94.3997 109.273 94.6364 108.906H94.6837C94.6837 108.965 94.6955 109.012 94.6955 109.06C94.6955 109.876 94.5181 110.562 94.1867 111.107C93.8317 111.675 93.3703 111.97 92.7905 111.97C91.9385 111.97 91.4179 111.556 91.2522 110.74H89.9979C90.2109 112.266 91.1339 113.035 92.7786 113.035C93.7489 113.035 94.5181 112.598 95.0979 111.746C95.654 110.894 95.938 109.781 95.938 108.409C95.938 107.107 95.6658 106.101 95.1452 105.38C94.6009 104.622 93.8199 104.255 92.7905 104.255ZM92.8378 105.32C93.3348 105.32 93.7489 105.486 94.0684 105.817C94.3761 106.137 94.5417 106.575 94.5417 107.131C94.5417 107.675 94.3879 108.125 94.0802 108.456C93.7726 108.787 93.3466 108.953 92.826 108.953C92.2935 108.953 91.8793 108.787 91.5835 108.456C91.264 108.137 91.1102 107.711 91.1102 107.166C91.1102 106.622 91.264 106.184 91.5835 105.841C91.8912 105.486 92.3171 105.32 92.8378 105.32Z" fill="black"/>
<rect opacity="0.8" x="79.9531" y="126.296" width="24.6648" height="24.6648" rx="3.52355" fill="#F0F0F0"/>
<rect opacity="0.5" x="79.9531" y="157.127" width="24.6648" height="24.6648" rx="3.52355" fill="#F0F0F0"/>
<rect x="110.051" y="65" width="24.6648" height="24.6648" rx="3.52355" fill="#F0F0F0"/>
<path opacity="0.3" d="M122.792 73.4245C121.964 73.4245 121.289 73.6493 120.769 74.1226C120.213 74.5959 119.905 75.2467 119.834 76.0869H121.1C121.147 75.5662 121.325 75.1757 121.609 74.9154C121.893 74.6551 122.295 74.5249 122.804 74.5249C123.301 74.5249 123.691 74.6314 123.952 74.8681C124.188 75.0929 124.319 75.4124 124.319 75.8384C124.319 76.2643 124.177 76.5957 123.916 76.8205C123.656 77.0453 123.265 77.1636 122.745 77.1636H122.141V78.1339H122.757C123.313 78.1339 123.739 78.2523 124.023 78.4889C124.33 78.7256 124.484 79.0924 124.484 79.5894C124.484 80.0153 124.33 80.3585 124.046 80.6425C123.715 80.9501 123.277 81.1158 122.733 81.1158C122.236 81.1158 121.834 80.9738 121.526 80.6898C121.171 80.3822 120.994 79.9444 120.97 79.3764H119.668C119.739 80.323 120.071 81.0448 120.662 81.5418C121.183 81.9796 121.881 82.2044 122.745 82.2044C123.644 82.2044 124.39 81.9441 124.958 81.4471C125.49 80.9501 125.762 80.3112 125.762 79.5302C125.762 79.0332 125.62 78.6191 125.336 78.2996C125.076 77.9919 124.697 77.7553 124.2 77.6015C125.123 77.2938 125.597 76.6667 125.597 75.7437C125.597 75.0219 125.336 74.4539 124.839 74.0398C124.319 73.6256 123.644 73.4245 122.792 73.4245Z" fill="black"/>
<rect x="109.898" y="95.4653" width="24.6648" height="24.6648" rx="3.52355" fill="#F0F0F0"/>
<path opacity="0.1" d="M118.849 104.421C118.565 104.729 118.21 105.001 117.784 105.261C117.358 105.498 116.968 105.664 116.589 105.758V107.036C117.37 106.811 118.021 106.456 118.53 105.971V112.87H119.819V104.421H118.849ZM124.484 104.255C123.49 104.255 122.721 104.67 122.176 105.51C121.679 106.279 121.431 107.32 121.431 108.645C121.431 109.959 121.679 111 122.176 111.781C122.721 112.609 123.49 113.035 124.484 113.035C125.478 113.035 126.247 112.609 126.791 111.781C127.288 111 127.537 109.947 127.537 108.645C127.537 107.332 127.288 106.291 126.791 105.51C126.247 104.67 125.478 104.255 124.484 104.255ZM124.484 105.344C125.17 105.344 125.667 105.723 125.951 106.492C126.152 107.013 126.259 107.734 126.259 108.645C126.259 109.545 126.152 110.267 125.951 110.799C125.667 111.556 125.17 111.947 124.484 111.947C123.786 111.947 123.301 111.556 123.017 110.799C122.804 110.267 122.709 109.545 122.709 108.645C122.709 107.734 122.804 107.013 123.017 106.492C123.301 105.723 123.786 105.344 124.484 105.344Z" fill="black"/>
<rect opacity="0.8" x="109.898" y="126.296" width="24.6648" height="24.6648" rx="3.52355" fill="#F0F0F0"/>
<rect opacity="0.5" x="109.898" y="157.127" width="24.6648" height="24.6648" rx="3.52355" fill="#F0F0F0"/>
<rect x="139.852" y="64.6343" width="24.6648" height="24.6648" rx="3.52355" fill="#FFEFDA"/>
<path d="M153.514 73.5901L149.349 78.9859V80.2047H153.467V82.0388H154.698V80.2047H155.976V79.1752H154.698V73.5901H153.514ZM153.432 75.2231H153.467V79.1752H150.402L153.432 75.2231Z" fill="#734C24"/>
<rect x="139.852" y="95.4654" width="24.6648" height="24.6648" rx="3.52355" fill="#F0F0F0"/>
<path opacity="0.1" d="M149.931 104.421C149.647 104.729 149.292 105.001 148.866 105.261C148.44 105.498 148.049 105.664 147.671 105.758V107.036C148.452 106.811 149.102 106.456 149.611 105.971V112.87H150.901V104.421H149.931ZM154.761 104.421C154.477 104.729 154.122 105.001 153.696 105.261C153.27 105.498 152.879 105.664 152.501 105.758V107.036C153.282 106.811 153.933 106.456 154.441 105.971V112.87H155.731V104.421H154.761Z" fill="black"/>
<rect opacity="0.8" x="139.852" y="126.296" width="24.6648" height="24.6648" rx="3.52355" fill="#F0F0F0"/>
<rect opacity="0.5" x="139.852" y="157.127" width="24.6648" height="24.6648" rx="3.52355" fill="#F0F0F0"/>
<rect x="169.801" y="64.6343" width="24.6648" height="24.6648" rx="3.52355" fill="#F0F0F0"/>
<path opacity="0.3" d="M180.186 73.5901L179.724 78.3233H180.931C181.097 78.0156 181.322 77.7908 181.63 77.6488C181.914 77.5068 182.233 77.4476 182.612 77.4476C183.18 77.4476 183.606 77.6133 183.913 77.9446C184.221 78.2759 184.375 78.7374 184.375 79.329C184.375 79.8734 184.197 80.2993 183.842 80.6307C183.487 80.9501 183.05 81.1158 182.529 81.1158C182.056 81.1158 181.677 81.0093 181.393 80.7963C181.073 80.5597 180.884 80.1928 180.837 79.7195H179.571C179.63 80.5005 179.961 81.1276 180.565 81.5773C181.109 81.9914 181.76 82.2044 182.517 82.2044C183.357 82.2044 184.079 81.9559 184.682 81.4589C185.321 80.9028 185.653 80.1928 185.653 79.3172C185.653 78.4061 185.392 77.6961 184.895 77.1755C184.398 76.6548 183.748 76.3945 182.955 76.3945C182.576 76.3945 182.221 76.4537 181.914 76.5838C181.57 76.7022 181.275 76.8915 181.014 77.1636H180.979L181.227 74.7261H185.274V73.5901H180.186Z" fill="black"/>
<rect x="169.801" y="95.4653" width="24.6648" height="24.6648" rx="3.52355" fill="#F0F0F0"/>
<path opacity="0.1" d="M178.751 104.421C178.467 104.729 178.112 105.001 177.686 105.261C177.26 105.498 176.87 105.664 176.491 105.758V107.036C177.272 106.811 177.923 106.456 178.432 105.971V112.87H179.722V104.421H178.751ZM184.516 104.255C183.617 104.255 182.883 104.551 182.339 105.167C181.807 105.735 181.534 106.492 181.523 107.438H182.812C182.836 106.752 182.978 106.243 183.262 105.888C183.534 105.522 183.937 105.344 184.469 105.344C184.966 105.344 185.356 105.462 185.617 105.699C185.877 105.936 186.007 106.291 186.007 106.764C186.007 107.261 185.806 107.722 185.427 108.148C185.191 108.397 184.788 108.716 184.22 109.119C183.262 109.781 182.623 110.29 182.315 110.657C181.747 111.296 181.475 112.03 181.475 112.87H187.297V111.734H183.073C183.25 111.272 183.795 110.74 184.706 110.136C185.546 109.568 186.126 109.119 186.457 108.776C187.001 108.172 187.285 107.509 187.285 106.776C187.285 106.03 187.025 105.427 186.516 104.954C185.995 104.48 185.321 104.255 184.516 104.255Z" fill="black"/>
<rect opacity="0.8" x="169.801" y="126.296" width="24.6648" height="24.6648" rx="3.52355" fill="#F0F0F0"/>
<rect x="199.754" y="64.6343" width="24.6648" height="24.6648" rx="3.52355" fill="#FFEFDA"/>
<path d="M212.683 73.4245C211.713 73.4245 210.932 73.8505 210.364 74.7143C209.796 75.5662 209.524 76.6785 209.524 78.0511C209.524 79.3409 209.784 80.3467 210.305 81.0685C210.849 81.8258 211.63 82.2044 212.671 82.2044C213.5 82.2044 214.21 81.9204 214.778 81.3761C215.334 80.8318 215.618 80.1337 215.618 79.2935C215.618 78.4653 215.369 77.7789 214.884 77.2465C214.387 76.7258 213.724 76.4655 212.896 76.4655C212.446 76.4655 212.056 76.5483 211.725 76.7258C211.358 76.9033 211.062 77.1755 210.825 77.5541H210.778C210.766 77.4831 210.766 77.4358 210.766 77.4003C210.766 76.572 210.932 75.8975 211.275 75.3532C211.618 74.7734 212.08 74.4894 212.671 74.4894C213.523 74.4894 214.032 74.8917 214.21 75.72H215.464C215.251 74.1818 214.316 73.4245 212.683 73.4245ZM212.636 77.5068C213.156 77.5068 213.582 77.6725 213.89 78.0038C214.198 78.3114 214.352 78.7492 214.352 79.2935C214.352 79.826 214.186 80.2638 213.866 80.6188C213.559 80.962 213.145 81.1395 212.624 81.1395C212.115 81.1395 211.701 80.9738 211.393 80.6425C211.074 80.3112 210.92 79.8734 210.92 79.329C210.92 78.7729 211.074 78.3351 211.382 78.0038C211.689 77.6725 212.103 77.5068 212.636 77.5068Z" fill="#734C24"/>
<rect x="199.754" y="95.4653" width="24.6648" height="24.6648" rx="3.52355" fill="#F0F0F0"/>
<path opacity="0.1" d="M208.704 104.421C208.42 104.729 208.065 105.001 207.64 105.261C207.214 105.498 206.823 105.664 206.444 105.758V107.036C207.225 106.811 207.876 106.456 208.385 105.971V112.87H209.675V104.421H208.704ZM214.422 104.255C213.594 104.255 212.919 104.48 212.399 104.954C211.843 105.427 211.535 106.078 211.464 106.918H212.73C212.777 106.397 212.955 106.007 213.239 105.746C213.523 105.486 213.925 105.356 214.434 105.356C214.931 105.356 215.321 105.462 215.582 105.699C215.818 105.924 215.949 106.243 215.949 106.669C215.949 107.095 215.807 107.427 215.546 107.651C215.286 107.876 214.895 107.995 214.375 107.995H213.771V108.965H214.387C214.943 108.965 215.369 109.083 215.653 109.32C215.96 109.557 216.114 109.923 216.114 110.42C216.114 110.846 215.96 111.189 215.676 111.473C215.345 111.781 214.907 111.947 214.363 111.947C213.866 111.947 213.464 111.805 213.156 111.521C212.801 111.213 212.624 110.775 212.6 110.207H211.298C211.369 111.154 211.701 111.876 212.292 112.373C212.813 112.811 213.511 113.035 214.375 113.035C215.274 113.035 216.02 112.775 216.588 112.278C217.12 111.781 217.392 111.142 217.392 110.361C217.392 109.864 217.25 109.45 216.966 109.131C216.706 108.823 216.327 108.586 215.83 108.432C216.753 108.125 217.226 107.498 217.226 106.575C217.226 105.853 216.966 105.285 216.469 104.871C215.949 104.457 215.274 104.255 214.422 104.255Z" fill="black"/>
<rect opacity="0.5" x="199.754" y="126.296" width="24.6648" height="24.6648" rx="3.52355" fill="#F0F0F0"/>
<rect x="229.699" y="64.6343" width="24.6648" height="24.6648" rx="3.52355" fill="#F0F0F0"/>
<path opacity="0.3" d="M239.116 73.5901V74.7616H243.494L240.429 82.0388H241.802L244.796 74.6314V73.5901H239.116Z" fill="black"/>
<rect x="229.699" y="95.4653" width="24.6648" height="24.6648" rx="3.52355" fill="#F0F0F0"/>
<path opacity="0.05" d="M238.65 104.421C238.366 104.729 238.011 105.001 237.585 105.261C237.159 105.498 236.768 105.664 236.39 105.758V107.036C237.171 106.811 237.821 106.456 238.33 105.971V112.87H239.62V104.421H238.65ZM245.137 104.421L240.971 109.817V111.036H245.089V112.87H246.32V111.036H247.598V110.006H246.32V104.421H245.137ZM245.054 106.054H245.089V110.006H242.025L245.054 106.054Z" fill="black"/>
<rect opacity="0.5" x="229.699" y="126.296" width="24.6648" height="24.6648" rx="3.52355" fill="#F0F0F0"/>
<rect x="259.652" y="64.6343" width="24.6648" height="24.6648" rx="3.52355" fill="#F0F0F0"/>
<path opacity="0.2" d="M272.463 73.4245C271.564 73.4245 270.842 73.6611 270.322 74.1344C269.848 74.5604 269.612 75.0929 269.612 75.72C269.612 76.1579 269.706 76.5247 269.896 76.8205C270.109 77.14 270.428 77.3766 270.854 77.5423V77.5778C270.44 77.6725 270.097 77.9091 269.813 78.2878C269.481 78.6901 269.316 79.1516 269.316 79.684C269.316 80.4295 269.588 81.033 270.132 81.5063C270.676 81.9678 271.457 82.2044 272.463 82.2044C273.457 82.2044 274.238 81.9678 274.794 81.5063C275.339 81.033 275.611 80.4295 275.611 79.684C275.611 79.1516 275.445 78.6901 275.114 78.2878C274.83 77.9091 274.475 77.6725 274.073 77.5778V77.5423C274.498 77.3766 274.818 77.14 275.031 76.8205C275.22 76.5247 275.315 76.1579 275.315 75.72C275.315 75.0929 275.078 74.5604 274.605 74.1344C274.073 73.6611 273.363 73.4245 272.463 73.4245ZM272.463 74.4539C272.984 74.4539 273.398 74.5841 273.706 74.8681C273.966 75.1047 274.108 75.4124 274.108 75.7674C274.108 76.1697 273.99 76.4892 273.777 76.7258C273.493 77.0098 273.055 77.1518 272.463 77.1518C271.86 77.1518 271.422 77.0098 271.15 76.7258C270.925 76.4892 270.818 76.1697 270.818 75.7674C270.818 75.4124 270.949 75.1047 271.221 74.8681C271.528 74.5841 271.943 74.4539 272.463 74.4539ZM272.463 78.1103C273.079 78.1103 273.54 78.2641 273.871 78.5717C274.179 78.8439 274.333 79.2107 274.333 79.684C274.333 80.1218 274.179 80.4768 273.871 80.749C273.528 81.0211 273.055 81.1631 272.463 81.1631C271.86 81.1631 271.398 81.0211 271.079 80.749C270.747 80.4768 270.594 80.1218 270.594 79.684C270.594 79.2107 270.747 78.8439 271.067 78.5599C271.375 78.2523 271.848 78.1103 272.463 78.1103Z" fill="black"/>
<rect x="259.652" y="95.4653" width="24.6648" height="24.6648" rx="3.52355" fill="#F0F0F0"/>
<path opacity="0.05" d="M269.771 104.421C269.487 104.729 269.132 105.001 268.706 105.261C268.28 105.498 267.889 105.664 267.511 105.758V107.036C268.292 106.811 268.942 106.456 269.451 105.971V112.87H270.741V104.421H269.771ZM272.222 104.421V105.593H276.601L273.536 112.87H274.909L277.902 105.462V104.421H272.222Z" fill="black"/>
<rect opacity="0.5" x="259.652" y="126.296" width="24.6648" height="24.6648" rx="3.52355" fill="#F0F0F0"/>
<rect x="289.602" y="64.6343" width="24.6648" height="24.6648" rx="3.52355" fill="#F0F0F0"/>
<path opacity="0.2" d="M302.318 73.4245C301.478 73.4245 300.78 73.6966 300.212 74.2528C299.644 74.7971 299.371 75.4834 299.371 76.3353C299.371 77.1636 299.608 77.8381 300.093 78.3588C300.59 78.8912 301.265 79.1634 302.093 79.1634C302.531 79.1634 302.921 79.0687 303.264 78.9031C303.619 78.7137 303.927 78.4416 304.164 78.0748H304.211C304.211 78.1339 304.223 78.1813 304.223 78.2286C304.223 79.0451 304.045 79.7314 303.714 80.2757C303.359 80.8436 302.898 81.1395 302.318 81.1395C301.466 81.1395 300.945 80.7253 300.78 79.9089H299.525C299.738 81.4353 300.661 82.2044 302.306 82.2044C303.276 82.2044 304.045 81.7666 304.625 80.9146C305.181 80.0627 305.465 78.9504 305.465 77.5778C305.465 76.2762 305.193 75.2704 304.673 74.5486C304.128 73.7913 303.347 73.4245 302.318 73.4245ZM302.365 74.4894C302.862 74.4894 303.276 74.6551 303.596 74.9864C303.903 75.3059 304.069 75.7437 304.069 76.2998C304.069 76.8442 303.915 77.2938 303.608 77.6251C303.3 77.9564 302.874 78.1221 302.353 78.1221C301.821 78.1221 301.407 77.9564 301.111 77.6251C300.791 77.3056 300.638 76.8797 300.638 76.3353C300.638 75.791 300.791 75.3532 301.111 75.0101C301.419 74.6551 301.844 74.4894 302.365 74.4894Z" fill="black"/>
<rect x="289.602" y="95.4653" width="24.6648" height="24.6648" rx="3.52355" fill="#F0F0F0"/>
<path opacity="0.05" d="M298.552 104.421C298.268 104.729 297.913 105.001 297.487 105.261C297.061 105.498 296.671 105.664 296.292 105.758V107.036C297.073 106.811 297.724 106.456 298.233 105.971V112.87H299.522V104.421H298.552ZM304.187 104.255C303.288 104.255 302.566 104.492 302.045 104.965C301.572 105.391 301.335 105.924 301.335 106.551C301.335 106.989 301.43 107.356 301.619 107.651C301.832 107.971 302.152 108.208 302.578 108.373V108.409C302.164 108.503 301.82 108.74 301.536 109.119C301.205 109.521 301.039 109.983 301.039 110.515C301.039 111.26 301.312 111.864 301.856 112.337C302.4 112.799 303.181 113.035 304.187 113.035C305.181 113.035 305.962 112.799 306.518 112.337C307.062 111.864 307.334 111.26 307.334 110.515C307.334 109.983 307.169 109.521 306.837 109.119C306.553 108.74 306.199 108.503 305.796 108.409V108.373C306.222 108.208 306.542 107.971 306.755 107.651C306.944 107.356 307.039 106.989 307.039 106.551C307.039 105.924 306.802 105.391 306.329 104.965C305.796 104.492 305.086 104.255 304.187 104.255ZM304.187 105.285C304.708 105.285 305.122 105.415 305.429 105.699C305.69 105.936 305.832 106.243 305.832 106.598C305.832 107.001 305.713 107.32 305.5 107.557C305.216 107.841 304.779 107.983 304.187 107.983C303.583 107.983 303.146 107.841 302.873 107.557C302.649 107.32 302.542 107.001 302.542 106.598C302.542 106.243 302.672 105.936 302.944 105.699C303.252 105.415 303.666 105.285 304.187 105.285ZM304.187 108.941C304.802 108.941 305.264 109.095 305.595 109.403C305.903 109.675 306.057 110.042 306.057 110.515C306.057 110.953 305.903 111.308 305.595 111.58C305.252 111.852 304.779 111.994 304.187 111.994C303.583 111.994 303.122 111.852 302.802 111.58C302.471 111.308 302.317 110.953 302.317 110.515C302.317 110.042 302.471 109.675 302.791 109.391C303.098 109.083 303.572 108.941 304.187 108.941Z" fill="black"/>
<rect opacity="0.5" x="289.602" y="126.296" width="24.6648" height="24.6648" rx="3.52355" fill="#F0F0F0"/>
<path d="M51.5908 40.5262V43.8462H54.6808V44.5362H51.1308V45.1162H54.6808V45.8662H50.6308V46.4962H59.4708V45.8662H55.4008V45.1162H58.9808V44.5362H55.4008V43.8462H58.5008V40.5262H55.4008V39.8862H59.3308V39.2662H55.4008V38.5062C56.5108 38.4362 57.5508 38.3562 58.5108 38.2562L58.2908 37.6562C56.3008 37.8762 54.0008 38.0262 51.4008 38.1062L51.5208 38.6962C52.6208 38.6562 53.6708 38.6062 54.6808 38.5462V39.2662H50.7708V39.8862H54.6808V40.5262H51.5908ZM57.8008 43.2662H55.4008V42.4562H57.8008V43.2662ZM54.6808 43.2662H52.2808V42.4562H54.6808V43.2662ZM52.2808 41.8962V41.1062H54.6808V41.8962H52.2808ZM55.4008 41.1062H57.8008V41.8962H55.4008V41.1062ZM62.8308 38.9562H69.0108V38.3262H63.1608C63.2608 38.0962 63.3508 37.8562 63.4308 37.6162L62.7208 37.4962C62.3508 38.6162 61.6508 39.5562 60.6208 40.3362L61.0508 40.8962C61.4908 40.5662 61.8708 40.2062 62.2108 39.8162V42.8062H63.4908C62.9508 43.5262 62.1108 44.1162 60.9608 44.5762L61.3308 45.1862C61.8508 44.9462 62.3208 44.6762 62.7308 44.3962C63.2708 44.8662 63.8808 45.2662 64.5608 45.5962C63.5308 45.8962 62.2908 46.0762 60.8408 46.1362L61.1308 46.7662C62.8108 46.6662 64.2308 46.4062 65.4108 45.9662C66.5508 46.4062 67.8608 46.6562 69.3208 46.7262L69.4908 46.0662C68.3108 46.0262 67.2308 45.8662 66.2708 45.5862C67.0908 45.1662 67.7508 44.6462 68.2508 44.0062V43.4862H63.7708C63.9508 43.2662 64.1208 43.0462 64.2708 42.8062H68.2308V39.6462H62.3508C62.5208 39.4262 62.6808 39.1962 62.8308 38.9562ZM65.4208 45.3062C64.6108 44.9862 63.8908 44.5762 63.2508 44.0762H67.3608C66.8708 44.5662 66.2208 44.9762 65.4208 45.3062ZM67.5308 42.2262H62.9208V41.4862H67.5308V42.2262ZM62.9208 40.9462V40.2162H67.5308V40.9462H62.9208ZM72.5308 37.5862V40.6062H71.7608V38.3962H71.0708V40.6062H70.4908V41.3062H74.7108V40.6062H73.2308V39.4462H74.5908V38.7662H73.2308V37.5862H72.5308ZM74.1808 42.1462C73.7808 44.1162 72.5708 45.4162 70.5608 46.0362L70.9708 46.6862C73.0908 45.9862 74.3708 44.5162 74.8108 42.2862L74.1808 42.1462ZM71.3208 42.1862C71.1408 42.9962 70.8608 43.6462 70.5008 44.1362L71.0308 44.5962C71.4108 44.0962 71.7108 43.3762 71.9508 42.4362L71.3208 42.1862ZM72.5108 41.6962V44.3062H73.2008V41.6962H72.5108ZM74.8708 37.9862V38.6662H76.8308C76.8008 39.0462 76.7608 39.4062 76.7008 39.7662H75.2308V44.5162H75.9208V40.4362H78.5108V44.5162H79.2108V39.7662H77.4508C77.5008 39.4062 77.5408 39.0462 77.5708 38.6662H79.5708V37.9862H74.8708ZM77.9508 44.5662L77.4708 45.0262C78.1808 45.6462 78.7408 46.2362 79.1508 46.7862L79.6808 46.2562C79.2108 45.6962 78.6308 45.1362 77.9508 44.5662ZM76.8408 41.0362V42.8062C76.8208 43.6662 76.6408 44.3562 76.3108 44.8962C75.9608 45.3962 75.3408 45.8062 74.4508 46.1262L74.8508 46.7462C75.7908 46.4162 76.4608 45.9562 76.8708 45.3662C77.2908 44.7262 77.5208 43.8762 77.5408 42.8062V41.0362H76.8408ZM80.7508 38.4262V39.1062H84.4308C84.1108 39.7562 83.6908 40.2362 83.1708 40.5462L83.3108 41.1262C83.8908 41.0862 84.4508 41.0362 84.9908 40.9962C84.3708 41.6962 83.8408 42.1762 83.4008 42.4262L83.1408 42.4862L83.2808 43.1162C83.7608 43.0762 84.2208 43.0362 84.6808 42.9862V44.0662H80.6008V44.7562H84.6808V46.7962H85.4208V44.7562H89.5208V44.0662H85.4208V42.8962C85.7508 42.8562 86.0808 42.8062 86.4008 42.7462C86.4808 42.9562 86.5708 43.1862 86.6508 43.4262L87.3008 43.1362C87.0608 42.4762 86.7708 41.8562 86.4408 41.2762L85.8308 41.4762C85.9408 41.6962 86.0508 41.9362 86.1708 42.1962C85.5708 42.2962 84.9508 42.3862 84.3108 42.4662C85.0308 41.8662 85.8808 40.9562 86.8408 39.7362L86.2008 39.4762C85.9608 39.7962 85.7308 40.0962 85.5008 40.3862L84.1908 40.5062C84.5508 40.1462 84.8808 39.6762 85.1708 39.1062H89.3508V38.4262H85.4108C85.2708 38.0662 85.1208 37.7562 84.9608 37.4762L84.2308 37.5962C84.4008 37.8462 84.5508 38.1262 84.6908 38.4262H80.7508ZM82.4208 41.4362C81.9508 41.9862 81.4208 42.4662 80.8408 42.8762L81.3208 43.4162C81.8908 42.9962 82.4408 42.4762 82.9608 41.8362L82.4208 41.4362ZM81.4308 39.4462L80.9308 39.9262C81.5308 40.3562 82.0108 40.7662 82.3508 41.1562L82.8508 40.6562C82.4708 40.2562 81.9908 39.8462 81.4308 39.4462ZM87.7008 41.4362L87.2408 41.8762C87.8808 42.4162 88.3808 42.9362 88.7408 43.4162L89.2608 42.8962C88.8408 42.4162 88.3208 41.9262 87.7008 41.4362ZM88.4808 39.4162C88.0908 39.8762 87.6608 40.2862 87.1808 40.6362L87.6308 41.1562C88.1208 40.7962 88.5908 40.3562 89.0408 39.8262L88.4808 39.4162ZM92.5508 39.6662C92.3708 39.6662 92.2308 39.7262 92.1108 39.8562C91.9908 39.9662 91.9408 40.1062 91.9408 40.2862C91.9408 40.4562 91.9908 40.5962 92.1108 40.7162C92.2308 40.8362 92.3708 40.8962 92.5508 40.8962C92.7208 40.8962 92.8708 40.8362 92.9908 40.7162C93.1108 40.5962 93.1708 40.4562 93.1708 40.2862C93.1708 40.1062 93.1108 39.9662 92.9908 39.8562C92.8708 39.7262 92.7208 39.6662 92.5508 39.6662ZM92.5508 43.3262C92.3708 43.3262 92.2308 43.3862 92.1108 43.5162C91.9908 43.6262 91.9408 43.7662 91.9408 43.9462C91.9408 44.1162 91.9908 44.2562 92.1108 44.3762C92.2308 44.4962 92.3708 44.5562 92.5508 44.5562C92.7208 44.5562 92.8708 44.4962 92.9908 44.3762C93.1108 44.2562 93.1708 44.1162 93.1708 43.9462C93.1708 43.7662 93.1108 43.6262 92.9908 43.5162C92.8708 43.3862 92.7208 43.3262 92.5508 43.3262Z" fill="black"/>
<rect x="164.937" y="30.9113" width="87.2078" height="23.1891" rx="3.0831" stroke="#FFECCB" stroke-width="0.880886"/>
<rect x="257.429" y="30.9113" width="87.2078" height="23.1891" rx="3.0831" stroke="#FFECCB" stroke-width="0.880886"/>
<path d="M270.427 40.5462V46.7462H271.167V40.5462H270.427ZM270.477 37.5962C269.467 39.0962 268.027 40.3262 266.157 41.2762L266.587 41.9262C268.287 41.0662 269.687 39.8462 270.797 38.2662C271.717 39.7062 273.127 40.9062 275.007 41.8862L275.437 41.2362C273.397 40.1862 271.957 38.9762 271.117 37.5962H270.477ZM278.927 41.0962H283.197V42.8962H278.927V41.0962ZM283.197 40.4262H278.927V38.6762H283.197V40.4262ZM278.887 43.5662H283.197V45.5562C283.197 45.8462 283.077 45.9962 282.847 45.9962C282.467 45.9962 282.047 45.9762 281.587 45.9562L281.787 46.6662H283.077C283.637 46.6662 283.927 46.3762 283.927 45.8062V37.9862H278.197V42.8662C278.177 44.2462 277.847 45.3862 277.187 46.2862L277.737 46.7862C278.387 45.9362 278.767 44.8662 278.887 43.5662Z" fill="black"/>
<path d="M239.162 44.2615L235.856 40.9554C235.653 40.7526 235.324 40.7526 235.121 40.9554C234.918 41.1583 234.918 41.4872 235.121 41.6901L238.794 45.3635C238.997 45.5663 239.326 45.5663 239.529 45.3635L243.202 41.6901C243.405 41.4872 243.405 41.1583 243.202 40.9554C242.999 40.7526 242.671 40.7526 242.468 40.9554L239.162 44.2615Z" fill="#989898"/>
<path d="M334.298 44.2615L330.992 40.9554C330.789 40.7526 330.461 40.7526 330.258 40.9554C330.055 41.1583 330.055 41.4872 330.258 41.6901L333.931 45.3635C334.134 45.5663 334.463 45.5663 334.666 45.3635L338.339 41.6901C338.542 41.4872 338.542 41.1583 338.339 40.9554C338.136 40.7526 337.807 40.7526 337.604 40.9554L334.298 44.2615Z" fill="#989898"/>
<path d="M180.311 39.1362H186.861V38.4462H180.701C180.821 38.2062 180.941 37.9462 181.061 37.6862L180.331 37.5162C179.781 38.7762 179.081 39.7862 178.221 40.5662L178.681 41.1262C179.301 40.5662 179.841 39.8962 180.311 39.1362ZM181.921 43.1462L181.591 43.6162C182.271 43.8562 182.941 44.1862 183.601 44.6062L183.941 44.0862C183.331 43.7162 182.661 43.4062 181.921 43.1462ZM179.371 45.3262H185.211C185.191 45.4662 185.181 45.5662 185.161 45.6062C185.071 45.8262 184.931 45.9762 184.751 46.0462C184.571 46.0962 184.361 46.1262 184.121 46.1262C183.741 46.1262 183.311 46.1062 182.831 46.0862L183.051 46.7562C183.491 46.7562 183.891 46.7462 184.231 46.7462C184.711 46.7462 185.081 46.6762 185.321 46.5362C185.581 46.3762 185.751 46.1462 185.841 45.8362C185.861 45.7562 185.891 45.5862 185.911 45.3262H187.061V44.6562H185.961C185.981 44.2162 186.011 43.6462 186.041 42.9462H187.331V42.2662H186.071L186.141 39.9662H179.931C179.911 40.7362 179.871 41.5062 179.801 42.2662H178.111V42.9462H179.731C179.641 43.7462 179.521 44.5462 179.371 45.3262ZM185.271 44.6562H180.201C180.301 44.1362 180.381 43.5662 180.451 42.9462H185.351C185.321 43.6462 185.291 44.2162 185.271 44.6562ZM180.521 42.2662C180.561 41.7562 180.591 41.2162 180.611 40.6362H185.421C185.401 41.2262 185.391 41.7662 185.371 42.2662H183.671L184.001 41.7662C183.401 41.3962 182.731 41.0862 182.001 40.8262L181.671 41.3062C182.331 41.5462 182.991 41.8662 183.631 42.2662H180.521ZM193.341 38.6162C193.101 38.8862 192.821 39.1262 192.481 39.3462C192.141 39.5462 191.801 39.6862 191.481 39.7762V40.5962C192.151 40.3962 192.711 40.0762 193.161 39.6162V45.7562H193.981V38.6162H193.341Z" fill="black"/>
<rect x="257.657" y="58.4343" width="87.1313" height="131.172" rx="3.0404" fill="white" stroke="#FFECCB" stroke-width="0.868687"/>
<rect x="263.051" y="129" width="77" height="23" rx="4" fill="#FFF4E6"/>
<path d="M272.752 104.907V105.737H270.932V106.337H272.752V107.327H270.632V107.957H275.582V107.327H273.452V106.337H275.252V105.737H273.452V104.907H272.752ZM276.872 103.927H269.382V107.967C269.362 109.677 269.082 111.087 268.542 112.197L269.082 112.687C269.742 111.467 270.082 109.867 270.102 107.907V104.597H276.162V111.577C276.162 111.837 276.022 111.977 275.742 111.977C275.352 111.977 274.932 111.967 274.482 111.947L274.672 112.627H275.962C276.562 112.627 276.872 112.357 276.872 111.827V103.927ZM271.042 108.717V111.207H275.082V108.717H271.042ZM274.392 110.577H271.742V109.327H274.392V110.577Z" fill="black"/>
<path d="M268.782 74.9255V75.6155H272.262C272.092 76.2755 271.882 76.8255 271.622 77.2655C270.992 78.3255 269.932 79.2355 268.442 79.9955L268.892 80.5855C270.492 79.7355 271.622 78.7155 272.302 77.5355C272.562 77.0755 272.772 76.4955 272.942 75.8155C273.652 77.8755 275.032 79.4655 277.092 80.5855L277.542 80.0055C275.582 78.9855 274.252 77.5155 273.552 75.6155H277.232V74.9255H273.132C273.252 74.2455 273.332 73.4855 273.392 72.6255H276.942V71.9255H269.042V72.6255H272.662C272.612 73.4755 272.532 74.2455 272.412 74.9255H268.782Z" fill="black"/>
<path d="M272.622 138.628V144.828H273.362V138.628H272.622ZM272.672 135.678C271.662 137.178 270.222 138.408 268.352 139.358L268.782 140.008C270.482 139.148 271.882 137.928 272.992 136.348C273.912 137.788 275.322 138.988 277.202 139.968L277.632 139.318C275.592 138.268 274.152 137.058 273.312 135.678H272.672ZM281.122 139.178H285.392V140.978H281.122V139.178ZM285.392 138.508H281.122V136.758H285.392V138.508ZM281.082 141.648H285.392V143.638C285.392 143.928 285.272 144.078 285.042 144.078C284.662 144.078 284.242 144.058 283.782 144.038L283.982 144.748H285.272C285.832 144.748 286.122 144.458 286.122 143.888V136.068H280.392V140.948C280.372 142.328 280.042 143.468 279.382 144.368L279.932 144.868C280.582 144.018 280.962 142.948 281.082 141.648Z" fill="black"/>
<path d="M270.512 169.63H273.202V171.23H270.232V174.08H268.582V174.78H273.202V177.01H273.932V174.78H277.392V174.08H273.932V171.92H276.722V171.23H273.932V169.63H277.072V168.93H270.862C271.002 168.59 271.132 168.24 271.242 167.86L270.492 167.72C270.142 169.02 269.462 170.05 268.452 170.81L268.932 171.41C269.572 170.93 270.092 170.34 270.512 169.63ZM270.952 174.08V171.92H273.202V174.08H270.952Z" fill="black"/>
<rect x="50.0508" y="33" width="52" height="18" rx="3.52355" fill="#F0F0F0"/>
<rect width="396" height="220" rx="8" stroke="#FFD792" stroke-width="2"/>
</g>
</svg>
