<svg width="30" height="30" viewBox="0 0 30 30" fill="none" xmlns="http://www.w3.org/2000/svg">
<mask id="path-1-inside-1_317_63763" fill="white">
<path fill-rule="evenodd" clip-rule="evenodd" d="M3.00702 7.61538L5.15782 21.2933H24.9764L27.4152 7.62176C27.4856 7.22714 27.1307 6.88851 26.7398 6.97735L21.044 8.27185C20.8765 8.30992 20.7011 8.25932 20.5797 8.13783L15.6058 3.16402C15.3913 2.94949 15.045 2.94481 14.8247 3.15347L9.55386 8.14692C9.43129 8.26303 9.25841 8.30945 9.09417 8.27035L3.68993 6.98362C3.30238 6.89135 2.94513 7.22183 3.00702 7.61538ZM5.34721 22.2222L5.87736 24.6079C5.92819 24.8366 6.1311 24.9994 6.36545 24.9994H23.7694C24.0038 24.9994 24.2067 24.8366 24.2575 24.6079L24.7877 22.2222H5.34721Z"/>
</mask>
<path fill-rule="evenodd" clip-rule="evenodd" d="M3.00702 7.61538L5.15782 21.2933H24.9764L27.4152 7.62176C27.4856 7.22714 27.1307 6.88851 26.7398 6.97735L21.044 8.27185C20.8765 8.30992 20.7011 8.25932 20.5797 8.13783L15.6058 3.16402C15.3913 2.94949 15.045 2.94481 14.8247 3.15347L9.55386 8.14692C9.43129 8.26303 9.25841 8.30945 9.09417 8.27035L3.68993 6.98362C3.30238 6.89135 2.94513 7.22183 3.00702 7.61538ZM5.34721 22.2222L5.87736 24.6079C5.92819 24.8366 6.1311 24.9994 6.36545 24.9994H23.7694C24.0038 24.9994 24.2067 24.8366 24.2575 24.6079L24.7877 22.2222H5.34721Z" fill="url(#paint0_linear_317_63763)"/>
<path d="M5.15782 21.2933L4.66389 21.371L4.7303 21.7933H5.15782V21.2933ZM3.00702 7.61538L2.51309 7.69305L3.00702 7.61538ZM24.9764 21.2933V21.7933H25.3951L25.4686 21.3812L24.9764 21.2933ZM27.4152 7.62176L26.923 7.53396V7.53396L27.4152 7.62176ZM26.7398 6.97735L26.8506 7.46491L26.7398 6.97735ZM21.044 8.27185L20.9332 7.78428L21.044 8.27185ZM20.5797 8.13783L20.2261 8.49139L20.2261 8.49139L20.5797 8.13783ZM15.6058 3.16402L15.2523 3.51757V3.51757L15.6058 3.16402ZM14.8247 3.15347L14.4809 2.79049V2.79049L14.8247 3.15347ZM9.55386 8.14692L9.20998 7.78394H9.20998L9.55386 8.14692ZM9.09417 8.27035L8.97836 8.75675H8.97836L9.09417 8.27035ZM3.68993 6.98362L3.57412 7.47003H3.57412L3.68993 6.98362ZM5.87736 24.6079L6.36545 24.4994L5.87736 24.6079ZM5.34721 22.2222V21.7222H4.7239L4.85911 22.3306L5.34721 22.2222ZM24.2575 24.6079L23.7694 24.4994V24.4994L24.2575 24.6079ZM24.7877 22.2222L25.2758 22.3306L25.411 21.7222H24.7877V22.2222ZM5.65175 21.2157L3.50095 7.53771L2.51309 7.69305L4.66389 21.371L5.65175 21.2157ZM24.9764 20.7933H5.15782V21.7933H24.9764V20.7933ZM26.923 7.53396L24.4841 21.2055L25.4686 21.3812L27.9075 7.70957L26.923 7.53396ZM26.8506 7.46491C26.8925 7.45539 26.9305 7.49168 26.923 7.53396L27.9075 7.70957C28.0407 6.9626 27.3689 6.32162 26.629 6.48978L26.8506 7.46491ZM21.1548 8.75941L26.8506 7.46491L26.629 6.48978L20.9332 7.78428L21.1548 8.75941ZM20.2261 8.49139C20.4691 8.73436 20.8198 8.83556 21.1548 8.75941L20.9332 7.78428L20.9332 7.78428L20.2261 8.49139ZM15.2523 3.51757L20.2261 8.49139L20.9332 7.78428L15.9594 2.81047L15.2523 3.51757ZM15.1686 3.51644C15.1922 3.49409 15.2293 3.49459 15.2523 3.51757L15.9594 2.81047C15.5533 2.4044 14.8977 2.39554 14.4809 2.79049L15.1686 3.51644ZM9.89773 8.5099L15.1686 3.51644L14.4809 2.79049L9.20998 7.78394L9.89773 8.5099ZM8.97836 8.75675C9.30684 8.83496 9.6526 8.74212 9.89773 8.5099L9.20998 7.78394L8.97836 8.75675ZM3.57412 7.47003L8.97836 8.75675L9.20998 7.78394L3.80574 6.49722L3.57412 7.47003ZM3.50095 7.53771C3.49432 7.49555 3.53259 7.46014 3.57412 7.47003L3.80574 6.49722C3.07216 6.32256 2.39595 6.94812 2.51309 7.69305L3.50095 7.53771ZM6.36545 24.4994L5.8353 22.1137L4.85911 22.3306L5.38926 24.7163L6.36545 24.4994ZM6.36545 24.4994H6.36545L5.38926 24.7163C5.49094 25.1739 5.89675 25.4994 6.36545 25.4994V24.4994ZM23.7694 24.4994H6.36545V25.4994H23.7694V24.4994ZM23.7694 24.4994L23.7694 24.4994V25.4994C24.2381 25.4994 24.644 25.1739 24.7456 24.7163L23.7694 24.4994ZM24.2996 22.1137L23.7694 24.4994L24.7456 24.7163L25.2758 22.3306L24.2996 22.1137ZM5.34721 22.7222H24.7877V21.7222H5.34721V22.7222Z" fill="url(#paint1_linear_317_63763)" mask="url(#path-1-inside-1_317_63763)"/>
<g filter="url(#filter0_d_317_63763)">
<mask id="path-3-outside-2_317_63763" maskUnits="userSpaceOnUse" x="10.5156" y="10.5" width="9" height="9" fill="black">
<rect fill="white" x="10.5156" y="10.5" width="9" height="9"/>
<path fill-rule="evenodd" clip-rule="evenodd" d="M11.7156 11.5C11.6052 11.5 11.5156 11.5895 11.5156 11.7V13.2999C11.5156 13.4104 11.6052 13.4999 11.7156 13.4999H14.2598V18.8C14.2598 18.9105 14.3493 19 14.4598 19H16.0597C16.1701 19 16.2597 18.9105 16.2597 18.8V13.4999H18.8153C18.9257 13.4999 19.0153 13.4104 19.0153 13.2999V11.7C19.0153 11.5895 18.9257 11.5 18.8153 11.5H11.7156Z"/>
</mask>
<path fill-rule="evenodd" clip-rule="evenodd" d="M11.7156 11.5C11.6052 11.5 11.5156 11.5895 11.5156 11.7V13.2999C11.5156 13.4104 11.6052 13.4999 11.7156 13.4999H14.2598V18.8C14.2598 18.9105 14.3493 19 14.4598 19H16.0597C16.1701 19 16.2597 18.9105 16.2597 18.8V13.4999H18.8153C18.9257 13.4999 19.0153 13.4104 19.0153 13.2999V11.7C19.0153 11.5895 18.9257 11.5 18.8153 11.5H11.7156Z" fill="white" fill-opacity="0.7" shape-rendering="crispEdges"/>
<path d="M14.2598 13.4999H14.4598V13.2999H14.2598V13.4999ZM16.2597 13.4999V13.2999H16.0597V13.4999H16.2597ZM11.7156 11.7V11.7V11.3C11.4947 11.3 11.3156 11.4791 11.3156 11.7H11.7156ZM11.7156 13.2999V11.7H11.3156V13.2999H11.7156ZM11.7156 13.2999H11.7156H11.3156C11.3156 13.5208 11.4947 13.6999 11.7156 13.6999V13.2999ZM14.2598 13.2999H11.7156V13.6999H14.2598V13.2999ZM14.4598 18.8V13.4999H14.0598V18.8H14.4598ZM14.4598 18.8H14.0598C14.0598 19.0209 14.2389 19.2 14.4598 19.2V18.8ZM16.0597 18.8H14.4598V19.2H16.0597V18.8ZM16.0597 18.8H16.0597V19.2C16.2806 19.2 16.4597 19.0209 16.4597 18.8H16.0597ZM16.0597 13.4999V18.8H16.4597V13.4999H16.0597ZM18.8153 13.2999H16.2597V13.6999H18.8153V13.2999ZM18.8153 13.2999V13.2999V13.6999C19.0362 13.6999 19.2153 13.5208 19.2153 13.2999H18.8153ZM18.8153 11.7V13.2999H19.2153V11.7H18.8153ZM18.8153 11.7H19.2153C19.2153 11.4791 19.0362 11.3 18.8153 11.3V11.7ZM11.7156 11.7H18.8153V11.3H11.7156V11.7Z" fill="#F2EEFF" mask="url(#path-3-outside-2_317_63763)"/>
</g>
<defs>
<filter id="filter0_d_317_63763" x="10.3125" y="10.2998" width="11.9062" height="11.9004" filterUnits="userSpaceOnUse" color-interpolation-filters="sRGB">
<feFlood flood-opacity="0" result="BackgroundImageFix"/>
<feColorMatrix in="SourceAlpha" type="matrix" values="0 0 0 0 0 0 0 0 0 0 0 0 0 0 0 0 0 0 127 0" result="hardAlpha"/>
<feOffset dx="1" dy="1"/>
<feGaussianBlur stdDeviation="1"/>
<feComposite in2="hardAlpha" operator="out"/>
<feColorMatrix type="matrix" values="0 0 0 0 0.423529 0 0 0 0 0.407843 0 0 0 0 0.960784 0 0 0 0.25 0"/>
<feBlend mode="normal" in2="BackgroundImageFix" result="effect1_dropShadow_317_63763"/>
<feBlend mode="normal" in="SourceGraphic" in2="effect1_dropShadow_317_63763" result="shape"/>
</filter>
<linearGradient id="paint0_linear_317_63763" x1="24.0117" y1="25.5234" x2="2.51172" y2="7.52344" gradientUnits="userSpaceOnUse">
<stop stop-color="#A274EE"/>
<stop offset="1" stop-color="#91B1FF"/>
</linearGradient>
<linearGradient id="paint1_linear_317_63763" x1="23.5117" y1="25.0234" x2="3" y2="7" gradientUnits="userSpaceOnUse">
<stop stop-color="#A783FF"/>
<stop offset="0.48958" stop-color="white"/>
<stop offset="1" stop-color="#A5BCFF"/>
</linearGradient>
</defs>
</svg>
