<svg width="62" height="59" viewBox="0 0 62 59" fill="none" xmlns="http://www.w3.org/2000/svg">
<g opacity="0.6">
<g opacity="0.8">
<path d="M0 4C0 1.79086 1.79086 0 4 0H42C44.2091 0 46 1.79086 46 4V55C46 57.2091 44.2091 59 42 59H19.1569C18.096 59 17.0786 58.5786 16.3284 57.8284L1.17157 42.6716C0.421429 41.9214 0 40.904 0 39.8431V4Z" fill="#ADF1EB"/>
<path opacity="0.8" d="M17.5 59L0 41.5H13.5C15.7091 41.5 17.5 43.2909 17.5 45.5V59Z" fill="#88DCD4"/>
<rect opacity="0.9" x="7" y="15" width="28" height="4" rx="2" fill="white"/>
<rect opacity="0.9" x="7" y="27" width="14" height="4" rx="2" fill="white"/>
</g>
<rect opacity="0.8" x="30" y="23" width="32" height="32" rx="4" fill="#1DD2C1"/>
<path fill-rule="evenodd" clip-rule="evenodd" d="M46.1873 40.3187L50.2312 44.3625L51.3625 43.2312L47.3187 39.1873L51.3746 35.1314L50.2433 34L46.1873 38.056L42.1314 34L41 35.1314L45.056 39.1873L41.0121 43.2312L42.1435 44.3625L46.1873 40.3187Z" fill="white"/>
<path d="M50.2312 44.3625L49.9837 44.61L50.2312 44.8575L50.4786 44.61L50.2312 44.3625ZM46.1873 40.3187L46.4348 40.0712L46.1873 39.8237L45.9398 40.0712L46.1873 40.3187ZM51.3625 43.2312L51.61 43.4786L51.8575 43.2312L51.61 42.9837L51.3625 43.2312ZM47.3187 39.1873L47.0712 38.9398L46.8237 39.1873L47.0712 39.4348L47.3187 39.1873ZM51.3746 35.1314L51.6221 35.3789L51.8696 35.1314L51.6221 34.8839L51.3746 35.1314ZM50.2433 34L50.4908 33.7525L50.2433 33.505L49.9958 33.7525L50.2433 34ZM46.1873 38.056L45.9398 38.3034L46.1873 38.5509L46.4348 38.3034L46.1873 38.056ZM42.1314 34L42.3789 33.7525L42.1314 33.505L41.8839 33.7525L42.1314 34ZM41 35.1314L40.7525 34.8839L40.505 35.1314L40.7525 35.3789L41 35.1314ZM45.056 39.1873L45.3034 39.4348L45.5509 39.1873L45.3034 38.9398L45.056 39.1873ZM41.0121 43.2312L40.7646 42.9837L40.5171 43.2312L40.7646 43.4786L41.0121 43.2312ZM42.1435 44.3625L41.896 44.61L42.1435 44.8575L42.391 44.61L42.1435 44.3625ZM50.4786 44.115L46.4348 40.0712L45.9398 40.5662L49.9837 44.61L50.4786 44.115ZM51.115 42.9837L49.9837 44.115L50.4786 44.61L51.61 43.4786L51.115 42.9837ZM47.0712 39.4348L51.115 43.4786L51.61 42.9837L47.5662 38.9398L47.0712 39.4348ZM47.5662 39.4348L51.6221 35.3789L51.1272 34.8839L47.0712 38.9398L47.5662 39.4348ZM51.6221 34.8839L50.4908 33.7525L49.9958 34.2475L51.1272 35.3789L51.6221 34.8839ZM49.9958 33.7525L45.9398 37.8085L46.4348 38.3034L50.4908 34.2475L49.9958 33.7525ZM41.8839 34.2475L45.9398 38.3034L46.4348 37.8085L42.3789 33.7525L41.8839 34.2475ZM41.2475 35.3789L42.3789 34.2475L41.8839 33.7525L40.7525 34.8839L41.2475 35.3789ZM45.3034 38.9398L41.2475 34.8839L40.7525 35.3789L44.8085 39.4348L45.3034 38.9398ZM44.8085 38.9398L40.7646 42.9837L41.2596 43.4786L45.3034 39.4348L44.8085 38.9398ZM40.7646 43.4786L41.896 44.61L42.391 44.115L41.2596 42.9837L40.7646 43.4786ZM42.391 44.61L46.4348 40.5662L45.9398 40.0712L41.896 44.115L42.391 44.61Z" fill="white"/>
</g>
</svg>
