<svg width="62" height="59" viewBox="0 0 62 59" fill="none" xmlns="http://www.w3.org/2000/svg">
<g opacity="0.6">
<g opacity="0.8">
<path d="M0 4C0 1.79086 1.79086 0 4 0H42C44.2091 0 46 1.79086 46 4V55C46 57.2091 44.2091 59 42 59H19.1569C18.096 59 17.0786 58.5786 16.3284 57.8284L1.17157 42.6716C0.421429 41.9214 0 40.904 0 39.8431V4Z" fill="#ADF1EB"/>
<path opacity="0.8" d="M17.5 59L0 41.5H13.5C15.7091 41.5 17.5 43.2909 17.5 45.5V59Z" fill="#88DCD4"/>
<rect opacity="0.9" x="7" y="15" width="28" height="4" rx="2" fill="white"/>
<rect opacity="0.9" x="7" y="27" width="14" height="4" rx="2" fill="white"/>
</g>
<rect opacity="0.8" x="30" y="23" width="32" height="32" rx="4" fill="#1DD2C1"/>
<path d="M45.7134 44.7658C42.3431 44.7658 39.6641 42.0867 39.6641 38.7164C39.6641 35.346 42.3431 32.667 45.7134 32.667C49.0838 32.667 51.7628 35.346 51.7628 38.7164C51.7628 42.0867 49.0838 44.7658 45.7134 44.7658ZM45.7134 43.0374C48.1332 43.0374 50.0344 41.1361 50.0344 38.7164C50.0344 36.2966 48.1332 34.3954 45.7134 34.3954C43.2937 34.3954 41.3925 36.2966 41.3925 38.7164C41.3925 41.1361 43.2937 43.0374 45.7134 43.0374ZM50.8122 43.0374L53.232 45.4571L52.0221 46.667L49.6023 44.2472L50.8122 43.0374Z" fill="white" stroke="white" stroke-width="0.3"/>
</g>
</svg>
