<svg width="16" height="16" viewBox="0 0 16 16" fill="none" xmlns="http://www.w3.org/2000/svg">
<path d="M5.14992 9.86341C5.27089 10.2263 5.51284 10.4683 5.87577 10.4683C6.2387 10.4683 6.48065 10.2263 6.60163 9.86341L7.08553 3.20976C7.08553 2.4839 6.48065 2 5.87577 2C5.14992 2 4.66602 2.60488 4.66602 3.33073L5.14992 9.86341ZM5.87577 11.678C5.14992 11.678 4.66602 12.162 4.66602 12.8878C4.66602 13.6137 5.14992 14.0976 5.87577 14.0976C6.60163 14.0976 7.08553 13.6137 7.08553 12.8878C7.08553 12.162 6.60163 11.678 5.87577 11.678Z" fill="currentColor"/>
<path d="M9.32179 9.86341C9.44277 10.2263 9.68472 10.4683 10.0476 10.4683C10.4106 10.4683 10.6525 10.2263 10.7735 9.86341L11.2574 3.20976C11.2574 2.4839 10.6525 2 10.0476 2C9.32179 2 8.83789 2.60488 8.83789 3.33073L9.32179 9.86341ZM10.0476 11.678C9.32179 11.678 8.83789 12.162 8.83789 12.8878C8.83789 13.6137 9.32179 14.0976 10.0476 14.0976C10.7735 14.0976 11.2574 13.6137 11.2574 12.8878C11.2574 12.162 10.7735 11.678 10.0476 11.678Z" fill="currentColor"/>
</svg>
