<svg width="16" height="16" viewBox="0 0 16 16" fill="none" xmlns="http://www.w3.org/2000/svg">
<path d="M2.4839 9.86341C2.60488 10.2263 2.84683 10.4683 3.20976 10.4683C3.57268 10.4683 3.81463 10.2263 3.93561 9.86341L4.41951 3.20976C4.41951 2.4839 3.81463 2 3.20976 2C2.4839 2 2 2.60488 2 3.33073L2.4839 9.86341ZM3.20976 11.678C2.4839 11.678 2 12.162 2 12.8878C2 13.6137 2.4839 14.0976 3.20976 14.0976C3.93561 14.0976 4.41951 13.6137 4.41951 12.8878C4.41951 12.162 3.93561 11.678 3.20976 11.678Z" fill="currentColor"/>
<path d="M7.56984 9.86341C7.69082 10.2263 7.93277 10.4683 8.29569 10.4683C8.65862 10.4683 8.90057 10.2263 9.02155 9.86341L9.50545 3.20976C9.50545 2.4839 8.90057 2 8.29569 2C7.56984 2 7.08594 2.60488 7.08594 3.33073L7.56984 9.86341ZM8.29569 11.678C7.56984 11.678 7.08594 12.162 7.08594 12.8878C7.08594 13.6137 7.56984 14.0976 8.29569 14.0976C9.02155 14.0976 9.50545 13.6137 9.50545 12.8878C9.50545 12.162 9.02155 11.678 8.29569 11.678Z" fill="currentColor"/>
<path d="M12.6558 9.86341C12.7768 10.2263 13.0187 10.4683 13.3816 10.4683C13.7446 10.4683 13.9865 10.2263 14.1075 9.86341L14.5914 3.20976C14.5914 2.4839 13.9865 2 13.3816 2C12.6558 2 12.1719 2.60488 12.1719 3.33073L12.6558 9.86341ZM13.3816 11.678C12.6558 11.678 12.1719 12.162 12.1719 12.8878C12.1719 13.6137 12.6558 14.0976 13.3816 14.0976C14.1075 14.0976 14.5914 13.6137 14.5914 12.8878C14.5914 12.162 14.1075 11.678 13.3816 11.678Z" fill="currentColor"/>
</svg>
