<svg width="16" height="16" viewBox="0 0 16 16" fill="none" xmlns="http://www.w3.org/2000/svg">
<g clip-path="url(#clip0_2899_167566)">
<path d="M1.2642 9.37983C0.501872 8.6175 0.501872 7.38152 1.2642 6.6192L6.62017 1.26322C7.3825 0.500895 8.61848 0.500895 9.3808 1.26322L14.7368 6.6192C15.4991 7.38152 15.4991 8.6175 14.7368 9.37983L9.3808 14.7358C8.61848 15.4981 7.3825 15.4981 6.62017 14.7358L1.2642 9.37983Z" stroke="#8F959E" stroke-width="1.25"/>
<path d="M8 5V8.5" stroke="#8F959E" stroke-width="1.3" stroke-linecap="round" stroke-linejoin="round"/>
<path d="M8.70078 10.7C8.70078 11.0866 8.38738 11.4 8.00078 11.4C7.61418 11.4 7.30078 11.0866 7.30078 10.7C7.30078 10.3134 7.61418 10 8.00078 10C8.38738 10 8.70078 10.3134 8.70078 10.7Z" fill="#8F959E"/>
</g>
<defs>
<clipPath id="clip0_2899_167566">
<rect width="16" height="16" fill="white"/>
</clipPath>
</defs>
</svg>
