<svg width="46" height="46" viewBox="0 0 46 46" fill="none" xmlns="http://www.w3.org/2000/svg">
<rect width="46" height="46" rx="8" fill="#F7F4FF"/>
<path d="M9.39431 9.85712C8.81991 9.85712 8.26903 10.094 7.86286 10.5156C7.4567 10.9372 7.22852 11.509 7.22852 12.1052V33.8947C7.22852 35.1375 8.19924 36.1428 9.39431 36.1428H36.6056C37.18 36.1428 37.7309 35.906 38.137 35.4844C38.5432 35.0628 38.7714 34.491 38.7714 33.8947V12.1052C38.7714 11.81 38.7154 11.5177 38.6065 11.2449C38.4977 10.9722 38.3381 10.7243 38.137 10.5156C37.9359 10.3068 37.6972 10.1412 37.4344 10.0282C37.1716 9.91527 36.89 9.85712 36.6056 9.85712H9.39431ZM9.61644 15.6999V12.3358H36.3834V15.4486L22.9888 20.0832L9.61644 15.6999ZM23.011 22.6887L36.3834 18.061V33.6641H9.61644V18.2985L23.011 22.6887Z" fill="#9F80F2"/>
</svg>
