<svg width="70" height="70" viewBox="0 0 70 70" fill="none" xmlns="http://www.w3.org/2000/svg">
<rect width="70" height="70" rx="12" fill="#F0FFFD"/>
<path d="M14.2958 15C13.4217 15 12.5834 15.3604 11.9653 16.002C11.3472 16.6436 11 17.5137 11 18.4211V51.5789C11 53.4702 12.4772 55 14.2958 55H55.7042C56.5783 55 57.4166 54.6396 58.0347 53.998C58.6528 53.3564 59 52.4863 59 51.5789V18.4211C59 17.9718 58.9147 17.5269 58.7491 17.1119C58.5835 16.6968 58.3407 16.3197 58.0347 16.002C57.7286 15.6843 57.3653 15.4323 56.9655 15.2604C56.5656 15.0885 56.137 15 55.7042 15H14.2958ZM14.6338 23.8912V18.7719H55.3662V23.5088L34.9831 30.5614L14.6338 23.8912ZM35.0169 34.5263L55.3662 27.4842V51.2281H14.6338V27.8456L35.0169 34.5263Z" fill="#1DD2C1"/>
</svg>
