<svg width="10" height="10" viewBox="0 0 10 10" fill="none" xmlns="http://www.w3.org/2000/svg">
<path fill-rule="evenodd" clip-rule="evenodd" d="M4.92802 0.653564C4.68897 0.677821 4.47481 0.821086 4.36869 1.03778L3.42238 2.9814L1.24444 3.30244C0.989253 3.33996 0.771652 3.51488 0.68737 3.75653L0.667883 3.82363C0.615103 4.04867 0.683371 4.2849 0.850928 4.45037L2.44688 6.0269L2.07706 8.21262C2.03236 8.4725 2.14572 8.73071 2.36571 8.88046L2.43256 8.92052C2.63889 9.0288 2.8937 9.03003 3.10254 8.91905L4.99988 7.9079L6.89889 8.91963C7.12998 9.04241 7.41837 9.02689 7.63488 8.88055L7.69226 8.83702C7.87443 8.68351 7.96437 8.44869 7.92355 8.21207L7.55338 6.0269L9.14989 4.45073C9.33446 4.26846 9.3983 4.00059 9.31334 3.75627L9.28714 3.69176C9.18941 3.48285 8.98981 3.33665 8.75612 3.3024L6.57788 2.9819L5.63188 1.03847C5.51574 0.799729 5.26819 0.649902 5.0004 0.649902L4.92802 0.653564Z" fill="url(#paint0_linear_2855_6277)"/>
<defs>
<linearGradient id="paint0_linear_2855_6277" x1="0.650391" y1="8.67476" x2="9.02339" y2="0.636554" gradientUnits="userSpaceOnUse">
<stop stop-color="#FF8F00"/>
<stop offset="1" stop-color="#FFEE14"/>
</linearGradient>
</defs>
</svg>
