<svg width="14" height="12" viewBox="0 0 14 12" fill="none" xmlns="http://www.w3.org/2000/svg">
<path d="M11.8889 0.861328L1.61112 0.861328C1.46521 0.861326 1.32072 0.890065 1.18591 0.945902C1.05111 1.00174 0.928617 1.08358 0.82544 1.18676C0.722263 1.28994 0.640418 1.41242 0.584579 1.54723C0.52874 1.68204 0.5 1.82652 0.5 1.97243V8.91687C0.499998 9.06279 0.528737 9.20728 0.584575 9.34208C0.640414 9.47689 0.722258 9.59938 0.825436 9.70256C0.928613 9.80574 1.0511 9.88758 1.18591 9.94342C1.32072 9.99926 1.4652 10.028 1.61112 10.028H6.33332V11.0002H3.97221C3.86171 11.0002 3.75573 11.0441 3.67759 11.1222C3.59945 11.2004 3.55555 11.3064 3.55555 11.4169C3.55555 11.5274 3.59945 11.6334 3.67759 11.7115C3.75573 11.7896 3.86171 11.8335 3.97221 11.8335H9.52776C9.63827 11.8335 9.74425 11.7896 9.82239 11.7115C9.90053 11.6334 9.94443 11.5274 9.94443 11.4169C9.94443 11.3064 9.90053 11.2004 9.82239 11.1222C9.74425 11.0441 9.63827 11.0002 9.52776 11.0002H7.16665V10.028H11.8889C12.0348 10.028 12.1793 9.99926 12.3141 9.94342C12.4489 9.88758 12.5714 9.80574 12.6746 9.70256C12.7777 9.59938 12.8596 9.47689 12.9154 9.34208C12.9713 9.20728 13 9.06279 13 8.91687V1.97243C13 1.82652 12.9713 1.68204 12.9154 1.54723C12.8596 1.41242 12.7777 1.28994 12.6746 1.18676C12.5714 1.08358 12.4489 1.00174 12.3141 0.945902C12.1793 0.890065 12.0348 0.861326 11.8889 0.861328ZM12.1667 8.91687C12.1667 8.95335 12.1595 8.98948 12.1455 9.02318C12.1316 9.05688 12.1111 9.08751 12.0853 9.1133C12.0595 9.1391 12.0289 9.15956 11.9952 9.17352C11.9615 9.18748 11.9254 9.19466 11.8889 9.19466H1.61112C1.57464 9.19466 1.53852 9.18748 1.50481 9.17352C1.47111 9.15956 1.44049 9.1391 1.41469 9.1133C1.3889 9.08751 1.36843 9.05688 1.35448 9.02318C1.34052 8.98948 1.33333 8.95335 1.33333 8.91687V1.97243C1.33333 1.93596 1.34052 1.89983 1.35448 1.86613C1.36844 1.83243 1.3889 1.80181 1.4147 1.77601C1.44049 1.75022 1.47111 1.72976 1.50482 1.7158C1.53852 1.70184 1.57464 1.69466 1.61112 1.69466H11.8889C11.9254 1.69466 11.9615 1.70184 11.9952 1.7158C12.0289 1.72976 12.0595 1.75022 12.0853 1.77601C12.1111 1.80181 12.1316 1.83243 12.1455 1.86613C12.1595 1.89983 12.1667 1.93596 12.1667 1.97243V8.91687Z" fill="#92929D" stroke="#92929D" stroke-width="0.3"/>
<path d="M12.4445 6.97217H1.33341C1.22291 6.97217 1.11693 7.01607 1.03879 7.09421C0.960647 7.17235 0.916748 7.27833 0.916748 7.38883C0.916748 7.49934 0.960647 7.60532 1.03879 7.68346C1.11693 7.7616 1.22291 7.8055 1.33341 7.8055H12.4445C12.555 7.8055 12.661 7.7616 12.7392 7.68346C12.8173 7.60532 12.8612 7.49934 12.8612 7.38883C12.8612 7.27833 12.8173 7.17235 12.7392 7.09421C12.661 7.01607 12.555 6.97217 12.4445 6.97217Z" fill="#92929D" stroke="#92929D" stroke-width="0.3"/>
</svg>
