<svg width="9" height="8" viewBox="0 0 9 8" fill="none" xmlns="http://www.w3.org/2000/svg">
<path d="M0.50152 0C0.64 0 0.75736 0.04832 0.85432 0.14336L4.36304 3.64416C4.46264 3.7424 4.512 3.8624 4.512 3.9992C4.512 4.1376 4.46256 4.2576 4.36296 4.35592L0.85416 7.85496C0.75744 7.95168 0.64016 8 0.50152 8C0.3632 8 0.24504 7.95168 0.14728 7.85328C0.04928 7.75664 0.00032 7.63824 0 7.5C0 7.35824 0.04816 7.23992 0.14456 7.14488L3.29752 3.99928L0.14456 0.85528C0.04816 0.7584 0 0.64016 0 0.4984C0 0.35504 0.04728 0.2368 0.14288 0.14168C0.23832 0.04664 0.35792 0 0.50152 0ZM4.50944 0C4.64784 0 4.76528 0.04832 4.86224 0.14336L8.37096 3.64416C8.4704 3.7424 8.52 3.8624 8.52 3.9992C8.52 4.1376 8.4704 4.2576 8.37096 4.35592L4.86216 7.85496C4.76528 7.95168 4.64776 8 4.50936 8C4.37104 8 4.25272 7.95168 4.15512 7.85328C4.05704 7.75664 4.00824 7.63824 4.00792 7.49992C4.00792 7.35816 4.056 7.23984 4.15248 7.1448L7.30544 3.9992L4.15248 0.8552C4.056 0.7584 4.00792 0.64016 4.00792 0.4984C4.00792 0.35504 4.05512 0.23672 4.1508 0.14168C4.24624 0.04664 4.36592 0 4.50944 0Z" fill="#363636"/>
</svg>
