<svg width="81" height="65" viewBox="0 0 81 65" fill="none" xmlns="http://www.w3.org/2000/svg">
<path d="M0 4.59016C0 2.05509 2.05509 0 4.59016 0H76.4098C78.9449 0 81 2.05509 81 4.59016V60.4098C81 62.9449 78.9449 65 76.4098 65H4.59016C2.05509 65 0 62.9449 0 60.4098V4.59016Z" fill="#BEBEBE"/>
<path d="M13.4833 15.6422H17.4951L17.5477 15.6434C18.0798 15.6683 18.5037 16.1079 18.5037 16.6463V20.6582L18.5026 20.7108C18.4777 21.2428 18.0381 21.6668 17.4996 21.6668H13.4878L13.4352 21.6657C12.9031 21.6408 12.4792 21.2012 12.4792 20.6627V16.6509L12.4803 16.5983C12.5052 16.0662 12.9448 15.6422 13.4833 15.6422Z" stroke="white" stroke-width="0.860656"/>
<path d="M24.6719 17.5069C24.6719 16.8731 25.1856 16.3594 25.8194 16.3594H46.426C47.0597 16.3594 47.5735 16.8731 47.5735 17.5069V19.2282C47.5735 19.862 47.0597 20.3758 46.426 20.3758H25.8194C25.1856 20.3758 24.6719 19.862 24.6719 19.2282V17.5069Z" fill="white"/>
<path d="M21.5165 31.1344H25.5283L25.5809 31.1356C26.113 31.1605 26.5369 31.6001 26.5369 32.1385V36.1503L26.5358 36.203C26.5109 36.735 26.0713 37.159 25.5329 37.159H21.521L21.4684 37.1579C20.9363 37.133 20.5124 36.6934 20.5124 36.1549V32.1431L20.5135 32.0905C20.5384 31.5584 20.978 31.1344 21.5165 31.1344Z" stroke="white" stroke-width="0.860656"/>
<path d="M20.0824 34.7206H17.7873C16.5197 34.7206 15.4922 33.6931 15.4922 32.4255V22.0977" stroke="white" stroke-width="0.573771"/>
<path d="M32.7051 34.1466C32.7051 33.5128 33.2188 32.999 33.8526 32.999H46.4264C47.0602 32.999 47.5739 33.5128 47.5739 34.1466V35.8679C47.5739 36.5016 47.0602 37.0154 46.4264 37.0154H33.8526C33.2189 37.0154 32.7051 36.5016 32.7051 35.8679V34.1466Z" fill="white"/>
<rect x="52" y="32.999" width="15.4918" height="4.01639" rx="1.14754" fill="white"/>
<path d="M29.5497 46.6266H33.5615L33.6141 46.6277C34.1462 46.6526 34.5702 47.0923 34.5702 47.6307V51.6425L34.569 51.6952C34.5441 52.2272 34.1045 52.6512 33.5661 52.6512H29.5542L29.5016 52.6501C28.9695 52.6252 28.5456 52.1855 28.5456 51.6471V47.6353L28.5467 47.5827C28.5716 47.0506 29.0112 46.6266 29.5497 46.6266Z" stroke="white" stroke-width="0.860656"/>
<path d="M28.1156 50.2128H25.8205C24.5529 50.2128 23.5254 49.1853 23.5254 47.9177V37.5898" stroke="white" stroke-width="0.573771"/>
<path d="M40.7383 49.6388C40.7383 49.005 41.2521 48.4912 41.8858 48.4912H45.2793C45.913 48.4912 46.4268 49.005 46.4268 49.6388V51.3601C46.4268 51.9938 45.913 52.5076 45.2793 52.5076H41.8858C41.2521 52.5076 40.7383 51.9938 40.7383 51.3601V49.6388Z" fill="white"/>
<rect x="52" y="48.4912" width="15.4918" height="4.01639" rx="1.14754" fill="white"/>
<rect x="52" y="16.3604" width="15.4918" height="4.01639" rx="1.14754" fill="white"/>
</svg>
