<svg width="81" height="65" viewBox="0 0 81 65" fill="none" xmlns="http://www.w3.org/2000/svg">
<path d="M0 4.59016C0 2.05509 2.05509 0 4.59016 0H76.4098C78.9449 0 81 2.05509 81 4.59016V60.4098C81 62.9449 78.9449 65 76.4098 65H4.59016C2.05509 65 0 62.9449 0 60.4098V4.59016Z" fill="#1DD2C1"/>
<path d="M13.4833 15.6422H17.4951L17.5477 15.6434C18.0798 15.6683 18.5037 16.1079 18.5037 16.6463V20.6582L18.5026 20.7108C18.4777 21.2428 18.0381 21.6668 17.4996 21.6668H13.4878L13.4352 21.6657C12.9031 21.6408 12.4792 21.2012 12.4792 20.6627V16.6509L12.4803 16.5983C12.5052 16.0662 12.9448 15.6422 13.4833 15.6422Z" stroke="white" stroke-width="0.860656"/>
<path d="M24.6719 17.5069C24.6719 16.8731 25.1856 16.3594 25.8194 16.3594H46.426C47.0597 16.3594 47.5735 16.8731 47.5735 17.5069V19.2282C47.5735 19.862 47.0597 20.3758 46.426 20.3758H25.8194C25.1856 20.3758 24.6719 19.862 24.6719 19.2282V17.5069Z" fill="#F9F9F9"/>
<rect x="52" y="16.3604" width="15.4918" height="4.01639" rx="1.14754" fill="#F9F9F9"/>
<path d="M13.4833 30.6422H17.4951L17.5477 30.6434C18.0798 30.6683 18.5037 31.1079 18.5037 31.6463V35.6582L18.5026 35.7108C18.4777 36.2428 18.0381 36.6668 17.4996 36.6668H13.4878L13.4352 36.6657C12.9031 36.6408 12.4792 36.2012 12.4792 35.6627V31.6509L12.4803 31.5983C12.5052 31.0662 12.9448 30.6422 13.4833 30.6422Z" stroke="white" stroke-width="0.860656"/>
<path d="M24.6719 32.5069C24.6719 31.8731 25.1856 31.3594 25.8194 31.3594H46.426C47.0597 31.3594 47.5735 31.8731 47.5735 32.5069V34.2282C47.5735 34.862 47.0597 35.3758 46.426 35.3758H25.8194C25.1856 35.3758 24.6719 34.862 24.6719 34.2282V32.5069Z" fill="#F9F9F9"/>
<rect x="52" y="31.3604" width="15.4918" height="4.01639" rx="1.14754" fill="#F9F9F9"/>
<path d="M13.4833 46.6422H17.4951L17.5477 46.6434C18.0798 46.6683 18.5037 47.1079 18.5037 47.6463V51.6582L18.5026 51.7108C18.4777 52.2428 18.0381 52.6668 17.4996 52.6668H13.4878L13.4352 52.6657C12.9031 52.6408 12.4792 52.2012 12.4792 51.6627V47.6509L12.4803 47.5983C12.5052 47.0662 12.9448 46.6422 13.4833 46.6422Z" stroke="white" stroke-width="0.860656"/>
<path d="M24.6719 48.5069C24.6719 47.8731 25.1856 47.3594 25.8194 47.3594H46.426C47.0597 47.3594 47.5735 47.8731 47.5735 48.5069V50.2282C47.5735 50.862 47.0597 51.3758 46.426 51.3758H25.8194C25.1856 51.3758 24.6719 50.862 24.6719 50.2282V48.5069Z" fill="#F9F9F9"/>
<rect x="52" y="47.3604" width="15.4918" height="4.01639" rx="1.14754" fill="#F9F9F9"/>
</svg>
