<svg width="9" height="8" viewBox="0 0 9 8" fill="none" xmlns="http://www.w3.org/2000/svg">
<path d="M8.02192 0C7.88344 0 7.76608 0.04832 7.66912 0.14336L4.1604 3.64416C4.0608 3.7424 4.01144 3.8624 4.01144 3.9992C4.01144 4.1376 4.06088 4.2576 4.16048 4.35592L7.66928 7.85496C7.766 7.95168 7.88328 8 8.02192 8C8.16024 8 8.2784 7.95168 8.37616 7.85328C8.47416 7.75664 8.52312 7.63824 8.52344 7.5C8.52344 7.35824 8.47528 7.23992 8.37888 7.14488L5.22592 3.99928L8.37888 0.85528C8.47528 0.7584 8.52344 0.64016 8.52344 0.4984C8.52344 0.35504 8.47616 0.2368 8.38056 0.14168C8.28512 0.04664 8.16552 0 8.02192 0ZM4.014 0C3.8756 0 3.75816 0.04832 3.6612 0.14336L0.152478 3.64416C0.0530386 3.7424 0.00343704 3.8624 0.00343704 3.9992C0.00343704 4.1376 0.0530386 4.2576 0.152478 4.35592L3.66128 7.85496C3.75816 7.95168 3.87568 8 4.01408 8C4.1524 8 4.27072 7.95168 4.36832 7.85328C4.4664 7.75664 4.5152 7.63824 4.51552 7.49992C4.51552 7.35816 4.46744 7.23984 4.37096 7.1448L1.218 3.9992L4.37096 0.8552C4.46744 0.7584 4.51552 0.64016 4.51552 0.4984C4.51552 0.35504 4.46832 0.23672 4.37264 0.14168C4.2772 0.04664 4.15752 0 4.014 0Z" fill="#363636"/>
</svg>
