<svg width="15" height="15" viewBox="0 0 15 15" fill="none" xmlns="http://www.w3.org/2000/svg">
<path d="M14.0608 5.62493V2.81152C14.0608 1.77599 13.2213 0.936523 12.1858 0.936523H2.81249C1.77697 0.936523 0.9375 1.77599 0.9375 2.81152V12.1848C0.9375 13.2204 1.77697 14.0598 2.81249 14.0598H12.1858C13.2213 14.0598 14.0608 13.2204 14.0608 12.1848V5.62493ZM2.14929 2.14831C2.23631 2.06084 2.33981 1.99148 2.4538 1.94425C2.56779 1.89702 2.69001 1.87286 2.81339 1.87315H12.1884C12.3115 1.87329 12.4334 1.89771 12.5471 1.94501C12.6608 1.99231 12.7641 2.06155 12.851 2.14879C12.9379 2.23602 13.0068 2.33953 13.0536 2.45341C13.1005 2.56728 13.1245 2.68927 13.1242 2.81242V4.68831H1.87412V2.81242C1.87383 2.68903 1.898 2.56681 1.94523 2.45282C1.99246 2.33883 2.06182 2.23534 2.14929 2.14831ZM6.09158 8.90576V5.62493H8.90674V8.90576H6.09158ZM8.90674 9.84239V13.1232H6.09158V9.84239H8.90674ZM5.15495 8.90576H1.87412V5.62493H5.15495V8.90576ZM2.14929 12.8496C2.06186 12.763 1.99252 12.6598 1.94528 12.5461C1.89805 12.4324 1.87386 12.3105 1.87412 12.1874V9.84239H5.15495V13.1232H2.81339C2.6901 13.1238 2.56792 13.0999 2.45393 13.053C2.33993 13.006 2.23639 12.9369 2.14929 12.8496ZM13.1242 12.1874C13.1244 12.3103 13.1004 12.4321 13.0534 12.5458C13.0065 12.6594 12.9376 12.7627 12.8506 12.8496C12.7637 12.9366 12.6604 13.0055 12.5468 13.0525C12.4331 13.0994 12.3113 13.1235 12.1884 13.1232H9.84336V9.84239H13.1242V12.1874ZM13.1242 8.90576H9.84336V5.62493H13.1242V8.90576Z" fill="#92929D"/>
</svg>
