<svg width="20" height="20" viewBox="0 0 20 20" fill="none" xmlns="http://www.w3.org/2000/svg">
<path d="M17.5008 12.769V5.38375C17.5004 4.61892 17.1963 3.88555 16.6554 3.3448C16.1145 2.80406 15.3811 2.5002 14.6163 2.5L5.38375 2.5C4.61905 2.5004 3.88579 2.80435 3.34507 3.34507C2.80435 3.88579 2.5004 4.61905 2.5 5.38375V14.6163C2.5002 15.381 2.80409 16.1144 3.34485 16.6551C3.88562 17.1959 4.61899 17.4998 5.38375 17.5H14.6163C15.2927 17.4995 15.9476 17.2615 16.4665 16.8276C16.9855 16.3936 17.3356 15.7912 17.4558 15.1255C16.6908 14.794 13.3758 13.363 11.6485 12.538C10.3345 14.1302 8.9575 15.0857 6.883 15.0857C4.8085 15.0857 3.42325 13.8078 3.58975 12.2432C3.69925 11.2172 4.4035 9.5395 7.46125 9.82675C9.07375 9.97825 9.811 10.279 11.1258 10.7133C11.4655 10.0893 11.7483 9.403 11.9628 8.67325H6.13375V8.09575H9.01825V7.05775H5.5V6.4225H9.0175V4.92625C9.0175 4.92625 9.049 4.69225 9.30775 4.69225H10.75V6.4225H14.5V7.0585H10.75V8.095H13.8093C13.5454 9.18735 13.1269 10.2364 12.5665 11.2105C13.4553 11.533 17.5 12.769 17.5 12.769H17.5008ZM6.6535 14.0957C4.46125 14.0957 4.11475 12.712 4.231 12.1337C4.34575 11.5577 4.981 10.8062 6.19975 10.8062C7.6 10.8062 8.85475 11.1648 10.3608 11.8983C9.30325 13.2753 8.0035 14.0957 6.6535 14.0957Z" fill="#009FE8"/>
</svg>
