<svg width="30" height="30" viewBox="0 0 30 30" fill="none" xmlns="http://www.w3.org/2000/svg">
<rect x="6" y="6" width="7.44444" height="18" rx="1" fill="#EEEDFF" stroke="#A9A9FF"/>
<path d="M16.0547 7.52734C16.0547 6.69892 16.7263 6.02734 17.5547 6.02734H22.9991C23.8276 6.02734 24.4991 6.69892 24.4991 7.52734V12.444C24.4991 13.2724 23.8276 13.944 22.9991 13.944H17.5547C16.7263 13.944 16.0547 13.2724 16.0547 12.444V7.52734Z" fill="#EEEDFF" stroke="#A9A9FF"/>
<path d="M16.0547 17.5537C16.0547 16.7253 16.7263 16.0537 17.5547 16.0537H22.9991C23.8276 16.0537 24.4991 16.7253 24.4991 17.5537V22.4704C24.4991 23.2988 23.8276 23.9704 22.9991 23.9704H17.5547C16.7263 23.9704 16.0547 23.2988 16.0547 22.4704V17.5537Z" fill="white" stroke="#A9A9FF"/>
</svg>
