<svg width="20" height="18" viewBox="0 0 20 18" fill="none" xmlns="http://www.w3.org/2000/svg">
<path fill-rule="evenodd" clip-rule="evenodd" d="M2.70725 0C1.21208 0 0 1.21208 0 2.70725V7.5803V12.4533L3.2487 10.2875H9.20464C10.6998 10.2875 11.9119 9.07547 11.9119 7.58029V2.70725C11.9119 1.21208 10.6998 0 9.20465 0H2.70725Z" fill="#E0DFFD"/>
<path fill-rule="evenodd" clip-rule="evenodd" d="M10.2873 5.41455C8.79215 5.41455 7.58008 6.62663 7.58008 8.1218V12.9948C7.58008 14.49 8.79215 15.7021 10.2873 15.7021H16.2435L16.2435 15.7021L19.4922 17.8679V12.9949L19.492 12.995C19.492 12.995 19.492 12.9949 19.492 12.9948V8.1218C19.492 6.62663 18.2799 5.41455 16.7847 5.41455H10.2873Z" fill="#9F80F2"/>
<path d="M15.562 12.4146L15.1451 11.3609H13.0681L12.6739 12.4146H11.264L13.5153 7.0477H14.7737L17.0023 12.4146H15.562ZM14.1218 8.48038L13.4395 10.3224H14.7888L14.1218 8.48038Z" fill="white"/>
<path d="M7.78485 3.54669C7.78485 3.71345 7.76464 3.86001 7.72421 3.98635C7.68378 4.11268 7.62567 4.22891 7.54987 4.33504C7.47912 4.44116 7.39068 4.54223 7.28456 4.63825C7.18348 4.72921 7.06725 4.82523 6.93586 4.9263C6.85501 4.992 6.78678 5.05011 6.73119 5.10065C6.68066 5.15118 6.64023 5.20425 6.60991 5.25983C6.57959 5.31037 6.55685 5.36596 6.54169 5.4266C6.53158 5.48219 6.52653 5.55041 6.52653 5.63127V5.82836H5.344V5.54031C5.344 5.40891 5.35663 5.29268 5.3819 5.19161C5.40717 5.08549 5.44507 4.98947 5.49561 4.90356C5.54614 4.81765 5.60678 4.73427 5.67753 4.65341C5.75334 4.57255 5.84177 4.48917 5.94284 4.40326L6.19299 4.16827C6.2789 4.09247 6.35218 4.01414 6.41282 3.93328C6.47346 3.84737 6.50378 3.7463 6.50378 3.63007C6.50378 3.46836 6.45325 3.33949 6.35218 3.24348C6.25616 3.14746 6.12224 3.09945 5.95042 3.09945C5.73818 3.09945 5.57899 3.17273 5.47286 3.31928C5.36674 3.46078 5.30863 3.62249 5.29852 3.80442L4.09325 3.67555C4.12357 3.40266 4.19179 3.16262 4.29792 2.95542C4.4091 2.74823 4.5506 2.57641 4.72242 2.43996C4.89424 2.30352 5.0888 2.20245 5.3061 2.13675C5.5234 2.066 5.75334 2.03063 5.99591 2.03063C6.22331 2.03063 6.44314 2.06095 6.65539 2.12159C6.87269 2.17718 7.06473 2.26814 7.23149 2.39448C7.39826 2.51577 7.53218 2.67243 7.63325 2.86446C7.73432 3.0565 7.78485 3.2839 7.78485 3.54669ZM6.67813 6.89718C6.67813 7.09932 6.60738 7.27114 6.46588 7.41264C6.32438 7.54908 6.15004 7.61731 5.94284 7.61731C5.84177 7.61731 5.74576 7.59962 5.65479 7.56424C5.56888 7.52887 5.49055 7.47833 5.4198 7.41264C5.35411 7.34694 5.30104 7.27114 5.26062 7.18523C5.22019 7.09932 5.19997 7.00583 5.19997 6.90476C5.19997 6.80874 5.21766 6.71778 5.25304 6.63187C5.29346 6.5409 5.34653 6.46258 5.41222 6.39688C5.48297 6.33118 5.56383 6.28065 5.65479 6.24527C5.74576 6.20485 5.84177 6.18463 5.94284 6.18463C6.04391 6.18463 6.1374 6.20485 6.22331 6.24527C6.31428 6.28065 6.39261 6.33118 6.4583 6.39688C6.52905 6.45752 6.58211 6.53332 6.61749 6.62429C6.65792 6.7102 6.67813 6.80116 6.67813 6.89718Z" fill="white"/>
</svg>
