<svg width="100" height="97" viewBox="0 0 100 97" fill="none" xmlns="http://www.w3.org/2000/svg">
<g filter="url(#filter0_d_830_26113)">
<mask id="path-1-inside-1_830_26113" fill="white">
<path fill-rule="evenodd" clip-rule="evenodd" d="M12.03 28.0521L22.1274 66.6152L76.7915 61.1237L79.8445 21.2459C79.8751 20.8462 79.4881 20.5448 79.108 20.6722L61.8733 26.4526C61.7104 26.5072 61.5308 26.4744 61.3978 26.3657L45.1741 13.104C44.9392 12.912 44.5941 12.942 44.3959 13.1716L30.2965 29.4992C30.1862 29.627 30.0188 29.6904 29.8515 29.6679L12.6463 27.3552C12.2515 27.3021 11.9291 27.6667 12.03 28.0521ZM22.906 69.1247L25.2521 76.233C25.3256 76.4556 25.5437 76.5972 25.7769 76.5738L75.1955 71.6093C75.4287 71.5859 75.6143 71.4036 75.6421 71.1709L76.5274 63.738L22.906 69.1247Z"/>
</mask>
<path fill-rule="evenodd" clip-rule="evenodd" d="M12.03 28.0521L22.1274 66.6152L76.7915 61.1237L79.8445 21.2459C79.8751 20.8462 79.4881 20.5448 79.108 20.6722L61.8733 26.4526C61.7104 26.5072 61.5308 26.4744 61.3978 26.3657L45.1741 13.104C44.9392 12.912 44.5941 12.942 44.3959 13.1716L30.2965 29.4992C30.1862 29.627 30.0188 29.6904 29.8515 29.6679L12.6463 27.3552C12.2515 27.3021 11.9291 27.6667 12.03 28.0521ZM22.906 69.1247L25.2521 76.233C25.3256 76.4556 25.5437 76.5972 25.7769 76.5738L75.1955 71.6093C75.4287 71.5859 75.6143 71.4036 75.6421 71.1709L76.5274 63.738L22.906 69.1247Z" fill="url(#paint0_linear_830_26113)"/>
<path d="M22.1274 66.6152L21.6437 66.7418L21.752 67.1554L22.1773 67.1127L22.1274 66.6152ZM12.03 28.0521L12.5137 27.9254L12.03 28.0521ZM76.7915 61.1237L76.8414 61.6212L77.258 61.5794L77.29 61.1619L76.7915 61.1237ZM79.8445 21.2459L80.343 21.2841L80.343 21.2841L79.8445 21.2459ZM79.108 20.6722L78.949 20.1982L78.949 20.1982L79.108 20.6722ZM61.8733 26.4526L62.0322 26.9266L62.0322 26.9266L61.8733 26.4526ZM61.3978 26.3657L61.7143 25.9785L61.7143 25.9785L61.3978 26.3657ZM45.1741 13.104L45.4906 12.7169L45.4906 12.7169L45.1741 13.104ZM44.3959 13.1716L44.0174 12.8448L44.0174 12.8448L44.3959 13.1716ZM30.2965 29.4992L29.9181 29.1724L30.2965 29.4992ZM29.8515 29.6679L29.9181 29.1724L29.9181 29.1724L29.8515 29.6679ZM12.6463 27.3552L12.5797 27.8507L12.5797 27.8507L12.6463 27.3552ZM25.2521 76.233L24.7773 76.3897L25.2521 76.233ZM22.906 69.1247L22.8561 68.6272L22.2359 68.6895L22.4312 69.2814L22.906 69.1247ZM25.7769 76.5738L25.8269 77.0713L25.7769 76.5738ZM75.1955 71.6093L75.1456 71.1118L75.1955 71.6093ZM75.6421 71.1709L76.1386 71.2301L75.6421 71.1709ZM76.5274 63.738L77.0239 63.7971L77.0976 63.1782L76.4774 63.2405L76.5274 63.738ZM22.6111 66.4885L12.5137 27.9254L11.5463 28.1787L21.6437 66.7418L22.6111 66.4885ZM76.7415 60.6262L22.0774 66.1177L22.1773 67.1127L76.8414 61.6212L76.7415 60.6262ZM79.3459 21.2077L76.2929 61.0855L77.29 61.1619L80.343 21.2841L79.3459 21.2077ZM79.267 21.1463C79.3077 21.1326 79.3492 21.1649 79.3459 21.2077L80.343 21.2841C80.4009 20.5275 79.6684 19.9569 78.949 20.1982L79.267 21.1463ZM62.0322 26.9266L79.267 21.1463L78.949 20.1982L61.7143 25.9785L62.0322 26.9266ZM61.0814 26.7528C61.3474 26.9702 61.7065 27.0359 62.0322 26.9266L61.7143 25.9785L61.7143 25.9785L61.0814 26.7528ZM44.8577 13.4911L61.0814 26.7528L61.7143 25.9785L45.4906 12.7169L44.8577 13.4911ZM44.7743 13.4984C44.7955 13.4738 44.8325 13.4706 44.8577 13.4911L45.4906 12.7169C45.0459 12.3534 44.3928 12.4102 44.0174 12.8448L44.7743 13.4984ZM30.6749 29.826L44.7743 13.4984L44.0174 12.8448L29.9181 29.1724L30.6749 29.826ZM29.7849 30.1635C30.1195 30.2085 30.4543 30.0815 30.6749 29.826L29.9181 29.1724L29.9181 29.1724L29.7849 30.1635ZM12.5797 27.8507L29.7849 30.1635L29.9181 29.1724L12.7129 26.8597L12.5797 27.8507ZM12.5137 27.9254C12.5028 27.8841 12.5374 27.8451 12.5797 27.8507L12.7129 26.8597C11.9656 26.7592 11.3553 27.4492 11.5463 28.1787L12.5137 27.9254ZM25.7269 76.0763L23.3808 68.968L22.4312 69.2814L24.7773 76.3897L25.7269 76.0763ZM25.7269 76.0763L24.7773 76.3897C24.9242 76.8348 25.3605 77.1182 25.8269 77.0713L25.7269 76.0763ZM75.1456 71.1118L25.7269 76.0763L25.8269 77.0713L75.2455 72.1068L75.1456 71.1118ZM75.1456 71.1118L75.2455 72.1068C75.7119 72.0599 76.0831 71.6955 76.1386 71.2301L75.1456 71.1118ZM76.0309 63.6789L75.1456 71.1118L76.1386 71.2301L77.0239 63.7971L76.0309 63.6789ZM22.956 69.6222L76.5773 64.2355L76.4774 63.2405L22.8561 68.6272L22.956 69.6222Z" fill="url(#paint1_linear_830_26113)" mask="url(#path-1-inside-1_830_26113)"/>
</g>
<g filter="url(#filter1_d_830_26113)">
<mask id="path-3-outside-2_830_26113" maskUnits="userSpaceOnUse" x="35.844" y="34.7485" width="24.0888" height="24.0888" fill="black">
<rect fill="white" x="35.844" y="34.7485" width="24.0888" height="24.0888"/>
<path fill-rule="evenodd" clip-rule="evenodd" d="M37.1379 37.8225C37.028 37.8336 36.9479 37.9316 36.9589 38.0415L37.4731 43.1597C37.4841 43.2696 37.5821 43.3498 37.6921 43.3387L45.0617 42.5984L46.5657 57.57C46.5768 57.6799 46.6748 57.76 46.7847 57.749L51.9029 57.2348C52.0128 57.2238 52.093 57.1257 52.0819 57.0158L50.5779 42.0442L57.9798 41.3007C58.0897 41.2896 58.1698 41.1916 58.1588 41.0817L57.6446 35.9635C57.6336 35.8536 57.5356 35.7734 57.4256 35.7845L37.1379 37.8225Z"/>
</mask>
<path fill-rule="evenodd" clip-rule="evenodd" d="M37.1379 37.8225C37.028 37.8336 36.9479 37.9316 36.9589 38.0415L37.4731 43.1597C37.4841 43.2696 37.5821 43.3498 37.6921 43.3387L45.0617 42.5984L46.5657 57.57C46.5768 57.6799 46.6748 57.76 46.7847 57.749L51.9029 57.2348C52.0128 57.2238 52.093 57.1257 52.0819 57.0158L50.5779 42.0442L57.9798 41.3007C58.0897 41.2896 58.1698 41.1916 58.1588 41.0817L57.6446 35.9635C57.6336 35.8536 57.5356 35.7734 57.4256 35.7845L37.1379 37.8225Z" fill="white" fill-opacity="0.7" shape-rendering="crispEdges"/>
<path d="M37.1379 37.8225L37.1579 38.0215L37.1379 37.8225ZM37.6921 43.3387L37.6721 43.1397L37.6921 43.3387ZM45.0617 42.5984L45.2607 42.5784L45.2407 42.3794L45.0417 42.3994L45.0617 42.5984ZM50.5779 42.0442L50.5579 41.8452L50.3589 41.8652L50.3789 42.0642L50.5779 42.0442ZM57.9798 41.3007L57.9598 41.1017L57.9798 41.3007ZM58.1588 41.0817L57.9598 41.1017L58.1588 41.0817ZM57.6446 35.9635L57.8436 35.9435L57.6446 35.9635ZM57.4256 35.7845L57.4057 35.5855L57.4256 35.7845ZM37.1579 38.0215L37.1579 38.0215L37.1179 37.6235C36.8981 37.6456 36.7378 37.8417 36.7599 38.0615L37.1579 38.0215ZM37.6721 43.1397L37.1579 38.0215L36.7599 38.0615L37.2741 43.1797L37.6721 43.1397ZM37.6721 43.1397L37.6721 43.1397L37.2741 43.1797C37.2961 43.3995 37.4922 43.5598 37.712 43.5377L37.6721 43.1397ZM45.0417 42.3994L37.6721 43.1397L37.712 43.5377L45.0817 42.7974L45.0417 42.3994ZM46.7647 57.55L45.2607 42.5784L44.8627 42.6184L46.3667 57.5899L46.7647 57.55ZM46.7647 57.55L46.3667 57.5899C46.3888 57.8098 46.5849 57.97 46.8047 57.948L46.7647 57.55ZM51.8829 57.0358L46.7647 57.55L46.8047 57.948L51.9229 57.4338L51.8829 57.0358ZM51.8829 57.0358L51.9229 57.4338C52.1427 57.4117 52.303 57.2156 52.2809 56.9958L51.8829 57.0358ZM50.3789 42.0642L51.8829 57.0358L52.2809 56.9958L50.7769 42.0243L50.3789 42.0642ZM57.9598 41.1017L50.5579 41.8452L50.5979 42.2432L57.9998 41.4997L57.9598 41.1017ZM57.9598 41.1017L57.9998 41.4997C58.2196 41.4776 58.3799 41.2815 58.3578 41.0617L57.9598 41.1017ZM57.4456 35.9835L57.9598 41.1017L58.3578 41.0617L57.8436 35.9435L57.4456 35.9835ZM57.4456 35.9835L57.4456 35.9835L57.8436 35.9435C57.8216 35.7237 57.6255 35.5634 57.4057 35.5855L57.4456 35.9835ZM37.1579 38.0215L57.4456 35.9835L57.4057 35.5855L37.1179 37.6235L37.1579 38.0215Z" fill="#F2EEFF" mask="url(#path-3-outside-2_830_26113)"/>
</g>
<defs>
<filter id="filter0_d_830_26113" x="0.0112915" y="0.977539" width="99.8348" height="95.5989" filterUnits="userSpaceOnUse" color-interpolation-filters="sRGB">
<feFlood flood-opacity="0" result="BackgroundImageFix"/>
<feColorMatrix in="SourceAlpha" type="matrix" values="0 0 0 0 0 0 0 0 0 0 0 0 0 0 0 0 0 0 127 0" result="hardAlpha"/>
<feOffset dx="4" dy="4"/>
<feGaussianBlur stdDeviation="8"/>
<feComposite in2="hardAlpha" operator="out"/>
<feColorMatrix type="matrix" values="0 0 0 0 0.44 0 0 0 0 0 0 0 0 0 1 0 0 0 0.3 0"/>
<feBlend mode="normal" in2="BackgroundImageFix" result="effect1_dropShadow_830_26113"/>
<feBlend mode="normal" in="SourceGraphic" in2="effect1_dropShadow_830_26113" result="shape"/>
</filter>
<filter id="filter1_d_830_26113" x="35.7579" y="34.5835" width="25.602" height="26.3665" filterUnits="userSpaceOnUse" color-interpolation-filters="sRGB">
<feFlood flood-opacity="0" result="BackgroundImageFix"/>
<feColorMatrix in="SourceAlpha" type="matrix" values="0 0 0 0 0 0 0 0 0 0 0 0 0 0 0 0 0 0 127 0" result="hardAlpha"/>
<feOffset dx="1" dy="1"/>
<feGaussianBlur stdDeviation="1"/>
<feComposite in2="hardAlpha" operator="out"/>
<feColorMatrix type="matrix" values="0 0 0 0 0.423529 0 0 0 0 0.407843 0 0 0 0 0.960784 0 0 0 0.25 0"/>
<feBlend mode="normal" in2="BackgroundImageFix" result="effect1_dropShadow_830_26113"/>
<feBlend mode="normal" in="SourceGraphic" in2="effect1_dropShadow_830_26113" result="shape"/>
</filter>
<linearGradient id="paint0_linear_830_26113" x1="75.485" y1="73.0496" x2="10.7749" y2="29.0533" gradientUnits="userSpaceOnUse">
<stop stop-color="#A274EE"/>
<stop offset="1" stop-color="#91B1FF"/>
</linearGradient>
<linearGradient id="paint1_linear_830_26113" x1="73.957" y1="71.8011" x2="11.9852" y2="27.465" gradientUnits="userSpaceOnUse">
<stop stop-color="#A783FF"/>
<stop offset="0.48958" stop-color="white"/>
<stop offset="1" stop-color="#A5BCFF"/>
</linearGradient>
</defs>
</svg>
