<svg width="30" height="30" viewBox="0 0 30 30" fill="none" xmlns="http://www.w3.org/2000/svg">
<path d="M24.8908 15.9741C24.4211 21.04 20.1604 24.9988 14.9603 24.9988C12.5447 24.9988 10.3305 24.1266 8.58594 22.7175L15.3293 15.9741H24.8908Z" fill="#EEEDFF" stroke="#A9A9FF"/>
<path d="M14.0247 14.6323L7.28134 21.3757C5.83873 19.6311 5 17.4169 5 15.0014C5 9.80123 8.9588 5.54049 14.0247 5.0708V14.6323Z" fill="#EEEDFF" stroke="#A9A9FF"/>
<g filter="url(#filter0_i_317_63694)">
<path d="M24.9958 14.0583H15.9375V5C20.735 5.43614 24.5596 9.26075 24.9958 14.0583Z" fill="white"/>
</g>
<path d="M24.9958 14.0583H15.9375V5C20.735 5.43614 24.5596 9.26075 24.9958 14.0583Z" stroke="#A9A9FF"/>
<defs>
<filter id="filter0_i_317_63694" x="15.4375" y="4.45264" width="10.4094" height="10.4055" filterUnits="userSpaceOnUse" color-interpolation-filters="sRGB">
<feFlood flood-opacity="0" result="BackgroundImageFix"/>
<feBlend mode="normal" in="SourceGraphic" in2="BackgroundImageFix" result="shape"/>
<feColorMatrix in="SourceAlpha" type="matrix" values="0 0 0 0 0 0 0 0 0 0 0 0 0 0 0 0 0 0 127 0" result="hardAlpha"/>
<feOffset dx="0.3" dy="0.3"/>
<feGaussianBlur stdDeviation="0.5"/>
<feComposite in2="hardAlpha" operator="arithmetic" k2="-1" k3="1"/>
<feColorMatrix type="matrix" values="0 0 0 0 1 0 0 0 0 1 0 0 0 0 1 0 0 0 0.4 0"/>
<feBlend mode="normal" in2="shape" result="effect1_innerShadow_317_63694"/>
</filter>
</defs>
</svg>
