<svg width="59" height="45" viewBox="0 0 59 45" fill="none" xmlns="http://www.w3.org/2000/svg">
<path d="M12.3426 3.25314L41.3083 1.26927C41.3714 1.26495 41.4339 1.28472 41.483 1.3246L56.2997 13.3533C56.5462 13.5534 56.5725 13.9202 56.357 14.1535L30.7775 41.8439C30.5775 42.0604 30.2424 42.0808 30.0177 41.8901L1.68102 17.8471C1.45728 17.6572 1.42196 17.3252 1.60075 17.0925L1.40252 16.9402L1.60075 17.0925L12.1614 3.35022C12.2051 3.29339 12.2711 3.25804 12.3426 3.25314Z" fill="url(#paint0_linear_511_27143)" stroke="url(#paint1_linear_511_27143)" stroke-width="0.5"/>
<g opacity="0.8" filter="url(#filter0_d_511_27143)">
<path d="M17.5274 21.3475L30.7489 6.47511C30.9423 6.25752 31.3011 6.4153 31.2715 6.70494L30.4045 15.1889L40.6966 14.484C40.8764 14.4716 40.9795 14.6847 40.8582 14.8181L26.4099 30.7043C26.1946 30.941 25.8078 30.7213 25.901 30.4151L28.7898 20.9197L17.6905 21.6799C17.5118 21.6922 17.4084 21.4814 17.5274 21.3475Z" fill="white"/>
<path d="M30.305 15.1787L30.2929 15.2967L30.4113 15.2886L40.7034 14.5837C40.7933 14.5776 40.8449 14.6841 40.7842 14.7508L26.336 30.637C26.1924 30.7948 25.9346 30.6483 25.9967 30.4443L28.8854 20.9488L28.9277 20.8101L28.7829 20.82L17.6837 21.5802C17.5943 21.5863 17.5426 21.4809 17.6021 21.414L30.8236 6.54156C30.9526 6.39649 31.1918 6.50168 31.172 6.69477L30.305 15.1787Z" stroke="#FFD777" stroke-opacity="0.4" stroke-width="0.2"/>
</g>
<defs>
<filter id="filter0_d_511_27143" x="16.4763" y="5.37354" width="27.4343" height="28.4307" filterUnits="userSpaceOnUse" color-interpolation-filters="sRGB">
<feFlood flood-opacity="0" result="BackgroundImageFix"/>
<feColorMatrix in="SourceAlpha" type="matrix" values="0 0 0 0 0 0 0 0 0 0 0 0 0 0 0 0 0 0 127 0" result="hardAlpha"/>
<feOffset dx="1" dy="1"/>
<feGaussianBlur stdDeviation="1"/>
<feComposite in2="hardAlpha" operator="out"/>
<feColorMatrix type="matrix" values="0 0 0 0 1 0 0 0 0 0.635904 0 0 0 0 0.075 0 0 0 0.5 0"/>
<feBlend mode="normal" in2="BackgroundImageFix" result="effect1_dropShadow_511_27143"/>
<feBlend mode="normal" in="SourceGraphic" in2="effect1_dropShadow_511_27143" result="shape"/>
</filter>
<linearGradient id="paint0_linear_511_27143" x1="-0.714853" y1="5.3545" x2="55.2476" y2="16.2281" gradientUnits="userSpaceOnUse">
<stop stop-color="#FFE186"/>
<stop offset="1" stop-color="#FFB23F"/>
</linearGradient>
<linearGradient id="paint1_linear_511_27143" x1="0" y1="3.8479" x2="62.9062" y2="14.422" gradientUnits="userSpaceOnUse">
<stop stop-color="#FFD46A"/>
<stop offset="1" stop-color="#F5A21F"/>
</linearGradient>
</defs>
</svg>
