<svg width="234" height="75" viewBox="0 0 234 75" fill="none" xmlns="http://www.w3.org/2000/svg">
<path d="M9.96 58.568V69.176H8.82V68.336H3.408V69.188H2.268V58.568H9.96ZM3.408 67.22H8.82V63.884H3.408V67.22ZM3.408 62.768H8.82V59.672H3.408V62.768ZM23.196 58.676V59.792H14.568V63.176C14.52 65.696 14.1 67.712 13.308 69.224L12.42 68.432C13.044 67.172 13.38 65.42 13.404 63.176V58.676H23.196ZM22.788 62.24C22.764 65.516 22.596 67.484 22.284 68.132C21.96 68.78 21.396 69.104 20.604 69.104C20.22 69.104 19.74 69.08 19.188 69.056L18.888 67.988C19.476 68.012 19.956 68.036 20.34 68.06C20.892 68.036 21.24 67.772 21.372 67.256C21.516 66.752 21.612 65.42 21.636 63.26H19.116C18.972 64.544 18.672 65.624 18.216 66.5C17.592 67.676 16.596 68.588 15.204 69.212L14.568 68.216C15.912 67.544 16.836 66.704 17.316 65.696C17.628 65 17.844 64.196 17.976 63.26H15.276V62.24H18.072L18.108 61.46V60.272H19.248V61.46L19.212 62.24H22.788ZM28.992 59.492H31.32V58.16H32.436V59.492H34.812V60.572H32.436V62.096H35.352V63.188H28.44V62.096H31.32V60.572H28.992V59.492ZM28.884 64.892H31.296V63.584H32.424V64.892H34.872V65.984H32.424V67.724H35.496V68.816H28.128V67.724H31.296V65.984H28.884V64.892ZM25.896 69.104H24.888L24.648 68.036C24.948 68.084 25.236 68.108 25.512 68.108C25.776 68.108 25.92 67.952 25.92 67.64V65.132C25.536 65.276 25.152 65.408 24.78 65.528L24.504 64.412C24.984 64.304 25.452 64.172 25.92 64.016V61.364H24.648V60.272H25.92V58.172H27.048V60.272H28.368V61.364H27.048V63.572C27.432 63.392 27.816 63.2 28.2 62.996V64.112C27.816 64.304 27.432 64.496 27.048 64.664V67.928C27.048 68.708 26.664 69.104 25.896 69.104ZM39.012 58.064L40.08 58.556C39.78 59.504 39.384 60.404 38.904 61.244V69.236H37.788V62.9C37.452 63.332 37.092 63.74 36.72 64.136L36.348 62.924C37.548 61.532 38.436 59.912 39.012 58.064ZM41.028 58.928L42.144 59.072C42.048 59.612 41.94 60.128 41.808 60.608H43.248V58.208H44.388V60.608H47.04V61.724H44.388V64.304H47.484V65.408H44.388V69.188H43.248V65.408H39.84V64.304H43.248V61.724H41.436C41.136 62.48 40.776 63.164 40.344 63.788L39.612 62.84C40.308 61.772 40.788 60.464 41.028 58.928Z" fill="#BF8942"/>
<circle cx="24.5" cy="24.5" r="24.5" fill="#FFF2E3"/>
<rect x="12.5" y="14.9727" width="23" height="21" rx="0.5" fill="white" stroke="#FFBB64"/>
<rect x="12.5" y="18.7227" width="23" height="17.75" rx="0.5" fill="#FFE6BD" stroke="#FFBB64"/>
<rect x="15.499" y="20.9727" width="13" height="3" rx="0.5" fill="white" stroke="#FFBB64"/>
<rect x="19.499" y="25.9727" width="13" height="3" rx="0.5" fill="#FFE6BD" stroke="#FFBB64"/>
<rect x="15.5" y="30.9727" width="8" height="3" rx="0.5" fill="white" stroke="#FFBB64"/>
<rect x="25.5" y="30.9727" width="4" height="3" rx="0.5" fill="white" stroke="#FFBB64"/>
<rect x="17.999" y="12.4727" width="2" height="4" rx="0.5" fill="white" stroke="#FFBB64"/>
<rect x="28.999" y="12.4727" width="2" height="4" rx="0.5" fill="white" stroke="#FFBB64"/>
<path d="M78.04 58.844V69.056H76.888V68.444H69.112V69.056H67.96V58.844H78.04ZM69.112 67.424H76.888V59.876H74.824V64.196C74.824 64.412 74.968 64.52 75.256 64.52H76.564V65.552H74.92C74.128 65.552 73.732 65.192 73.732 64.472V59.876H72.22V62.336C72.196 64.04 71.512 65.276 70.18 66.056L69.304 65.288C70.492 64.664 71.092 63.68 71.116 62.336V59.876H69.112V67.424ZM80.896 61.124C80.68 61.22 80.476 61.328 80.272 61.424L79.552 60.56C81.064 59.96 82.36 59.12 83.416 58.064L84.616 58.328C84.436 58.52 84.256 58.7 84.088 58.88H87.748V59.612C87.424 59.948 87.112 60.236 86.8 60.488H89.704V63.344H85.096C85.636 63.812 86.056 64.316 86.368 64.844C87.496 64.496 88.456 64.064 89.236 63.536L89.98 64.388C89.428 64.724 88.804 65.036 88.132 65.3C88.624 66.224 89.464 67.052 90.664 67.796L89.884 68.756C88.636 67.82 87.724 66.776 87.172 65.648L86.788 65.768C86.908 66.152 86.98 66.536 87.004 66.944C87.004 67.796 86.824 68.396 86.476 68.732C86.164 68.996 85.612 69.176 84.808 69.26C84.544 69.284 84.268 69.296 83.956 69.296L83.596 68.252C84.028 68.252 84.4 68.24 84.688 68.24C85.024 68.216 85.312 68.12 85.54 67.964C85.732 67.796 85.84 67.448 85.84 66.944C85.84 66.836 85.828 66.74 85.816 66.644C84.472 67.58 82.684 68.348 80.464 68.96L79.888 67.976C82.312 67.364 84.208 66.584 85.564 65.624C85.48 65.432 85.384 65.24 85.276 65.06C84.112 65.9 82.54 66.584 80.572 67.112L80.008 66.152C82.024 65.684 83.608 65.084 84.748 64.364C84.58 64.196 84.412 64.028 84.244 63.884C83.284 64.556 82 65.036 80.38 65.3L79.936 64.352C81.304 64.148 82.384 63.812 83.2 63.344H80.896V61.124ZM85.336 60.488C85.648 60.26 85.972 60.02 86.284 59.768H83.056C82.72 60.032 82.372 60.272 82.024 60.488H85.336ZM88.564 62.396V61.424H86.008C85.912 61.772 85.768 62.096 85.6 62.396H88.564ZM84.328 62.396C84.568 62.096 84.736 61.772 84.856 61.424H82.036V62.396H84.328ZM91.888 58.568H95.788V59.468C95.428 60.5 95.008 61.58 94.528 62.72C95.284 63.824 95.692 64.784 95.74 65.612C95.74 66.164 95.62 66.572 95.38 66.812C95.02 67.112 94.408 67.268 93.52 67.28L93.148 66.128C93.388 66.164 93.592 66.188 93.76 66.188C94.096 66.164 94.312 66.116 94.432 66.044C94.54 65.96 94.6 65.816 94.6 65.612C94.6 64.796 94.192 63.896 93.376 62.888C93.916 61.688 94.336 60.596 94.648 59.636H93.004V69.248H91.888V58.568ZM97.312 61.784V62.876H100.492V61.784H97.312ZM100.492 60.752V59.636H97.312V60.752H100.492ZM98.44 63.92H97.312V67.652C97.96 67.46 98.596 67.22 99.22 66.932L99.484 67.988C98.608 68.348 97.504 68.708 96.172 69.056L95.896 68.06C96.088 67.988 96.196 67.88 96.196 67.724V58.556H101.608V63.92H99.46C99.58 64.532 99.796 65.096 100.084 65.624C100.612 65.312 101.116 64.868 101.596 64.292L102.328 65.024C101.824 65.624 101.248 66.092 100.612 66.428C101.116 67.088 101.788 67.664 102.616 68.144L101.98 69.152C100.012 67.868 98.824 66.128 98.44 63.92Z" fill="#BF8942"/>
<circle cx="85.5" cy="24.5" r="24.5" fill="#FFF2E3"/>
<path d="M74 16.4727C74 15.9204 74.4477 15.4727 75 15.4727H83C83.5523 15.4727 84 15.9204 84 16.4727V23.4727C84 24.0249 83.5523 24.4727 83 24.4727H75C74.4477 24.4727 74 24.0249 74 23.4727V16.4727Z" fill="white" stroke="#FFBB64"/>
<path d="M74 27.4727C74 26.9204 74.4477 26.4727 75 26.4727H83C83.5523 26.4727 84 26.9204 84 27.4727V34.4727C84 35.0249 83.5523 35.4727 83 35.4727H75C74.4477 35.4727 74 35.0249 74 34.4727V27.4727Z" fill="url(#paint0_linear_140_24303)" stroke="#FFBB64"/>
<path d="M86 16.4727C86 15.9204 86.4477 15.4727 87 15.4727H95C95.5523 15.4727 96 15.9204 96 16.4727V23.4727C96 24.0249 95.5523 24.4727 95 24.4727H87C86.4477 24.4727 86 24.0249 86 23.4727V16.4727Z" fill="url(#paint1_linear_140_24303)" stroke="#FFBB64"/>
<path d="M86 27.4727C86 26.9204 86.4477 26.4727 87 26.4727H95C95.5523 26.4727 96 26.9204 96 27.4727V34.4727C96 35.0249 95.5523 35.4727 95 35.4727H87C86.4477 35.4727 86 35.0249 86 34.4727V27.4727Z" fill="white" stroke="#FFBB64"/>
<path d="M126.84 59.072L127.956 59.264C127.284 63.476 126.06 66.728 124.272 69.032L123.528 68.096C125.16 65.864 126.264 62.852 126.84 59.072ZM130.812 58.604C131.076 62.804 132.3 65.948 134.496 68.024L133.884 69.08C131.508 66.968 130.128 63.584 129.756 58.928L130.812 58.604ZM139.176 66.536V67.616C138.12 68.036 136.932 68.372 135.588 68.624L135.444 67.52C136.86 67.28 138.108 66.944 139.176 66.536ZM137.568 58.124L138.66 58.556C138.06 59.948 137.46 61.088 136.836 61.964C137.304 61.916 137.772 61.868 138.228 61.796C138.456 61.412 138.696 60.992 138.936 60.548L139.932 60.92C138.888 62.72 138.012 64.04 137.316 64.868C138.072 64.724 138.84 64.52 139.632 64.28V65.312C138.336 65.696 137.1 65.96 135.924 66.104L135.624 65.072C135.828 65 135.996 64.892 136.14 64.748C136.524 64.376 137.016 63.74 137.604 62.828C137.004 62.912 136.392 62.996 135.768 63.068L135.48 62.024C135.66 61.952 135.816 61.82 135.96 61.616C136.572 60.56 137.112 59.396 137.568 58.124ZM140.856 59.636H139.764V58.568H145.188V59.276C144.996 60.284 144.816 61.148 144.636 61.88H146.124V62.516C145.86 64.148 145.332 65.528 144.54 66.632C145.14 67.244 145.836 67.796 146.628 68.276L145.896 69.236C145.104 68.708 144.42 68.12 143.844 67.472C143.136 68.204 142.284 68.804 141.3 69.26L140.664 68.216C141.624 67.76 142.428 67.196 143.076 66.524C142.488 65.684 142.02 64.76 141.684 63.752C141.3 66.08 140.544 67.904 139.416 69.2L138.564 68.456C140.064 66.728 140.832 63.968 140.856 60.152V59.636ZM143.748 65.732C144.348 64.892 144.756 63.944 144.984 62.876H143.328C143.532 62.132 143.76 61.052 144.024 59.636H141.96V60.152C141.96 60.656 141.936 61.136 141.912 61.592C142.224 63.164 142.836 64.544 143.748 65.732ZM148.884 60.32H152.436V59.72H147.828V58.748H152.436V58.124H153.564V58.748H158.172V59.72H153.564V60.32H157.116V62.792H153.564V63.392H157.284V64.964H158.496V65.888H157.284V67.46H153.564V68.072C153.564 68.816 153.168 69.188 152.376 69.188H150.9L150.66 68.108C151.116 68.156 151.56 68.192 151.992 68.192C152.28 68.192 152.436 68.06 152.436 67.808V67.46H148.584V66.548H152.436V65.888H147.504V64.964H152.436V64.28H148.596V63.392H152.436V62.792H148.884V60.32ZM155.988 61.94V61.16H153.564V61.94H155.988ZM152.436 61.94V61.16H150.012V61.94H152.436ZM153.564 64.28V64.964H156.192V64.28H153.564ZM156.192 65.888H153.564V66.548H156.192V65.888ZM160.956 60.344H159.624V59.24H163.404V60.344H162.108V65.408C162.576 65.252 163.02 65.084 163.452 64.916V66.056C162.396 66.488 161.184 66.896 159.816 67.268L159.48 66.14C159.984 66.02 160.476 65.888 160.956 65.756V60.344ZM163.788 58.58H170.508V59.684H167.712C167.652 60.044 167.58 60.38 167.508 60.704H170.028V66.512H168.924V61.76H165.336V66.512H164.244V60.704H166.38C166.476 60.368 166.548 60.032 166.596 59.684H163.788V58.58ZM168.24 66.44C169.2 67.136 169.992 67.82 170.64 68.492L169.824 69.308C169.272 68.648 168.492 67.94 167.484 67.172L168.24 66.44ZM166.524 62.36H167.664V64.46C167.604 65.756 167.244 66.812 166.596 67.604C165.96 68.324 164.928 68.876 163.488 69.284L162.864 68.312C164.256 67.928 165.216 67.448 165.72 66.872C166.2 66.248 166.476 65.444 166.524 64.46V62.36Z" fill="#BF8942"/>
<ellipse cx="147" cy="24.5" rx="25" ry="24.5" fill="#FFF2E3"/>
<path d="M148.213 17.3558L148.213 17.3558C147.327 17.3682 146.496 17.7223 145.874 18.3533C145.252 18.9843 144.909 19.8198 144.909 20.7061V22.1952C144.909 23.3713 143.952 24.3281 142.776 24.3281C142.44 24.3281 142.167 24.6006 142.167 24.9369C142.167 25.2731 142.44 25.5456 142.776 25.5456C144.623 25.5456 146.126 24.0427 146.126 22.195V20.7059C146.126 19.5456 147.07 18.5892 148.23 18.5732M148.213 17.3558L148.231 18.6232M148.213 17.3558L148.289 17.3547L148.213 17.3558ZM148.23 18.5732L148.231 18.6232M148.23 18.5732L148.23 18.5732L148.231 18.6232M148.23 18.5732L148.305 18.5721L148.305 18.5721C148.641 18.5674 148.91 18.2913 148.906 17.955C148.901 17.619 148.625 17.3503 148.289 17.3547L148.289 17.3547L148.288 17.3047C148.652 17.2999 148.951 17.5907 148.956 17.9543C148.961 18.3182 148.67 18.6171 148.306 18.6221L148.231 18.6232" fill="#FFBB64" stroke="white" stroke-width="0.1"/>
<path d="M148.956 31.9212L148.906 31.9204C148.901 32.2537 148.629 32.5207 148.297 32.5207H148.288H148.288L148.213 32.5196L148.213 32.5196C147.327 32.5075 146.496 32.1534 145.874 31.5224C145.252 30.8914 144.909 30.0559 144.909 29.1696V27.6807C144.909 26.5046 143.952 25.5479 142.776 25.5479C142.44 25.5479 142.167 25.2753 142.167 24.9391C142.167 24.6028 142.44 24.3303 142.776 24.3303C144.623 24.3303 146.126 25.8334 146.126 27.6807V29.1696C146.126 30.3299 147.07 31.2863 148.23 31.3023L148.305 31.3034L148.305 31.3034C148.642 31.308 148.91 31.5842 148.906 31.9205L148.956 31.9212ZM148.956 31.9212C148.961 31.5573 148.67 31.2584 148.306 31.2534L148.288 32.5707H148.297C148.657 32.5707 148.951 32.2817 148.956 31.9212Z" fill="#FFBB64" stroke="white" stroke-width="0.1"/>
<path d="M148.297 25.5479H142.776C142.44 25.5479 142.167 25.2753 142.167 24.9391C142.167 24.6028 142.44 24.3303 142.776 24.3303H148.297C148.633 24.3303 148.906 24.6028 148.906 24.939C148.906 25.2753 148.633 25.5479 148.297 25.5479Z" fill="#FFBB64" stroke="white" stroke-width="0.1"/>
<rect x="148.633" y="22.668" width="9.36949" height="4.49735" rx="1" fill="white" stroke="#FFBB64"/>
<rect x="148.633" y="15.4727" width="9.36949" height="4.49735" rx="1" fill="white" stroke="#FFBB64"/>
<rect x="148.633" y="29.8638" width="9.36949" height="4.49735" rx="1" fill="white" stroke="#FFBB64"/>
<path d="M135 23.0313C135 22.479 135.448 22.0312 136 22.0312H141C141.552 22.0312 142 22.479 142 23.0312V27.0312C142 27.5835 141.552 28.0312 141 28.0312H136C135.448 28.0312 135 27.5835 135 27.0312V23.0313Z" fill="url(#paint2_linear_140_24303)" stroke="#FFBB64"/>
<path d="M186.804 58.568H197.208V59.636H192.564V60.464H196.236V65.396H192.396C192.264 66.092 192.06 66.656 191.784 67.1C193.44 67.748 195.372 68.096 197.604 68.168L197.316 69.272C194.916 69.164 192.828 68.72 191.052 67.928C190.188 68.6 188.832 69.044 186.972 69.26L186.48 68.216C188.016 68.12 189.168 67.844 189.936 67.376C189.288 67.016 188.7 66.608 188.172 66.164L189.048 65.564C189.564 65.972 190.128 66.32 190.728 66.632C190.944 66.296 191.124 65.876 191.244 65.396H187.8V60.464H191.436V59.636H186.804V58.568ZM195.108 64.4V63.38H192.564V63.668C192.564 63.932 192.552 64.172 192.528 64.4H195.108ZM191.4 64.4C191.424 64.16 191.436 63.908 191.436 63.668V63.38H188.928V64.4H191.4ZM188.928 62.444H191.436V61.436H188.928V62.444ZM192.564 61.436V62.444H195.108V61.436H192.564ZM203.832 58.1L204.852 58.628C204.684 58.808 204.528 58.976 204.372 59.132H207.576V60.02C206.28 62.324 203.88 63.632 200.364 63.92L199.884 62.888C200.892 62.828 201.792 62.696 202.584 62.48C202.248 62.072 201.888 61.7 201.528 61.364L202.512 60.896C202.908 61.28 203.292 61.688 203.652 62.12C204.756 61.652 205.632 60.992 206.268 60.14H203.04C202.104 60.692 201.012 61.1 199.752 61.376L199.08 60.332C201.204 59.948 202.788 59.204 203.832 58.1ZM203.64 65.6C204.072 66.032 204.48 66.488 204.864 66.98C206.04 66.452 206.988 65.744 207.684 64.844H204.396C203.352 65.324 202.128 65.708 200.724 65.984L200.04 64.964C202.656 64.712 204.588 63.944 205.812 62.648L206.784 63.176C206.568 63.404 206.328 63.62 206.088 63.812H209.148V64.7C207.432 67.508 204.24 68.972 199.56 69.092L199.104 68C200.916 68 202.476 67.796 203.784 67.388C203.412 66.908 203.028 66.464 202.632 66.08L203.64 65.6ZM210.936 59.252H214.104C214.248 58.856 214.368 58.472 214.476 58.088L215.628 58.22C215.532 58.568 215.424 58.916 215.316 59.252H221.304V60.368H214.872C214.428 61.376 213.888 62.324 213.24 63.188V69.248H212.124V64.52C211.812 64.856 211.488 65.168 211.152 65.468L210.444 64.556C211.812 63.344 212.88 61.952 213.636 60.368H210.936V59.252ZM214.044 64.892H217.428V63.92C218.064 63.56 218.676 63.14 219.264 62.66H214.956V61.616H220.692V62.66C220.056 63.26 219.348 63.836 218.556 64.376V64.892H221.46V65.996H218.556V67.952C218.556 68.78 218.148 69.2 217.332 69.2H215.844L215.544 68.12C215.952 68.144 216.396 68.156 216.876 68.156C217.236 68.156 217.428 67.964 217.428 67.592V65.996H214.044V64.892ZM223.476 62.96C223.236 63.32 222.996 63.656 222.744 63.992L222.36 62.768C223.26 61.448 223.92 59.912 224.34 58.16L225.372 58.64C225.156 59.432 224.892 60.2 224.58 60.932V69.26H223.476V62.96ZM226.2 58.568C226.884 59.168 227.46 59.768 227.94 60.368L227.088 61.22C226.692 60.632 226.14 59.996 225.42 59.324L226.2 58.568ZM224.928 61.82H227.256V66.596C227.508 66.32 227.772 66.008 228.06 65.672L228.336 66.788C227.712 67.58 227.04 68.288 226.332 68.912L225.888 67.868C226.056 67.724 226.152 67.544 226.152 67.352V62.876H224.928V61.82ZM228.408 59.492H229.752V58.184H230.796V59.492H232.056V60.08C232.272 59.648 232.476 59.216 232.656 58.76L233.592 59.252C233.208 60.188 232.764 61.04 232.284 61.784H233.424V62.816H231.54C231.264 63.152 230.976 63.452 230.688 63.74H232.908V69.212H231.84V68.756H229.896V69.212H228.828V65.108C228.612 65.228 228.396 65.336 228.192 65.432L227.616 64.544C228.552 64.112 229.38 63.536 230.112 62.816H228.228V61.784H229.752V60.464H228.408V59.492ZM231 61.784C231.312 61.376 231.6 60.932 231.864 60.464H230.796V61.784H231ZM229.896 66.704V67.772H231.84V66.704H229.896ZM231.84 65.768V64.736H229.896V65.768H231.84Z" fill="#BF8942"/>
<circle cx="208.5" cy="24.5" r="24.5" fill="#FFF2E3"/>
<mask id="path-28-inside-1_140_24303" fill="white">
<path fill-rule="evenodd" clip-rule="evenodd" d="M213.636 14C213.083 14 212.636 14.4477 212.636 15V33.9986H218.09V15C218.09 14.4477 217.642 14 217.09 14H213.636ZM200 21.2728C199.448 21.2728 199 21.7205 199 22.2728V33.9992H204.454V22.2728C204.454 21.7205 204.006 21.2728 203.454 21.2728H200Z"/>
</mask>
<path fill-rule="evenodd" clip-rule="evenodd" d="M213.636 14C213.083 14 212.636 14.4477 212.636 15V33.9986H218.09V15C218.09 14.4477 217.642 14 217.09 14H213.636ZM200 21.2728C199.448 21.2728 199 21.7205 199 22.2728V33.9992H204.454V22.2728C204.454 21.7205 204.006 21.2728 203.454 21.2728H200Z" fill="url(#paint3_linear_140_24303)"/>
<path d="M212.636 33.9986H211.836V34.7986H212.636V33.9986ZM218.09 33.9986V34.7986H218.89V33.9986H218.09ZM199 33.9992H198.2V34.7992H199V33.9992ZM204.454 33.9992V34.7992H205.254V33.9992H204.454ZM213.436 15C213.436 14.8895 213.525 14.8 213.636 14.8V13.2C212.642 13.2 211.836 14.0059 211.836 15H213.436ZM213.436 33.9986V15H211.836V33.9986H213.436ZM218.09 33.1986H212.636V34.7986H218.09V33.1986ZM217.29 15V33.9986H218.89V15H217.29ZM217.09 14.8C217.2 14.8 217.29 14.8895 217.29 15H218.89C218.89 14.0059 218.084 13.2 217.09 13.2V14.8ZM213.636 14.8H217.09V13.2H213.636V14.8ZM199.8 22.2728C199.8 22.1623 199.89 22.0728 200 22.0728V20.4728C199.006 20.4728 198.2 21.2787 198.2 22.2728H199.8ZM199.8 33.9992V22.2728H198.2V33.9992H199.8ZM204.454 33.1992H199V34.7992H204.454V33.1992ZM203.654 22.2728V33.9992H205.254V22.2728H203.654ZM203.454 22.0728C203.565 22.0728 203.654 22.1623 203.654 22.2728H205.254C205.254 21.2787 204.448 20.4728 203.454 20.4728V22.0728ZM200 22.0728H203.454V20.4728H200V22.0728Z" fill="#FFBB64" mask="url(#path-28-inside-1_140_24303)"/>
<path d="M206.315 19.5459C206.315 19.2698 206.539 19.0459 206.815 19.0459H210.27C210.546 19.0459 210.77 19.2698 210.77 19.5459V33.4993H206.315V19.5459Z" fill="white" stroke="#FFBB64"/>
<rect x="199.5" y="13.9727" width="20" height="20" rx="0.5" fill="#FFE6BC" stroke="#FFBB64"/>
<rect x="203.5" y="13.9727" width="12" height="9" rx="0.5" fill="white" stroke="#FFBB64"/>
<rect x="210.5" y="13.9727" width="2" height="6" rx="0.5" fill="#FFE6BC" stroke="#FFBB64"/>
<rect x="215.5" y="26.9727" width="3" height="12" rx="0.5" transform="rotate(90 215.5 26.9727)" fill="white" stroke="#FFBB64"/>
<defs>
<linearGradient id="paint0_linear_140_24303" x1="75.4286" y1="26.4727" x2="84.3448" y2="34.2474" gradientUnits="userSpaceOnUse">
<stop stop-color="#FFEDD1"/>
<stop offset="1" stop-color="#FFE1B0"/>
</linearGradient>
<linearGradient id="paint1_linear_140_24303" x1="87.4286" y1="15.4727" x2="96.3448" y2="23.2474" gradientUnits="userSpaceOnUse">
<stop stop-color="#FFEDD1"/>
<stop offset="1" stop-color="#FFE1B0"/>
</linearGradient>
<linearGradient id="paint2_linear_140_24303" x1="136" y1="22.0312" x2="141.977" y2="27.5034" gradientUnits="userSpaceOnUse">
<stop stop-color="#FFEDD1"/>
<stop offset="1" stop-color="#FFE1B0"/>
</linearGradient>
<linearGradient id="paint3_linear_140_24303" x1="199" y1="12.8236" x2="220.062" y2="31.8113" gradientUnits="userSpaceOnUse">
<stop stop-color="#FFEBCB"/>
<stop offset="1" stop-color="#FFD898"/>
</linearGradient>
</defs>
</svg>
