<svg width="173" height="80" viewBox="0 0 173 80" fill="none" xmlns="http://www.w3.org/2000/svg">
<ellipse cx="86.0215" cy="56.559" rx="86.0215" ry="23.4409" fill="url(#paint0_linear_8054_314177)"/>
<g opacity="0.3">
<rect x="118.711" y="38.8281" width="1.29032" height="8.17204" rx="0.645161" fill="#D6D9DF"/>
<path d="M119.142 44.8492C118.192 44.8492 117.422 44.4235 117.422 43.8984V42.5402V42.5402V42.2686" stroke="#D6D9DF" stroke-width="1.23" stroke-linecap="round"/>
<path d="M120.006 43.1285C120.956 43.1285 121.727 42.7028 121.727 42.1777V40.8195V40.8195V40.5479" stroke="#D6D9DF" stroke-width="1.23" stroke-linecap="round"/>
</g>
<g opacity="0.45">
<rect x="41.7188" y="44.4189" width="1.29032" height="11.1828" rx="0.645161" fill="#D6D9DF"/>
<path d="M41.7217 52.5913C40.0589 52.5913 38.7109 52.0237 38.7109 51.3236V49.5125V49.5125V49.1504" stroke="#D6D9DF" stroke-width="1.23" stroke-linecap="round"/>
<path d="M43.0127 50.4409C44.6755 50.4409 46.0234 49.8733 46.0234 49.1732V47.3622V47.3622V47" stroke="#D6D9DF" stroke-width="1.23" stroke-linecap="round"/>
</g>
<path fill-rule="evenodd" clip-rule="evenodd" d="M92.8292 3.48535H100.017C101.933 3.48535 103.486 5.2158 103.486 7.35043V44.2364C103.486 46.371 101.933 48.1015 100.017 48.1015H65.8205C63.9047 48.1015 62.3516 46.371 62.3516 44.2364V7.35043C62.3516 5.2158 63.9047 3.48535 65.8205 3.48535H72.5447" fill="white"/>
<path d="M92.8292 3.48535H100.017C101.933 3.48535 103.486 5.2158 103.486 7.35043V44.2364C103.486 46.371 101.933 48.1015 100.017 48.1015H65.8205C63.9047 48.1015 62.3516 46.371 62.3516 44.2364V7.35043C62.3516 5.2158 63.9047 3.48535 65.8205 3.48535H72.5447" stroke="#D6D9DF" stroke-width="0.853884"/>
<path d="M73.6196 17.638C73.6196 18.9172 72.5922 19.947 71.3337 19.947C70.0753 19.947 69.0479 18.9172 69.0479 17.638C69.0479 16.3588 70.0753 15.3291 71.3337 15.3291C72.5922 15.3291 73.6196 16.3588 73.6196 17.638Z" stroke="#D6D9DF" stroke-width="1.0332"/>
<path d="M77.2812 17.1198H97.1697" stroke="#D6D9DF" stroke-width="1.0332" stroke-linecap="round"/>
<path d="M73.6196 28.9652C73.6196 30.2444 72.5922 31.2741 71.3337 31.2741C70.0753 31.2741 69.0479 30.2444 69.0479 28.9652C69.0479 27.686 70.0753 26.6562 71.3337 26.6562C72.5922 26.6562 73.6196 27.686 73.6196 28.9652Z" stroke="#D6D9DF" stroke-width="1.0332"/>
<path d="M77.2812 28.4469H97.1697" stroke="#D6D9DF" stroke-width="1.0332" stroke-linecap="round"/>
<rect x="72.4932" y="0.5166" width="20.2658" height="5.74807" rx="1.5498" stroke="#D6D9DF" stroke-width="1.0332"/>
<ellipse cx="101.276" cy="42.1065" rx="10.089" ry="10.1719" fill="url(#paint1_linear_8054_314177)"/>
<path fill-rule="evenodd" clip-rule="evenodd" d="M99.4682 37.0205C100.357 37.0205 101.186 37.397 101.788 38.0546C102.39 37.3996 103.217 37.0244 104.105 37.0244C105.886 37.0244 107.336 38.5526 107.336 40.4312C107.336 41.3018 107.025 42.128 106.461 42.7621C106.451 42.7751 106.441 42.7869 106.43 42.7987L106.397 42.8327L106.381 42.8496L102.292 46.9767C102.163 47.1127 101.98 47.1924 101.788 47.1924C101.595 47.1924 101.414 47.114 101.277 46.9702C101.148 46.8421 97.9257 43.6196 97.1891 42.8444L97.1767 42.8313L97.1829 42.8366C97.173 42.8274 97.1643 42.817 97.1557 42.8065L97.1557 42.8065L97.1557 42.8065C96.5629 42.1659 96.2381 41.3228 96.2381 40.4273C96.2368 38.5487 97.6864 37.0205 99.4682 37.0205ZM97.5234 42.4534C97.5253 42.4554 97.5272 42.4577 97.529 42.46C97.5299 42.4611 97.5309 42.4622 97.5318 42.4633C97.5327 42.4645 97.5337 42.4655 97.5346 42.4665H97.5358C98.2649 43.2339 101.629 46.5975 101.629 46.5975C101.674 46.6446 101.732 46.6668 101.789 46.6668C101.847 46.6668 101.906 46.6433 101.949 46.5975L106.031 42.4783L106.047 42.4613L106.079 42.4273H106.078C106.549 41.9096 106.839 41.2063 106.839 40.4311C106.839 38.8388 105.614 37.5472 104.104 37.5472C103.128 37.5472 102.271 38.0871 101.788 38.899C101.304 38.0858 100.446 37.5446 99.469 37.5446C97.9587 37.5446 96.7336 38.8362 96.7336 40.4285C96.7336 41.2168 97.0349 41.9331 97.5234 42.4534ZM105.336 41.4591C105.472 41.4591 105.584 41.3428 105.584 41.1977C105.584 39.9466 104.618 38.9296 103.432 38.9296C103.295 38.9296 103.184 39.0459 103.186 39.1923C103.186 39.3361 103.296 39.4538 103.434 39.4538C104.346 39.4538 105.088 40.2355 105.088 41.1977C105.088 41.3415 105.198 41.4591 105.336 41.4591Z" fill="white"/>
<path d="M101.788 38.0546L101.979 38.2293L101.788 38.4367L101.598 38.2291L101.788 38.0546ZM106.461 42.7621L106.255 42.6059L106.261 42.5979L106.268 42.5904L106.461 42.7621ZM106.43 42.7987L106.617 42.9764L106.617 42.9764L106.43 42.7987ZM106.397 42.8327L106.585 43.0104L106.585 43.0104L106.397 42.8327ZM106.381 42.8496L106.569 43.0274L106.565 43.0315L106.381 42.8496ZM102.292 46.9767L102.104 46.7989L102.108 46.7949L102.292 46.9767ZM101.277 46.9702L101.459 46.7869L101.465 46.7924L101.277 46.9702ZM97.1891 42.8444L97.0019 43.0223L97.0017 43.0222L97.1891 42.8444ZM97.1767 42.8313L96.9893 43.0091L97.3433 42.6339L97.1767 42.8313ZM97.1829 42.8366L97.3581 42.6467L97.0164 43.034L97.1829 42.8366ZM97.1557 42.8065L96.9569 42.9715L96.954 42.9679L97.1557 42.8065ZM97.1557 42.8065L97.349 42.6347L97.3574 42.6452L97.1557 42.8065ZM97.1557 42.8065L97.3453 42.631L97.3487 42.6349L97.1557 42.8065ZM96.2381 40.4273L96.4964 40.4271V40.4273H96.2381ZM97.529 42.46L97.7294 42.297L97.7295 42.2971L97.529 42.46ZM97.5234 42.4534L97.336 42.6312L97.3351 42.6302L97.5234 42.4534ZM97.5318 42.4633L97.3343 42.6299L97.3342 42.6298L97.5318 42.4633ZM97.5346 42.4665V42.7248H97.4237L97.3473 42.6443L97.5346 42.4665ZM97.5358 42.4665V42.2082H97.6467L97.7231 42.2886L97.5358 42.4665ZM101.629 46.5975L101.812 46.4148L101.816 46.4197L101.629 46.5975ZM101.949 46.5975L101.761 46.4197L101.765 46.4157L101.949 46.5975ZM106.031 42.4783L106.218 42.6561L106.214 42.6601L106.031 42.4783ZM106.047 42.4613L106.235 42.639L106.235 42.639L106.047 42.4613ZM106.079 42.4273V42.169H106.68L106.267 42.605L106.079 42.4273ZM106.078 42.4273V42.6856H105.494L105.887 42.2534L106.078 42.4273ZM101.788 38.899L102.01 39.0311L101.788 39.404L101.566 39.031L101.788 38.899ZM103.186 39.1923L103.444 39.1901V39.1923H103.186ZM101.598 38.2291C101.042 37.623 100.282 37.2788 99.4682 37.2788V36.7622C100.432 36.7622 101.329 37.171 101.979 37.88L101.598 38.2291ZM104.105 37.2827C103.291 37.2827 102.533 37.6258 101.979 38.2293L101.598 37.8799C102.247 37.1734 103.142 36.7661 104.105 36.7661V37.2827ZM107.078 40.4312C107.078 38.6823 105.731 37.2827 104.105 37.2827V36.7661C106.042 36.7661 107.594 38.423 107.594 40.4312H107.078ZM106.268 42.5904C106.789 42.0047 107.078 41.24 107.078 40.4312H107.594C107.594 41.3636 107.261 42.2513 106.653 42.9338L106.268 42.5904ZM106.242 42.6209C106.246 42.6165 106.25 42.612 106.255 42.6059L106.666 42.9182C106.651 42.9383 106.635 42.9573 106.617 42.9764L106.242 42.6209ZM106.21 42.6549L106.242 42.6209L106.617 42.9764L106.585 43.0104L106.21 42.6549ZM106.194 42.6719L106.21 42.6549L106.585 43.0104L106.569 43.0274L106.194 42.6719ZM102.108 46.7949L106.198 42.6678L106.565 43.0315L102.475 47.1585L102.108 46.7949ZM101.788 46.9341C101.909 46.9341 102.024 46.8837 102.104 46.799L102.479 47.1545C102.302 47.3416 102.052 47.4507 101.788 47.4507V46.9341ZM101.465 46.7924C101.553 46.8859 101.667 46.9341 101.788 46.9341V47.4507C101.522 47.4507 101.274 47.3421 101.09 47.1479L101.465 46.7924ZM97.3764 42.6665C98.1098 43.4384 101.329 46.6579 101.459 46.7869L101.095 47.1534C100.967 47.0263 97.7416 43.8009 97.0019 43.0223L97.3764 42.6665ZM97.3641 42.6536L97.3765 42.6667L97.0017 43.0222L96.9893 43.0091L97.3641 42.6536ZM97.0164 43.034L97.0102 43.0288L97.3433 42.6339L97.3495 42.6391L97.0164 43.034ZM97.3544 42.6416C97.3592 42.6473 97.3609 42.6493 97.362 42.6506C97.3629 42.6516 97.3614 42.6498 97.3581 42.6467L97.0078 43.0264C96.9831 43.0037 96.9637 42.9796 96.9569 42.9715L97.3544 42.6416ZM97.3574 42.6452L97.3574 42.6452L96.954 42.9679L96.954 42.9679L97.3574 42.6452ZM97.3487 42.6349L97.3487 42.6349L96.9626 42.9781L96.9626 42.9781L97.3487 42.6349ZM96.4964 40.4273C96.4964 41.2597 96.798 42.0397 97.3452 42.6311L96.9661 42.9819C96.3279 42.2922 95.9798 41.3858 95.9798 40.4273H96.4964ZM99.4682 37.2788C97.8417 37.2788 96.4952 38.6783 96.4964 40.4271L95.9798 40.4274C95.9784 38.4191 97.531 36.7622 99.4682 36.7622V37.2788ZM97.3286 42.6229C97.3274 42.6214 97.3279 42.6221 97.3287 42.6231C97.3296 42.6241 97.3323 42.6272 97.336 42.6312L97.7109 42.2757C97.7208 42.2861 97.729 42.2965 97.7294 42.297L97.3286 42.6229ZM97.3342 42.6298C97.3316 42.6266 97.3292 42.6237 97.3286 42.6229L97.7295 42.2971L97.7293 42.2969L97.3342 42.6298ZM97.3473 42.6443C97.3416 42.6383 97.3371 42.6331 97.3343 42.6299L97.7292 42.2968C97.7284 42.2958 97.7258 42.2927 97.7219 42.2887L97.3473 42.6443ZM97.5358 42.7248H97.5346V42.2082H97.5358V42.7248ZM101.629 46.5975C101.446 46.7802 101.446 46.7801 101.446 46.7801C101.446 46.7801 101.446 46.7801 101.446 46.78C101.446 46.7799 101.446 46.7797 101.446 46.7795C101.445 46.7791 101.445 46.7785 101.444 46.7777C101.442 46.7761 101.44 46.7737 101.437 46.7705C101.43 46.7641 101.421 46.7546 101.408 46.7422C101.384 46.7173 101.347 46.6808 101.3 46.6341C101.207 46.5406 101.073 46.4061 100.909 46.2424C100.582 45.915 100.139 45.4705 99.6728 45.002C98.7417 44.0662 97.7157 43.0308 97.3486 42.6444L97.7231 42.2886C98.0851 42.6696 99.1057 43.6997 100.039 44.6376C100.505 45.1059 100.948 45.5502 101.275 45.8775C101.438 46.0411 101.572 46.1754 101.666 46.2689C101.712 46.3156 101.749 46.3521 101.774 46.3769C101.786 46.3893 101.796 46.3988 101.802 46.4052C101.805 46.4084 101.808 46.4108 101.809 46.4124C101.81 46.4132 101.811 46.4138 101.811 46.4142C101.811 46.4144 101.811 46.4146 101.812 46.4147C101.812 46.4147 101.812 46.4148 101.812 46.4148C101.812 46.4148 101.812 46.4148 101.629 46.5975ZM101.789 46.9251C101.664 46.9251 101.537 46.8761 101.442 46.7753L101.816 46.4197C101.814 46.417 101.81 46.4138 101.804 46.4116C101.799 46.4094 101.794 46.4085 101.789 46.4085V46.9251ZM102.136 46.7753C102.043 46.8735 101.917 46.9251 101.789 46.9251V46.4085C101.778 46.4085 101.768 46.4131 101.762 46.4197L102.136 46.7753ZM106.214 42.6601L102.132 46.7793L101.765 46.4157L105.848 42.2965L106.214 42.6601ZM106.235 42.639L106.218 42.656L105.844 42.3005L105.86 42.2835L106.235 42.639ZM106.267 42.605L106.235 42.639L105.86 42.2835L105.892 42.2495L106.267 42.605ZM106.078 42.169H106.079V42.6856H106.078V42.169ZM107.098 40.4311C107.098 41.2714 106.783 42.0365 106.269 42.6012L105.887 42.2534C106.316 41.7827 106.581 41.1412 106.581 40.4311H107.098ZM104.104 37.2889C105.77 37.2889 107.098 38.7092 107.098 40.4311H106.581C106.581 38.9684 105.459 37.8055 104.104 37.8055V37.2889ZM101.566 38.7668C102.092 37.884 103.029 37.2889 104.104 37.2889V37.8055C103.227 37.8055 102.451 38.2903 102.01 39.0311L101.566 38.7668ZM99.469 37.2863C100.545 37.2863 101.484 37.8827 102.01 38.7669L101.566 39.031C101.124 38.2889 100.347 37.8029 99.469 37.8029V37.2863ZM96.4753 40.4285C96.4753 38.7066 97.8033 37.2863 99.469 37.2863V37.8029C98.114 37.8029 96.9919 38.9658 96.9919 40.4285H96.4753ZM97.3351 42.6302C96.8021 42.0626 96.4753 41.2831 96.4753 40.4285H96.9919C96.9919 41.1504 97.2677 41.8037 97.7117 42.2766L97.3351 42.6302ZM105.842 41.1977C105.842 41.4733 105.627 41.7174 105.336 41.7174V41.2008C105.333 41.2008 105.33 41.2016 105.327 41.2027C105.325 41.2037 105.324 41.2046 105.324 41.2048C105.324 41.205 105.326 41.2032 105.326 41.1977H105.842ZM103.432 38.6713C104.773 38.6713 105.842 39.8169 105.842 41.1977H105.326C105.326 40.0764 104.463 39.1879 103.432 39.1879V38.6713ZM102.927 39.1945C102.925 38.9173 103.139 38.6713 103.432 38.6713V39.1879C103.435 39.1879 103.438 39.1873 103.441 39.1861C103.443 39.1849 103.445 39.1837 103.445 39.1832C103.446 39.1819 103.444 39.1833 103.444 39.1901L102.927 39.1945ZM103.434 39.7121C103.14 39.7121 102.927 39.4649 102.927 39.1923H103.444C103.444 39.1976 103.446 39.1996 103.446 39.1995C103.446 39.1994 103.445 39.1984 103.442 39.1973C103.44 39.1962 103.437 39.1955 103.434 39.1955V39.7121ZM104.83 41.1977C104.83 40.3652 104.191 39.7121 103.434 39.7121V39.1955C104.502 39.1955 105.346 40.1059 105.346 41.1977H104.83ZM105.336 41.7174C105.042 41.7174 104.83 41.4703 104.83 41.1977H105.346C105.346 41.203 105.348 41.205 105.348 41.2049C105.348 41.2048 105.347 41.2038 105.344 41.2027C105.342 41.2015 105.339 41.2008 105.336 41.2008V41.7174Z" fill="white"/>
<ellipse cx="101.276" cy="42.1065" rx="10.089" ry="10.1719" fill="url(#paint2_linear_8054_314177)"/>
<path d="M105.364 37.6494L97.1016 45.9123" stroke="white" stroke-width="1.722" stroke-linecap="round"/>
<path d="M97.1043 37.6494L105.367 45.9123" stroke="white" stroke-width="1.722" stroke-linecap="round"/>
<defs>
<linearGradient id="paint0_linear_8054_314177" x1="43.1844" y1="38.4967" x2="43.1844" y2="61.843" gradientUnits="userSpaceOnUse">
<stop stop-color="#F1F2F4"/>
<stop offset="1" stop-color="white" stop-opacity="0.01"/>
</linearGradient>
<linearGradient id="paint1_linear_8054_314177" x1="113.608" y1="32.6787" x2="94.7789" y2="16.963" gradientUnits="userSpaceOnUse">
<stop stop-color="#C5C5C5"/>
<stop offset="1" stop-color="#F7F7F7"/>
</linearGradient>
<linearGradient id="paint2_linear_8054_314177" x1="113.608" y1="32.6787" x2="94.7789" y2="16.963" gradientUnits="userSpaceOnUse">
<stop stop-color="#D6D9DF"/>
<stop offset="1" stop-color="white"/>
</linearGradient>
</defs>
</svg>
