<svg width="30" height="31" viewBox="0 0 30 31" fill="none" xmlns="http://www.w3.org/2000/svg">
<path opacity="0.5" d="M25.1448 24.367H8.16406L8.16406 4.76465L18.7413 4.76465L25.1448 9.9633V24.367Z" fill="url(#paint0_linear_343_64272)" stroke="#FFBB64"/>
<path d="M23.5432 25.9663H6.5625L6.5625 6.56397L17.1448 6.56396L23.5432 11.5682V25.9663Z" fill="url(#paint1_linear_343_64272)" stroke="#FFBB64"/>
<path d="M25.4999 12.6553H4.5C4.22386 12.6553 4 12.8791 4 13.1553V20.1974C4 20.4735 4.22386 20.6974 4.5 20.6974H25.4999C25.776 20.6974 25.9999 20.4735 25.9999 20.1974V13.1553C25.9999 12.8791 25.776 12.6553 25.4999 12.6553Z" fill="white" stroke="#FFBB64"/>
<path d="M8.035 14.8239C7.685 14.8239 7.395 14.9189 7.17 15.1189C6.93 15.3189 6.8 15.5989 6.77 15.9589H7.345C7.365 15.7439 7.435 15.5839 7.555 15.4789C7.67 15.3739 7.83 15.3239 8.04 15.3239C8.245 15.3239 8.4 15.3689 8.505 15.4589C8.6 15.5489 8.65 15.6789 8.65 15.8539C8.65 16.0289 8.595 16.1639 8.49 16.2539C8.38 16.3439 8.22 16.3889 8.01 16.3889H7.76V16.8289H8.01C8.24 16.8289 8.415 16.8739 8.535 16.9739C8.655 17.0689 8.72 17.2189 8.72 17.4239C8.72 17.5939 8.66 17.7339 8.545 17.8489C8.415 17.9739 8.235 18.0389 8.01 18.0389C7.805 18.0389 7.64 17.9789 7.515 17.8639C7.375 17.7389 7.305 17.5589 7.295 17.3289H6.7C6.73 17.7289 6.87 18.0389 7.12 18.2489C7.345 18.4389 7.645 18.5339 8.015 18.5339C8.405 18.5339 8.72 18.4239 8.96 18.2089C9.19 17.9989 9.305 17.7289 9.305 17.3989C9.305 17.1889 9.245 17.0139 9.125 16.8789C9.015 16.7489 8.85 16.6539 8.64 16.5889C9.035 16.4589 9.235 16.1989 9.235 15.8089C9.235 15.4989 9.125 15.2589 8.91 15.0839C8.69 14.9089 8.395 14.8239 8.035 14.8239ZM10.998 14.8239C10.578 14.8239 10.253 14.9939 10.023 15.3439C9.80305 15.6739 9.69305 16.1189 9.69305 16.6789C9.69305 17.2389 9.80305 17.6839 10.023 18.0139C10.253 18.3589 10.578 18.5339 10.998 18.5339C11.413 18.5339 11.738 18.3589 11.973 18.0139C12.193 17.6839 12.303 17.2389 12.303 16.6789C12.303 16.1189 12.193 15.6739 11.973 15.3439C11.738 14.9939 11.413 14.8239 10.998 14.8239ZM10.998 15.3189C11.278 15.3189 11.478 15.4739 11.598 15.7939C11.678 16.0089 11.718 16.3039 11.718 16.6789C11.718 17.0489 11.678 17.3439 11.598 17.5639C11.478 17.8789 11.278 18.0389 10.998 18.0389C10.713 18.0389 10.513 17.8789 10.398 17.5639C10.318 17.3439 10.278 17.0489 10.278 16.6789C10.278 16.3039 10.318 16.0089 10.398 15.7939C10.513 15.4739 10.713 15.3189 10.998 15.3189ZM13.9961 14.8239C13.5761 14.8239 13.2511 14.9939 13.0211 15.3439C12.8011 15.6739 12.6911 16.1189 12.6911 16.6789C12.6911 17.2389 12.8011 17.6839 13.0211 18.0139C13.2511 18.3589 13.5761 18.5339 13.9961 18.5339C14.4111 18.5339 14.7361 18.3589 14.9711 18.0139C15.1911 17.6839 15.3011 17.2389 15.3011 16.6789C15.3011 16.1189 15.1911 15.6739 14.9711 15.3439C14.7361 14.9939 14.4111 14.8239 13.9961 14.8239ZM13.9961 15.3189C14.2761 15.3189 14.4761 15.4739 14.5961 15.7939C14.6761 16.0089 14.7161 16.3039 14.7161 16.6789C14.7161 17.0489 14.6761 17.3439 14.5961 17.5639C14.4761 17.8789 14.2761 18.0389 13.9961 18.0389C13.7111 18.0389 13.5111 17.8789 13.3961 17.5639C13.3161 17.3439 13.2761 17.0489 13.2761 16.6789C13.2761 16.3039 13.3161 16.0089 13.3961 15.7939C13.5111 15.4739 13.7111 15.3189 13.9961 15.3189ZM15.8441 14.8939V18.4639H16.4291V16.0039H16.4491L17.4991 18.4639H18.0041L19.0541 16.0039H19.0741V18.4639H19.6591V14.8939H18.9741L17.7641 17.6939H17.7441L16.5291 14.8939H15.8441ZM20.3607 14.8939V18.4639H22.0007C22.3807 18.4639 22.6807 18.3939 22.8907 18.2539C23.1357 18.0839 23.2607 17.8189 23.2607 17.4589C23.2607 17.2189 23.2007 17.0239 23.0857 16.8839C22.9657 16.7389 22.7907 16.6439 22.5557 16.5989C22.7357 16.5289 22.8707 16.4339 22.9657 16.3039C23.0607 16.1639 23.1107 15.9939 23.1107 15.7939C23.1107 15.5239 23.0157 15.3089 22.8307 15.1489C22.6307 14.9789 22.3507 14.8939 21.9957 14.8939H20.3607ZM20.9457 15.3739H21.8507C22.0907 15.3739 22.2607 15.4139 22.3707 15.4939C22.4707 15.5689 22.5257 15.6939 22.5257 15.8639C22.5257 16.0489 22.4707 16.1839 22.3707 16.2689C22.2657 16.3489 22.0907 16.3939 21.8407 16.3939H20.9457V15.3739ZM20.9457 16.8739H21.9307C22.1907 16.8739 22.3807 16.9189 22.5007 17.0089C22.6157 17.0989 22.6757 17.2439 22.6757 17.4489C22.6757 17.6489 22.5957 17.7889 22.4357 17.8789C22.3107 17.9489 22.1357 17.9839 21.9157 17.9839H20.9457V16.8739Z" fill="#FFB453"/>
<defs>
<linearGradient id="paint0_linear_343_64272" x1="7.66406" y1="3.26373" x2="28.9079" y2="20.9459" gradientUnits="userSpaceOnUse">
<stop stop-color="#FFEBCB"/>
<stop offset="1" stop-color="#FFD898"/>
</linearGradient>
<linearGradient id="paint1_linear_343_64272" x1="6.0625" y1="4.86383" x2="27.3063" y2="22.546" gradientUnits="userSpaceOnUse">
<stop stop-color="#FFEBCB"/>
<stop offset="1" stop-color="#FFD898"/>
</linearGradient>
</defs>
</svg>
