<svg width="36" height="33" viewBox="0 0 36 33" fill="none" xmlns="http://www.w3.org/2000/svg">
<path d="M8.76025 16.0604C8.76025 18.5128 9.73448 20.8648 11.4686 22.5989C13.2027 24.3331 15.5547 25.3073 18.0072 25.3073C20.4596 25.3073 22.8116 24.3331 24.5457 22.5989C26.2798 20.8648 27.2541 18.5128 27.2541 16.0604C27.2541 13.6079 26.2798 11.256 24.5457 9.52183C22.8116 7.7877 20.4596 6.81348 18.0072 6.81348C15.5547 6.81348 13.2027 7.7877 11.4686 9.52183C9.73448 11.256 8.76025 13.6079 8.76025 16.0604Z" fill="#E0DFFD"/>
<path fill-rule="evenodd" clip-rule="evenodd" d="M23.1266 20.3577C23.7225 19.7507 23.0364 18.9854 22.2123 19.1963C20.8819 19.5366 19.47 19.7197 18.0071 19.7197C16.5443 19.7197 15.1324 19.5366 13.802 19.1963C12.9779 18.9854 12.2917 19.7507 12.8877 20.3577C14.1046 21.5972 15.9461 22.3873 18.0071 22.3873C20.0682 22.3873 21.9097 21.5972 23.1266 20.3577Z" fill="white"/>
<path d="M33.4969 14.9385H30.0978V17.088C29.9371 22.6568 26.0317 27.2813 20.8085 28.5389C20.3465 28.0769 19.7116 27.7876 19.0045 27.7876C17.6023 27.7876 16.4652 28.9246 16.4652 30.3269C16.4652 31.7291 17.6023 32.8661 19.0045 32.8661C19.7719 32.8661 20.459 32.5246 20.925 31.9862C27.9 30.6362 33.2116 24.6255 33.4849 17.3291H33.4969V14.9385Z" fill="#8D89FC"/>
<path d="M33.3884 13.4076C32.3518 5.83392 25.8549 0 18 0C9.7192 0 2.94911 6.4808 2.49107 14.6491C1.03259 15.2598 0 16.7022 0 18.3737V20.1656C0 22.3835 1.81607 24.1995 4.03393 24.1995C6.0067 24.1995 7.61786 22.5844 7.61786 20.6156V17.9277C7.61786 16.6299 6.91875 15.4848 5.87813 14.858C6.2317 8.46964 11.5232 3.39509 18 3.39509C24.0911 3.39509 29.1375 7.88303 30.0094 13.733C29.033 14.3759 28.3821 15.4808 28.3821 16.7303V19.4183C28.3821 21.3911 29.9973 23.0022 31.9661 23.0022C34.1839 23.0022 36 21.1861 36 18.9683V17.1763C36 15.4607 34.9112 13.9862 33.3884 13.4076Z" fill="#9F80F2"/>
</svg>
