<svg width="30" height="30" viewBox="0 0 30 30" fill="none" xmlns="http://www.w3.org/2000/svg">
<path d="M20.5011 24.049L20.5012 24.0509C20.5029 24.0783 20.5035 24.1181 20.4978 24.1604C20.4921 24.2036 20.4816 24.2353 20.4706 24.2556C20.4621 24.2714 20.4534 24.2809 20.4375 24.2898C20.4194 24.3 20.365 24.3242 20.2437 24.3242H3.79444C3.79281 24.3232 3.79109 24.322 3.78929 24.3208C3.74802 24.293 3.69296 24.2457 3.63706 24.1844C3.58135 24.1232 3.53789 24.0624 3.51201 24.0155C3.50869 24.0094 3.50593 24.0041 3.50366 23.9995C3.69733 21.7803 4.68832 20.1313 6.16533 19.0253C7.66678 17.901 9.70329 17.3149 11.9822 17.3149C14.3049 17.3149 16.3739 17.8716 17.8842 18.9788C19.3795 20.0749 20.3654 21.7369 20.5011 24.049ZM12.0062 15.3216C10.0729 15.3216 8.50755 13.7562 8.50755 11.8229C8.50755 9.88955 10.0729 8.32422 12.0062 8.32422C13.9395 8.32422 15.5049 9.88955 15.5049 11.8229C15.5049 13.7452 13.9386 15.3216 12.0062 15.3216Z" fill="url(#paint0_linear_343_64266)" stroke="#FFBB64"/>
<mask id="path-2-inside-1_343_64266" fill="white">
<path fill-rule="evenodd" clip-rule="evenodd" d="M17.8949 16.9411C17.3319 16.3782 17.0156 15.6146 17.0156 14.8184C17.0156 14.0222 17.3319 13.2587 17.8949 12.6957C18.4579 12.1327 19.2214 11.8164 20.0176 11.8164C20.8138 11.8164 21.5774 12.1327 22.1404 12.6957C22.7033 13.2587 23.0196 14.0222 23.0196 14.8184C23.0196 15.6146 22.7033 16.3782 22.1404 16.9411C21.5774 17.5041 20.8138 17.8204 20.0176 17.8204C19.2214 17.8204 18.4579 17.5041 17.8949 16.9411ZM27.0185 24.2217C26.8143 20.5832 24.0285 18.8541 20.6182 18.8181C21.8791 20.4872 22.6236 22.5766 22.6236 24.8221H26.4781C27.0185 24.8221 27.0305 24.3657 27.0185 24.2217Z"/>
</mask>
<path fill-rule="evenodd" clip-rule="evenodd" d="M17.8949 16.9411C17.3319 16.3782 17.0156 15.6146 17.0156 14.8184C17.0156 14.0222 17.3319 13.2587 17.8949 12.6957C18.4579 12.1327 19.2214 11.8164 20.0176 11.8164C20.8138 11.8164 21.5774 12.1327 22.1404 12.6957C22.7033 13.2587 23.0196 14.0222 23.0196 14.8184C23.0196 15.6146 22.7033 16.3782 22.1404 16.9411C21.5774 17.5041 20.8138 17.8204 20.0176 17.8204C19.2214 17.8204 18.4579 17.5041 17.8949 16.9411ZM27.0185 24.2217C26.8143 20.5832 24.0285 18.8541 20.6182 18.8181C21.8791 20.4872 22.6236 22.5766 22.6236 24.8221H26.4781C27.0185 24.8221 27.0305 24.3657 27.0185 24.2217Z" fill="white"/>
<path d="M17.8949 16.9411L17.1878 17.6482H17.1878L17.8949 16.9411ZM17.8949 12.6957L17.1878 11.9886L17.1878 11.9886L17.8949 12.6957ZM22.1404 12.6957L22.8475 11.9886V11.9886L22.1404 12.6957ZM20.6182 18.8181L20.6288 17.8181L18.5934 17.7966L19.8203 19.4208L20.6182 18.8181ZM27.0185 24.2217L26.0201 24.2777L26.0208 24.2912L26.0219 24.3047L27.0185 24.2217ZM22.6236 24.8221H21.6236V25.8221H22.6236V24.8221ZM16.0156 14.8184C16.0156 15.8798 16.4373 16.8977 17.1878 17.6482L18.602 16.234C18.2265 15.8586 18.0156 15.3494 18.0156 14.8184H16.0156ZM17.1878 11.9886C16.4373 12.7391 16.0156 13.757 16.0156 14.8184H18.0156C18.0156 14.2874 18.2265 13.7782 18.602 13.4028L17.1878 11.9886ZM20.0176 10.8164C18.9562 10.8164 17.9383 11.238 17.1878 11.9886L18.602 13.4028C18.9774 13.0273 19.4867 12.8164 20.0176 12.8164V10.8164ZM22.8475 11.9886C22.0969 11.238 21.079 10.8164 20.0176 10.8164V12.8164C20.5486 12.8164 21.0578 13.0273 21.4333 13.4028L22.8475 11.9886ZM24.0196 14.8184C24.0196 13.757 23.598 12.7391 22.8475 11.9886L21.4333 13.4028C21.8087 13.7782 22.0196 14.2874 22.0196 14.8184H24.0196ZM22.8475 17.6482C23.598 16.8977 24.0196 15.8798 24.0196 14.8184H22.0196C22.0196 15.3494 21.8087 15.8586 21.4333 16.234L22.8475 17.6482ZM20.0176 18.8204C21.079 18.8204 22.0969 18.3988 22.8475 17.6482L21.4333 16.234C21.0578 16.6095 20.5486 16.8204 20.0176 16.8204V18.8204ZM17.1878 17.6482C17.9383 18.3988 18.9562 18.8204 20.0176 18.8204V16.8204C19.4867 16.8204 18.9774 16.6095 18.602 16.234L17.1878 17.6482ZM20.6077 19.818C22.1585 19.8344 23.4763 20.2358 24.4074 20.9588C25.3128 21.6619 25.9331 22.7286 26.0201 24.2777L28.0169 24.1656C27.8997 22.0763 27.025 20.4592 25.6339 19.3791C24.2685 18.3189 22.4882 17.8377 20.6288 17.8181L20.6077 19.818ZM23.6236 24.8221C23.6236 22.3533 22.8047 20.0534 21.4161 18.2153L19.8203 19.4208C20.9535 20.9209 21.6236 22.7998 21.6236 24.8221H23.6236ZM26.4781 23.8221H22.6236V25.8221H26.4781V23.8221ZM26.0219 24.3047C26.0206 24.2882 26.0203 24.2725 26.0228 24.2522C26.0251 24.2337 26.0335 24.181 26.0692 24.1126C26.1093 24.0359 26.1804 23.9479 26.287 23.8855C26.391 23.8246 26.4707 23.8221 26.4781 23.8221V25.8221C26.7557 25.8221 27.0396 25.7624 27.2974 25.6115C27.5579 25.459 27.7325 25.2479 27.8417 25.0391C28.0404 24.6589 28.027 24.2826 28.015 24.1386L26.0219 24.3047Z" fill="#FFBB64" mask="url(#path-2-inside-1_343_64266)"/>
<defs>
<linearGradient id="paint0_linear_343_64266" x1="3" y1="6.82422" x2="21" y2="24.8266" gradientUnits="userSpaceOnUse">
<stop stop-color="#FFEBCB"/>
<stop offset="1" stop-color="#FFD898"/>
</linearGradient>
</defs>
</svg>
