<svg width="134" height="134" viewBox="0 0 134 134" fill="none" xmlns="http://www.w3.org/2000/svg">
<path d="M39.1314 53.8379L39.3108 54.0336L39.5735 53.9946L84.1734 47.3708C87.1655 46.9264 89.9549 48.9817 90.4169 51.9711L97.9295 100.582L17.9101 112.931L8.50665 57.8537C7.99401 54.8511 10.0194 52.0037 13.024 51.5029L32.4771 48.2607C33.3114 48.1217 34.1594 48.4139 34.731 49.0374L39.1314 53.8379Z" fill="url(#paint0_linear_424_87022)" fill-opacity="0.5" stroke="url(#paint1_linear_424_87022)"/>
<path d="M30.2003 80.6756L27.2598 38.2483C27.1138 36.1413 28.631 34.2838 30.7247 34.0064L105.787 24.0583C108.072 23.7556 110.139 25.4403 110.303 27.7386L113.236 68.8105C113.385 70.8932 111.907 72.7399 109.842 73.0509L34.7864 84.3545C32.4768 84.7023 30.3618 83.0056 30.2003 80.6756Z" stroke="#FFE4C1" stroke-width="2"/>
<path d="M52.9821 61.7338L127.046 51.6133C128.827 51.3699 130.275 53.03 129.793 54.7618L117.039 100.498C116.775 101.445 115.98 102.15 115.008 102.298L39.6085 113.792C37.7947 114.068 36.3109 112.362 36.8366 110.604L50.9254 63.4945C51.2064 62.555 52.0106 61.8666 52.9821 61.7338Z" fill="url(#paint2_linear_424_87022)" stroke="url(#paint3_linear_424_87022)"/>
<g opacity="0.9">
<path d="M89.0065 63.8381L85 64.4727L89.8785 74.6023C90.5033 75.8996 92.3228 75.9745 93.0522 74.7331L100.525 62.0137L97.0196 62.5689L92.2572 70.9239L89.0065 63.8381Z" fill="white"/>
<path d="M96.6483 74.1085L102.388 61.9811C102.44 61.8713 102.543 61.7942 102.663 61.7752L105.603 61.3096C105.761 61.2844 105.883 61.4474 105.815 61.5927L100.075 73.7201C100.023 73.8299 99.9202 73.907 99.8001 73.926L96.8603 74.3916C96.7016 74.4168 96.5795 74.2538 96.6483 74.1085Z" fill="white"/>
<path d="M107.011 64.0667L108.456 60.9234C108.507 60.8117 108.611 60.733 108.733 60.7138L116.051 59.5547C117.219 59.3697 119.683 59.8008 120.191 63.006C120.693 66.1746 118.315 68.06 117.022 68.6295C116.992 68.6427 116.961 68.651 116.929 68.6554L108.276 69.8312C108.153 69.848 108.046 69.9264 107.993 70.0393L106.687 72.8195C106.629 72.9423 106.509 73.0233 106.373 73.0304L103.672 73.172C103.397 73.1864 103.204 72.9041 103.318 72.653L106.047 66.6268C106.1 66.5103 106.209 66.4296 106.336 66.4136L116.422 65.143C116.756 65.0901 117.304 64.7306 117.259 63.8701C117.208 62.8843 116.572 62.6103 116.026 62.6389L107.011 64.0667Z" fill="white"/>
<path d="M89.0065 63.8381L85 64.4727L89.8785 74.6023C90.5033 75.8996 92.3228 75.9745 93.0522 74.7331L100.525 62.0137L97.0196 62.5689L92.2572 70.9239L89.0065 63.8381Z" stroke="#FFBB64" stroke-opacity="0.6" stroke-width="0.5"/>
<path d="M96.6483 74.1085L102.388 61.9811C102.44 61.8713 102.543 61.7942 102.663 61.7752L105.603 61.3096C105.761 61.2844 105.883 61.4474 105.815 61.5927L100.075 73.7201C100.023 73.8299 99.9202 73.907 99.8001 73.926L96.8603 74.3916C96.7016 74.4168 96.5795 74.2538 96.6483 74.1085Z" stroke="#FFBB64" stroke-opacity="0.6" stroke-width="0.5"/>
<path d="M107.011 64.0667L108.456 60.9234C108.507 60.8117 108.611 60.733 108.733 60.7138L116.051 59.5547C117.219 59.3697 119.683 59.8008 120.191 63.006C120.693 66.1746 118.315 68.06 117.022 68.6295C116.992 68.6427 116.961 68.651 116.929 68.6554L108.276 69.8312C108.153 69.848 108.046 69.9264 107.993 70.0393L106.687 72.8195C106.629 72.9423 106.509 73.0233 106.373 73.0304L103.672 73.172C103.397 73.1864 103.204 72.9041 103.318 72.653L106.047 66.6268C106.1 66.5103 106.209 66.4296 106.336 66.4136L116.422 65.143C116.756 65.0901 117.304 64.7306 117.259 63.8701C117.208 62.8843 116.572 62.6103 116.026 62.6389L107.011 64.0667Z" stroke="#FFBB64" stroke-opacity="0.6" stroke-width="0.5"/>
</g>
<defs>
<linearGradient id="paint0_linear_424_87022" x1="41.5" y1="46" x2="49.5" y2="114" gradientUnits="userSpaceOnUse">
<stop stop-color="#FFBB55" stop-opacity="0.3"/>
<stop offset="1" stop-color="#FFBB55" stop-opacity="0"/>
</linearGradient>
<linearGradient id="paint1_linear_424_87022" x1="41" y1="46" x2="52.75" y2="113.5" gradientUnits="userSpaceOnUse">
<stop stop-color="#FFBB64" stop-opacity="0.4"/>
<stop offset="1" stop-color="#FFBB64" stop-opacity="0"/>
</linearGradient>
<linearGradient id="paint2_linear_424_87022" x1="71.3852" y1="50.5" x2="78.3284" y2="115.637" gradientUnits="userSpaceOnUse">
<stop stop-color="#FFDEAD"/>
<stop offset="1" stop-color="#FFFAF1"/>
</linearGradient>
<linearGradient id="paint3_linear_424_87022" x1="83.25" y1="50.5" x2="83.25" y2="113.5" gradientUnits="userSpaceOnUse">
<stop stop-color="#FFBB64" stop-opacity="0.4"/>
<stop offset="1" stop-color="#FFBB64" stop-opacity="0"/>
</linearGradient>
</defs>
</svg>
