<svg width="20" height="20" viewBox="0 0 20 20" fill="none" xmlns="http://www.w3.org/2000/svg">
<path d="M7.01251 10.3274C7.81542 11.902 9.10843 13.195 10.683 13.9979L11.903 12.7779C12.049 12.6319 12.2784 12.5797 12.4661 12.6423C13.0917 12.8509 13.7695 12.9551 14.4577 12.9551C14.7601 12.9551 15.0104 13.2054 15.0104 13.5078V15.4473C15.0104 15.7497 14.7601 16 14.4577 16C9.23356 16.0104 5 11.7768 5 6.55266C5 6.25026 5.25026 6 5.55266 6H7.5026C7.80499 6 8.05525 6.23983 8.05525 6.54223C8.05525 7.24087 8.16996 7.90823 8.36808 8.53388C8.43064 8.732 8.38893 8.94055 8.23252 9.09696L7.01251 10.3274Z" fill="#B1B1B1"/>
</svg>
