<svg width="360" height="485" viewBox="0 0 360 485" fill="none" xmlns="http://www.w3.org/2000/svg">
<rect width="360" height="485" rx="8" fill="url(#paint0_linear_36_17230)"/>
<g opacity="0.5">
<mask id="mask0_36_17230" style="mask-type:alpha" maskUnits="userSpaceOnUse" x="0" y="0" width="360" height="485">
<rect width="360" height="485" rx="8" fill="url(#paint1_linear_36_17230)"/>
</mask>
<g mask="url(#mask0_36_17230)">
<g opacity="0.2">
<mask id="path-3-inside-1_36_17230" fill="white">
<path fill-rule="evenodd" clip-rule="evenodd" d="M19.211 -1.77982H75.0181L101.051 19.343C102.023 20.1318 102.04 21.6098 101.086 22.4203L48.7559 66.8723L-2.14932 22.2791C-3.02366 21.5132 -3.06313 20.1658 -2.23513 19.3501L19.211 -1.77982ZM50.6407 8.7009L30.188 25.944C28.4058 27.4466 29.4683 30.3553 31.7995 30.3553H48.7556L44.9482 38.8261C43.8634 41.2396 46.7812 43.4637 48.8209 41.7782L69.6603 24.5577C71.4667 23.065 70.4112 20.1306 68.0678 20.1306H52.8591L54.7016 11.1127C55.1761 8.79005 52.4532 7.17286 50.6407 8.7009Z"/>
</mask>
<path fill-rule="evenodd" clip-rule="evenodd" d="M19.211 -1.77982H75.0181L101.051 19.343C102.023 20.1318 102.04 21.6098 101.086 22.4203L48.7559 66.8723L-2.14932 22.2791C-3.02366 21.5132 -3.06313 20.1658 -2.23513 19.3501L19.211 -1.77982ZM50.6407 8.7009L30.188 25.944C28.4058 27.4466 29.4683 30.3553 31.7995 30.3553H48.7556L44.9482 38.8261C43.8634 41.2396 46.7812 43.4637 48.8209 41.7782L69.6603 24.5577C71.4667 23.065 70.4112 20.1306 68.0678 20.1306H52.8591L54.7016 11.1127C55.1761 8.79005 52.4532 7.17286 50.6407 8.7009Z" fill="url(#paint2_linear_36_17230)"/>
<path d="M75.0181 -1.77982V-3.27982H75.5501L75.9632 -2.94462L75.0181 -1.77982ZM19.211 -1.77982L18.1582 -2.84832L18.5961 -3.27982H19.211V-1.77982ZM101.051 19.343L100.106 20.5078L100.106 20.5078L101.051 19.343ZM101.086 22.4203L102.057 23.5635L102.057 23.5635L101.086 22.4203ZM48.7559 66.8723L49.727 68.0155L48.7408 68.8532L47.7675 68.0006L48.7559 66.8723ZM-2.14932 22.2791L-3.13773 23.4074L-2.14932 22.2791ZM-2.23513 19.3501L-3.28788 18.2815L-2.23513 19.3501ZM30.188 25.944L29.2212 24.7972V24.7972L30.188 25.944ZM50.6407 8.7009L51.6076 9.84772L51.6076 9.84772L50.6407 8.7009ZM48.7556 30.3553V28.8553H51.0744L50.1238 30.9703L48.7556 30.3553ZM44.9482 38.8261L43.58 38.2112L44.9482 38.8261ZM48.8209 41.7782L49.7764 42.9345L48.8209 41.7782ZM69.6603 24.5577L68.7048 23.4014L69.6603 24.5577ZM52.8591 20.1306V21.6306H51.0217L51.3895 19.8303L52.8591 20.1306ZM54.7016 11.1127L56.1712 11.413V11.413L54.7016 11.1127ZM75.0181 -0.279816H19.211V-3.27982H75.0181V-0.279816ZM100.106 20.5078L74.073 -0.61501L75.9632 -2.94462L101.996 18.1782L100.106 20.5078ZM100.115 21.2771C100.353 21.0745 100.349 20.705 100.106 20.5078L101.996 18.1782C103.698 19.5586 103.727 22.1451 102.057 23.5635L100.115 21.2771ZM47.7848 65.7291L100.115 21.2771L102.057 23.5635L49.727 68.0155L47.7848 65.7291ZM-1.16093 21.1508L49.7443 65.744L47.7675 68.0006L-3.13773 23.4074L-1.16093 21.1508ZM-1.18237 20.4186C-1.38938 20.6225 -1.37951 20.9594 -1.16093 21.1508L-3.13773 23.4074C-4.66781 22.0671 -4.73688 19.7092 -3.28788 18.2815L-1.18237 20.4186ZM20.2637 -0.711307L-1.18237 20.4186L-3.28788 18.2815L18.1582 -2.84832L20.2637 -0.711307ZM29.2212 24.7972L49.6739 7.55408L51.6076 9.84772L31.1549 27.0908L29.2212 24.7972ZM31.7995 31.8553C28.0696 31.8553 26.3696 27.2013 29.2212 24.7972L31.1549 27.0908C30.442 27.6918 30.867 28.8553 31.7995 28.8553V31.8553ZM48.7556 31.8553H31.7995V28.8553H48.7556V31.8553ZM43.58 38.2112L47.3875 29.7404L50.1238 30.9703L46.3163 39.4411L43.58 38.2112ZM49.7764 42.9345C46.5128 45.6313 41.8443 42.0726 43.58 38.2112L46.3163 39.4411C45.8824 40.4065 47.0495 41.2961 47.8654 40.6219L49.7764 42.9345ZM70.6158 25.714L49.7764 42.9345L47.8654 40.6219L68.7048 23.4014L70.6158 25.714ZM68.0678 18.6306C71.8172 18.6306 73.5061 23.3256 70.6158 25.714L68.7048 23.4014C69.4274 22.8043 69.0051 21.6306 68.0678 21.6306V18.6306ZM52.8591 18.6306H68.0678V21.6306H52.8591V18.6306ZM56.1712 11.413L54.3287 20.4308L51.3895 19.8303L53.2319 10.8124L56.1712 11.413ZM49.6739 7.55408C52.5738 5.10922 56.9305 7.69671 56.1712 11.413L53.2319 10.8124C53.4217 9.88338 52.3326 9.2365 51.6076 9.84772L49.6739 7.55408Z" fill="white" mask="url(#path-3-inside-1_36_17230)"/>
</g>
</g>
</g>
<defs>
<linearGradient id="paint0_linear_36_17230" x1="178.085" y1="5.00038e-08" x2="178.085" y2="103.062" gradientUnits="userSpaceOnUse">
<stop stop-color="#FFF3E0"/>
<stop offset="1" stop-color="white"/>
</linearGradient>
<linearGradient id="paint1_linear_36_17230" x1="178.085" y1="5.00038e-08" x2="178.085" y2="103.062" gradientUnits="userSpaceOnUse">
<stop stop-color="#FFF3E0"/>
<stop offset="1" stop-color="white"/>
</linearGradient>
<linearGradient id="paint2_linear_36_17230" x1="49.4797" y1="-1.77982" x2="49.4797" y2="66.8723" gradientUnits="userSpaceOnUse">
<stop stop-color="#EDA041"/>
<stop offset="1" stop-color="#EDA041" stop-opacity="0"/>
</linearGradient>
</defs>
</svg>
