<svg width="30" height="30" viewBox="0 0 30 30" fill="none" xmlns="http://www.w3.org/2000/svg">
<path d="M25.4387 9.24805L25.439 20.7692L15.4609 26.5296L15.4612 15.0085L25.4387 9.24805Z" fill="white"/>
<path d="M14.9788 25.6887L5.96094 20.482V10.0693L14.9788 15.276V25.6887Z" fill="#EEEDFF"/>
<path d="M15.4556 14.444L6.4375 9.2364L15.4556 4.03125L24.4732 9.2379L15.4556 14.444Z" fill="#EEEDFF"/>
<path fill-rule="evenodd" clip-rule="evenodd" d="M17.7964 14.2048L15.9392 15.2771V25.6898L24.957 20.4834V10.0713L17.7964 14.2048ZM25.6441 8.80745L15.6979 3.0643C15.6249 3.02218 15.5422 3 15.4579 3C15.3737 3 15.2909 3.02218 15.218 3.0643L5.28383 8.79846C5.26891 8.80514 5.2543 8.81259 5.24006 8.82081C5.16711 8.86291 5.10651 8.92347 5.06437 8.99641C5.02224 9.06934 5.00003 9.15209 5 9.23632V9.23942V20.7595C4.99998 20.8438 5.02215 20.9266 5.06428 20.9996C5.1064 21.0726 5.167 21.1332 5.23998 21.1753L15.1953 26.9221C15.273 26.9734 15.3647 27.0012 15.4592 27.0012C15.5435 27.0011 15.6263 26.9787 15.6992 26.9364L25.6767 21.1763C25.7496 21.1342 25.8102 21.0736 25.8524 21.0006C25.8945 20.9276 25.9167 20.8448 25.9166 20.7606V9.24037C25.9167 9.15611 25.8945 9.07333 25.8524 9.00035C25.8103 8.92738 25.7497 8.86677 25.6767 8.82463C25.666 8.81848 25.6552 8.81275 25.6441 8.80745ZM15.4614 14.4439L24.4755 9.23987L15.4579 4.03322L6.44152 9.23738L15.4614 14.4439ZM5.95992 10.0707V20.4815L14.9777 25.6881V15.2771L5.95992 10.0707Z" fill="#A9A9FF"/>
</svg>
