<svg width="31" height="30" viewBox="0 0 31 30" fill="none" xmlns="http://www.w3.org/2000/svg">
<path d="M0 1L6.03545 13.8471L14.8678 9.43093L24.1017 13.8471L30.1372 1H0Z" fill="url(#paint0_linear_343_73786)"/>
<path d="M13.7683 26.764L5.67401 22.8746C4.88466 22.5017 4.48352 21.6102 4.72792 20.7721L13.7683 25.1872L14.6093 25.6077L22.7036 21.7182L24.3855 20.7721C24.5778 21.6059 24.1909 22.4656 23.4394 22.8746L15.3451 26.764C14.8669 27.0798 14.2465 27.0798 13.7683 26.764ZM13.7683 22.9797L5.67401 19.0902C4.88399 18.718 4.48258 17.826 4.72792 16.9878L13.7683 21.4029L14.6093 21.8234L22.7036 17.9339L24.3855 16.9878C24.5786 17.8216 24.1915 18.6817 23.4394 19.0902L15.3451 22.9797C14.8669 23.2955 14.2465 23.2955 13.7683 22.9797Z" fill="#A9A9FF"/>
<path d="M15.0127 18.693C14.8126 18.8238 14.5707 18.861 14.3468 18.8045L14.0243 18.6494L5.93 14.7547L5.92345 14.7515L5.91682 14.7485C5.33205 14.4844 5.07211 13.7962 5.33624 13.2114C5.34445 13.1933 5.35312 13.1753 5.36225 13.1576L5.36985 13.1429L5.37662 13.1277C5.48369 12.8882 5.67528 12.6967 5.91474 12.5896L5.92227 12.5862L5.92971 12.5826L14.024 8.69317L14.0617 8.67506L14.0965 8.65191C14.3727 8.46811 14.7323 8.46811 15.0086 8.65191L15.0434 8.67506L15.0811 8.69317L23.1754 12.5826L23.1753 12.5828L23.1866 12.5879C23.7743 12.8555 24.0338 13.5488 23.7662 14.1365L24.3123 14.3851L23.7662 14.1365C23.7586 14.1531 23.7507 14.1695 23.7424 14.1857L23.7336 14.2029L23.7259 14.2206C23.6228 14.4579 23.4335 14.6472 23.1962 14.7503L23.1855 14.7549L23.1751 14.7599L15.0808 18.6546L15.0455 18.6716L15.0127 18.693Z" fill="#EEEDFF" stroke="#A9A9FF" stroke-width="1.2"/>
<defs>
<linearGradient id="paint0_linear_343_73786" x1="15.7285" y1="15.5986" x2="15.7285" y2="1" gradientUnits="userSpaceOnUse">
<stop stop-color="#B4B3FF"/>
<stop offset="1" stop-color="white" stop-opacity="0"/>
</linearGradient>
</defs>
</svg>
