<svg width="30" height="30" viewBox="0 0 30 30" fill="none" xmlns="http://www.w3.org/2000/svg">
<path d="M16.2133 7.88318L16.2132 7.88318C15.3269 7.89552 14.4962 8.24966 13.8739 8.88064C13.2515 9.51163 12.9089 10.3471 12.9089 11.2334V12.7225C12.9089 13.8986 11.9521 14.8554 10.776 14.8554C10.4397 14.8554 10.1672 15.1279 10.1672 15.4642C10.1672 15.8005 10.4397 16.073 10.776 16.073C12.6233 16.073 14.1264 14.5701 14.1264 12.7223V11.2332C14.1264 10.073 15.0701 9.11653 16.2301 9.10056M16.2133 7.88318L16.2308 9.15055M16.2133 7.88318L16.2885 7.88209L16.2133 7.88318ZM16.2301 9.10056L16.2308 9.15055M16.2301 9.10056L16.23 9.10056L16.2308 9.15055M16.2301 9.10056L16.3054 9.09946L16.3054 9.09946C16.6415 9.09479 16.9103 8.8186 16.9057 8.48235C16.901 8.14633 16.6248 7.87764 16.2886 7.88209L16.2886 7.88209L16.2879 7.83209C16.6517 7.82726 16.9506 8.11801 16.9557 8.48166C16.9607 8.84553 16.6698 9.1444 16.3061 9.14946L16.2308 9.15055" fill="#FFBB64" stroke="white" stroke-width="0.1"/>
<path d="M16.9559 22.4485L16.9059 22.4478C16.901 22.781 16.6295 23.0481 16.2971 23.0481H16.2882H16.2879L16.2133 23.047L16.2132 23.047C15.3269 23.0349 14.4962 22.6807 13.8739 22.0497C13.2515 21.4188 12.9089 20.5833 12.9089 19.697V18.2081C12.9089 17.032 11.9521 16.0752 10.776 16.0752C10.4397 16.0752 10.1672 15.8027 10.1672 15.4664C10.1672 15.1302 10.4397 14.8576 10.776 14.8576C12.6233 14.8576 14.1264 16.3608 14.1264 18.2081V19.697C14.1264 20.8572 15.0698 21.8136 16.2301 21.8296L16.3054 21.8307L16.3054 21.8307C16.6417 21.8354 16.9104 22.1116 16.9059 22.4478L16.9559 22.4485ZM16.9559 22.4485C16.9607 22.0846 16.67 21.7858 16.3061 21.7807L16.2879 23.0981H16.2971C16.6568 23.0981 16.9506 22.8091 16.9559 22.4485Z" fill="#FFBB64" stroke="white" stroke-width="0.1"/>
<path d="M16.2969 16.0752H10.776C10.4397 16.0752 10.1672 15.8027 10.1672 15.4664C10.1672 15.1302 10.4397 14.8576 10.776 14.8576H16.2971C16.6333 14.8576 16.9059 15.1301 16.9059 15.4664C16.9057 15.8027 16.6331 16.0752 16.2969 16.0752Z" fill="#FFBB64" stroke="white" stroke-width="0.1"/>
<rect x="16.6328" y="13.1953" width="9.36949" height="4.49735" rx="1" fill="white" stroke="#FFBB64"/>
<rect x="16.6328" y="6" width="9.36949" height="4.49735" rx="1" fill="white" stroke="#FFBB64"/>
<rect x="16.6328" y="20.3911" width="9.36949" height="4.49735" rx="1" fill="white" stroke="#FFBB64"/>
<path d="M3 13.5586C3 13.0063 3.44772 12.5586 4 12.5586H9C9.55228 12.5586 10 13.0063 10 13.5586V17.5586C10 18.1109 9.55228 18.5586 9 18.5586H4C3.44772 18.5586 3 18.1109 3 17.5586V13.5586Z" fill="url(#paint0_linear_343_64271)" stroke="#FFBB64"/>
<defs>
<linearGradient id="paint0_linear_343_64271" x1="4" y1="12.5586" x2="9.97674" y2="18.0308" gradientUnits="userSpaceOnUse">
<stop stop-color="#FFEDD1"/>
<stop offset="1" stop-color="#FFE1B0"/>
</linearGradient>
</defs>
</svg>
