<svg width="30" height="30" viewBox="0 0 30 30" fill="none" xmlns="http://www.w3.org/2000/svg">
<path d="M24.9578 12.306C25.3043 13.311 25.5 14.381 25.5 15.5C25.5 21.0219 21.0219 25.5 15.5 25.5C9.9781 25.5 5.5 21.0219 5.5 15.5C5.5 9.9781 9.9781 5.5 15.5 5.5C17.0171 5.5 18.4514 5.83945 19.7368 6.4443L18.6764 7.50472L18.1958 7.98531L18.0284 8.15276L18.0518 8.38841L18.1192 9.06507L18.1193 9.06574L18.1889 9.77413L17.7092 10.2538C17.0301 9.96465 16.283 9.8034 15.5 9.8034C12.36 9.8034 9.80621 12.3572 9.80621 15.4972C9.80621 18.6372 12.36 21.191 15.5 21.191C18.64 21.191 21.1938 18.6372 21.1938 15.4972C21.1938 15.119 21.153 14.7526 21.0817 14.3988L21.3987 14.0801L21.3996 14.0792L21.9482 13.5306L22.6566 13.6002L22.6572 13.6003L23.3339 13.6676L23.5695 13.6911L23.737 13.5237L24.2168 13.0438L24.2176 13.0431L24.9578 12.306Z" fill="#EEEDFF" stroke="#A9A9FF"/>
<path d="M20.2068 10.4948L19.0096 11.692L17.6099 13.0917C17.0422 12.5942 16.3087 12.2794 15.4965 12.2794C13.723 12.2794 12.2812 13.7212 12.2812 15.4946C12.2812 17.2681 13.7258 18.7127 15.4993 18.7127C17.2727 18.7127 18.7145 17.2681 18.7145 15.4946C18.7145 15.059 18.6245 14.6459 18.4671 14.2665L21.2214 11.5122L22.8431 11.6724L26.0217 8.49371L23.4754 8.24357L23.2253 5.69727L20.0495 8.87312L20.2068 10.4948Z" fill="url(#paint0_linear_343_74072)"/>
<defs>
<linearGradient id="paint0_linear_343_74072" x1="22.6563" y1="7.86737" x2="14.5427" y2="15.5037" gradientUnits="userSpaceOnUse">
<stop stop-color="#BBBAFF"/>
<stop offset="1" stop-color="#928FFF"/>
</linearGradient>
</defs>
</svg>
