<svg width="320" height="460" viewBox="0 0 320 460" fill="none" xmlns="http://www.w3.org/2000/svg">
<mask id="mask0_140_25874" style="mask-type:alpha" maskUnits="userSpaceOnUse" x="0" y="13" width="320" height="447">
<path d="M0 21C0 16.5817 3.58172 13 8 13H312C316.418 13 320 16.5817 320 21V452C320 456.418 316.418 460 312 460H7.99999C3.58171 460 0 456.418 0 452V21Z" fill="url(#paint0_linear_140_25874)"/>
</mask>
<g mask="url(#mask0_140_25874)">
<path opacity="0.4" fill-rule="evenodd" clip-rule="evenodd" d="M165.24 125.286L150.012 28.4456C149.902 27.7428 150.54 27.1527 151.232 27.3174L193.445 37.3682C193.609 37.4073 193.782 37.3609 193.904 37.2448L233.056 0.153466C233.277 -0.0551862 233.623 -0.0505058 233.838 0.164021L270.909 37.2357C271.031 37.3572 271.206 37.4078 271.374 37.3697L315.653 27.3062C316.351 27.1476 316.985 27.7523 316.859 28.457L299.586 125.286H165.24ZM170.625 150.035L166.529 131.6H298.312L294.215 150.035C294.164 150.264 293.961 150.426 293.727 150.426H171.113C170.879 150.426 170.676 150.264 170.625 150.035ZM208.315 57.5426C208.315 57.4321 208.405 57.3426 208.515 57.3426H258.954C259.065 57.3426 259.154 57.4321 259.154 57.5426V70.6995C259.154 70.81 259.065 70.8995 258.954 70.8995H240.476V107.984C240.476 108.095 240.386 108.184 240.276 108.184H227.119C227.008 108.184 226.919 108.095 226.919 107.984V70.8995H208.515C208.405 70.8995 208.315 70.81 208.315 70.6995V57.5426Z" fill="#6A67F4"/>
</g>
<defs>
<linearGradient id="paint0_linear_140_25874" x1="160" y1="13" x2="160" y2="88.1047" gradientUnits="userSpaceOnUse">
<stop stop-color="#FFBA61"/>
<stop offset="1" stop-color="#FED785" stop-opacity="0"/>
</linearGradient>
</defs>
</svg>
