<svg width="30" height="30" viewBox="0 0 30 30" fill="none" xmlns="http://www.w3.org/2000/svg">
<mask id="path-1-inside-1_343_64080" fill="white">
<path fill-rule="evenodd" clip-rule="evenodd" d="M18.636 6C18.0837 6 17.636 6.44771 17.636 7V25.9986H23.0902V7C23.0902 6.44772 22.6425 6 22.0902 6H18.636ZM10.8152 11.546C10.8152 10.9937 11.2629 10.546 11.8152 10.546H15.2694C15.8217 10.546 16.2694 10.9937 16.2694 11.546V25.9994H10.8152V11.546ZM4 14.2728C4 13.7205 4.44772 13.2728 5 13.2728H8.45416C9.00644 13.2728 9.45416 13.7205 9.45416 14.2728V25.9992H4V14.2728Z"/>
</mask>
<path fill-rule="evenodd" clip-rule="evenodd" d="M18.636 6C18.0837 6 17.636 6.44771 17.636 7V25.9986H23.0902V7C23.0902 6.44772 22.6425 6 22.0902 6H18.636ZM10.8152 11.546C10.8152 10.9937 11.2629 10.546 11.8152 10.546H15.2694C15.8217 10.546 16.2694 10.9937 16.2694 11.546V25.9994H10.8152V11.546ZM4 14.2728C4 13.7205 4.44772 13.2728 5 13.2728H8.45416C9.00644 13.2728 9.45416 13.7205 9.45416 14.2728V25.9992H4V14.2728Z" fill="url(#paint0_linear_343_64080)"/>
<path d="M17.636 25.9986H16.836V26.7986H17.636V25.9986ZM23.0902 25.9986V26.7986H23.8902V25.9986H23.0902ZM16.2694 25.9994V26.7994H17.0694V25.9994H16.2694ZM10.8152 25.9994H10.0152V26.7994H10.8152V25.9994ZM9.45416 25.9992V26.7992H10.2542V25.9992H9.45416ZM4 25.9992H3.2V26.7992H4V25.9992ZM18.436 7C18.436 6.88954 18.5256 6.8 18.636 6.8V5.2C17.6419 5.2 16.836 6.00589 16.836 7H18.436ZM18.436 25.9986V7H16.836V25.9986H18.436ZM23.0902 25.1986H17.636V26.7986H23.0902V25.1986ZM22.2902 7V25.9986H23.8902V7H22.2902ZM22.0902 6.8C22.2006 6.8 22.2902 6.88954 22.2902 7H23.8902C23.8902 6.00589 23.0843 5.2 22.0902 5.2V6.8ZM18.636 6.8H22.0902V5.2H18.636V6.8ZM11.8152 9.74596C10.8211 9.74596 10.0152 10.5518 10.0152 11.546H11.6152C11.6152 11.4355 11.7048 11.346 11.8152 11.346V9.74596ZM15.2694 9.74596H11.8152V11.346H15.2694V9.74596ZM17.0694 11.546C17.0694 10.5518 16.2635 9.74596 15.2694 9.74596V11.346C15.3798 11.346 15.4694 11.4355 15.4694 11.546H17.0694ZM17.0694 25.9994V11.546H15.4694V25.9994H17.0694ZM10.8152 26.7994H16.2694V25.1994H10.8152V26.7994ZM10.0152 11.546V25.9994H11.6152V11.546H10.0152ZM5 12.4728C4.00589 12.4728 3.2 13.2787 3.2 14.2728H4.8C4.8 14.1623 4.88954 14.0728 5 14.0728V12.4728ZM8.45416 12.4728H5V14.0728H8.45416V12.4728ZM10.2542 14.2728C10.2542 13.2787 9.44827 12.4728 8.45416 12.4728V14.0728C8.56461 14.0728 8.65416 14.1623 8.65416 14.2728H10.2542ZM10.2542 25.9992V14.2728H8.65416V25.9992H10.2542ZM4 26.7992H9.45416V25.1992H4V26.7992ZM3.2 14.2728V25.9992H4.8V14.2728H3.2Z" fill="#FFBB64" mask="url(#path-1-inside-1_343_64080)"/>
<g filter="url(#filter0_b_343_64080)">
<path d="M11.8872 25.6211H6.72656L15.0948 17.2529C15.2119 17.1357 15.4019 17.1357 15.519 17.2529L18.0347 19.7686C18.1091 19.843 18.2286 19.847 18.3078 19.7777L21.8364 16.6901C21.917 16.6196 21.9278 16.4982 21.8609 16.4147L20.3615 14.5403C20.2522 14.4037 20.3586 14.2026 20.533 14.216L26.086 14.6431C26.1902 14.6512 26.2706 14.738 26.2706 14.8426V20.7608C26.2706 20.9498 26.0326 21.0333 25.9145 20.8857L24.5035 19.122C24.429 19.0289 24.2902 19.0212 24.2059 19.1055L18.3084 25.003C18.2303 25.0811 18.1037 25.0811 18.0256 25.003L15.4483 22.4257C15.3702 22.3476 15.2436 22.3476 15.1655 22.4257L12.0287 25.5625C11.9912 25.6 11.9403 25.6211 11.8872 25.6211Z" fill="white"/>
<path d="M11.8872 25.6211H6.72656L15.0948 17.2529C15.2119 17.1357 15.4019 17.1357 15.519 17.2529L18.0347 19.7686C18.1091 19.843 18.2286 19.847 18.3078 19.7777L21.8364 16.6901C21.917 16.6196 21.9278 16.4982 21.8609 16.4147L20.3615 14.5403C20.2522 14.4037 20.3586 14.2026 20.533 14.216L26.086 14.6431C26.1902 14.6512 26.2706 14.738 26.2706 14.8426V20.7608C26.2706 20.9498 26.0326 21.0333 25.9145 20.8857L24.5035 19.122C24.429 19.0289 24.2902 19.0212 24.2059 19.1055L18.3084 25.003C18.2303 25.0811 18.1037 25.0811 18.0256 25.003L15.4483 22.4257C15.3702 22.3476 15.2436 22.3476 15.1655 22.4257L12.0287 25.5625C11.9912 25.6 11.9403 25.6211 11.8872 25.6211Z" stroke="#FFBB64" stroke-width="0.8"/>
</g>
<defs>
<filter id="filter0_b_343_64080" x="-4.24219" y="3.81543" width="40.9141" height="32.2056" filterUnits="userSpaceOnUse" color-interpolation-filters="sRGB">
<feFlood flood-opacity="0" result="BackgroundImageFix"/>
<feGaussianBlur in="BackgroundImageFix" stdDeviation="5"/>
<feComposite in2="SourceAlpha" operator="in" result="effect1_backgroundBlur_343_64080"/>
<feBlend mode="normal" in="SourceGraphic" in2="effect1_backgroundBlur_343_64080" result="shape"/>
</filter>
<linearGradient id="paint0_linear_343_64080" x1="4" y1="4.82356" x2="25.0625" y2="23.8116" gradientUnits="userSpaceOnUse">
<stop stop-color="#FFEBCB"/>
<stop offset="1" stop-color="#FFD898"/>
</linearGradient>
</defs>
</svg>
