<svg width="11" height="11" viewBox="0 0 11 11" fill="none" xmlns="http://www.w3.org/2000/svg">
<path d="M8.31442 6.85784C8.31893 6.84548 8.32497 6.83383 8.32915 6.82128C8.34506 6.76663 8.34725 6.70773 8.33162 6.65227C8.28713 6.5093 8.13919 6.42845 8.00097 6.47162C7.92145 6.49747 7.85976 6.56172 7.83554 6.64388C7.53255 7.57306 6.79816 8.27919 5.87577 8.52584C4.37321 8.92845 2.81544 8.01047 2.36524 6.47518L2.77118 6.71872C2.8319 6.76588 2.90913 6.78376 2.98268 6.76769C3.05057 6.75251 3.10936 6.71008 3.14612 6.64973C3.18288 6.58938 3.19458 6.51607 3.17866 6.44592C3.16028 6.36905 3.10987 6.30395 3.04101 6.26818L3.04319 6.26425L1.83514 5.53993L1.17669 6.76717L1.1799 6.7691C1.1288 6.83149 1.10904 6.91521 1.12638 6.99583C1.15986 7.14175 1.30137 7.23417 1.44262 7.20236C1.52953 7.1814 1.59909 7.11569 1.62674 7.02844L1.63469 7.03299L1.86215 6.60942C2.38902 8.43189 4.23495 9.52296 6.01514 9.04596C7.09346 8.75702 7.9492 7.94017 8.31442 6.85784ZM7.83552 4.79898L7.44905 4.5597L7.44444 4.56763C7.37698 4.50565 7.28376 4.48349 7.19803 4.50906C7.05974 4.55225 6.98314 4.70294 7.02767 4.84598C7.05289 4.92444 7.11177 4.98707 7.18714 5.01564L7.18525 5.01865L8.36903 5.75199L9.05272 4.52133L9.04936 4.51889C9.09109 4.4534 9.10209 4.37172 9.07938 4.29594C9.03543 4.15303 8.88738 4.07229 8.74902 4.11521C8.67709 4.13845 8.61908 4.19297 8.59012 4.26454L8.34918 4.69814C7.81309 2.88957 5.97605 1.8095 4.2034 2.28448C3.11577 2.57591 2.25166 3.40476 1.89178 4.50099L2.38677 4.68053C2.68957 3.75391 3.42275 3.05074 4.34277 2.80459C5.82647 2.40703 7.36377 3.29789 7.83552 4.79898Z" fill="currentColor" stroke="#8A8A8A" stroke-width="0.0666667"/>
</svg>
