<svg width="10" height="10" viewBox="0 0 10 10" fill="none" xmlns="http://www.w3.org/2000/svg">
<path d="M9.51129 9.16553H0.563673C0.435008 9.1663 0.31128 9.11605 0.219598 9.02577C0.127917 8.9355 0.0757564 8.81256 0.0745459 8.6839C0.0745459 8.46517 0.2262 8.28768 0.429101 8.22893C0.295129 8.18925 0.178903 8.10466 0.0999605 7.98937C0.044732 7.90735 0.0111481 7.81269 0.00233382 7.71421C-0.00648045 7.61572 0.00976129 7.5166 0.0495479 7.42608L0.942393 5.34916C0.962106 5.3001 0.992408 5.256 1.03114 5.22001L5.90575 0.417894C6.17899 0.148754 6.54755 -0.00145606 6.93108 1.06409e-05C7.31688 1.06409e-05 7.6806 0.148332 7.95475 0.417477C8.08918 0.549117 8.19592 0.70632 8.26869 0.879832C8.34146 1.05334 8.37878 1.23966 8.37846 1.42781C8.37864 1.61564 8.34125 1.8016 8.26848 1.97475C8.19571 2.14791 8.08904 2.30476 7.95475 2.43607L3.07764 7.24026C3.04034 7.27719 2.99599 7.30624 2.94723 7.32567L0.863233 8.20227H9.51129C9.78043 8.20227 10 8.41809 10 8.6839C10 8.94929 9.78043 9.16553 9.51129 9.16553ZM7.56228 1.42781C7.5623 1.34584 7.54586 1.2647 7.51394 1.1892C7.48202 1.11369 7.43527 1.04537 7.37646 0.988265C7.26957 0.882292 7.12832 0.818007 6.9782 0.807006C6.82808 0.796005 6.67898 0.839012 6.55778 0.928269L7.43687 1.79445C7.51687 1.68863 7.56228 1.56197 7.56228 1.42781ZM6.86525 2.37024L5.97324 1.49114L1.95648 5.44749L2.84849 6.32659L6.86525 2.37024ZM2.1548 6.78322L1.4936 6.1316L1.00447 7.26609L2.1548 6.78322Z" fill="#8A8A8A"/>
</svg>
