<svg width="10" height="10" viewBox="0 0 10 10" fill="none" xmlns="http://www.w3.org/2000/svg">
<path d="M5.26306 1.7129C4.95467 1.71293 4.04418 1.69776 3.82391 2.73854C3.60125 3.7906 2.76658 4.76307 2.38477 4.99995" stroke="#8A8A8A" stroke-width="0.5625" stroke-linecap="round" stroke-linejoin="round"/>
<path d="M7.32639 2.77778C7.74827 2.77778 8.09028 2.43577 8.09028 2.01389C8.09028 1.592 7.74827 1.25 7.32639 1.25C6.9045 1.25 6.5625 1.592 6.5625 2.01389C6.5625 2.43577 6.9045 2.77778 7.32639 2.77778Z" stroke="#8A8A8A" stroke-width="0.5625"/>
<path d="M7.32639 5.90278C7.74827 5.90278 8.09028 5.56077 8.09028 5.13889C8.09028 4.717 7.74827 4.375 7.32639 4.375C6.9045 4.375 6.5625 4.717 6.5625 5.13889C6.5625 5.56077 6.9045 5.90278 7.32639 5.90278Z" stroke="#8A8A8A" stroke-width="0.5625"/>
<path d="M7.32639 8.71528C7.74827 8.71528 8.09028 8.37327 8.09028 7.95139C8.09028 7.5295 7.74827 7.1875 7.32639 7.1875C6.9045 7.1875 6.5625 7.5295 6.5625 7.95139C6.5625 8.37327 6.9045 8.71528 7.32639 8.71528Z" stroke="#8A8A8A" stroke-width="0.5625"/>
<path d="M5.26306 8.28947C4.95467 8.28954 4.04418 8.30241 3.82391 7.26162C3.60125 6.20956 2.76658 5.23688 2.38477 5" stroke="#8A8A8A" stroke-width="0.5625" stroke-linecap="round" stroke-linejoin="round"/>
<path d="M1.38889 5.76411C1.81077 5.76411 2.15278 5.4221 2.15278 5.00022C2.15278 4.57833 1.81077 4.23633 1.38889 4.23633C0.967005 4.23633 0.625 4.57833 0.625 5.00022C0.625 5.4221 0.967005 5.76411 1.38889 5.76411Z" stroke="#8A8A8A" stroke-width="0.5625"/>
<path d="M2.38477 5H5.26306" stroke="#8A8A8A" stroke-width="0.5625" stroke-linecap="round" stroke-linejoin="round"/>
</svg>
