<svg width="12" height="12" viewBox="0 0 12 12" fill="none" xmlns="http://www.w3.org/2000/svg">
<g opacity="0.5">
<path fill-rule="evenodd" clip-rule="evenodd" d="M3.24664 7.5C3.39664 7.5 3.49664 7.6 3.49664 7.75C3.49664 7.9 3.39664 8 3.24664 8H2.24664C1.54664 8 0.996643 7.45 0.996643 6.75V2.25C0.996643 1.55 1.54664 1 2.24664 1H6.74664C7.44664 1 7.99664 1.55 7.99664 2.25V3.25C7.99664 3.4 7.89664 3.5 7.74664 3.5C7.59664 3.5 7.49664 3.4 7.49664 3.25V2.25C7.49664 1.85 7.14664 1.5 6.74664 1.5H2.24664C1.84664 1.5 1.49664 1.85 1.49664 2.25V6.75C1.49664 7.15 1.84664 7.5 2.24664 7.5H3.24664ZM5.24664 4.5C4.84664 4.5 4.49664 4.85 4.49664 5.25V9.75C4.49664 10.15 4.84664 10.5 5.24664 10.5H9.74664C10.1466 10.5 10.4966 10.15 10.4966 9.75V5.25C10.4966 4.85 10.1466 4.5 9.74664 4.5H5.24664ZM9.74664 4H5.24664C4.54664 4 3.99664 4.55 3.99664 5.25V9.75C3.99664 10.45 4.54664 11 5.24664 11H9.74664C10.4466 11 10.9966 10.45 10.9966 9.75V5.25C10.9966 4.55 10.4466 4 9.74664 4Z" fill="black"/>
<path d="M3.64664 7.75C3.64664 7.64091 3.60963 7.53835 3.53396 7.46268C3.45829 7.38702 3.35573 7.35 3.24664 7.35V7.65C3.28756 7.65 3.30999 7.66298 3.32183 7.67482C3.33366 7.68665 3.34664 7.70909 3.34664 7.75H3.64664ZM3.24664 8.15C3.35573 8.15 3.45829 8.11298 3.53396 8.03732C3.60963 7.96165 3.64664 7.85909 3.64664 7.75H3.34664C3.34664 7.79091 3.33366 7.81335 3.32183 7.82518C3.30999 7.83702 3.28756 7.85 3.24664 7.85V8.15ZM2.24664 8.15H3.24664V7.85H2.24664V8.15ZM0.846643 6.75C0.846643 7.53284 1.4638 8.15 2.24664 8.15V7.85C1.62949 7.85 1.14664 7.36716 1.14664 6.75H0.846643ZM0.846643 2.25V6.75H1.14664V2.25H0.846643ZM2.24664 0.85C1.4638 0.85 0.846643 1.46716 0.846643 2.25H1.14664C1.14664 1.63284 1.62949 1.15 2.24664 1.15V0.85ZM6.74664 0.85H2.24664V1.15H6.74664V0.85ZM8.14664 2.25C8.14664 1.46716 7.52949 0.85 6.74664 0.85V1.15C7.3638 1.15 7.84664 1.63284 7.84664 2.25H8.14664ZM8.14664 3.25V2.25H7.84664V3.25H8.14664ZM7.74664 3.65C7.85573 3.65 7.95829 3.61298 8.03396 3.53732C8.10963 3.46165 8.14664 3.35909 8.14664 3.25H7.84664C7.84664 3.29091 7.83366 3.31335 7.82183 3.32518C7.80999 3.33702 7.78756 3.35 7.74664 3.35V3.65ZM7.34664 3.25C7.34664 3.35909 7.38366 3.46165 7.45933 3.53732C7.53499 3.61298 7.63756 3.65 7.74664 3.65V3.35C7.70573 3.35 7.68329 3.33702 7.67146 3.32518C7.65963 3.31335 7.64664 3.29091 7.64664 3.25H7.34664ZM7.34664 2.25V3.25H7.64664V2.25H7.34664ZM6.74664 1.65C7.0638 1.65 7.34664 1.93284 7.34664 2.25H7.64664C7.64664 1.76716 7.22949 1.35 6.74664 1.35V1.65ZM2.24664 1.65H6.74664V1.35H2.24664V1.65ZM1.64664 2.25C1.64664 1.93284 1.92949 1.65 2.24664 1.65V1.35C1.7638 1.35 1.34664 1.76716 1.34664 2.25H1.64664ZM1.64664 6.75V2.25H1.34664V6.75H1.64664ZM2.24664 7.35C1.92949 7.35 1.64664 7.06716 1.64664 6.75H1.34664C1.34664 7.23284 1.7638 7.65 2.24664 7.65V7.35ZM3.24664 7.35H2.24664V7.65H3.24664V7.35ZM4.64664 5.25C4.64664 4.93284 4.92949 4.65 5.24664 4.65V4.35C4.7638 4.35 4.34664 4.76716 4.34664 5.25H4.64664ZM4.64664 9.75V5.25H4.34664V9.75H4.64664ZM5.24664 10.35C4.92949 10.35 4.64664 10.0672 4.64664 9.75H4.34664C4.34664 10.2328 4.7638 10.65 5.24664 10.65V10.35ZM9.74664 10.35H5.24664V10.65H9.74664V10.35ZM10.3466 9.75C10.3466 10.0672 10.0638 10.35 9.74664 10.35V10.65C10.2295 10.65 10.6466 10.2328 10.6466 9.75H10.3466ZM10.3466 5.25V9.75H10.6466V5.25H10.3466ZM9.74664 4.65C10.0638 4.65 10.3466 4.93284 10.3466 5.25H10.6466C10.6466 4.76716 10.2295 4.35 9.74664 4.35V4.65ZM5.24664 4.65H9.74664V4.35H5.24664V4.65ZM5.24664 4.15H9.74664V3.85H5.24664V4.15ZM4.14664 5.25C4.14664 4.63284 4.62949 4.15 5.24664 4.15V3.85C4.4638 3.85 3.84664 4.46716 3.84664 5.25H4.14664ZM4.14664 9.75V5.25H3.84664V9.75H4.14664ZM5.24664 10.85C4.62949 10.85 4.14664 10.3672 4.14664 9.75H3.84664C3.84664 10.5328 4.4638 11.15 5.24664 11.15V10.85ZM9.74664 10.85H5.24664V11.15H9.74664V10.85ZM10.8466 9.75C10.8466 10.3672 10.3638 10.85 9.74664 10.85V11.15C10.5295 11.15 11.1466 10.5328 11.1466 9.75H10.8466ZM10.8466 5.25V9.75H11.1466V5.25H10.8466ZM9.74664 4.15C10.3638 4.15 10.8466 4.63284 10.8466 5.25H11.1466C11.1466 4.46716 10.5295 3.85 9.74664 3.85V4.15Z" fill="black"/>
</g>
</svg>
