<svg width="18" height="18" viewBox="0 0 18 18" fill="none" xmlns="http://www.w3.org/2000/svg">
<path fill-rule="evenodd" clip-rule="evenodd" d="M12.451 5.6648C12.7348 6.11412 12.6818 6.70652 12.3435 7.11554C12.2983 7.19295 12.2288 7.26075 12.167 7.32084C11.7288 7.74763 11.2907 8.15012 10.8079 8.59031L10.607 8.77328C10.1944 9.14896 9.76878 9.53641 9.36231 9.93134L9.36199 14.375C9.36199 14.5095 9.36199 14.7346 9.16428 14.879L9.11387 14.9158C9.11387 14.9158 8.98143 14.9778 8.78384 14.9047C8.62395 14.8455 8.58686 14.7639 8.58686 14.7639C8.46476 14.6337 8.46476 14.471 8.46476 14.4133L8.46917 9.75411C8.46917 9.5284 8.58033 9.39122 8.67721 9.29698L8.68229 9.29197C9.63847 8.36077 10.5339 7.50092 11.4795 6.60979C11.5652 6.52611 11.5936 6.49609 11.6107 6.42984C11.6441 6.31008 11.6133 6.14068 11.5319 6.03693C11.4692 5.95698 11.396 5.88531 11.3124 5.88531L4.41837 5.89827C4.26527 5.89827 4.0928 6.0817 4.02996 6.22021C3.99382 6.33099 4.01014 6.41309 4.08756 6.50969C4.0993 6.52217 4.11047 6.53586 4.12194 6.55033C4.13238 6.56368 4.14614 6.58117 4.15238 6.58533L4.17884 6.59805L4.2008 6.61965C4.61602 7.02404 5.01307 7.43221 5.39897 7.82891L5.49104 7.92355C5.89334 8.33698 6.30942 8.76442 6.73171 9.17575C6.84946 9.29044 6.90914 9.44423 6.90914 9.63282L6.92396 12.3858C6.92396 12.6092 6.81918 12.7884 6.63639 12.8774L6.63051 12.8801C6.29268 13.0214 6.07658 12.8347 6.03062 12.4769L6.02916 12.454L6.02697 9.75203C5.18155 8.92859 4.30226 8.0846 3.42714 7.26155C3.15164 7.02496 3 6.68147 3 6.29389C3 5.99522 3.09311 5.73931 3.28936 5.49932C3.48203 5.2636 3.73857 5.1049 4.02915 5.03645C4.14782 5 4.2841 5 4.41598 5H11.2217C11.7716 5 12.165 5.21222 12.451 5.6648ZM10.6673 13.3454H13.2615V13.3453C13.5206 13.3453 13.6947 13.5149 13.6947 13.7672V13.8862C13.6947 14.0936 13.5327 14.308 13.2615 14.308H10.6673C10.4545 14.308 10.2343 14.1503 10.2343 13.8862V13.7672C10.2343 13.5598 10.3963 13.3454 10.6673 13.3454ZM13.2615 11.8299H10.6673C10.3963 11.8299 10.2343 12.0444 10.2343 12.2518V12.3408C10.2343 12.605 10.4545 12.7628 10.6673 12.7628H13.2615C13.5327 12.7628 13.6947 12.5483 13.6947 12.3408V12.2518C13.6947 12.0444 13.5327 11.8299 13.2615 11.8299ZM10.6673 10.373H13.2615C13.5206 10.373 13.6947 10.5426 13.6947 10.7949V10.8544C13.6947 11.0617 13.5327 11.2761 13.2615 11.2761H10.6673C10.4545 11.2761 10.2343 11.1183 10.2343 10.8544V10.7949C10.2343 10.5875 10.3963 10.373 10.6673 10.373Z" fill="currentColor"/>
</svg>
