<svg width="36" height="36" viewBox="0 0 36 36" fill="none" xmlns="http://www.w3.org/2000/svg">
<path d="M18 0C8.05738 0 0 8.05738 0 18C0 27.9405 8.05738 36 18 36C27.9404 36 36 27.9405 36 18C36 8.05738 27.9404 0 18 0ZM17.9692 28.27C13.7922 28.27 10.2305 25.6157 8.85932 21.9068L8.87472 21.9001C8.78905 21.7288 8.73191 21.5441 8.73191 21.3399C8.73191 20.6323 9.30319 20.0611 10.0107 20.0611C10.5776 20.0611 11.0434 20.4368 11.2082 20.9487L11.228 20.9422C12.2145 23.7173 14.86 25.7146 17.9692 25.7146C21.9198 25.7146 25.1323 22.5023 25.1323 18.5515C25.1323 14.6031 21.9198 11.3907 17.9692 11.3907C17.1034 11.3907 16.2795 11.5598 15.5104 11.8433L16.4113 13.5704C16.5168 13.6846 16.5805 13.8384 16.5805 14.0054C16.5805 14.3636 16.2246 14.6382 15.9301 14.6448H15.9169C15.9081 14.6448 15.8993 14.6448 15.8906 14.6448L9.50093 14.3702C9.27462 14.3614 9.06806 14.2295 8.96256 14.0274C8.85711 13.8252 8.86811 13.5813 8.99113 13.388L12.4211 7.99371C12.5441 7.80255 12.7616 7.69048 12.9879 7.69931C13.2165 7.71027 13.4208 7.83994 13.5263 8.04207L14.3151 9.5538C15.4445 9.0924 16.6771 8.83531 17.9692 8.83531C23.3283 8.83531 27.6899 13.1947 27.6899 18.5516C27.6899 23.9106 23.3283 28.27 17.9692 28.27Z" fill="#1DD2C1"/>
</svg>
