<svg width="239" height="44" viewBox="0 0 239 44" fill="none" xmlns="http://www.w3.org/2000/svg">
<g opacity="0.6">
<mask id="mask0_4739_311463" style="mask-type:luminance" maskUnits="userSpaceOnUse" x="0" y="0" width="150" height="44">
<rect width="149.6" height="44" fill="white"/>
</mask>
<g mask="url(#mask0_4739_311463)">
<circle cx="68.9058" cy="2.72419" r="31.0933" fill="url(#paint0_linear_4739_311463)"/>
<circle cx="92.3643" cy="22.274" r="17.3067" fill="url(#paint1_linear_4739_311463)"/>
</g>
</g>
<path d="M32.568 15.864V16.744H28.888V18.088H32.568V18.76H29.56V20.072H32.568V20.76H28.44V22.136H38.36V20.76H34.184V20.072H37.416V18.76H34.184V18.088H37.976V16.744H34.184V15.864H32.568ZM31.112 26.168H35.688V26.952H31.112V26.168ZM35.688 24.92H31.112V24.12H35.688V24.92ZM31.112 28.216H35.688V28.664C35.688 29 35.544 29.176 35.256 29.176L33.992 29.112L34.392 30.568H35.72C36.76 30.568 37.288 30.04 37.288 29.016V22.776H29.544V30.664H31.112V28.216ZM25.848 15.976L24.664 17.112C25.8 17.944 26.68 18.712 27.288 19.448L28.44 18.296C27.72 17.528 26.856 16.744 25.848 15.976ZM23.576 20.584V22.184H25.704V27.832C25.704 28.184 25.56 28.488 25.288 28.728L25.912 30.232C26.968 29.48 27.976 28.632 28.936 27.688L28.488 25.928C28.088 26.344 27.704 26.744 27.32 27.112V20.584H23.576ZM44.472 17.32V18.904H48.408V20.056H44.888V24.92H48.328C48.232 25.752 48.072 26.456 47.832 27C47.112 26.488 46.456 25.864 45.864 25.144L44.584 26.024C45.256 26.856 46.024 27.592 46.872 28.232C46.136 28.792 45.048 29.128 43.624 29.24L44.344 30.76C46.136 30.52 47.48 30.008 48.36 29.208C49.992 30.104 51.88 30.632 54.024 30.776L54.424 29.176C52.504 29.08 50.792 28.648 49.304 27.896C49.656 27.16 49.88 26.168 50.008 24.92H53.752V20.056H50.088V18.904H54.344V17.32H50.088V15.864H48.408V17.32H44.472ZM52.184 23.432H50.088V21.544H52.184V23.432ZM48.408 23.432H46.456V21.544H48.408V23.432ZM41.256 22.44V30.696H42.936V19.944C43.56 18.824 44.056 17.672 44.44 16.456L42.856 15.72C42.12 18.184 40.984 20.312 39.448 22.136L39.992 23.912C40.44 23.432 40.856 22.952 41.256 22.44ZM58.696 21.768H62.216V24.072H58.696V21.768ZM58.616 25.608H62.216V30.12H63.912V25.608H67.72V27.832C67.72 28.44 67.464 28.76 66.984 28.76C66.44 28.76 65.864 28.728 65.224 28.664L65.672 30.296H67.512C68.776 30.296 69.416 29.672 69.416 28.44V16.36H57.016V24.28C56.984 26.36 56.504 28.072 55.56 29.416L56.84 30.568C57.816 29.256 58.408 27.592 58.616 25.608ZM67.72 24.072H63.912V21.768H67.72V24.072ZM67.72 20.232H63.912V17.992H67.72V20.232ZM62.216 17.992V20.232H58.696V17.992H62.216ZM83.208 19.768H84.36C84.296 21.48 84.104 23.016 83.752 24.36C83.432 23.336 83.16 22.168 82.936 20.856C83.032 20.504 83.112 20.152 83.208 19.768ZM83.112 26.264C82.568 27.496 81.848 28.488 80.952 29.256L81.832 30.664C82.632 29.944 83.304 29.08 83.864 28.072C84.36 29.096 84.936 29.928 85.576 30.568L86.536 29.16C85.8 28.52 85.144 27.624 84.6 26.488C85.304 24.632 85.688 22.392 85.768 19.768H86.296V18.216H83.512C83.624 17.544 83.72 16.824 83.816 16.088L82.376 15.832C82.088 18.648 81.576 20.952 80.824 22.744V21.752H75.704V23.224H80.616C80.616 23.224 80.6 23.24 80.6 23.256L81.512 24.408C81.752 23.976 81.976 23.496 82.2 22.984C82.456 24.184 82.76 25.272 83.112 26.264ZM79.224 29.784C80.088 29.208 80.952 28.472 81.784 27.576L81.448 26.184C81.08 26.568 80.712 26.92 80.36 27.256V24.04H76.12V26.264C76.104 27.672 75.72 28.76 74.952 29.512L76.2 30.6C77.128 29.64 77.624 28.184 77.656 26.264V25.544H78.904V27.896C78.856 28.12 78.728 28.296 78.536 28.408L79.224 29.784ZM77.672 15.864V19.352H77V16.728H75.656V20.76H81.048V16.728H79.704V19.352H79.048V15.864H77.672ZM73.944 15.864C73.4 17.288 72.584 18.536 71.48 19.592L71.992 21.208C73.592 19.8 74.712 18.248 75.368 16.536L73.944 15.864ZM74.024 20.152C73.496 21.656 72.664 22.968 71.544 24.088L72.04 25.672C72.424 25.32 72.792 24.952 73.144 24.568V30.696H74.696V22.392C74.968 21.896 75.208 21.368 75.416 20.824L74.024 20.152ZM89.208 22.44V30.696H90.856V19.848C91.432 18.76 91.896 17.624 92.248 16.424L90.68 15.688C89.976 18.152 88.888 20.296 87.448 22.12L88.008 23.912C88.424 23.432 88.824 22.952 89.208 22.44ZM91.88 17.72V19.288H102.424V17.72H98.12C97.96 17.144 97.72 16.504 97.4 15.816L95.8 16.248C96.04 16.728 96.264 17.208 96.472 17.72H91.88ZM93.32 20.136V21.624H101.08V20.136H93.32ZM93.32 22.392V23.896H101.08V22.392H93.32ZM101.432 24.776H92.952V30.664H94.584V29.864H99.816V30.664H101.432V24.776ZM94.584 28.28V26.328H99.816V28.28H94.584ZM109 15.88L103.432 30.6H105.016L110.568 15.88H109ZM124.568 18.056C123.608 18.904 122.568 19.624 121.416 20.2C121.384 19.592 121.384 18.936 121.384 18.232V16.616H111.528V18.296H119.704C119.704 23.256 120.152 26.52 121.048 28.056C121.912 29.576 123 30.344 124.312 30.36C124.712 30.36 125.096 30.184 125.48 29.864C125.992 29.256 126.344 28.28 126.504 26.92L124.904 26.36C124.824 27.272 124.728 27.864 124.632 28.152C124.504 28.408 124.36 28.536 124.2 28.552C123.48 28.52 122.824 27.912 122.248 26.712C121.928 26.056 121.704 24.92 121.576 23.304C122.728 23.896 123.848 24.632 124.952 25.496L125.912 24.024C124.648 23.16 123.272 22.392 121.768 21.752C123.16 21.08 124.408 20.296 125.496 19.368L124.568 18.056ZM129.528 18.872V25.928C128.92 26.088 128.28 26.264 127.608 26.424L128.104 28.072C129.928 27.576 131.528 27.032 132.936 26.456V24.792C132.392 25 131.832 25.208 131.224 25.416V18.872H132.904V17.24H127.816V18.872H129.528ZM133.352 16.36V17.992H137.032C136.968 18.408 136.888 18.808 136.792 19.208H133.912V27.032H135.528V20.744H140.152V27.032H141.784V19.208H138.44C138.536 18.824 138.616 18.408 138.68 17.992H142.376V16.36H133.352ZM139.4 26.888L138.28 27.96C139.608 28.952 140.632 29.896 141.352 30.76L142.552 29.56C141.688 28.68 140.648 27.784 139.4 26.888ZM136.968 21.464V24.28C136.888 25.576 136.536 26.632 135.912 27.432C135.256 28.168 133.992 28.792 132.136 29.304L133.048 30.728C134.968 30.2 136.344 29.448 137.192 28.488C138.056 27.432 138.536 26.024 138.632 24.28V21.464H136.968ZM147.368 17.576L143 29H145L146.04 26.136H150.824L151.864 29H153.864L149.496 17.576H147.368ZM146.6 24.6L148.408 19.592H148.472L150.264 24.6H146.6ZM154.979 17.576V29H156.851V24.616H159.683C162.467 24.616 163.859 23.432 163.859 21.08C163.859 18.744 162.467 17.576 159.715 17.576H154.979ZM156.851 19.176H159.571C160.387 19.176 160.995 19.32 161.379 19.624C161.763 19.912 161.971 20.392 161.971 21.08C161.971 21.768 161.779 22.264 161.395 22.568C161.011 22.856 160.403 23.016 159.571 23.016H156.851V19.176ZM165.464 17.576V29H167.336V24.616H170.168C172.952 24.616 174.344 23.432 174.344 21.08C174.344 18.744 172.952 17.576 170.2 17.576H165.464ZM167.336 19.176H170.056C170.872 19.176 171.48 19.32 171.864 19.624C172.248 19.912 172.456 20.392 172.456 21.08C172.456 21.768 172.264 22.264 171.88 22.568C171.496 22.856 170.888 23.016 170.056 23.016H167.336V19.176ZM181.484 16.952V18.584H187.9V22.312H181.916V23.912H187.9V27.864H181.196V29.496H187.9V30.28H189.596V16.952H181.484ZM180.956 22.152C180.412 22.408 179.868 22.648 179.308 22.872V20.216H180.876V18.632H179.308V15.88H177.628V18.632H175.644V20.216H177.628V23.448C176.908 23.672 176.172 23.848 175.436 23.992L175.836 25.592C176.444 25.432 177.036 25.256 177.628 25.064V28.392C177.628 28.776 177.452 28.968 177.1 28.968C176.748 28.968 176.364 28.936 175.98 28.872L176.364 30.488H177.676C178.764 30.488 179.308 29.928 179.308 28.808V24.488C179.868 24.264 180.412 24.04 180.956 23.816V22.152ZM197.116 21.32H194.204C194.556 20.328 194.828 19.288 195.036 18.184H197.372V16.584H191.772V18.184H193.468C193.084 20.328 192.364 22.248 191.292 23.96L192.124 25.32C192.348 24.984 192.572 24.648 192.796 24.296V30.136H194.332V29.096H195.58V29.832H197.116V21.32ZM194.332 27.576V22.824H195.58V27.576H194.332ZM198.78 18.808L197.916 24.232H204.38C204.38 26.504 204.252 27.864 204.012 28.344C203.788 28.808 203.084 29.048 201.9 29.048C201.628 29.048 201.132 29 200.428 28.904L200.908 30.52C201.388 30.568 201.836 30.6 202.284 30.6C203.788 30.6 204.78 30.28 205.26 29.672C205.724 29.048 205.964 26.712 205.964 22.68H204.364L205.196 16.36H197.948V17.928H203.388L202.684 22.68H199.756L200.412 18.904L198.78 18.808ZM197.612 25.784V27.352H203.596V25.784H197.612ZM210.236 22.552V26.712H219.484V22.552H210.236ZM217.804 25.24H211.916V24.008H217.804V25.24ZM212.028 26.808L210.46 27.4C210.908 27.8 211.308 28.216 211.644 28.664H207.884V30.248H221.74V28.664H218.252C218.572 28.248 218.876 27.8 219.164 27.32L217.612 26.76C217.276 27.416 216.892 28.056 216.444 28.664H213.42C213.004 27.96 212.54 27.336 212.028 26.808ZM209.516 17.992L208.396 19.048C209.132 19.56 209.756 20.056 210.284 20.536C209.484 21.096 208.54 21.592 207.42 22.024L208.444 23.336C209.948 22.712 211.212 21.96 212.236 21.064V21.576H218.108V20.984C219.036 21.832 220.124 22.6 221.372 23.304L222.476 22.024C221.612 21.592 220.844 21.112 220.14 20.6C220.78 20.104 221.356 19.544 221.836 18.936L220.668 17.912C220.188 18.536 219.628 19.112 218.956 19.624C218.636 19.336 218.348 19.048 218.092 18.728C218.748 18.248 219.324 17.704 219.804 17.128L218.636 16.088C218.236 16.6 217.756 17.08 217.196 17.528C216.844 17 216.54 16.44 216.284 15.848L214.892 16.616C215.452 17.864 216.22 19 217.18 20.056H213.212C213.836 19.32 214.332 18.488 214.7 17.56V16.312H209.18V17.848H212.812C212.46 18.456 212.012 19.032 211.452 19.576C210.908 19.064 210.252 18.536 209.516 17.992ZM225.516 16.328V17.832H233.356V18.952H226.06V20.392H233.356V21.496H223.916V23.016H229.9V24.776C228.14 26.28 226.076 27.56 223.676 28.648L224.348 30.2C226.476 29.096 228.332 27.864 229.9 26.488V28.584C229.9 29 229.772 29.224 229.532 29.224C228.988 29.224 228.428 29.176 227.852 29.112L228.22 30.68H230.092C231.068 30.68 231.564 30.104 231.564 28.984V26.424C232.94 27.912 234.748 29.176 236.988 30.232L237.836 28.76C236.268 28.088 234.892 27.336 233.708 26.472C234.764 25.896 235.708 25.08 236.54 24.056L235.276 23.016H237.756V21.496H235.052V16.328H225.516ZM225.916 23.256L224.812 24.312C225.836 25.016 226.62 25.656 227.18 26.264L228.268 25.176C227.628 24.536 226.844 23.896 225.916 23.256ZM235.244 23.016C234.492 24.104 233.596 24.952 232.572 25.56C232.204 25.24 231.868 24.92 231.564 24.584V23.016H235.244Z" fill="black"/>
<defs>
<linearGradient id="paint0_linear_4739_311463" x1="48.3901" y1="6.45779" x2="51.5423" y2="35.3936" gradientUnits="userSpaceOnUse">
<stop stop-color="#00E09D" stop-opacity="0.01"/>
<stop offset="1" stop-color="#1DD2C1" stop-opacity="0.45648"/>
</linearGradient>
<linearGradient id="paint1_linear_4739_311463" x1="94.115" y1="43.81" x2="113.443" y2="16.2519" gradientUnits="userSpaceOnUse">
<stop stop-color="#00E09D" stop-opacity="0.01"/>
<stop offset="1" stop-color="#1DD2C1" stop-opacity="0.45648"/>
</linearGradient>
</defs>
</svg>
