<svg width="150" height="44" viewBox="0 0 150 44" fill="none" xmlns="http://www.w3.org/2000/svg">
<g opacity="0.6">
<mask id="mask0_7714_313845" style="mask-type:luminance" maskUnits="userSpaceOnUse" x="0" y="0" width="150" height="44">
<rect width="149.6" height="44" fill="white"/>
</mask>
<g mask="url(#mask0_7714_313845)">
<circle cx="68.9058" cy="2.72419" r="31.0933" fill="url(#paint0_linear_7714_313845)"/>
<circle cx="92.3643" cy="22.274" r="17.3067" fill="url(#paint1_linear_7714_313845)"/>
</g>
</g>
<path d="M6.824 14.72C6.088 17.184 4.968 19.344 3.448 21.168L3.992 22.912C4.472 22.384 4.936 21.84 5.368 21.28V29.696H7.064V18.656C7.608 17.632 8.04 16.576 8.392 15.456L6.824 14.72ZM17.352 29.712L18.52 28.384C16.92 27.328 15.56 26.144 14.472 24.864C15.864 22.736 16.808 20.176 17.32 17.2V15.712H8.776V17.328H9.688C9.96 20.064 10.872 22.56 12.408 24.8C11.256 26.24 9.832 27.424 8.104 28.352L9.24 29.744C10.888 28.8 12.296 27.616 13.48 26.192C14.536 27.44 15.816 28.624 17.352 29.712ZM13.384 23.408C12.2 21.584 11.496 19.568 11.288 17.328H15.608C15.192 19.648 14.44 21.68 13.384 23.408ZM26.136 14.864V16.768H20.072V18.4H26.136V20.352H21.304V21.904H22.376C22.616 22.672 23 23.408 23.544 24.112C24.12 24.864 24.824 25.552 25.624 26.192C23.992 27.088 22.04 27.776 19.736 28.288L20.696 29.776C23.176 29.104 25.304 28.24 27.064 27.168C27.784 27.6 28.568 28 29.432 28.368C30.68 28.896 31.992 29.344 33.384 29.712L34.36 28.224C33.08 27.936 31.88 27.584 30.728 27.168C29.928 26.864 29.176 26.528 28.488 26.176C30.056 24.944 31.256 23.488 32.088 21.824V20.352H27.864V18.4H33.928V16.768H27.864V14.864H26.136ZM27.032 25.312C26.36 24.864 25.768 24.352 25.24 23.792C24.712 23.248 24.312 22.608 24.024 21.904H30.2C29.448 23.2 28.392 24.336 27.032 25.312ZM44.808 14.976V16.4H41.864V17.92H44.808V19.312H41.288V20.88H50.152V19.312H46.44V17.92H49.544V16.4H46.44V14.976H44.808ZM41.032 22.448V24H46.632V27.456C46.632 27.84 46.44 28.032 46.056 28.032C45.464 28.032 44.84 28 44.184 27.936L44.552 29.552H46.648C47.752 29.552 48.312 28.992 48.312 27.888V24H50.168V22.448H48.312V21.392H46.632V22.448H41.032ZM37.624 29.52C38.696 29.52 39.24 28.96 39.24 27.856V23.616C39.752 23.392 40.248 23.168 40.744 22.928V21.232C40.264 21.488 39.752 21.728 39.24 21.952V19.344H40.728V17.76H39.24V15.072H37.608V17.76H35.848V19.344H37.608V22.576C36.936 22.8 36.264 22.976 35.576 23.12L35.992 24.8C36.536 24.64 37.064 24.448 37.608 24.256V27.424C37.608 27.824 37.416 28.032 37.048 28.032C36.664 28.032 36.28 28 35.864 27.936L36.216 29.52H37.624ZM43.096 24.416L41.736 25.248C42.44 26.176 43 27.04 43.416 27.808L44.744 26.88C44.36 26.176 43.8 25.36 43.096 24.416ZM58.152 19.648V29.664H59.848V19.648H58.152ZM58.264 14.848C56.68 17.152 54.424 19.04 51.48 20.48L52.488 22C55.112 20.688 57.288 18.832 59 16.416C60.424 18.64 62.6 20.496 65.512 22L66.52 20.48C63.32 18.864 61.048 16.992 59.736 14.848H58.264ZM75.784 14.88H74.088C74.088 15.488 74.072 16.32 74.072 17.392C73.944 21.984 71.752 25.568 67.464 28.128L68.488 29.632C71.816 27.488 74.008 24.784 75.064 21.52C76.296 24.896 78.408 27.584 81.4 29.6L82.52 28.128C78.888 25.904 76.6 22.688 75.672 18.48C75.736 17.488 75.784 16.288 75.784 14.88ZM89.992 15.36H84.088V25.616H85.592V16.896H88.536V25.616H89.992V15.36ZM86.344 17.84V23.088C86.296 24.416 86.104 25.504 85.752 26.352C85.368 27.12 84.664 27.776 83.624 28.304L84.52 29.712C85.624 29.168 86.424 28.4 86.92 27.392C87.432 26.32 87.704 24.88 87.752 23.088V17.84H86.344ZM88.344 25.984L87.272 27.024C88.104 27.936 88.728 28.784 89.176 29.584L90.376 28.384C89.816 27.6 89.144 26.8 88.344 25.984ZM94.104 22.912C94.84 25.808 95.928 28.016 97.352 29.52L98.488 28.224C97.24 26.976 96.248 25.2 95.544 22.912H98.152V21.312H93.048V14.88H91.416V21.312H90.424V22.912H91.416V27.52C91.416 27.808 91.272 28.032 90.984 28.176L91.672 29.664C92.984 29.248 94.152 28.736 95.176 28.096L94.888 26.608C94.28 26.992 93.672 27.312 93.048 27.568V22.912H94.104ZM96.68 15.536C95.72 17.2 94.552 18.448 93.208 19.28L94.104 20.56C95.576 19.696 96.856 18.352 97.96 16.56L96.68 15.536ZM111.432 18.288V20.832H102.888V18.288H111.432ZM102.872 22.464H113.128V16.656H108.056C107.8 15.936 107.56 15.296 107.304 14.72L105.512 15.008C105.816 15.52 106.088 16.064 106.344 16.656H101.24V21.968C101.224 24.688 100.616 26.912 99.432 28.624L100.68 29.76C102.056 27.712 102.776 25.28 102.872 22.464ZM116.68 15.664V17.28H119.448V20.688C119.448 20.784 119.432 20.864 119.432 20.96H115.864V22.576H119.32C119.192 23.664 118.984 24.608 118.696 25.408C118.248 26.528 117.384 27.472 116.088 28.224L117 29.648C118.424 28.928 119.448 27.888 120.072 26.544C120.536 25.472 120.856 24.144 121.016 22.576H125.16V29.44H126.84V22.576H130.152V20.96H126.84V17.28H129.352V15.664H116.68ZM121.144 17.28H125.16V20.96H121.128C121.128 20.864 121.144 20.784 121.144 20.688V17.28ZM133.224 14.992L132.088 16.064C133.24 16.992 134.136 17.872 134.76 18.672L135.928 17.52C135.192 16.688 134.28 15.84 133.224 14.992ZM142.344 29.408H146.008L146.408 27.76C145.976 27.792 145.352 27.824 144.536 27.856C143.704 27.856 142.904 27.872 142.104 27.872C140.856 27.872 139.784 27.856 138.856 27.84C137.912 27.808 137.208 27.68 136.744 27.44C136.36 27.232 135.992 26.912 135.624 26.496L135.448 26.32V20.24H131.784V21.776H133.896V26.16C133.256 26.512 132.552 27.328 131.752 28.608L132.984 29.744C133.784 28.304 134.328 27.6 134.648 27.6C134.824 27.6 135.016 27.728 135.24 28C135.72 28.544 136.28 28.912 136.92 29.104C137.592 29.264 138.44 29.36 139.48 29.376C140.504 29.392 141.464 29.408 142.344 29.408ZM139.512 16.688L138.664 17.52C139.272 17.856 139.816 18.192 140.312 18.512H136.76V27.2H138.328V24.592H140.408V27.184H141.944V24.592H144.088V25.264C144.088 25.6 143.912 25.776 143.56 25.776L142.456 25.728L142.824 27.104H144.024C145.112 27.104 145.656 26.592 145.656 25.6V18.512H142.424L142.392 18.48C143.448 17.92 144.424 17.248 145.336 16.48V15.312H136.488V16.688H139.512ZM141.384 17.712C140.936 17.376 140.424 17.04 139.88 16.688H143.08C142.552 17.056 141.992 17.392 141.384 17.712ZM138.328 22.24H140.408V23.248H138.328V22.24ZM141.944 22.24H144.088V23.248H141.944V22.24ZM144.088 20.896H141.944V19.888H144.088V20.896ZM140.408 20.896H138.328V19.888H140.408V20.896Z" fill="black"/>
<defs>
<linearGradient id="paint0_linear_7714_313845" x1="48.3901" y1="6.45779" x2="51.5423" y2="35.3936" gradientUnits="userSpaceOnUse">
<stop stop-color="#00E09D" stop-opacity="0.01"/>
<stop offset="1" stop-color="#1DD2C1" stop-opacity="0.45648"/>
</linearGradient>
<linearGradient id="paint1_linear_7714_313845" x1="94.115" y1="43.81" x2="113.443" y2="16.2519" gradientUnits="userSpaceOnUse">
<stop stop-color="#00E09D" stop-opacity="0.01"/>
<stop offset="1" stop-color="#1DD2C1" stop-opacity="0.45648"/>
</linearGradient>
</defs>
</svg>
