<svg width="16" height="16" viewBox="0 0 16 16" fill="none" xmlns="http://www.w3.org/2000/svg">
<g opacity="0.2">
<path fill-rule="evenodd" clip-rule="evenodd" d="M4.12305 1.57342C4.12305 1.03587 4.55882 0.600092 5.09638 0.600092C5.63394 0.600092 6.06971 1.03587 6.06971 1.57342V2.54675H4.12305V1.57342ZM11.9115 2.54675H12.7882C13.9157 2.54675 14.8298 3.46081 14.8298 4.58835V6.44012H1.20312V4.58836C1.20312 3.46081 2.11718 2.54675 3.24472 2.54675H4.12305V3.52009C4.12305 4.05765 4.55882 4.49342 5.09638 4.49342C5.63394 4.49342 6.06971 4.05765 6.06971 3.52009V2.54675H9.96484V3.52009C9.96484 4.05765 10.4006 4.49342 10.9382 4.49342C11.4757 4.49342 11.9115 4.05765 11.9115 3.52009V2.54675ZM11.9115 2.54675H9.96484V1.57342C9.96484 1.03587 10.4006 0.600092 10.9382 0.600092C11.4757 0.600092 11.9115 1.03587 11.9115 1.57342V2.54675ZM14.8298 7.41346H1.20312V13.1585C1.20312 14.286 2.11718 15.2001 3.24472 15.2001H12.7882C13.9157 15.2001 14.8298 14.286 14.8298 13.1585V7.41346Z" fill="#262626"/>
</g>
</svg>
