<svg width="20" height="20" viewBox="0 0 20 20" fill="none" xmlns="http://www.w3.org/2000/svg">
<path opacity="0.2" d="M3.34122 3.5C3.0601 3.5 2.79049 3.61714 2.59171 3.82565C2.39292 4.03416 2.28125 4.31696 2.28125 4.61184V15.3882C2.28125 16.0028 2.75633 16.5 3.34122 16.5H16.6588C16.9399 16.5 17.2095 16.3829 17.4083 16.1743C17.6071 15.9658 17.7188 15.683 17.7188 15.3882V4.61184C17.7188 4.46583 17.6913 4.32125 17.6381 4.18636C17.5848 4.05146 17.5067 3.9289 17.4083 3.82565C17.3099 3.72241 17.193 3.64051 17.0644 3.58463C16.9358 3.52876 16.798 3.5 16.6588 3.5H3.34122ZM3.44993 6.38965V4.72588H16.5501V6.26535L9.99456 8.55746L3.44993 6.38965ZM10.0054 9.84605L16.5501 7.55737V15.2741H3.44993V7.67482L10.0054 9.84605Z" fill="black"/>
</svg>
