<svg width="20" height="20" viewBox="0 0 20 20" fill="none" xmlns="http://www.w3.org/2000/svg">
<g opacity="0.2">
<path d="M7.18568 11.3301C7.20842 11.1832 7.15426 11.0349 7.04257 10.9369C6.04111 10.06 5.46689 8.79807 5.46689 7.47471C5.46689 4.93519 7.53289 2.86911 10.0724 2.86911C12.6119 2.86911 14.6779 4.93519 14.6779 7.47471C14.6779 8.79775 14.1036 10.0597 13.1018 10.9369C12.9211 11.0949 12.9028 11.3695 13.061 11.5502C13.2192 11.731 13.4939 11.7488 13.6743 11.591C14.8646 10.5486 15.5472 9.04829 15.5472 7.47471C15.5472 4.45587 13.0911 2 10.0724 2C7.05365 2 4.5977 4.45587 4.5977 7.47471C4.5977 8.84869 5.11759 10.1665 6.04127 11.1725C4.33534 12.329 2 15.4795 2 17.1336C2 17.3737 2.19462 17.5683 2.43464 17.5683C2.67458 17.5683 2.86919 17.3737 2.86919 17.1336C2.86919 15.7892 5.45042 12.3116 6.93087 11.6618C7.06699 11.6022 7.1631 11.477 7.18568 11.3301Z" fill="#1A1A1A"/>
<path d="M15.4748 12.6426H8.88773C7.76758 12.6426 6.85645 13.656 6.85645 14.9017V15.8139C6.85645 17.0597 7.76758 18.0731 8.88773 18.0731H15.4749C16.595 18.0731 17.5062 17.0597 17.5062 15.8139V14.9017C17.5062 13.656 16.595 12.6426 15.4748 12.6426ZM16.637 15.8138C16.637 16.5804 16.1156 17.2037 15.4748 17.2037H8.88773C8.2469 17.2037 7.72556 16.5804 7.72556 15.8138V14.9016C7.72556 14.1352 8.2469 13.5116 8.88773 13.5116H15.4749C16.1157 13.5116 16.637 14.1352 16.637 14.9016V15.8138H16.637Z" fill="#1A1A1A"/>
</g>
</svg>
