<svg width="20" height="18" viewBox="0 0 20 18" fill="none" xmlns="http://www.w3.org/2000/svg">
<path d="M5.22583 8.80329C5.22583 10.0976 5.74 11.339 6.65524 12.2542C7.57048 13.1694 8.8118 13.6836 10.1061 13.6836C11.4005 13.6836 12.6418 13.1694 13.557 12.2542C14.4723 11.339 14.9865 10.0976 14.9865 8.80329C14.9865 7.50895 14.4723 6.26763 13.557 5.35239C12.6418 4.43716 11.4005 3.92298 10.1061 3.92298C8.8118 3.92298 7.57048 4.43716 6.65524 5.35239C5.74 6.26763 5.22583 7.50895 5.22583 8.80329Z" fill="#E0DFFD"/>
<path fill-rule="evenodd" clip-rule="evenodd" d="M11.9612 11.6958C12.714 11.2997 12.1322 10.5471 11.2888 10.6577C10.9033 10.7083 10.5083 10.7345 10.106 10.7345C9.70369 10.7345 9.30868 10.7083 8.92324 10.6577C8.07985 10.5471 7.49803 11.2997 8.25079 11.6958C8.78871 11.9788 9.42463 12.1424 10.106 12.1424C10.7874 12.1424 11.4233 11.9788 11.9612 11.6958Z" fill="white"/>
<path d="M18.2812 8.21122H16.4872V9.34571C16.4024 12.2848 14.3412 14.7255 11.5845 15.3892C11.3407 15.1454 11.0056 14.9927 10.6324 14.9927C9.89235 14.9927 9.29224 15.5928 9.29224 16.3329C9.29224 17.0729 9.89235 17.673 10.6324 17.673C11.0374 17.673 11.4 17.4928 11.646 17.2086C15.3273 16.4961 18.1306 13.3238 18.2748 9.47294H18.2812V8.21122Z" fill="#7B78FB"/>
<path d="M18.2239 7.40318C17.6768 3.40597 14.2479 0.326958 10.1023 0.326958C5.73187 0.326958 2.15877 3.74738 1.91703 8.05843C1.14727 8.38075 0.602295 9.14202 0.602295 10.0242V10.9699C0.602295 12.1405 1.56078 13.0989 2.73131 13.0989C3.7725 13.0989 4.62283 12.2465 4.62283 11.2074V9.78878C4.62283 9.10385 4.25386 8.4995 3.70464 8.16869C3.89125 4.79704 6.68399 2.11881 10.1023 2.11881C13.317 2.11881 15.9804 4.48745 16.4406 7.57494C15.9253 7.91423 15.5818 8.49738 15.5818 9.15686V10.5755C15.5818 11.6167 16.4342 12.467 17.4733 12.467C18.6438 12.467 19.6023 11.5085 19.6023 10.338V9.39224C19.6023 8.48677 19.0276 7.70854 18.2239 7.40318Z" fill="#9573ED"/>
</svg>
