<svg width="13" height="13" viewBox="0 0 13 13" fill="none" xmlns="http://www.w3.org/2000/svg">
<mask id="mask0_2338_228372" style="mask-type:luminance" maskUnits="userSpaceOnUse" x="0" y="0" width="13" height="13">
<rect width="13" height="13" fill="white"/>
</mask>
<g mask="url(#mask0_2338_228372)">
<circle cx="6.5" cy="6.5" r="6.5" fill="#545C72"/>
<path fill-rule="evenodd" clip-rule="evenodd" d="M11.4674 4.98816C11.4917 4.91393 11.4936 4.83367 11.4711 4.75859L11.4426 4.69026C11.3621 4.54133 11.1886 4.46407 11.0245 4.51498C10.9264 4.54668 10.8478 4.62059 10.8086 4.71738L10.5216 5.23327L10.4646 5.03683C9.80892 2.96808 7.64961 1.76078 5.57127 2.31767C4.25316 2.67086 3.20577 3.67525 2.76967 5.00364L3.38802 5.26917L3.47037 5.06182C3.90842 4.0427 4.73652 3.2927 5.7592 3.01909C7.51217 2.54938 9.34014 3.5979 9.902 5.3857L9.49745 5.05257L9.41613 5.00814C9.33407 4.97296 9.24996 4.96561 9.16535 4.98703C8.97578 5.04617 8.87269 5.24971 8.93254 5.442C8.96609 5.54633 9.0394 5.60452 9.14404 5.67407L10.5593 6.55132L11.4358 5.05996L11.4674 4.98816ZM10.5705 7.81313C10.5927 7.73686 10.5943 7.6588 10.5739 7.58679L10.5449 7.51771C10.4641 7.36871 10.2906 7.29152 10.1268 7.34269C10.0183 7.37797 9.93458 7.46513 9.90182 7.57628C9.54255 8.678 8.67125 9.51499 7.57813 9.80731C5.80024 10.2837 3.9496 9.19972 3.41421 7.37389L3.84238 7.7117L3.90553 7.75048C3.97268 7.78206 4.05036 7.79161 4.12529 7.77524C4.21759 7.75461 4.29731 7.69708 4.34704 7.61542C4.39659 7.53408 4.41234 7.43545 4.39094 7.34119C4.36609 7.23726 4.29817 7.14956 4.20519 7.10126L2.76039 6.22861L1.91432 7.71663L1.87491 7.78356C1.84274 7.855 1.83286 7.93826 1.85008 8.01834C1.89524 8.21517 2.08618 8.33987 2.27747 8.29679C2.39164 8.26926 2.48748 8.18115 2.53838 8.06441L2.80734 7.56521L2.86333 7.76308C3.50871 9.84705 5.67765 11.0683 7.76605 10.5087C8.99897 10.1784 9.99351 9.278 10.4759 8.06669L10.5557 7.84975L10.5705 7.81313Z" fill="#A8A8B1"/>
</g>
</svg>
