<svg width="13" height="13" viewBox="0 0 13 13" fill="none" xmlns="http://www.w3.org/2000/svg">
<mask id="mask0_5287_24893" style="mask-type:luminance" maskUnits="userSpaceOnUse" x="0" y="0" width="13" height="13">
<rect width="13" height="13" fill="white"/>
</mask>
<g mask="url(#mask0_5287_24893)">
<circle cx="6.5" cy="6.5" r="6.5" fill="#F8F8F8"/>
<path fill-rule="evenodd" clip-rule="evenodd" d="M11.4773 4.9459C11.5023 4.87207 11.505 4.79246 11.4831 4.71821L11.4551 4.65071C11.3758 4.50376 11.2025 4.42872 11.0375 4.48069C10.9388 4.51301 10.8592 4.58702 10.819 4.68336L10.5264 5.19755L10.471 5.00327C9.8328 2.95773 7.67844 1.7801 5.58878 2.35121C4.26349 2.71342 3.20363 3.71895 2.75382 5.04022L3.3715 5.29792L3.45604 5.09155C3.90491 4.07696 4.74245 3.32569 5.7707 3.04507C7.53322 2.56337 9.35675 3.58655 9.90353 5.35434L9.50091 5.02765L9.41976 4.98434C9.33779 4.95019 9.25351 4.94367 9.16844 4.96568C8.97776 5.02605 8.87246 5.22883 8.9307 5.41897C8.96336 5.52212 9.03634 5.57916 9.14064 5.64718L10.5519 6.50427L11.4448 5.01739L11.4773 4.9459ZM10.5853 7.77664C10.6083 7.70081 10.6106 7.62339 10.5909 7.55216L10.5625 7.48392C10.4828 7.3369 10.3095 7.26193 10.1447 7.31416C10.0356 7.35013 9.95081 7.43732 9.91691 7.54784C9.54627 8.64364 8.66458 9.48157 7.56551 9.78137C5.77793 10.2699 3.93199 9.21179 3.41211 7.40604L3.83838 7.73714L3.90135 7.77503C3.9684 7.80574 4.04622 7.8145 4.12153 7.79758C4.21429 7.77629 4.29478 7.71851 4.34543 7.63709C4.39588 7.55597 4.41259 7.45802 4.39202 7.36474C4.36807 7.26191 4.30077 7.17555 4.20797 7.1285L2.76708 6.27624L1.9046 7.75954L1.86444 7.82627C1.83152 7.8974 1.82083 7.98006 1.83735 8.05932C1.8808 8.2541 2.07113 8.37602 2.26339 8.33157C2.37815 8.30323 2.4751 8.21499 2.52724 8.09875L2.80166 7.60127L2.85597 7.79698C3.48374 9.85773 5.64764 11.0491 7.74742 10.4752C8.98705 10.1364 9.99295 9.23455 10.4881 8.02895L10.5701 7.8131L10.5853 7.77664Z" fill="#A8A8B1"/>
</g>
</svg>
