<svg width="50" height="50" viewBox="0 0 50 50" fill="none" xmlns="http://www.w3.org/2000/svg">
<rect width="50" height="50" rx="8" fill="#F6F8FA"/>
<path d="M10.658 11C10.0525 11 9.47183 11.2523 9.04368 11.7014C8.61553 12.1505 8.375 12.7596 8.375 13.3947V36.6053C8.375 37.9291 9.39826 39 10.658 39H39.342C39.9475 39 40.5282 38.7477 40.9563 38.2986C41.3845 37.8495 41.625 37.2404 41.625 36.6053V13.3947C41.625 13.0803 41.5659 12.7689 41.4512 12.4783C41.3365 12.1878 41.1683 11.9238 40.9563 11.7014C40.7443 11.479 40.4926 11.3026 40.2157 11.1823C39.9387 11.0619 39.6418 11 39.342 11H10.658ZM10.8922 17.2239V13.6404H39.1078V16.9561L24.9883 21.893L10.8922 17.2239ZM25.0117 24.6684L39.1078 19.7389V36.3596H10.8922V19.9919L25.0117 24.6684Z" fill="#1DD2C1"/>
</svg>
