<svg width="20" height="11" viewBox="0 0 20 11" fill="none" xmlns="http://www.w3.org/2000/svg">
<path d="M6.71822 1.20048V9.48048H7.58222V4.81848C8.05022 5.21448 8.61722 5.75448 9.28322 6.44748L9.81422 5.64648C9.05822 4.98048 8.31122 4.38648 7.58222 3.86448V1.20048H6.71822ZM3.26222 4.73748L2.81222 5.40348C3.26222 5.61948 3.71222 5.89848 4.15322 6.25848C3.53222 7.19448 2.67722 7.96848 1.58822 8.58048L2.17322 9.30948C4.50422 7.92348 5.81822 5.86248 6.12422 3.14448V2.38848H3.99122C4.09922 2.04648 4.18922 1.69548 4.27022 1.33548L3.41522 1.19148C3.05522 2.77548 2.37122 4.03548 1.36322 4.97148L1.95722 5.70948C2.67722 5.04348 3.25322 4.21548 3.68522 3.20748H5.28722C5.15222 4.07148 4.90922 4.86348 4.54922 5.58348C4.15322 5.25948 3.73022 4.98048 3.26222 4.73748Z" fill="#5D5EEE"/>
<path d="M11.9202 3.02748L11.1462 3.30648C11.3352 3.66648 11.4972 4.05348 11.6412 4.45848H10.5252V5.27748H15.0522V4.45848H14.0802C14.2692 4.09848 14.4402 3.69348 14.6022 3.24348L13.8192 2.97348C13.6572 3.49548 13.4592 3.99048 13.2432 4.45848H12.4422C12.2802 3.90048 12.1092 3.42348 11.9202 3.02748ZM15.4032 1.48848V9.47148H16.2312V2.28048H17.5812C17.2932 3.21648 17.0052 4.02648 16.7082 4.70148C17.4102 5.53848 17.7702 6.21348 17.7792 6.72648C17.7702 7.04148 17.7432 7.24848 17.6892 7.33848C17.6352 7.44648 17.5002 7.50048 17.3022 7.50948C17.0772 7.50948 16.8072 7.49148 16.4832 7.45548L16.7532 8.35548C17.5092 8.35548 18.0222 8.22948 18.2742 7.99548C18.5082 7.76148 18.6342 7.33848 18.6342 6.72648C18.6252 6.20448 18.2832 5.52948 17.6172 4.70148C17.9412 3.90948 18.2472 3.05448 18.5262 2.13648V1.48848H15.4032ZM10.6962 1.99248V2.81148H14.9712V1.99248H13.1892C13.1172 1.67748 13.0362 1.38948 12.9552 1.12848L12.0822 1.27248C12.1722 1.48848 12.2622 1.73148 12.3522 1.99248H10.6962ZM14.6922 5.93448H11.0022V9.46248H11.8392V8.99448H13.8372V9.46248H14.6922V5.93448ZM11.8392 8.18448V6.74448H13.8372V8.18448H11.8392Z" fill="#5D5EEE"/>
<path fill-rule="evenodd" clip-rule="evenodd" d="M5.71821 0.200455H8.58221V3.35679C8.89444 3.58965 9.20898 3.83461 9.52521 4.09164V3.45846H9.69621V0.992455H10.8822L10.6734 0.491322L13.652 0L13.9103 0.832056C13.9265 0.884363 13.9428 0.937833 13.959 0.992455H14.4032V0.488455H19.5262V2.28506L19.483 2.42724C19.2565 3.1726 19.0123 3.87895 18.7549 4.54623C19.259 5.25348 19.6216 5.9887 19.6341 6.70922L19.6342 6.71784V6.72645C19.6342 7.41873 19.5022 8.18167 18.9813 8.70256L18.9682 8.71565L18.9547 8.72825C18.6544 9.00704 18.2788 9.1537 17.9351 9.23583C17.7166 9.28804 17.4804 9.32137 17.2312 9.33923V10.4715H14.4032V10.4625H10.0022V7.17269L9.42705 8.0403L8.58221 7.1612V10.4805H5.71821V7.31535C4.98058 8.45012 3.96803 9.40568 2.68428 10.169L1.93724 10.6132L0.0701383 8.28649L1.09829 7.70869C1.73342 7.35175 2.26685 6.94003 2.70667 6.47558C2.68479 6.46324 2.66291 6.45108 2.64103 6.43912C2.63944 6.4406 2.63784 6.44208 2.63625 6.44355L1.84986 7.17096L0 4.87265L0.682754 4.23866C1.51826 3.46284 2.11641 2.39397 2.44007 0.969834L2.64949 0.0484078L5.47762 0.524726L5.28328 1.38845H5.71821V0.200455ZM6.71821 9.48046H7.58221V4.81846C7.62665 4.85606 7.67198 4.89496 7.71821 4.93517C7.97324 5.15701 8.25546 5.4186 8.56484 5.72125C8.57062 5.72691 8.57641 5.73257 8.58221 5.73825C8.77497 5.92716 8.97822 6.13191 9.19194 6.35281C9.22215 6.38403 9.25258 6.41558 9.28321 6.44746L9.81421 5.64646C9.71772 5.56146 9.62138 5.47763 9.52521 5.39497C9.03844 4.97664 8.55591 4.58835 8.08005 4.2301C7.95899 4.13896 7.83836 4.04977 7.71821 3.96252C7.6728 3.92956 7.62747 3.89687 7.58221 3.86446V1.20046H6.71821V9.48046ZM10.5252 5.27746H15.0522V4.45846H14.0802C14.1112 4.39934 14.1418 4.339 14.1719 4.27746C14.1891 4.24222 14.2062 4.20658 14.2232 4.17054C14.2776 4.05494 14.3305 3.93525 14.3823 3.81146C14.3893 3.79476 14.3963 3.77798 14.4032 3.76114C14.4437 3.66278 14.4836 3.56189 14.5228 3.45846C14.5495 3.38797 14.576 3.3163 14.6022 3.24346L13.8192 2.97345C13.8172 2.97979 13.8153 2.98613 13.8133 2.99246C13.7467 3.20546 13.6742 3.41395 13.597 3.61794C13.5724 3.6829 13.5473 3.74741 13.5218 3.81146C13.4827 3.90944 13.4426 4.00636 13.4016 4.1022C13.3973 4.11224 13.393 4.12226 13.3887 4.13228C13.3803 4.15191 13.3718 4.17151 13.3633 4.19105C13.3507 4.21995 13.338 4.24875 13.3252 4.27746C13.2982 4.33823 13.2708 4.39856 13.2432 4.45846H12.4422C12.4244 4.39714 12.4065 4.33681 12.3885 4.27746C12.3807 4.25182 12.3729 4.22636 12.365 4.20109C12.3232 4.066 12.2806 3.93612 12.2373 3.81146C12.1366 3.52202 12.0315 3.26069 11.9202 3.02746L11.1462 3.30645C11.1588 3.3305 11.1713 3.35467 11.1837 3.37896C11.1972 3.40532 11.2105 3.43182 11.2236 3.45846C11.2806 3.57368 11.3351 3.69144 11.3873 3.81146C11.4456 3.94572 11.5012 4.0828 11.5543 4.22232C11.5613 4.24066 11.5683 4.25904 11.5752 4.27746C11.5976 4.33736 11.6196 4.39771 11.6412 4.45846H10.5252V5.27746ZM10.6962 2.81146H14.9712V1.99246H13.1892C13.1752 1.9311 13.1608 1.87076 13.1462 1.81146C13.1442 1.80344 13.1422 1.79544 13.1402 1.78746C13.1351 1.76687 13.1299 1.74641 13.1247 1.72607C13.0704 1.51322 13.0128 1.31401 12.9552 1.12846L12.0822 1.27245C12.0975 1.30924 12.1129 1.34681 12.1282 1.38512C12.1817 1.51886 12.2352 1.6616 12.2887 1.81146C12.2908 1.8174 12.293 1.82337 12.2951 1.82934C12.3141 1.88285 12.3332 1.93725 12.3522 1.99246H10.6962V2.81146ZM11.0022 5.93445V9.46245H11.8392V8.99446H13.8372V9.46245H14.6922V5.93445H11.0022ZM11.8392 6.74446V8.18445H13.8372V6.74446H11.8392ZM15.4032 9.47146H16.2312V2.28046H17.5812C17.5597 2.3505 17.5381 2.41983 17.5166 2.48846C17.43 2.76397 17.3434 3.02805 17.2565 3.28046C17.2481 3.30495 17.2396 3.32933 17.2312 3.35361C17.1027 3.72309 16.9736 4.06705 16.8429 4.38469C16.7982 4.49337 16.7533 4.59897 16.7082 4.70146C16.8377 4.85589 16.9556 5.0048 17.0618 5.1482C17.122 5.22956 17.1785 5.30914 17.2312 5.38695C17.5891 5.91531 17.7728 6.36181 17.7792 6.72645C17.7791 6.7314 17.7789 6.73631 17.7788 6.7412C17.7694 7.04792 17.7424 7.24987 17.6892 7.33846C17.6863 7.34424 17.6832 7.34988 17.6798 7.35536C17.6741 7.36467 17.6678 7.37354 17.6607 7.38198C17.6298 7.41914 17.5862 7.4478 17.5312 7.46856C17.4689 7.49202 17.3921 7.50537 17.3022 7.50945C17.279 7.50945 17.2554 7.50926 17.2312 7.50888C17.0894 7.50664 16.9307 7.4978 16.7532 7.48237C16.6677 7.47493 16.5777 7.46596 16.4832 7.45545L16.7532 8.35546C16.9252 8.35546 17.0846 8.34893 17.2312 8.33611C17.2552 8.334 17.2789 8.33174 17.3022 8.3293C17.3147 8.32799 17.327 8.32664 17.3393 8.32524C17.7801 8.27498 18.0939 8.16285 18.2742 7.99545C18.3331 7.93658 18.3851 7.86575 18.43 7.78295C18.4404 7.76387 18.4503 7.74416 18.4599 7.72382C18.5719 7.48615 18.6319 7.16184 18.6341 6.75088C18.6342 6.74277 18.6342 6.73463 18.6342 6.72645C18.6341 6.72147 18.634 6.71647 18.6339 6.71146C18.6196 6.22294 18.3169 5.6019 17.7332 4.84835C17.6957 4.79993 17.657 4.75096 17.6172 4.70146C17.6592 4.59885 17.7008 4.49519 17.7422 4.39048C17.9736 3.8045 18.1949 3.18542 18.4027 2.53323C18.4075 2.51832 18.4122 2.5034 18.4169 2.48846C18.4538 2.37217 18.4902 2.25484 18.5262 2.13646V1.48846H15.4032V9.47146ZM3.99121 2.38845C3.99978 2.3613 4.00824 2.33409 4.01659 2.30683C4.02671 2.27379 4.03668 2.24066 4.04648 2.20746C4.12553 1.93986 4.1947 1.66686 4.2582 1.38845C4.25859 1.38674 4.25898 1.38503 4.25937 1.38331C4.263 1.36738 4.26661 1.35142 4.27021 1.33546L3.41521 1.19145C3.34148 1.51584 3.25417 1.82664 3.15327 2.12384C3.14377 2.15183 3.13414 2.17971 3.1244 2.20746C3.04575 2.43145 2.95924 2.6476 2.86489 2.85589C2.8027 2.99316 2.73711 3.12702 2.6681 3.25747C2.31996 3.91561 1.88499 4.48694 1.36321 4.97146L1.95721 5.70946C1.97357 5.69432 1.98987 5.67909 2.00608 5.66378C2.16962 5.50944 2.32558 5.34656 2.47399 5.17493C2.53215 5.10767 2.58915 5.03906 2.64498 4.96909C2.75591 4.83011 2.86224 4.68576 2.96399 4.53596C3.14007 4.27674 3.30241 4.00117 3.45102 3.70873C3.50417 3.60414 3.55557 3.49739 3.60521 3.38846C3.6324 3.32878 3.65907 3.26845 3.68521 3.20745H5.28721C5.27772 3.26814 5.26771 3.32848 5.25716 3.38846C5.20776 3.66924 5.14662 3.94224 5.07341 4.20745C5.03454 4.34828 4.99226 4.48691 4.94653 4.62335C4.85993 4.88176 4.76095 5.13229 4.64927 5.37495C4.61698 5.44511 4.58363 5.51461 4.54921 5.58346C4.51558 5.55594 4.48176 5.52876 4.44774 5.50189C4.24613 5.34269 4.03729 5.19469 3.81895 5.05674C3.78695 5.03652 3.75475 5.01652 3.72234 4.99673C3.57365 4.90596 3.4205 4.81965 3.26221 4.73746L2.81221 5.40346C2.83991 5.41675 2.86761 5.43029 2.89531 5.44407C3.04599 5.51902 3.19661 5.60117 3.34683 5.69117C3.45828 5.75795 3.5695 5.82905 3.68036 5.90475C3.80706 5.99127 3.9333 6.08381 4.05886 6.18277C4.06105 6.1845 4.06325 6.18624 4.06544 6.18797C4.09473 6.21112 4.12399 6.23461 4.15321 6.25846C4.11126 6.32168 4.06824 6.38417 4.02415 6.44593C3.5954 7.04647 3.06565 7.5771 2.43491 8.0378C2.20392 8.20652 1.95939 8.36586 1.70131 8.51582C1.6639 8.53756 1.62619 8.55911 1.58821 8.58045L2.17321 9.30945C3.2292 8.68157 4.07647 7.91515 4.71587 7.01188C4.7769 6.92566 4.83604 6.83819 4.89329 6.74947C5.05379 6.50074 5.19941 6.24222 5.33016 5.97393C5.33546 5.96306 5.34073 5.95217 5.34599 5.94127C5.48789 5.64652 5.61196 5.34006 5.71821 5.02194C5.8899 4.50785 6.01507 3.9633 6.09379 3.38846C6.09624 3.37054 6.09865 3.35259 6.10101 3.33461C6.1093 3.27159 6.11703 3.2082 6.12421 3.14445V2.38845H3.99121Z" fill="white"/>
</svg>
