<svg width="14" height="14" viewBox="0 0 14 14" fill="none" xmlns="http://www.w3.org/2000/svg">
<g opacity="0.3">
<path fill-rule="evenodd" clip-rule="evenodd" d="M12.3956 0.746582C12.9214 0.746582 13.3476 1.17281 13.3476 1.69858V12.4879C13.3476 13.0137 12.9214 13.4399 12.3956 13.4399H1.6063C1.08052 13.4399 0.654297 13.0137 0.654297 12.4879V1.69858C0.654297 1.17281 1.08052 0.746582 1.6063 0.746582H12.3956ZM12.3956 1.69858H1.6063V12.4879H12.3956V1.69858ZM7.47473 3.87423C7.4512 3.63018 7.24614 3.44394 7.00096 3.44392C6.73808 3.44392 6.52496 3.65704 6.52496 3.91992V6.61725H3.82764L3.78194 6.61948C3.53789 6.64301 3.35164 6.84807 3.35162 7.09325L3.35385 7.13894C3.37739 7.38299 3.58246 7.56924 3.82764 7.56925H6.52496V10.2666L6.5272 10.3123C6.55175 10.5649 6.77027 10.7539 7.02384 10.7417C7.27741 10.7295 7.47678 10.5204 7.47696 10.2666V7.56925H10.1743L10.22 7.56702C10.464 7.54349 10.6503 7.33843 10.6503 7.09325L10.6481 7.04755C10.6245 6.8035 10.4195 6.61726 10.1743 6.61725H7.47696V3.91992L7.47473 3.87423Z" fill="currentColor"/>
<path d="M1.6063 1.69858V1.59858H1.5063V1.69858H1.6063ZM12.3956 1.69858H12.4956V1.59858H12.3956V1.69858ZM1.6063 12.4879H1.5063V12.5879H1.6063V12.4879ZM12.3956 12.4879V12.5879H12.4956V12.4879H12.3956ZM7.00096 3.44392L7.00097 3.34392H7.00096V3.44392ZM7.47473 3.87423L7.57473 3.86934L7.57427 3.86463L7.47473 3.87423ZM6.52496 6.61725V6.71725H6.62496V6.61725H6.52496ZM3.82764 6.61725V6.51713L3.82276 6.51737L3.82764 6.61725ZM3.78194 6.61948L3.77706 6.51949L3.77234 6.51994L3.78194 6.61948ZM3.35162 7.09325L3.2515 7.09324L3.25174 7.09813L3.35162 7.09325ZM3.35385 7.13894L3.25386 7.14383L3.25432 7.14854L3.35385 7.13894ZM3.82764 7.56925L3.82763 7.66925H3.82764V7.56925ZM6.52496 7.56925H6.62496V7.46925H6.52496V7.56925ZM6.52496 10.2666H6.42484L6.42508 10.2715L6.52496 10.2666ZM6.5272 10.3123L6.4272 10.3172L6.42766 10.3219L6.5272 10.3123ZM7.02384 10.7417L7.01903 10.6418H7.01903L7.02384 10.7417ZM7.47696 10.2666L7.57696 10.2666V10.2666H7.47696ZM7.47696 7.56925V7.46925H7.37696V7.56925H7.47696ZM10.1743 7.56925V7.66937L10.1792 7.66913L10.1743 7.56925ZM10.22 7.56702L10.2249 7.66701L10.2296 7.66656L10.22 7.56702ZM10.6503 7.09325L10.7504 7.09326L10.7502 7.08837L10.6503 7.09325ZM10.6481 7.04755L10.7481 7.04267L10.7476 7.03795L10.6481 7.04755ZM10.1743 6.61725L10.1743 6.51725H10.1743V6.61725ZM7.47696 6.61725H7.37696V6.71725H7.47696V6.61725ZM7.47696 3.91992H7.57708L7.57684 3.91505L7.47696 3.91992ZM13.4476 1.69858C13.4476 1.11758 12.9766 0.646582 12.3956 0.646582V0.846582C12.8662 0.846582 13.2476 1.22804 13.2476 1.69858H13.4476ZM13.4476 12.4879V1.69858H13.2476V12.4879H13.4476ZM12.3956 13.5399C12.9766 13.5399 13.4476 13.0689 13.4476 12.4879H13.2476C13.2476 12.9585 12.8662 13.3399 12.3956 13.3399V13.5399ZM1.6063 13.5399H12.3956V13.3399H1.6063V13.5399ZM0.554297 12.4879C0.554297 13.0689 1.02529 13.5399 1.6063 13.5399V13.3399C1.13575 13.3399 0.754297 12.9585 0.754297 12.4879H0.554297ZM0.554297 1.69858V12.4879H0.754297V1.69858H0.554297ZM1.6063 0.646582C1.02529 0.646582 0.554297 1.11758 0.554297 1.69858H0.754297C0.754297 1.22804 1.13575 0.846582 1.6063 0.846582V0.646582ZM12.3956 0.646582H1.6063V0.846582H12.3956V0.646582ZM1.6063 1.79858H12.3956V1.59858H1.6063V1.79858ZM1.7063 12.4879V1.69858H1.5063V12.4879H1.7063ZM12.3956 12.3879H1.6063V12.5879H12.3956V12.3879ZM12.2956 1.69858V12.4879H12.4956V1.69858H12.2956ZM7.00096 3.54392C7.19462 3.54394 7.3566 3.69105 7.37519 3.88383L7.57427 3.86463C7.54579 3.56932 7.29765 3.34394 7.00097 3.34392L7.00096 3.54392ZM6.62496 3.91992C6.62496 3.71226 6.7933 3.54392 7.00096 3.54392V3.34392C6.68285 3.34392 6.42496 3.60181 6.42496 3.91992H6.62496ZM6.62496 6.61725V3.91992H6.42496V6.61725H6.62496ZM3.82764 6.71725H6.52496V6.51725H3.82764V6.71725ZM3.78682 6.71936L3.83251 6.71713L3.82276 6.51737L3.77707 6.5196L3.78682 6.71936ZM3.45162 7.09326C3.45164 6.89958 3.59876 6.73761 3.79154 6.71902L3.77234 6.51994C3.47703 6.54842 3.25164 6.79655 3.25162 7.09324L3.45162 7.09326ZM3.45374 7.13407L3.4515 7.08837L3.25174 7.09813L3.25397 7.14382L3.45374 7.13407ZM3.82764 7.46925C3.63397 7.46924 3.47198 7.32212 3.45339 7.12934L3.25432 7.14854C3.2828 7.44386 3.53094 7.66924 3.82763 7.66925L3.82764 7.46925ZM6.52496 7.46925H3.82764V7.66925H6.52496V7.46925ZM6.62496 10.2666V7.56925H6.42496V10.2666H6.62496ZM6.62708 10.3074L6.62485 10.2617L6.42508 10.2715L6.42731 10.3171L6.62708 10.3074ZM7.01903 10.6418C6.81873 10.6514 6.64612 10.5022 6.62673 10.3026L6.42766 10.3219C6.45737 10.6277 6.7218 10.8563 7.02865 10.8416L7.01903 10.6418ZM7.37696 10.2665C7.37682 10.467 7.21933 10.6322 7.01903 10.6418L7.02864 10.8416C7.33549 10.8268 7.57675 10.5738 7.57696 10.2666L7.37696 10.2665ZM7.37696 7.56925V10.2666H7.57696V7.56925H7.37696ZM10.1743 7.46925H7.47696V7.66925H10.1743V7.46925ZM10.2151 7.46714L10.1694 7.46937L10.1792 7.66913L10.2249 7.6669L10.2151 7.46714ZM10.5503 7.09324C10.5503 7.28691 10.4032 7.44889 10.2104 7.46748L10.2296 7.66656C10.5249 7.63808 10.7503 7.38994 10.7503 7.09326L10.5503 7.09324ZM10.5482 7.05243L10.5504 7.09812L10.7502 7.08837L10.748 7.04268L10.5482 7.05243ZM10.1743 6.71725C10.368 6.71726 10.5299 6.86438 10.5485 7.05715L10.7476 7.03795C10.7191 6.74263 10.471 6.51726 10.1743 6.51725L10.1743 6.71725ZM7.47696 6.71725H10.1743V6.51725H7.47696V6.71725ZM7.37696 3.91992V6.61725H7.57696V3.91992H7.37696ZM7.37485 3.8791L7.37708 3.9248L7.57684 3.91505L7.57461 3.86935L7.37485 3.8791Z" fill="white"/>
</g>
</svg>
