<svg width="148" height="106" viewBox="0 0 148 106" fill="none" xmlns="http://www.w3.org/2000/svg">
<path d="M139.766 46.9133C132.271 31.5909 113.507 27.5201 104.168 24.0054C101.279 20.717 93.6345 9.24872 84.9329 8.52372C65.4514 6.90055 50.743 14.1061 26.0716 34.8633C1.40008 55.6205 1.06634 79.251 21.2381 78.3717C41.4099 77.4924 46.8541 68.072 42.1176 78.8379C37.381 89.6039 51.068 94.4393 61.8534 93.4211C72.6388 92.4029 72.3273 81.9912 78.3865 80.6675C84.4456 79.3437 106.839 99.5042 129.246 87.8377C144.38 79.9579 149.246 66.2916 139.766 46.9133Z" fill="#7EEBD8"/>
<path d="M26.2511 62.2488C25.9818 62.5537 24.9632 62.6025 24.3472 62.5565C24.2824 62.5517 24.2373 62.6628 24.2864 62.7052C24.6303 63.0022 25.1047 63.5123 25.5497 63.9729C25.8935 64.3287 26.0291 64.8616 26.0442 65.2837C26.0468 65.3552 26.2633 65.4418 26.3042 65.3831C26.5688 65.0029 26.912 64.5357 27.1528 64.4266C27.5138 64.2632 28.4437 64.0015 28.9176 63.9733C28.9697 63.9702 28.9963 63.9111 28.9584 63.8753C28.6536 63.5871 27.7818 62.811 27.6537 62.521C27.4711 62.1074 27.5382 61.6436 27.4756 61.0607C27.4695 61.0045 27.3905 60.987 27.3565 61.0321C27.0982 61.3743 26.5278 61.9355 26.2511 62.2488Z" fill="white" stroke="black" stroke-linecap="round"/>
<path d="M124.628 71.7369C124.261 71.5153 123.749 71.1053 123.372 70.6266C123.336 70.5808 123.255 70.606 123.251 70.664C123.222 71.0738 123.108 71.6602 123.088 72.1823C123.07 72.6879 122.69 73.367 122.436 73.6498C122.398 73.6926 122.422 73.7979 122.477 73.8151C122.807 73.9186 123.393 74.1618 123.697 74.2711C124.023 74.388 124.639 75.2817 124.931 75.8002C124.961 75.8532 125.047 75.8362 125.052 75.7757C125.084 75.3325 125.157 74.3859 125.2 73.9872C125.25 73.5333 125.783 73.0312 126.07 72.7373C126.103 72.7033 126.088 72.6336 126.045 72.6113C125.753 72.4566 124.974 71.9463 124.628 71.7369Z" fill="white" stroke="black" stroke-linecap="round"/>
<path d="M47.8237 25.7956C47.3302 26.4725 46.6614 26.7169 46.2653 26.7744C46.2088 26.7826 46.1858 26.8606 46.2326 26.8933C46.5138 27.0899 47.0653 27.4593 47.8237 27.9237C48.5089 28.3433 49.1043 29.2538 49.3878 29.853C49.4178 29.9166 49.6402 29.8986 49.6558 29.83C49.8101 29.1515 50.1093 28.1273 50.2856 27.7818C50.488 27.3852 52.1053 26.707 52.5108 26.5419C52.5523 26.5251 52.5613 26.4704 52.5267 26.4419C52.2781 26.2373 51.4702 25.5839 50.8649 25.2281C50.1669 24.8178 49.3184 23.7296 49.0496 23.1365C49.0256 23.0835 48.9405 23.0845 48.923 23.1399C48.7152 23.7958 48.3488 25.0754 47.8237 25.7956Z" fill="white" stroke="black" stroke-linecap="round"/>
<path d="M94.1825 100.814C91.8707 97.3336 89.6223 96.8458 86.6682 89.3347C82.9755 79.9459 80.2859 70.1619 80.6556 65.878C81.0253 61.5941 83.0075 46.9131 85.6687 40.4251C88.7058 33.0207 94.7304 23.4596 97.69 22.9573C100.058 22.5555 100.791 26.0364 100.913 26.4091C101.914 25.3939 106.276 22.8007 107.697 23.7844C108.841 24.5764 109.774 28.7337 109.048 30.3235C111.053 29.4937 115.655 29.6636 116.488 30.3186C118.965 32.2647 116.431 35.4194 114.164 38.9278C111.038 43.7637 106.13 48.8833 105.705 50.9057C108.96 47.875 114.164 45.4158 118.473 49.9075C119.688 51.1744 119.646 49.8265 114.164 56.165C108.682 62.5036 107.143 61.7304 107.698 68.737C108.253 75.7436 108.078 79.263 112.217 89.3347C115.528 97.3921 117.226 97.32 118.473 98.3181L94.1825 100.814Z" fill="white"/>
<path d="M101.698 26.4515C101.319 26.1812 100.144 22.4631 96.9356 23.5201C93.729 24.5766 87.7115 35.0583 85.8849 40.269C80.3195 56.1451 79.9031 60.0187 82.879 75.2048C85.3449 87.7882 89.0313 93.6051 94.184 101.313" stroke="black" stroke-width="1.7" stroke-linecap="round"/>
<path d="M106.056 49.7348C109.519 44.9133 110.915 44.0287 114.434 39.27C118.944 33.1725 118.614 31.6338 116.426 30.3199C114.238 29.006 110.159 29.8143 107.309 33.1725C105.707 35.0604 102.341 42.0061 99.6685 45.8608" stroke="black" stroke-width="1.7" stroke-linecap="round"/>
<path d="M103.417 53.2443C107.025 49.2644 110.104 47.9167 112.609 47.7543C116.235 47.5193 119.955 48.8219 118.499 51.2479C117.043 53.6739 108.422 61.6658 107.721 66.1885C107.081 70.3215 108.025 77.8613 111.544 87.539C112.224 89.4084 113.116 91.1933 114.126 92.907L116.726 97.3198" stroke="black" stroke-width="1.7" stroke-linecap="round"/>
<path d="M95.566 38.4015C96.5434 35.9015 98.2739 31.4237 99.676 29.5495C101.722 26.8143 103.55 24.6008 104.558 24.1434C106.512 23.2566 108.28 23.9104 108.908 25.7921C109.409 27.2974 109.202 30.208 108.863 30.8062" stroke="black" stroke-width="1.7" stroke-linecap="round"/>
<path d="M95.1836 56.2709C97.4184 55.0856 99.6144 55.2232 102.072 54.8984" stroke="black" stroke-width="1.7" stroke-linecap="round"/>
<path d="M58.03 63.9603C56.6971 68.3869 49.4398 79.4534 39.9609 88.7492L61.1403 97.3072C63.6087 94.6021 70.4414 86.9195 78.0245 77.8303C87.4117 66.5786 87.793 57.3529 88.3749 43.2742L88.392 42.8603C88.9845 28.5476 86.6147 21.3176 83.9488 20.4322C81.8161 19.724 79.9005 21.6127 79.2094 22.6455C79.0119 21.711 78.5873 19.5764 78.4688 18.514C78.3207 17.1861 77.4321 13.2021 73.7294 13.2021C70.7673 13.2021 70.3229 16.7434 70.471 18.514C70.3229 18.1206 69.4047 17.3041 66.9165 17.1861C63.8062 17.0385 63.9543 21.4651 63.9543 24.8588V38.7288C62.8682 36.4663 60.0147 32.384 57.2895 34.1546C53.883 36.3679 56.9933 41.3847 59.0668 49.6477C61.1403 57.9106 59.363 59.5337 58.03 63.9603Z" fill="white"/>
<path d="M40.5508 88.6023C41.0126 87.7171 50.4052 79.6026 54.4076 71.4881C58.41 63.3737 59.8262 60.2632 60.1009 57.3212C60.6934 50.9764 56.6945 42.2708 55.9469 38.8827C55.5886 37.2587 55.9469 34.1616 58.41 34.014C60.873 33.8665 63.4899 36.3746 63.9517 38.8827" stroke="black" stroke-width="1.7" stroke-linecap="round"/>
<path d="M79.2094 22.7935C80.2461 20.8753 82.9121 19.8424 84.3931 20.7277C85.8742 21.613 88.8364 27.0725 88.5401 38.2865C88.2439 49.5005 88.392 60.2718 83.8007 69.4201C80.1277 76.7387 67.0646 91.0612 60.9922 97.3076" stroke="black" stroke-width="1.7" stroke-linecap="round"/>
<path d="M59.1133 61.3871C59.9547 57.599 64.1571 47.4134 64.1571 33.4128C64.1571 27.8467 62.1738 13.3502 70.1716 18.8013" stroke="black" stroke-width="1.7" stroke-linecap="round"/>
<path d="M70.8876 39.605C70.8876 18.3667 68.2804 12.9072 74.3223 12.9072C80.8391 12.9072 79.2099 35.5357 79.2099 41.5325" stroke="black" stroke-width="1.7" stroke-linecap="round"/>
<path d="M81 3L84.5488 10.7238" stroke="black" stroke-width="2" stroke-linecap="round"/>
<path d="M97.1055 2L94.999 10.2349" stroke="black" stroke-width="2" stroke-linecap="round"/>
<path d="M109.211 7L102.999 12.8019" stroke="black" stroke-width="2" stroke-linecap="round"/>
</svg>
