<svg width="17" height="16" viewBox="0 0 17 16" fill="none" xmlns="http://www.w3.org/2000/svg">
<g id="&#228;&#186;&#139;&#233;&#161;&#185;&#232;&#175;&#166;&#230;&#131;&#133;">
<path id="&#229;&#189;&#162;&#231;&#138;&#182;" fill-rule="evenodd" clip-rule="evenodd" d="M13.9638 2.4052C13.9991 2.37864 14.0684 2.36088 14.1124 2.38304C14.1564 2.4052 14.1842 2.4336 14.1842 2.47746V7.11206V10.7673C14.1842 10.8309 14.1334 10.9254 14.0698 10.9763C13.2069 11.6596 12.3422 11.9123 11.4793 11.9123C10.2476 11.9123 9.41597 11.3975 8.58431 10.8827C7.75264 10.3679 6.92098 9.85309 5.68931 9.85309C5.17521 9.85309 4.66111 9.94578 4.14701 10.1621V14.2189C4.14701 14.5399 3.88674 14.8002 3.56569 14.8002C3.24464 14.8002 2.98438 14.5399 2.98438 14.2189V2.34519C2.98438 2.28158 3.03524 2.18707 3.09882 2.13618C3.96171 1.45282 4.82642 1.2002 5.68931 1.2002C6.92098 1.2002 7.75264 1.71499 8.58431 2.22978C9.41597 2.74458 10.2476 3.25937 11.4793 3.25937C12.3068 3.25937 13.1361 3.02701 13.9638 2.4052ZM9.99004 10.2853C10.4763 10.5547 10.8271 10.7491 11.4793 10.7491C12.0388 10.7491 12.5366 10.6037 13.0216 10.2965V4.18809C12.5257 4.34439 12.0116 4.42254 11.4793 4.42254C10.4251 4.42254 9.83829 4.12762 9.10074 3.75692C8.81395 3.61278 8.50435 3.45717 8.1356 3.30299C7.73438 3.1351 7.4373 2.97051 7.17857 2.82716C6.69228 2.55772 6.34148 2.36337 5.68931 2.36337C5.1298 2.36337 4.63204 2.50876 4.14701 2.81591V8.92437C4.64294 8.76807 5.15705 8.68992 5.68931 8.68992C6.74356 8.68992 7.33032 8.98483 8.06787 9.35553C8.35467 9.49968 8.66426 9.65529 9.03301 9.80947C9.43423 9.97736 9.73131 10.142 9.99004 10.2853Z" fill="currentColor"/>
</g>
</svg>
