<svg width="16" height="16" viewBox="0 0 16 16" fill="none" xmlns="http://www.w3.org/2000/svg">
<path opacity="0.2" fill-rule="evenodd" clip-rule="evenodd" d="M1.025 0.823242C0.73505 0.823242 0.5 1.05829 0.5 1.34824C0.5 1.63819 0.73505 1.87324 1.025 1.87324H1.71609V10.1341C1.71609 10.9565 2.3828 11.6232 3.20523 11.6232H6.87997L4.26884 14.2344C4.06382 14.4394 4.06382 14.7718 4.26884 14.9768C4.47387 15.1819 4.80628 15.1819 5.01131 14.9768L7.98116 12.007C7.98764 12.0005 7.99392 11.9939 8 11.9871C8.00608 11.9939 8.01236 12.0005 8.01884 12.007L10.9887 14.9768C11.1937 15.1819 11.5261 15.1819 11.7312 14.9768C11.9362 14.7718 11.9362 14.4394 11.7312 14.2344L9.12003 11.6232H12.827C13.6494 11.6232 14.3161 10.9565 14.3161 10.1341V3.36516V1.87324H14.975C15.2649 1.87324 15.5 1.63819 15.5 1.34824C15.5 1.05829 15.2649 0.823242 14.975 0.823242H14.3161H1.71609H1.025ZM12.0737 4.66016C11.8868 4.47325 11.5838 4.47325 11.3969 4.66016L9.28867 6.76839L7.18711 4.66683C7.0002 4.47992 6.69717 4.47992 6.51026 4.66683L6.44465 4.73244C6.43853 4.73856 6.43261 4.74481 6.42689 4.75117L4.00078 7.17728C3.81387 7.36418 3.81387 7.66722 4.00078 7.85412L4.06639 7.91974C4.2533 8.10664 4.55634 8.10665 4.74324 7.91974L6.84917 5.81381L8.94978 7.91442C9.13041 8.09505 9.41949 8.10112 9.6074 7.93263C9.61658 7.92474 9.62553 7.91645 9.63423 7.90775L12.1394 5.40262C12.3263 5.21571 12.3263 4.91268 12.1394 4.72577L12.0737 4.66016Z" fill="#262626"/>
</svg>
