<svg width="16" height="16" viewBox="0 0 16 16" fill="none" xmlns="http://www.w3.org/2000/svg">
<path fill-rule="evenodd" clip-rule="evenodd" d="M5 8C5 8.55228 4.55228 9 4 9C3.44772 9 3 8.55228 3 8C3 7.44772 3.44772 7 4 7C4.55228 7 5 7.44772 5 8ZM9.14326 8.00002C9.14326 8.5523 8.69555 9.00002 8.14326 9.00002C7.59098 9.00002 7.14326 8.5523 7.14326 8.00002C7.14326 7.44773 7.59098 7.00002 8.14326 7.00002C8.69555 7.00002 9.14326 7.44773 9.14326 8.00002ZM12.2858 9.00002C12.8381 9.00002 13.2858 8.5523 13.2858 8.00002C13.2858 7.44773 12.8381 7.00002 12.2858 7.00002C11.7336 7.00002 11.2858 7.44773 11.2858 8.00002C11.2858 8.5523 11.7336 9.00002 12.2858 9.00002Z" fill="currentColor"/>
</svg>
