<svg width="20" height="20" viewBox="0 0 20 20" fill="none" xmlns="http://www.w3.org/2000/svg">
<path fill-rule="evenodd" clip-rule="evenodd" d="M16.6178 6.83933L16.9524 5.58455C17.0189 5.33638 17.2779 5.18784 17.5316 5.2525C17.7852 5.31716 17.9381 5.56882 17.8733 5.81523L17.179 8.42441C17.1592 8.49432 17.125 8.55548 17.0765 8.61141C16.9919 8.7652 16.8282 8.85258 16.6592 8.85258C16.5818 8.85258 16.5045 8.8351 16.4325 8.79665L13.9934 7.51216C13.7632 7.39158 13.6768 7.11021 13.8027 6.88652C13.9269 6.66282 14.2165 6.58068 14.4467 6.70127L15.5116 7.26225C15.105 6.41816 14.5186 5.68416 13.7704 5.08123C12.4285 3.99946 10.7323 3.49091 8.99467 3.64819C7.25887 3.80548 5.68856 4.61113 4.57513 5.91659C2.27632 8.61141 2.66305 12.6187 5.43673 14.8521C6.77861 15.9339 8.47483 16.4442 10.2124 16.2852C11.9482 16.1279 13.5185 15.3222 14.632 14.0168C14.9755 13.6148 15.2669 13.1727 15.4972 12.7061C15.6375 12.4195 15.9936 12.2971 16.2886 12.4352C16.5836 12.5715 16.7095 12.9175 16.5674 13.2041C16.2958 13.7564 15.9523 14.2772 15.5457 14.7525C14.2308 16.2957 12.3745 17.2464 10.3222 17.4333C10.0775 17.4561 9.83289 17.4666 9.59006 17.4666C7.7967 17.4666 6.07529 16.8654 4.67766 15.7399C1.40033 13.101 0.945244 8.36499 3.66136 5.18085C4.97805 3.63771 6.83257 2.68701 8.88495 2.50001C10.9373 2.31302 12.9411 2.9142 14.5276 4.19345C15.4306 4.92045 16.1339 5.81173 16.6178 6.83933ZM16.5545 8.33786L16.5795 8.23786C16.5727 8.24194 16.5663 8.24602 16.56 8.25002C16.5353 8.26561 16.5127 8.2799 16.4795 8.28786L16.5545 8.33786Z" fill="#92929D"/>
</svg>
