<svg width="32" height="33" viewBox="0 0 32 33" fill="none" xmlns="http://www.w3.org/2000/svg">
<path fill-rule="evenodd" clip-rule="evenodd" d="M12.4134 1C11.5782 1 10.9107 1.71786 10.9107 2.605C10.9107 3.49429 11.5798 4.21429 12.4134 4.21429H19.413C20.2059 4.21429 20.875 3.49429 20.875 2.605C20.875 1.71786 20.2075 1 19.3707 1H12.4134ZM5.10357 2.07143H8.92214C9.44875 2.07143 9.85161 2.54179 9.80071 3.07054L9.76911 3.27946C9.75839 3.36357 9.75304 3.44446 9.7525 3.52054C9.7525 4.46875 10.398 5.3125 11.013 5.3125H20.7775C21.3373 5.3125 21.977 4.45964 21.9764 3.52054C21.9764 3.44286 21.9711 3.3625 21.9604 3.27893L21.9293 3.07054C21.8784 2.54179 22.2812 2.07143 22.8079 2.07143H26.5879C29.3736 2.07143 31 3.89768 31 6.70268V27.492C31 30.5927 29.4379 32.083 26.3929 32.083H5.29804C2.39714 32.083 1 30.4673 1 27.4909V6.70268C1 3.71875 2.21125 2.07143 5.10357 2.07143ZM22.9013 22.2553C23.2356 21.4639 23.4047 20.6125 23.3983 19.7535H23.4C23.4 18.8787 23.2366 18.0532 22.9081 17.2704C22.5797 16.4892 22.127 15.7965 21.5466 15.1923C20.9578 14.5847 20.2668 14.0844 19.5043 13.7185C18.7129 13.3362 17.8602 13.0965 16.9855 13.0105L16.8051 12.9764C16.7421 12.9662 16.6826 12.9594 16.623 12.9594H13.8829V11.5809C13.8836 11.3731 13.7801 11.1788 13.6072 11.0635C13.4353 10.9495 13.2107 10.9886 12.9349 11.1843C12.843 11.2524 12.6848 11.3766 12.4601 11.5536C12.2355 11.7323 11.9836 11.9315 11.7028 12.1493C11.165 12.5663 10.634 12.9918 10.1064 13.4257C9.92256 13.5738 9.75917 13.7253 9.61621 13.875C9.47155 14.0231 9.40007 14.1678 9.40007 14.3039C9.39745 14.4613 9.46706 14.6112 9.58898 14.7107C9.73646 14.8366 9.88625 14.9597 10.0383 15.08L10.8995 15.7369C11.4168 16.1165 11.9376 16.4909 12.4584 16.8653C12.6031 16.9703 12.7507 17.0713 12.9009 17.1682C13.2447 17.3742 13.4949 17.432 13.6497 17.3401C13.8063 17.2482 13.8829 17.1036 13.8829 16.9079V15.5463H16.6247C16.6468 15.5463 16.6621 15.5446 16.6672 15.5378C16.6723 15.5327 16.6877 15.5293 16.7098 15.5293C17.2547 15.5815 17.7861 15.7302 18.2789 15.9684C19.2282 16.4295 19.9806 17.2157 20.3995 18.1843C20.6089 18.6676 20.711 19.185 20.711 19.7364C20.711 20.3236 20.5952 20.8716 20.3655 21.3822C20.1357 21.8945 19.8192 22.3404 19.4158 22.7182C19.0057 23.1045 18.5257 23.4126 18.0032 23.6253C17.4569 23.85 16.8715 23.964 16.2792 23.9606L13.6072 23.9436C13.4124 23.9434 13.2193 23.9785 13.0371 24.0474C12.8575 24.1139 12.6888 24.2068 12.5367 24.3231C12.39 24.4354 12.2673 24.5761 12.1759 24.7367C11.9889 25.0449 11.9922 25.4324 12.1844 25.7374C12.2825 25.8986 12.4081 26.0414 12.5554 26.1595C12.8637 26.4065 13.2462 26.5425 13.6412 26.5458H16.6247C16.7289 26.5473 16.833 26.5359 16.9344 26.5117C17.8178 26.4382 18.6799 26.2016 19.4771 25.814C20.2433 25.4448 20.9382 24.9429 21.5296 24.3316C22.1099 23.7292 22.5749 23.0254 22.9013 22.2553Z" fill="url(#paint0_linear_0_3306)"/>
<defs>
<linearGradient id="paint0_linear_0_3306" x1="47.8883" y1="20.4545" x2="16.6943" y2="-13.4427" gradientUnits="userSpaceOnUse">
<stop stop-color="#FF6A57"/>
<stop offset="1" stop-color="#FFD335"/>
</linearGradient>
</defs>
</svg>
