<svg width="16" height="16" viewBox="0 0 16 16" fill="none" xmlns="http://www.w3.org/2000/svg">
<rect width="16" height="16" rx="4" fill="#1DD2C1"/>
<g clip-path="url(#clip0_4821_431498)">
<path fill-rule="evenodd" clip-rule="evenodd" d="M13.9255 7.84156C13.9758 7.76441 14.0025 7.67358 13.9998 7.58118L13.9881 7.49464C13.942 7.30045 13.7679 7.15948 13.5654 7.16739C13.444 7.17355 13.3319 7.23373 13.2577 7.33204L12.7733 7.83208L12.7683 7.59091C12.6529 5.0343 10.5617 3 8.02435 3C6.41509 3 4.91545 3.82442 4.01325 5.20448L4.63657 5.69567L4.79366 5.48462C5.60369 4.45744 6.77589 3.85587 8.02433 3.85634C10.1645 3.85634 11.9267 5.60864 12.021 7.81661L11.6619 7.31365L11.5828 7.23823C11.5001 7.1731 11.4065 7.13907 11.3036 7.13764C11.0696 7.14714 10.8901 7.34753 10.8996 7.58483C10.9059 7.71391 10.9717 7.80257 11.0696 7.91374L12.414 9.34498L13.8676 7.91369L13.9255 7.84156ZM12.0415 10.7855C12.0901 10.7054 12.1157 10.617 12.1145 10.5287L12.1026 10.4412C12.056 10.2468 11.882 10.1059 11.6797 10.1142C11.5453 10.1213 11.4234 10.195 11.3522 10.3116C10.6066 11.4569 9.35869 12.1444 8.02429 12.1437C5.8537 12.1437 4.0765 10.3442 4.02392 8.10095L4.40854 8.61643L4.46864 8.67988C4.53549 8.73635 4.62105 8.77094 4.71141 8.77515C4.82285 8.77983 4.93121 8.73863 5.01278 8.66079C5.09405 8.58326 5.14209 8.47572 5.14649 8.36181C5.1499 8.23585 5.0993 8.11522 5.00814 8.03182L3.62871 6.59681L2.21079 8.03356L2.14547 8.09778C2.08703 8.16933 2.05036 8.26116 2.04553 8.35763C2.0369 8.59562 2.21633 8.79595 2.44737 8.80527C2.58582 8.80875 2.7219 8.73764 2.81551 8.6202L3.27424 8.13365L3.27763 8.37613C3.37671 10.947 5.47459 13.0001 8.02427 13.0001C9.52951 13.0001 10.9372 12.278 11.8564 11.0455L12.0135 10.8227L12.0415 10.7855Z" fill="white"/>
</g>
<defs>
<clipPath id="clip0_4821_431498">
<rect width="12" height="12" fill="white" transform="translate(2 2)"/>
</clipPath>
</defs>
</svg>
