<svg width="16" height="16" viewBox="0 0 16 16" fill="none" xmlns="http://www.w3.org/2000/svg">
<g id="&#231;&#188;&#150;&#231;&#187;&#132;">
<g id="&#229;&#189;&#162;&#231;&#138;&#182;">
<path fill-rule="evenodd" clip-rule="evenodd" d="M3.63394 9.59038L2.98246 9.1175C3.57846 11.8026 6.17993 13.5773 8.89789 13.0981C10.5832 12.8015 12.0098 11.6813 12.7038 10.1094L13.5591 10.4938C12.7351 12.3531 11.0537 13.6736 9.06133 14.0249C5.81405 14.5975 2.7079 12.4497 2.04757 9.21927L1.54537 9.94049C1.48182 10.0611 1.36913 10.1478 1.23669 10.1779C0.982275 10.2328 0.730918 10.0707 0.675891 9.81522C0.647788 9.67984 0.680907 9.53902 0.766291 9.43086L0.760704 9.42611L2.18574 7.37908L4.18117 8.82824L4.1773 8.83323C4.30733 8.89389 4.40226 9.01158 4.43444 9.15201C4.49047 9.40781 4.3287 9.65949 4.07436 9.71485C3.91688 9.74707 3.75387 9.695 3.6435 9.57722L3.63394 9.59038ZM2.45091 5.48662C2.45599 5.47749 2.46107 5.46837 2.46561 5.45896C3.29689 3.62463 4.96133 2.32384 6.93669 1.97553C10.1978 1.40051 13.318 3.56881 13.9596 6.82212L14.436 6.11643L14.4495 6.12552C14.5133 5.97738 14.6485 5.87285 14.8073 5.84883C15.065 5.81374 15.3028 5.99526 15.3386 6.2545C15.3563 6.39756 15.3072 6.54067 15.2056 6.64208L15.211 6.6459L13.8316 8.69061L11.7913 7.25366L11.7959 7.24712C11.6787 7.17484 11.5993 7.05408 11.5791 6.91741C11.5622 6.79282 11.5952 6.66668 11.6708 6.56676C11.7465 6.46685 11.8586 6.40135 11.9824 6.38468C12.1166 6.36726 12.2517 6.40957 12.3525 6.50054L13.0381 6.98365C12.4862 4.24206 9.85264 2.41706 7.10012 2.9024C5.41051 3.19948 3.98125 4.32471 3.28645 5.90102C3.22962 6.04077 3.10874 6.14388 2.96233 6.1775C2.70812 6.23283 2.45696 6.07055 2.40107 5.81487C2.38218 5.71593 2.39581 5.61356 2.43325 5.52057C2.4385 5.50888 2.44471 5.49774 2.45091 5.48662Z" fill="currentColor"/>
<path d="M2.98246 9.1175L3.01771 9.06894L2.88958 8.97594L2.92389 9.1305L2.98246 9.1175ZM3.63394 9.59038L3.59869 9.63893L3.64723 9.67416L3.68248 9.62564L3.63394 9.59038ZM8.89789 13.0981L8.8875 13.039L8.88747 13.039L8.89789 13.0981ZM12.7038 10.1094L12.7284 10.0547L12.6733 10.0299L12.6489 10.0852L12.7038 10.1094ZM13.5591 10.4938L13.614 10.5181L13.6382 10.4635L13.5837 10.4391L13.5591 10.4938ZM2.04757 9.21927L2.10635 9.20725L2.07832 9.07011L1.99833 9.18498L2.04757 9.21927ZM1.54537 9.94049L1.49576 9.90594L1.49229 9.91252L1.54537 9.94049ZM1.23669 10.1779L1.24935 10.2366L1.25001 10.2364L1.23669 10.1779ZM0.675891 9.81522L0.617142 9.82741L0.617236 9.82785L0.675891 9.81522ZM0.766291 9.43086L0.813386 9.46803L0.849239 9.42261L0.805149 9.38514L0.766291 9.43086ZM0.760704 9.42611L0.711461 9.39183L0.680334 9.43654L0.721846 9.47182L0.760704 9.42611ZM2.18574 7.37908L2.221 7.33053L2.17147 7.29457L2.1365 7.3448L2.18574 7.37908ZM4.18117 8.82824L4.22856 8.86505L4.26658 8.81611L4.21643 8.77969L4.18117 8.82824ZM4.1773 8.83323L4.12992 8.79642L4.08378 8.8558L4.15194 8.8876L4.1773 8.83323ZM4.43444 9.15201L4.49305 9.13917L4.49292 9.13861L4.43444 9.15201ZM4.07436 9.71485L4.08639 9.77364L4.08712 9.77348L4.07436 9.71485ZM3.6435 9.57722L3.68727 9.53619L3.63763 9.48322L3.59495 9.54196L3.6435 9.57722ZM2.46561 5.45896L2.51966 5.48506L2.52026 5.48372L2.46561 5.45896ZM2.45091 5.48662L2.50332 5.51581L2.50332 5.51581L2.45091 5.48662ZM13.9596 6.82212L13.9007 6.83373L13.9286 6.97521L14.0093 6.85569L13.9596 6.82212ZM14.436 6.11643L14.4696 6.06669L14.4198 6.03315L14.3863 6.08286L14.436 6.11643ZM14.4495 6.12552L14.4159 6.17526L14.4759 6.21575L14.5046 6.14926L14.4495 6.12552ZM14.8073 5.84883L14.7992 5.78937L14.7983 5.78951L14.8073 5.84883ZM15.3386 6.2545L15.3982 6.24713L15.398 6.24628L15.3386 6.2545ZM15.2056 6.64208L15.1632 6.59961L15.1127 6.65001L15.171 6.69112L15.2056 6.64208ZM15.211 6.6459L15.2607 6.67946L15.2936 6.63072L15.2455 6.59685L15.211 6.6459ZM13.8316 8.69061L13.7971 8.73966L13.8471 8.77491L13.8813 8.72416L13.8316 8.69061ZM11.7913 7.25366L11.7421 7.21939L11.708 7.26836L11.7568 7.30271L11.7913 7.25366ZM11.7959 7.24712L11.8451 7.28139L11.8813 7.22934L11.8274 7.19606L11.7959 7.24712ZM11.5791 6.91741L11.5196 6.92547L11.5197 6.92618L11.5791 6.91741ZM11.6708 6.56676L11.623 6.53054L11.623 6.53054L11.6708 6.56676ZM11.9824 6.38468L11.9747 6.32518L11.9744 6.32521L11.9824 6.38468ZM12.3525 6.50054L12.312 6.5454L12.3179 6.54958L12.3525 6.50054ZM13.0381 6.98365L13.0035 7.0327L13.1266 7.11944L13.0969 6.97181L13.0381 6.98365ZM7.10012 2.9024L7.11051 2.9615L7.11054 2.96149L7.10012 2.9024ZM3.28645 5.90102L3.23153 5.87681L3.23087 5.87842L3.28645 5.90102ZM2.96233 6.1775L2.9751 6.23613L2.97576 6.23598L2.96233 6.1775ZM2.40107 5.81487L2.34212 5.82612L2.34246 5.82768L2.40107 5.81487ZM2.43325 5.52057L2.37847 5.49599L2.3776 5.49816L2.43325 5.52057ZM2.94722 9.16605L3.59869 9.63893L3.66919 9.54182L3.01771 9.06894L2.94722 9.16605ZM8.88747 13.039C6.20171 13.5125 3.63021 11.7588 3.04104 9.10449L2.92389 9.1305C3.52672 11.8463 6.15814 13.6421 8.90831 13.1571L8.88747 13.039ZM12.6489 10.0852C11.963 11.6388 10.553 12.7459 8.8875 13.039L8.90829 13.1572C10.6134 12.8571 12.0566 11.7237 12.7587 10.1336L12.6489 10.0852ZM13.5837 10.4391L12.7284 10.0547L12.6792 10.1641L13.5345 10.5485L13.5837 10.4391ZM9.07175 14.084C11.084 13.7292 12.7819 12.3956 13.614 10.5181L13.5043 10.4695C12.6883 12.3107 11.0235 13.618 9.05091 13.9659L9.07175 14.084ZM1.98878 9.23128C2.65552 12.493 5.79194 14.6623 9.07175 14.084L9.05091 13.9659C5.83615 14.5327 2.76028 12.4063 2.10635 9.20725L1.98878 9.23128ZM1.59461 9.97478L2.09681 9.25355L1.99833 9.18498L1.49613 9.9062L1.59461 9.97478ZM1.25001 10.2364C1.39959 10.2024 1.52677 10.1045 1.59845 9.96846L1.49229 9.91252C1.43686 10.0177 1.33866 10.0932 1.22337 10.1194L1.25001 10.2364ZM0.617236 9.82785C0.679226 10.1157 0.96246 10.2985 1.24935 10.2366L1.22404 10.1193C1.00209 10.1672 0.782609 10.0258 0.734546 9.80258L0.617236 9.82785ZM0.719196 9.39368C0.622777 9.51582 0.585448 9.67473 0.617143 9.82741L0.734638 9.80302C0.710127 9.68494 0.739037 9.56222 0.813386 9.46803L0.719196 9.39368ZM0.721846 9.47182L0.727433 9.47657L0.805149 9.38514L0.799562 9.38039L0.721846 9.47182ZM2.1365 7.3448L0.711461 9.39183L0.809947 9.46039L2.23498 7.41336L2.1365 7.3448ZM4.21643 8.77969L2.221 7.33053L2.15048 7.42763L4.14592 8.87679L4.21643 8.77969ZM4.22468 8.87003L4.22856 8.86505L4.13379 8.79143L4.12992 8.79642L4.22468 8.87003ZM4.49292 9.13861C4.45664 8.98023 4.34955 8.84738 4.20267 8.77885L4.15194 8.8876C4.26512 8.9404 4.34789 9.04293 4.37595 9.1654L4.49292 9.13861ZM4.08712 9.77348C4.37393 9.71105 4.55616 9.4273 4.49305 9.13917L4.37582 9.16484C4.42477 9.38832 4.28346 9.60793 4.0616 9.65622L4.08712 9.77348ZM3.59972 9.61825C3.72428 9.75116 3.90838 9.81005 4.08639 9.77363L4.06233 9.65607C3.92538 9.68408 3.78347 9.63884 3.68727 9.53619L3.59972 9.61825ZM3.68248 9.62564L3.69204 9.61249L3.59495 9.54196L3.5854 9.55511L3.68248 9.62564ZM2.41159 5.43286C2.40793 5.44044 2.40371 5.44804 2.39849 5.45742L2.50332 5.51581C2.50826 5.50694 2.51421 5.4963 2.51964 5.48505L2.41159 5.43286ZM6.92627 1.91644C4.93119 2.26822 3.25032 3.58201 2.41096 5.43419L2.52026 5.48372C3.34345 3.66724 4.99146 2.37945 6.94711 2.03461L6.92627 1.91644ZM14.0184 6.81051C13.3706 3.52562 10.22 1.33566 6.92627 1.91644L6.94711 2.03461C10.1756 1.46535 13.2654 3.61199 13.9007 6.83373L14.0184 6.81051ZM14.3863 6.08286L13.9098 6.78855L14.0093 6.85569L14.4857 6.15L14.3863 6.08286ZM14.483 6.07578L14.4696 6.06669L14.4024 6.16617L14.4159 6.17526L14.483 6.07578ZM14.7983 5.78951C14.6189 5.81664 14.4663 5.93471 14.3944 6.10179L14.5046 6.14926C14.5602 6.02006 14.678 5.92906 14.8163 5.90816L14.7983 5.78951ZM15.398 6.24628C15.3578 5.95461 15.0901 5.74978 14.7992 5.78938L14.8154 5.90828C15.04 5.8777 15.2478 6.03592 15.2792 6.26271L15.398 6.24628ZM15.2479 6.68455C15.3627 6.57 15.4181 6.40847 15.3982 6.24713L15.2791 6.26187C15.2945 6.38664 15.2516 6.51133 15.1632 6.59961L15.2479 6.68455ZM15.2455 6.59685L15.2401 6.59303L15.171 6.69112L15.1764 6.69495L15.2455 6.59685ZM13.8813 8.72416L15.2607 6.67946L15.1612 6.61235L13.7819 8.65705L13.8813 8.72416ZM11.7568 7.30271L13.7971 8.73966L13.8662 8.64155L11.8259 7.2046L11.7568 7.30271ZM11.7466 7.21285L11.7421 7.21939L11.8406 7.28793L11.8451 7.28139L11.7466 7.21285ZM11.5197 6.92618C11.5425 7.0803 11.632 7.21657 11.7644 7.29819L11.8274 7.19606C11.7253 7.1331 11.656 7.02786 11.6384 6.90864L11.5197 6.92618ZM11.623 6.53054C11.5377 6.64315 11.5006 6.78522 11.5196 6.92547L11.6385 6.90934C11.6237 6.80041 11.6526 6.69021 11.7187 6.60298L11.623 6.53054ZM11.9744 6.32521C11.8347 6.34402 11.7083 6.41792 11.623 6.53054L11.7187 6.60298C11.7847 6.51577 11.8825 6.45867 11.9905 6.44414L11.9744 6.32521ZM12.3927 6.456C12.2789 6.35332 12.1263 6.30549 11.9747 6.32518L11.9902 6.44418C12.1068 6.42903 12.2245 6.46581 12.3123 6.54507L12.3927 6.456ZM13.0726 6.9346L12.387 6.45149L12.3179 6.54958L13.0035 7.0327L13.0726 6.9346ZM7.11054 2.96149C9.83048 2.48189 12.4337 4.28533 12.9792 6.99549L13.0969 6.97181C12.5387 4.19878 9.8748 2.35223 7.0897 2.84332L7.11054 2.96149ZM3.34136 5.92522C4.02813 4.36711 5.44078 3.25508 7.11051 2.9615L7.08973 2.84331C5.38024 3.14389 3.93437 4.28231 3.23155 5.87682L3.34136 5.92522ZM2.97576 6.23598C3.14133 6.19796 3.27787 6.08139 3.34203 5.92362L3.23087 5.87842C3.18137 6.00015 3.07616 6.0898 2.94891 6.11903L2.97576 6.23598ZM2.34246 5.82768C2.40534 6.11539 2.68819 6.29858 2.97509 6.23613L2.94957 6.11888C2.72805 6.16709 2.50857 6.02572 2.45969 5.80206L2.34246 5.82768ZM2.3776 5.49816C2.33643 5.6004 2.32082 5.71446 2.34214 5.82612L2.46001 5.80362C2.44355 5.7174 2.45519 5.62672 2.48891 5.54298L2.3776 5.49816ZM2.39849 5.45742C2.3925 5.46818 2.385 5.48156 2.37851 5.49601L2.48799 5.54514C2.492 5.53621 2.49692 5.52731 2.50332 5.51581L2.39849 5.45742Z" fill="currentColor"/>
</g>
</g>
</svg>
