<svg width="20" height="20" viewBox="0 0 20 20" fill="none" xmlns="http://www.w3.org/2000/svg">
<path fill-rule="evenodd" clip-rule="evenodd" d="M15 9C15 12.3137 12.3137 15 9 15C5.68629 15 3 12.3137 3 9C3 5.68629 5.68629 3 9 3C12.3137 3 15 5.68629 15 9ZM13.277 14.5419C12.0941 15.4561 10.6106 16 9 16C5.13401 16 2 12.866 2 9C2 5.13401 5.13401 2 9 2C12.866 2 16 5.13401 16 9C16 10.8074 15.315 12.4549 14.1904 13.6968L17.5632 16.9625C17.8154 17.2066 17.8154 17.611 17.5632 17.8551C17.3224 18.0884 16.9399 18.0884 16.699 17.8551L13.277 14.5419Z" fill="#92929D"/>
</svg>
