<svg width="20" height="20" viewBox="0 0 20 20" fill="none" xmlns="http://www.w3.org/2000/svg">
<path d="M15.8209 4.66805H13.4775C13.1543 4.66805 12.9119 4.42563 12.9119 4.1024C12.9119 3.77917 13.1543 3.53674 13.4775 3.53674H15.8209C16.1442 3.53674 16.3866 3.77917 16.3866 4.1024C16.3866 4.42563 16.225 4.66805 15.8209 4.66805Z" fill="#92929D"/>
<path d="M15.9013 7.09226C15.5781 7.09226 15.3357 6.84983 15.3357 6.5266V4.18319C15.3357 3.85996 15.5781 3.61753 15.9013 3.61753C16.2246 3.53673 16.467 3.77915 16.467 4.18319V6.5266C16.467 6.84983 16.3054 7.09226 15.9013 7.09226Z" fill="#92929D"/>
<path d="M9.43693 11.2134C9.27532 11.2134 9.1137 11.1326 9.1137 11.0518C8.87128 10.8094 8.87128 10.4861 9.1137 10.2437L15.2551 3.94073C15.4975 3.69831 15.8207 3.69831 16.0631 3.94073C16.3056 4.18315 16.3056 4.50638 16.0631 4.7488L9.92178 11.0518C9.67935 11.2134 9.59855 11.2134 9.43693 11.2134Z" fill="#92929D"/>
<path d="M8.30344 3.20703C5.25722 3.96536 3 6.7191 3 10C3 13.866 6.13401 17 10 17C13.0873 17 15.7078 15.0014 16.6382 12.2273" stroke="#92929D" stroke-width="1.2" stroke-linecap="round"/>
</svg>
