<svg width="16" height="16" viewBox="0 0 16 16" fill="none" xmlns="http://www.w3.org/2000/svg">
<path fill-rule="evenodd" clip-rule="evenodd" d="M3.22165 4.54548C3.22165 2.58724 4.78089 1 6.70413 1H6.70501C8.6265 1 10.1849 2.58812 10.184 4.5446C10.1883 5.67034 9.65926 6.73162 8.75775 7.40584C10.8901 8.20821 12.4065 10.2242 12.4065 12.5911V12.8422C12.4065 13.5509 11.843 14.1249 11.1474 14.1249H2.26003C1.56354 14.1249 1.00004 13.5509 1.00004 12.8422V12.5911C1.00004 10.2242 2.51641 8.20821 4.64877 7.40671C3.74758 6.73213 3.21841 5.67118 3.22165 4.54548ZM11.3705 12.5911C11.3705 10.1113 9.28624 8.09008 6.70413 8.09008C4.12115 8.09008 2.03691 10.1113 2.03691 12.5911V12.8422C2.03691 12.9673 2.13666 13.0697 2.25916 13.0697H11.1482C11.2707 13.0697 11.3705 12.9673 11.3705 12.8422V12.5911ZM10.7781 1.75512C10.4911 1.75512 10.2592 1.99137 10.2592 2.28274C10.2581 2.42152 10.3121 2.55507 10.4094 2.65402C10.5067 2.75297 10.6393 2.80921 10.7781 2.81036C11.7187 2.81036 12.4817 3.58736 12.4817 4.54548C12.4817 5.5036 11.7187 6.27972 10.7781 6.27972C10.4911 6.27972 10.2592 6.51597 10.2592 6.80822C10.2575 7.06441 10.4409 7.28444 10.6932 7.32884L10.7781 7.33584C12.4843 7.33584 13.8791 8.70433 13.9596 10.4228L13.9631 10.5803V11.3337C13.9617 11.4725 14.0155 11.6061 14.1126 11.7052C14.2098 11.8043 14.3423 11.8608 14.4811 11.8622C14.7429 11.8607 14.9631 11.6653 14.9956 11.4054L15 11.3337V10.5794C15.0071 8.91323 14.0522 7.39249 12.5482 6.67522C13.1665 6.14058 13.5209 5.36286 13.5186 4.54548C13.5186 3.00374 12.2919 1.75425 10.7781 1.75425V1.75512ZM9.14799 4.54548C9.14799 3.17086 8.05337 2.05612 6.70413 2.05612C5.35314 2.05612 4.2594 3.17086 4.2594 4.54548C4.2594 5.9201 5.35402 7.03484 6.70413 7.03484C8.05425 7.03484 9.14799 5.91922 9.14799 4.54548Z" fill="currentColor"/>
<path d="M3.22165 4.54548H3.32165L3.32165 4.54577L3.22165 4.54548ZM10.184 4.5446L10.084 4.54499V4.54456L10.184 4.5446ZM8.75775 7.40584L8.72253 7.49943L8.55162 7.43512L8.69785 7.32576L8.75775 7.40584ZM4.64877 7.40671L4.7087 7.32666L4.85487 7.43608L4.68395 7.50032L4.64877 7.40671ZM10.2592 2.28274H10.3592L10.3592 2.28358L10.2592 2.28274ZM10.7781 1.75512H10.8781V1.85512H10.7781V1.75512ZM10.4094 2.65402L10.4807 2.5839V2.5839L10.4094 2.65402ZM10.7781 2.81036V2.91037L10.7773 2.91036L10.7781 2.81036ZM10.2592 6.80822H10.3592L10.3592 6.8089L10.2592 6.80822ZM10.6932 7.32884L10.685 7.42892L10.6759 7.42733L10.6932 7.32884ZM10.7781 7.33584V7.43618L10.7699 7.4355L10.7781 7.33584ZM13.9596 10.4228L14.0595 10.4181L14.0596 10.4206L13.9596 10.4228ZM13.9631 10.5803L14.0631 10.5781V10.5803H13.9631ZM13.9631 11.3337H14.0631L14.0631 11.3347L13.9631 11.3337ZM14.1126 11.7052L14.0412 11.7752H14.0412L14.1126 11.7052ZM14.4811 11.8622L14.4817 11.9622L14.4801 11.9622L14.4811 11.8622ZM14.9956 11.4054L15.0956 11.4115L15.0948 11.4179L14.9956 11.4054ZM15 11.3337H15.1001L15.0998 11.3398L15 11.3337ZM15 10.5794H14.9L14.9 10.579L15 10.5794ZM12.5482 6.67522L12.5052 6.76548L12.3671 6.69963L12.4828 6.59958L12.5482 6.67522ZM13.5186 4.54548L13.4186 4.54576V4.54548H13.5186ZM10.7781 1.75425H10.6781V1.65425H10.7781V1.75425ZM6.70413 1.1C4.8378 1.1 3.32165 2.64078 3.32165 4.54548H3.12165C3.12165 2.53371 4.72399 0.9 6.70413 0.9V1.1ZM6.70501 1.1H6.70413V0.9H6.70501V1.1ZM10.084 4.54456C10.0848 2.64158 8.56953 1.1 6.70501 1.1V0.9C8.68346 0.9 10.2849 2.53465 10.284 4.54465L10.084 4.54456ZM8.69785 7.32576C9.57402 6.6705 10.0882 5.63906 10.084 4.54499L10.284 4.54422C10.2884 5.70162 9.7445 6.79274 8.81764 7.48592L8.69785 7.32576ZM12.3065 12.5911C12.3065 10.2685 10.8185 8.28811 8.72253 7.49943L8.79296 7.31224C10.9617 8.12831 12.5065 10.1799 12.5065 12.5911H12.3065ZM12.3065 12.8422V12.5911H12.5065V12.8422H12.3065ZM11.1474 14.0249C11.786 14.0249 12.3065 13.4975 12.3065 12.8422H12.5065C12.5065 13.6044 11.8999 14.2249 11.1474 14.2249V14.0249ZM2.26003 14.0249H11.1474V14.2249H2.26003V14.0249ZM1.10004 12.8422C1.10004 13.4974 1.62046 14.0249 2.26003 14.0249V14.2249C1.50661 14.2249 0.90004 13.6044 0.90004 12.8422H1.10004ZM1.10004 12.5911V12.8422H0.90004V12.5911H1.10004ZM4.68395 7.50032C2.58803 8.28812 1.10004 10.2685 1.10004 12.5911H0.90004C0.90004 10.1799 2.44479 8.1283 4.61359 7.31311L4.68395 7.50032ZM3.32165 4.54577C3.3185 5.63985 3.83282 6.67102 4.7087 7.32666L4.58884 7.48677C3.66235 6.79324 3.11831 5.7025 3.12165 4.54519L3.32165 4.54577ZM6.70413 7.99008C9.3382 7.99008 11.4705 10.0529 11.4705 12.5911H11.2705C11.2705 10.1698 9.23429 8.19008 6.70413 8.19008V7.99008ZM1.93691 12.5911C1.93691 10.0529 4.0692 7.99008 6.70413 7.99008V8.19008C4.17309 8.19008 2.13691 10.1698 2.13691 12.5911H1.93691ZM1.93691 12.8422V12.5911H2.13691V12.8422H1.93691ZM2.25916 13.1697C2.07916 13.1697 1.93691 13.0202 1.93691 12.8422H2.13691C2.13691 12.9144 2.19415 12.9697 2.25916 12.9697V13.1697ZM11.1482 13.1697H2.25916V12.9697H11.1482V13.1697ZM11.4705 12.8422C11.4705 13.0202 11.3282 13.1697 11.1482 13.1697V12.9697C11.2132 12.9697 11.2705 12.9144 11.2705 12.8422H11.4705ZM11.4705 12.5911V12.8422H11.2705V12.5911H11.4705ZM10.1592 2.28274C10.1592 1.93778 10.4343 1.65512 10.7781 1.65512V1.85512C10.548 1.85512 10.3592 2.04496 10.3592 2.28274H10.1592ZM10.3381 2.72414C10.2222 2.60628 10.1579 2.4472 10.1592 2.2819L10.3592 2.28358C10.3583 2.39584 10.402 2.50387 10.4807 2.5839L10.3381 2.72414ZM10.7773 2.91036C10.612 2.90898 10.454 2.842 10.3381 2.72414L10.4807 2.5839C10.5594 2.66394 10.6667 2.70943 10.7789 2.71037L10.7773 2.91036ZM12.3817 4.54548C12.3817 3.64086 11.6618 2.91036 10.7781 2.91036V2.71036C11.7757 2.71036 12.5817 3.53386 12.5817 4.54548H12.3817ZM10.7781 6.17972C11.6618 6.17972 12.3817 5.45004 12.3817 4.54548H12.5817C12.5817 5.55716 11.7756 6.37972 10.7781 6.37972V6.17972ZM10.1592 6.80822C10.1592 6.46249 10.4341 6.17972 10.7781 6.17972V6.37972C10.5481 6.37972 10.3592 6.56945 10.3592 6.80822H10.1592ZM10.6759 7.42733C10.3755 7.37447 10.1572 7.11252 10.1592 6.80754L10.3592 6.8089C10.3578 7.01629 10.5063 7.19441 10.7106 7.23035L10.6759 7.42733ZM10.7699 7.4355L10.685 7.4285L10.7015 7.22918L10.7863 7.23618L10.7699 7.4355ZM13.8597 10.4275C13.7816 8.7605 12.4291 7.43584 10.7781 7.43584V7.23584C12.5396 7.23584 13.9766 8.64816 14.0595 10.4181L13.8597 10.4275ZM13.8631 10.5825L13.8596 10.425L14.0596 10.4206L14.0631 10.5781L13.8631 10.5825ZM13.8631 11.3337V10.5803H14.0631V11.3337H13.8631ZM14.0412 11.7752C13.9255 11.6572 13.8614 11.498 13.8631 11.3327L14.0631 11.3347C14.062 11.447 14.1055 11.5551 14.184 11.6352L14.0412 11.7752ZM14.4801 11.9622C14.3148 11.9605 14.1569 11.8933 14.0412 11.7752L14.184 11.6352C14.2626 11.7154 14.3698 11.7611 14.4821 11.7622L14.4801 11.9622ZM15.0948 11.4179C15.0561 11.7275 14.7937 11.9604 14.4817 11.9622L14.4805 11.7622C14.6922 11.761 14.8701 11.603 14.8964 11.393L15.0948 11.4179ZM15.0998 11.3398L15.0954 11.4115L14.8958 11.3994L14.9001 11.3276L15.0998 11.3398ZM15.1 10.5794V11.3337H14.9V10.5794H15.1ZM12.5913 6.58496C14.1301 7.3189 15.1073 8.87496 15.1 10.5799L14.9 10.579C14.907 8.9515 13.9742 7.46609 12.5052 6.76548L12.5913 6.58496ZM13.6186 4.5452C13.6209 5.39172 13.254 6.19716 12.6136 6.75086L12.4828 6.59958C13.0791 6.084 13.4208 5.334 13.4186 4.54576L13.6186 4.5452ZM10.7781 1.65425C12.3488 1.65425 13.6186 2.95025 13.6186 4.54548H13.4186C13.4186 3.05723 12.2349 1.85425 10.7781 1.85425V1.65425ZM10.6781 1.75512V1.75425H10.8781V1.75512H10.6781ZM6.70413 1.95612C8.11033 1.95612 9.24799 3.11737 9.24799 4.54548H9.04799C9.04799 3.22435 7.99642 2.15612 6.70413 2.15612V1.95612ZM4.1594 4.54548C4.1594 3.11737 5.29619 1.95612 6.70413 1.95612V2.15612C5.41009 2.15612 4.3594 3.22435 4.3594 4.54548H4.1594ZM6.70413 7.13484C5.29708 7.13484 4.1594 5.97361 4.1594 4.54548H4.3594C4.3594 5.86659 5.41094 6.93484 6.70413 6.93484V7.13484ZM9.24799 4.54548C9.24799 5.97266 8.11125 7.13484 6.70413 7.13484V6.93484C7.99725 6.93484 9.04799 5.86578 9.04799 4.54548H9.24799Z" fill="currentColor"/>
</svg>
