<svg width="16" height="16" viewBox="0 0 16 16" fill="none" xmlns="http://www.w3.org/2000/svg">
<g opacity="0.2">
<path fill-rule="evenodd" clip-rule="evenodd" d="M4.12305 1.57343C4.12305 1.03587 4.55882 0.600098 5.09638 0.600098C5.63394 0.600098 6.06971 1.03587 6.06971 1.57343V2.54676H4.12305V1.57343ZM11.9115 2.54676H12.7882C13.9157 2.54676 14.8298 3.46081 14.8298 4.58836V6.44013H1.20312V4.58836C1.20312 3.46082 2.11718 2.54676 3.24472 2.54676H4.12305V3.5201C4.12305 4.05765 4.55882 4.49343 5.09638 4.49343C5.63394 4.49343 6.06971 4.05765 6.06971 3.5201V2.54676H9.96484V3.5201C9.96484 4.05765 10.4006 4.49343 10.9382 4.49343C11.4757 4.49343 11.9115 4.05765 11.9115 3.5201V2.54676ZM11.9115 2.54676H9.96484V1.57343C9.96484 1.03587 10.4006 0.600098 10.9382 0.600098C11.4757 0.600098 11.9115 1.03587 11.9115 1.57343V2.54676ZM14.8298 7.41346H1.20312V13.1585C1.20312 14.286 2.11718 15.2001 3.24472 15.2001H12.7882C13.9157 15.2001 14.8298 14.286 14.8298 13.1585V7.41346Z" fill="#262626"/>
</g>
</svg>
