<svg width="7" height="7" viewBox="0 0 7 7" fill="none" xmlns="http://www.w3.org/2000/svg">
<path fill-rule="evenodd" clip-rule="evenodd" d="M3.57559 6.38408C5.25315 6.38408 6.61309 5.02415 6.61309 3.34658C6.61309 1.66902 5.25315 0.309082 3.57559 0.309082C1.89802 0.309082 0.538086 1.66902 0.538086 3.34658C0.538086 5.02415 1.89802 6.38408 3.57559 6.38408ZM3.60229 1.18312C3.33048 1.18312 3.11013 1.40287 3.11013 1.67395L3.11033 3.51967C3.11033 3.79075 3.33067 4.0105 3.60248 4.0105H5.14739C5.4192 4.0105 5.63955 3.79075 5.63955 3.51967C5.63955 3.2486 5.4192 3.02885 5.14739 3.02885L4.09346 3.02854L4.09444 1.67395C4.09444 1.40287 3.8741 1.18312 3.60229 1.18312Z" fill="#5D7BFF"/>
</svg>
