<svg width="16" height="16" viewBox="0 0 16 16" fill="none" xmlns="http://www.w3.org/2000/svg">
<path fill-rule="evenodd" clip-rule="evenodd" d="M12.3248 0.666748C13.5371 0.666748 14.5198 1.6157 14.5198 2.7863L14.5202 8.77154C13.7372 7.90353 12.6037 7.35793 11.3427 7.35793C8.98015 7.35793 7.06492 9.27316 7.06492 11.6357C7.06492 13.2139 7.91959 14.5926 9.19135 15.334L2.86298 15.3334C1.65071 15.3334 0.667969 14.3845 0.667969 13.2139V2.7863C0.667969 1.6157 1.65071 0.666748 2.86298 0.666748H12.3248ZM6.56709 6.75749H3.01861C2.84239 6.75749 2.69537 6.88248 2.66137 7.04865L2.65396 7.12214V7.37062C2.65396 7.54683 2.77896 7.69386 2.94512 7.72786L3.01861 7.73527H6.56709C6.7433 7.73527 6.89033 7.61027 6.92433 7.44411L6.93174 7.37062V7.12214C6.93174 6.92075 6.76848 6.75749 6.56709 6.75749ZM8.70598 3.54916H3.01861C2.84239 3.54916 2.69537 3.67415 2.66137 3.84032L2.65396 3.91381V4.16228C2.65396 4.3385 2.77896 4.48552 2.94512 4.51953L3.01861 4.52693H8.70598C8.88219 4.52693 9.02922 4.40194 9.06322 4.23577L9.07063 4.16228V3.91381C9.07063 3.71241 8.90737 3.54916 8.70598 3.54916Z" fill="#5D7BFF"/>
<path fill-rule="evenodd" clip-rule="evenodd" d="M11.342 8.33569C13.1645 8.33569 14.642 9.81315 14.642 11.6357C14.642 13.4582 13.1645 14.9357 11.342 14.9357C9.51945 14.9357 8.04199 13.4582 8.04199 11.6357C8.04199 9.81315 9.51945 8.33569 11.342 8.33569ZM11.371 9.28526C11.0757 9.28526 10.8363 9.52401 10.8363 9.81851L10.8365 11.8237C10.8365 12.1182 11.0759 12.357 11.3712 12.357H13.0496C13.3449 12.357 13.5843 12.1182 13.5843 11.8237C13.5843 11.5292 13.3449 11.2905 13.0496 11.2905L11.9046 11.2902L11.9057 9.81851C11.9057 9.52401 11.6663 9.28526 11.371 9.28526Z" fill="#5D7BFF"/>
</svg>
