<svg width="48" height="48" viewBox="0 0 48 48" fill="none" xmlns="http://www.w3.org/2000/svg">
<path fill-rule="evenodd" clip-rule="evenodd" d="M39.8223 17.8007C29.5873 0.733111 19.3524 0.733111 9.11747 17.8007C-1.11747 34.8682 4 43.4 24.4699 43.4C44.9397 43.4 50.0572 34.8682 39.8223 17.8007ZM24.4739 35.7438C23.0586 35.7438 21.9111 34.5964 21.9111 33.1811C21.9111 31.7658 23.0586 30.6183 24.4739 30.6183C25.8892 30.6183 27.0366 31.7658 27.0366 33.1811C27.0366 34.5964 25.8892 35.7438 24.4739 35.7438ZM24.4739 28.0556C25.8892 28.0556 27.0366 26.9082 27.0366 25.4929V17.8047C27.0366 16.3894 25.8892 15.2419 24.4739 15.2419C23.0586 15.2419 21.9111 16.3894 21.9111 17.8047V25.4929C21.9111 26.9082 23.0586 28.0556 24.4739 28.0556Z" fill="#FA7070"/>
</svg>
