<svg width="22" height="22" viewBox="0 0 22 22" fill="none" xmlns="http://www.w3.org/2000/svg">
<circle cx="11" cy="11" r="11" fill="white"/>
<path d="M20.185 13.4757C20.0116 13.5215 19.8526 13.613 19.7226 13.7406H19.7202C19.554 13.9044 19.4505 14.1187 19.4264 14.3499C19.3011 15.0194 18.9568 15.6287 18.4511 16.0838C18.3547 16.1753 18.3523 16.327 18.4438 16.4234L18.4462 16.4258C18.5426 16.5221 18.6991 16.5245 18.7978 16.4282C18.8099 16.4161 18.8195 16.4065 18.8267 16.3921C19.33 15.8647 19.9995 15.5251 20.722 15.4336C21.2711 15.2867 21.5938 14.7304 21.4469 14.191C21.2975 13.6491 20.734 13.3288 20.185 13.4757Z" fill="url(#paint0_linear_303_71358)"/>
<path d="M15.5533 15.3466C15.457 15.4405 15.457 15.5922 15.5485 15.6861C15.5581 15.6982 15.5702 15.7078 15.5846 15.715C16.1168 16.2063 16.4612 16.8685 16.5576 17.5862C16.7069 18.1256 17.2728 18.4459 17.8195 18.2966C18.3613 18.1545 18.684 17.6006 18.5419 17.0612C18.5419 17.0588 18.5395 17.0564 18.5395 17.0516C18.4263 16.647 18.0747 16.3508 17.6557 16.3098C16.9814 16.187 16.3673 15.8475 15.9025 15.3442C15.8038 15.2526 15.6497 15.2526 15.5533 15.3466Z" fill="#E9702D"/>
<path d="M16.3226 12.4659L16.3057 12.4827C15.8024 13.0294 15.1209 13.381 14.3815 13.4749C13.8373 13.617 13.5098 14.1661 13.6543 14.7055C13.7 14.8813 13.7964 15.0426 13.9264 15.1703C14.3286 15.5652 14.9788 15.5652 15.381 15.1679C15.5447 15.0041 15.6483 14.7898 15.6748 14.561C15.8024 13.8915 16.1468 13.2822 16.6549 12.8271C16.7536 12.738 16.7633 12.5863 16.6766 12.4875L16.6742 12.4851C16.5778 12.384 16.4237 12.3768 16.3226 12.4659Z" fill="#FAE04E"/>
<path d="M17.2779 10.6205C17.1069 10.6662 16.9504 10.7577 16.8276 10.8806C16.4326 11.2707 16.4278 11.9065 16.8179 12.3014L16.83 12.3134C16.9961 12.4772 17.2129 12.5783 17.4441 12.6048C18.1184 12.7277 18.7349 13.0648 19.1996 13.5657C19.296 13.662 19.4501 13.662 19.5464 13.5681C19.6428 13.4766 19.6452 13.3249 19.5537 13.2286C19.5416 13.2165 19.5272 13.2045 19.5127 13.1948C18.9805 12.7036 18.6361 12.0437 18.5398 11.3261C18.3929 10.7866 17.827 10.4712 17.2779 10.6205Z" fill="#75D641"/>
<path d="M10.1156 3.71442C8.27577 3.9143 6.60447 4.69215 5.40519 5.90589C4.938 6.37308 4.55028 6.91252 4.25407 7.50253C3.34617 9.30627 3.49789 11.4616 4.65142 13.1185C4.97653 13.6049 5.51356 14.2118 6.00242 14.6429L5.78087 16.3599L5.75679 16.4322C5.74956 16.4538 5.74956 16.4779 5.74715 16.4996L5.74234 16.555L5.74715 16.6104C5.77605 16.9162 6.04818 17.1402 6.35402 17.1137C6.43831 17.1065 6.51778 17.08 6.59003 17.039H6.59966L6.63337 17.0149L7.16318 16.7549L8.74055 15.9722C9.48951 16.1841 10.2674 16.2901 11.0476 16.2853C12.0109 16.2877 12.9694 16.1239 13.8773 15.7988C13.4245 15.6543 13.1331 15.2136 13.1789 14.7392C12.2397 15.0378 11.2475 15.1341 10.2698 15.0258L10.1132 15.0041C9.75922 14.9583 9.41003 14.8861 9.06807 14.7898C8.88023 14.732 8.68035 14.7536 8.50696 14.8476L8.46361 14.8692L7.16559 15.623L7.1102 15.6567C7.07889 15.6736 7.06444 15.6808 7.04759 15.6808C6.99942 15.6784 6.9633 15.6374 6.96571 15.5893L7.01387 15.3918L7.07167 15.1775L7.16559 14.8235L7.27396 14.4285C7.3462 14.207 7.26673 13.9662 7.07648 13.8313C6.56835 13.458 6.12524 13.0029 5.76642 12.4827C4.85371 11.1775 4.73089 9.47726 5.44613 8.05642C5.68454 7.58682 5.99761 7.15575 6.37088 6.78248C7.35583 5.78066 8.73814 5.14249 10.2698 4.97873C10.7996 4.92093 11.3342 4.92093 11.864 4.97873C13.386 5.15212 14.7635 5.79752 15.7436 6.79452C16.1145 7.1726 16.4227 7.60367 16.6563 8.07568C16.9574 8.67292 17.1139 9.33517 17.1163 10.0047C17.1163 10.0745 17.1091 10.1443 17.1067 10.2118C17.5112 9.96612 18.0314 10.0263 18.3686 10.3587L18.4143 10.414C18.4938 9.42187 18.2987 8.42728 17.8532 7.53624C17.5618 6.94623 17.1765 6.4092 16.7141 5.9396C15.4498 4.68734 13.7906 3.90949 12.0205 3.73128C11.3848 3.6494 10.7466 3.64699 10.1156 3.71442Z" fill="url(#paint1_linear_303_71358)"/>
<defs>
<linearGradient id="paint0_linear_303_71358" x1="19.4479" y1="16.9794" x2="20.003" y2="13.1943" gradientUnits="userSpaceOnUse">
<stop stop-color="#0082EF"/>
<stop offset="1" stop-color="#3EA7FE"/>
</linearGradient>
<linearGradient id="paint1_linear_303_71358" x1="8.75835" y1="19.2265" x2="11.0216" y2="2.535" gradientUnits="userSpaceOnUse">
<stop stop-color="#0082EF"/>
<stop offset="1" stop-color="#3EA7FE"/>
</linearGradient>
</defs>
</svg>
