<svg width="16" height="16" viewBox="0 0 16 16" fill="none" xmlns="http://www.w3.org/2000/svg">
<rect width="16" height="16" rx="4" fill="#6985FD"/>
<g clip-path="url(#clip0_4821_431838)">
<path fill-rule="evenodd" clip-rule="evenodd" d="M5.37422 4.5C5.37422 4.87279 5.07201 5.175 4.69922 5.175C4.32643 5.175 4.02422 4.87279 4.02422 4.5C4.02422 4.12721 4.32643 3.825 4.69922 3.825C5.07201 3.825 5.37422 4.12721 5.37422 4.5ZM4.69922 6C5.40712 6 6.00049 5.50962 6.15816 4.85002H9.78605C10.473 4.85002 11.0298 5.40687 11.0298 6.09377C11.0298 6.77902 10.4756 7.33484 9.79102 7.33752V7.3374H6.16602C5.02348 7.3374 4.09727 8.26361 4.09727 9.40615C4.09727 10.5487 5.02348 11.4749 6.16602 11.4749H9.89641C9.97749 12.2268 10.6142 12.8123 11.3877 12.8123C12.2161 12.8123 12.8877 12.1407 12.8877 11.3123C12.8877 10.4838 12.2161 9.81226 11.3877 9.81226C10.797 9.81226 10.2861 10.1537 10.0415 10.6499H6.16602C5.47911 10.6499 4.92227 10.0931 4.92227 9.40615C4.92227 8.71925 5.47911 8.1624 6.16602 8.1624H8.8173V8.16253H9.78605C10.9286 8.16253 11.8548 7.23631 11.8548 6.09377C11.8548 4.95124 10.9286 4.02502 9.78605 4.02502H6.12246C5.92377 3.42939 5.36164 3 4.69922 3C3.87079 3 3.19922 3.67157 3.19922 4.5C3.19922 5.32843 3.87079 6 4.69922 6ZM12.0627 11.3123C12.0627 11.685 11.7605 11.9873 11.3877 11.9873C11.0149 11.9873 10.7127 11.685 10.7127 11.3123C10.7127 10.9395 11.0149 10.6373 11.3877 10.6373C11.7605 10.6373 12.0627 10.9395 12.0627 11.3123Z" fill="white"/>
</g>
<defs>
<clipPath id="clip0_4821_431838">
<rect width="12" height="12" fill="white" transform="translate(2 2)"/>
</clipPath>
</defs>
</svg>
