<svg width="69" height="18" viewBox="0 0 69 18" fill="none" xmlns="http://www.w3.org/2000/svg">
<rect width="69" height="18" rx="9" fill="#EFF2FA"/>
<path d="M22.75 7.78C22.49 7.97 22.23 8.15 21.97 8.32L21.51 7.77C22.77 7.01 23.8 6.02 24.61 4.78L25.33 4.95C25.17 5.21 25 5.46 24.82 5.7H28.27V6.25C27.85 6.77 27.44 7.21 27.03 7.57H29.48V10.6H27.2V12.64C27.2 12.97 27.34 13.14 27.63 13.14H29.24C29.42 13.14 29.54 13.07 29.62 12.95C29.72 12.79 29.78 12.34 29.81 11.59L30.5 11.81C30.43 12.77 30.31 13.36 30.13 13.57C29.97 13.75 29.72 13.84 29.37 13.84H27.41C26.79 13.84 26.48 13.49 26.48 12.79V10.6H25.96C25.89 10.79 25.81 10.97 25.73 11.15C25.19 12.31 23.94 13.26 22 14.01L21.54 13.44C23.28 12.8 24.44 11.99 25 11.03C25.07 10.89 25.13 10.74 25.19 10.6H22.75V7.78ZM26.11 7.57C26.53 7.22 26.93 6.82 27.33 6.36H24.29C23.9 6.8 23.48 7.2 23.02 7.57H26.11ZM28.79 9.92V8.24H26.36C26.34 8.85 26.28 9.41 26.16 9.92H28.79ZM25.41 9.92C25.54 9.41 25.62 8.85 25.64 8.24H23.45V9.92H25.41ZM33.12 7.13L32.96 7.76H34.44C34.5 7.56 34.54 7.35 34.55 7.13H33.12ZM35.25 7.13C35.23 7.35 35.2 7.56 35.16 7.76H36.71V7.13H35.25ZM37.41 7.13V7.76H40.1C40.1 8.5 40.02 8.96 39.87 9.15C39.72 9.37 39.37 9.48 38.83 9.48C38.67 9.48 38.51 9.47 38.37 9.47L38.23 8.96C38.41 8.97 38.58 8.98 38.74 8.98C39.05 8.98 39.24 8.93 39.32 8.83C39.38 8.74 39.41 8.57 39.42 8.31H37.41V9.45H36.71V8.31H34.96C34.83 8.56 34.67 8.78 34.49 8.97C34.17 9.27 33.73 9.52 33.15 9.72H39.29V12.44H38.58V10.36H33.68V12.44H32.97V9.78C32.72 9.86 32.46 9.93 32.2 9.99L31.84 9.42C32.86 9.2 33.56 8.91 33.95 8.55C34.02 8.47 34.09 8.39 34.15 8.31H32.18L32.53 6.56H34.55V5.92H32.27V5.33H34.55V4.81H35.25V5.33H36.71V4.81H37.41V5.33H39.62V7.13H37.41ZM35.25 5.92V6.56H36.71V5.92H35.25ZM37.41 5.92V6.56H38.94V5.92H37.41ZM36.67 12.3C37.96 12.61 39.14 12.99 40.21 13.45L39.82 14.05C38.68 13.53 37.51 13.13 36.31 12.84L36.67 12.3ZM35.74 10.71L36.46 10.78C36.33 11.92 36.03 12.68 35.56 13.08C35.04 13.57 33.89 13.88 32.09 14.01L31.8 13.37C33.39 13.29 34.44 13.06 34.95 12.66C35.4 12.27 35.66 11.62 35.74 10.71ZM42.58 9.93H49.43V10.61H46.36V12.98H50.27V13.67H41.74V12.98H45.63V10.61H42.58V9.93ZM46.93 7.12C47.98 7.6 48.94 8.19 49.8 8.88L49.39 9.49C48.47 8.73 47.52 8.13 46.55 7.69L46.93 7.12ZM44.84 7.19L45.29 7.71C44.51 8.41 43.54 9 42.38 9.47L42.07 8.81C43.19 8.4 44.11 7.86 44.84 7.19ZM46.04 4.77C46.17 5.08 46.3 5.43 46.42 5.82H50.25V7.83H49.52V6.49H42.49V7.82H41.76V5.82H45.68C45.55 5.48 45.41 5.17 45.26 4.89L46.04 4.77ZM54.06 7.54H57.86V12.2H54.06V7.54ZM57.19 11.56V10.19H54.74V11.56H57.19ZM54.74 9.55H57.19V8.18H54.74V9.55ZM58.98 13.92H58.14L57.96 13.25L58.83 13.27C59.13 13.27 59.29 13.06 59.29 12.66V6H55.41V5.33H59.99V12.86C59.99 13.56 59.65 13.92 58.98 13.92ZM51.99 6.49H52.69V14.01H51.99V6.49ZM53.44 4.74C53.9 5.29 54.31 5.89 54.66 6.55L54.02 6.89C53.64 6.19 53.23 5.57 52.78 5.03L53.44 4.74Z" fill="#535179"/>
<path d="M12.7986 14.6002L8.32935 12.0198V6.85925L12.7986 9.43968V14.6002Z" fill="#AFBDDB"/>
<path opacity="0.5" d="M13.2992 14.6002L17.7684 12.0198V6.85925L13.2992 9.43968V14.6002Z" fill="#AFBDDB"/>
<path d="M13.0285 9.02751L8.55908 6.44663L13.0285 3.86694L17.4976 6.44737L13.0285 9.02751Z" fill="#AFBDDB"/>
</svg>
