<svg width="104" height="18" viewBox="0 0 104 18" fill="none" xmlns="http://www.w3.org/2000/svg">
<rect width="104" height="18" rx="9" fill="url(#paint0_linear_2005_64755)"/>
<path d="M21.72 5.86H24.64C26.28 5.86 27.1 6.56 27.1 7.96C27.1 9.37 26.27 10.08 24.63 10.08H22.54V13H21.72V5.86ZM22.54 6.57V9.37H24.59C25.17 9.37 25.59 9.25 25.87 9.02C26.14 8.79 26.28 8.44 26.28 7.96C26.28 7.48 26.14 7.13 25.86 6.92C25.58 6.68 25.16 6.57 24.59 6.57H22.54ZM30.306 7.69C30.586 7.69 30.826 7.73 31.016 7.81V8.61C30.756 8.53 30.496 8.5 30.246 8.5C29.846 8.5 29.506 8.67 29.236 9.03C28.956 9.37 28.826 9.78 28.826 10.26V13H28.036V7.83H28.826V8.73C28.966 8.43 29.146 8.19 29.366 8.02C29.636 7.8 29.946 7.69 30.306 7.69ZM33.9984 7.69C34.7684 7.69 35.3884 7.95 35.8484 8.49C36.2884 9 36.5084 9.64 36.5084 10.42C36.5084 11.19 36.2884 11.83 35.8584 12.33C35.3884 12.87 34.7684 13.14 33.9984 13.14C33.2184 13.14 32.6084 12.87 32.1484 12.33C31.7084 11.83 31.4884 11.19 31.4884 10.42C31.4884 9.64 31.7084 9 32.1484 8.49C32.6084 7.95 33.2184 7.69 33.9984 7.69ZM33.9984 8.36C33.4484 8.36 33.0184 8.57 32.7184 8.99C32.4384 9.37 32.3084 9.84 32.3084 10.42C32.3084 10.99 32.4384 11.46 32.7184 11.84C33.0184 12.26 33.4484 12.47 33.9984 12.47C34.5384 12.47 34.9684 12.26 35.2884 11.84C35.5584 11.46 35.6984 10.98 35.6984 10.42C35.6984 9.84 35.5584 9.37 35.2884 8.99C34.9684 8.57 34.5384 8.36 33.9984 8.36ZM40.4278 5.86H46.2778V6.57H43.7578V13H42.9478V6.57H40.4278V5.86ZM49.1992 7.69C50.0292 7.69 50.6592 7.97 51.0792 8.53C51.4592 9.03 51.6592 9.74 51.6792 10.64H47.5992C47.6392 11.22 47.7892 11.67 48.0692 11.99C48.3492 12.31 48.7392 12.47 49.2292 12.47C49.6492 12.47 49.9992 12.36 50.2592 12.15C50.4792 11.97 50.6492 11.7 50.7792 11.34H51.5792C51.4592 11.84 51.2292 12.24 50.8792 12.56C50.4492 12.94 49.8992 13.14 49.2292 13.14C48.4892 13.14 47.8892 12.89 47.4492 12.41C46.9892 11.91 46.7692 11.25 46.7692 10.41C46.7692 9.65 46.9792 9.01 47.4192 8.5C47.8592 7.96 48.4492 7.69 49.1992 7.69ZM49.2192 8.36C48.7592 8.36 48.3892 8.51 48.1092 8.81C47.8292 9.11 47.6692 9.51 47.6192 10.02H50.8492C50.7492 8.91 50.1992 8.36 49.2192 8.36ZM54.8661 7.69C55.6061 7.69 56.1461 7.88 56.5061 8.27C56.8061 8.61 56.9661 9.08 56.9661 9.68V13H56.2161V12.13C56.0161 12.41 55.7461 12.64 55.4261 12.82C55.0461 13.03 54.6161 13.14 54.1361 13.14C53.6161 13.14 53.2061 13.01 52.8961 12.75C52.5761 12.48 52.4161 12.13 52.4161 11.71C52.4161 11.12 52.6461 10.68 53.1261 10.38C53.5461 10.1 54.1461 9.95 54.9261 9.94L56.1661 9.92V9.65C56.1661 8.78 55.7161 8.35 54.8161 8.35C54.4361 8.35 54.1261 8.42 53.8861 8.58C53.6161 8.74 53.4461 8.99 53.3661 9.32L52.5761 9.26C52.6861 8.72 52.9561 8.31 53.3761 8.05C53.7561 7.81 54.2461 7.69 54.8661 7.69ZM56.1661 10.52L54.9761 10.54C53.8161 10.56 53.2361 10.94 53.2361 11.69C53.2361 11.93 53.3261 12.12 53.5261 12.28C53.7261 12.43 53.9861 12.51 54.3061 12.51C54.7961 12.51 55.2261 12.35 55.6061 12.03C55.9761 11.72 56.1661 11.36 56.1661 10.96V10.52ZM60.462 7.69C61.252 7.69 61.792 8.01 62.082 8.67C62.282 8.33 62.522 8.08 62.802 7.93C63.052 7.77 63.352 7.69 63.712 7.69C64.252 7.69 64.682 7.86 65.022 8.2C65.342 8.55 65.512 9.02 65.512 9.61V13H64.712V9.74C64.712 9.28 64.612 8.94 64.422 8.72C64.222 8.48 63.902 8.37 63.462 8.37C63.122 8.37 62.832 8.49 62.612 8.75C62.372 9.01 62.262 9.34 62.262 9.76V13H61.462V9.74C61.462 8.82 61.062 8.37 60.272 8.37C59.902 8.37 59.602 8.51 59.362 8.81C59.122 9.09 59.002 9.44 59.002 9.85V13H58.202V7.83H59.002V8.52C59.392 7.96 59.882 7.69 60.462 7.69ZM68.5867 7.69C69.8667 7.69 70.5667 8.22 70.7067 9.3H69.9267C69.8567 8.98 69.7267 8.74 69.5267 8.6C69.3067 8.44 68.9867 8.36 68.5767 8.36C68.2167 8.36 67.9367 8.42 67.7367 8.56C67.5167 8.69 67.4067 8.87 67.4067 9.1C67.4067 9.32 67.5467 9.51 67.8467 9.66C68.0367 9.75 68.3967 9.86 68.9167 10C69.5367 10.15 69.9767 10.31 70.2467 10.48C70.6567 10.74 70.8667 11.09 70.8667 11.54C70.8667 12.6 70.1367 13.14 68.6767 13.14C67.3167 13.14 66.5767 12.54 66.4567 11.35H67.2367C67.2967 11.76 67.4467 12.05 67.6667 12.23C67.8867 12.39 68.2167 12.47 68.6567 12.47C69.5767 12.47 70.0467 12.17 70.0467 11.59C70.0467 11.3 69.8767 11.08 69.5567 10.92C69.3867 10.84 69.0167 10.73 68.4567 10.59C67.8467 10.44 67.4167 10.29 67.1767 10.13C66.7767 9.89 66.5867 9.56 66.5867 9.12C66.5867 8.68 66.7767 8.34 67.1667 8.08C67.5267 7.82 68.0067 7.69 68.5867 7.69ZM74.2755 7.69C75.0155 7.69 75.6055 7.96 76.0355 8.52C76.4255 9.02 76.6255 9.65 76.6255 10.43C76.6255 11.19 76.4255 11.82 76.0455 12.32C75.6255 12.86 75.0555 13.14 74.3155 13.14C73.5755 13.14 73.0055 12.78 72.6055 12.06V14.98H71.8055V7.83H72.5555V8.68C72.9255 8.02 73.4955 7.69 74.2755 7.69ZM74.1755 8.35C73.6555 8.35 73.2455 8.55 72.9655 8.96C72.7055 9.32 72.5755 9.8 72.5755 10.38V10.48C72.5755 11.08 72.7155 11.56 73.0155 11.93C73.2955 12.29 73.6655 12.48 74.1455 12.48C74.7055 12.48 75.1255 12.28 75.4155 11.9C75.6755 11.54 75.8055 11.05 75.8055 10.43C75.8055 9.82 75.6755 9.33 75.4355 8.97C75.1455 8.55 74.7255 8.35 74.1755 8.35ZM79.9149 7.69C80.6549 7.69 81.1949 7.88 81.5549 8.27C81.8549 8.61 82.0149 9.08 82.0149 9.68V13H81.2649V12.13C81.0649 12.41 80.7949 12.64 80.4749 12.82C80.0949 13.03 79.6649 13.14 79.1849 13.14C78.6649 13.14 78.2549 13.01 77.9449 12.75C77.6249 12.48 77.4649 12.13 77.4649 11.71C77.4649 11.12 77.6949 10.68 78.1749 10.38C78.5949 10.1 79.1949 9.95 79.9749 9.94L81.2149 9.92V9.65C81.2149 8.78 80.7649 8.35 79.8649 8.35C79.4849 8.35 79.1749 8.42 78.9349 8.58C78.6649 8.74 78.4949 8.99 78.4149 9.32L77.6249 9.26C77.7349 8.72 78.0049 8.31 78.4249 8.05C78.8049 7.81 79.2949 7.69 79.9149 7.69ZM81.2149 10.52L80.0249 10.54C78.8649 10.56 78.2849 10.94 78.2849 11.69C78.2849 11.93 78.3749 12.12 78.5749 12.28C78.7749 12.43 79.0349 12.51 79.3549 12.51C79.8449 12.51 80.2749 12.35 80.6549 12.03C81.0249 11.72 81.2149 11.36 81.2149 10.96V10.52ZM85.4809 7.69C86.1209 7.69 86.6309 7.84 87.0209 8.14C87.4209 8.45 87.6609 8.92 87.7509 9.55H86.9609C86.8909 9.15 86.7309 8.85 86.4809 8.65C86.2209 8.45 85.8909 8.36 85.4809 8.36C84.9809 8.36 84.5809 8.55 84.2909 8.93C84.0109 9.3 83.8709 9.8 83.8709 10.43C83.8709 11.06 84.0009 11.56 84.2809 11.92C84.5509 12.28 84.9509 12.47 85.4709 12.47C86.3509 12.47 86.8609 12.02 86.9809 11.13H87.7809C87.6609 11.79 87.4109 12.3 87.0109 12.64C86.6209 12.97 86.1109 13.14 85.4709 13.14C84.6909 13.14 84.0909 12.88 83.6609 12.36C83.2509 11.87 83.0509 11.23 83.0509 10.44C83.0509 9.65 83.2509 9.01 83.6609 8.51C84.1009 7.96 84.7109 7.69 85.4809 7.69ZM90.8496 7.69C91.6796 7.69 92.3096 7.97 92.7296 8.53C93.1096 9.03 93.3096 9.74 93.3296 10.64H89.2496C89.2896 11.22 89.4396 11.67 89.7196 11.99C89.9996 12.31 90.3896 12.47 90.8796 12.47C91.2996 12.47 91.6496 12.36 91.9096 12.15C92.1296 11.97 92.2996 11.7 92.4296 11.34H93.2296C93.1096 11.84 92.8796 12.24 92.5296 12.56C92.0996 12.94 91.5496 13.14 90.8796 13.14C90.1396 13.14 89.5396 12.89 89.0996 12.41C88.6396 11.91 88.4196 11.25 88.4196 10.41C88.4196 9.65 88.6296 9.01 89.0696 8.5C89.5096 7.96 90.0996 7.69 90.8496 7.69ZM90.8696 8.36C90.4096 8.36 90.0396 8.51 89.7596 8.81C89.4796 9.11 89.3196 9.51 89.2696 10.02H92.4996C92.3996 8.91 91.8496 8.36 90.8696 8.36Z" fill="white"/>
<path d="M12.7993 14.6004L8.33008 12.0199V6.85938L12.7993 9.43981V14.6004Z" fill="white"/>
<path opacity="0.5" d="M13.3003 14.6004L17.7695 12.0199V6.85938L13.3003 9.43981V14.6004Z" fill="white"/>
<path d="M13.03 9.02775L8.56055 6.44687L13.03 3.86719L17.4991 6.44762L13.03 9.02775Z" fill="white"/>
<defs>
<linearGradient id="paint0_linear_2005_64755" x1="101.833" y1="9" x2="-9.11144e-07" y2="8.99999" gradientUnits="userSpaceOnUse">
<stop stop-color="#7279FF"/>
<stop offset="1" stop-color="#9F71E8"/>
</linearGradient>
</defs>
</svg>
