<svg width="69" height="18" viewBox="0 0 69 18" fill="none" xmlns="http://www.w3.org/2000/svg">
<rect width="69" height="18" rx="9" fill="url(#paint0_linear_132_68485)"/>
<path d="M21.51 7.88H24.37C24.48 7.47 24.58 7.06 24.68 6.64H22.19V5.97H24.83C24.92 5.56 25 5.16 25.08 4.76L25.82 4.82C25.74 5.22 25.67 5.61 25.59 5.97H29.9V6.64H25.44C25.34 7.08 25.24 7.49 25.14 7.88H30.49V8.58H24.95C24.81 9.05 24.66 9.49 24.52 9.9H29.28V10.52C28.8 11.26 28.05 12.01 27.02 12.75C27.62 12.97 28.2 13.22 28.75 13.48L28.35 14.11C26.85 13.37 25.3 12.79 23.71 12.36L24.09 11.8C24.84 12 25.56 12.23 26.25 12.47C27.17 11.87 27.9 11.23 28.43 10.57H23.49C23.73 9.93 23.96 9.27 24.17 8.58H21.51V7.88ZM34.55 4.93H35.28V12.88H36.7V4.93H37.43V12.88H40.43V13.58H31.57V12.88H34.55V4.93ZM39.52 6.75L40.16 6.93C39.76 8.67 39.26 10.19 38.65 11.5L38 11.27C38.58 10.09 39.09 8.58 39.52 6.75ZM32.43 6.73C32.95 8.08 33.42 9.63 33.83 11.38L33.17 11.55C32.81 9.95 32.36 8.41 31.82 6.93L32.43 6.73ZM42.58 9.93H49.43V10.61H46.36V12.98H50.27V13.67H41.74V12.98H45.63V10.61H42.58V9.93ZM46.93 7.12C47.98 7.6 48.94 8.19 49.8 8.88L49.39 9.49C48.47 8.73 47.52 8.13 46.55 7.69L46.93 7.12ZM44.84 7.19L45.29 7.71C44.51 8.41 43.54 9 42.38 9.47L42.07 8.81C43.19 8.4 44.11 7.86 44.84 7.19ZM46.04 4.77C46.17 5.08 46.3 5.43 46.42 5.82H50.25V7.83H49.52V6.49H42.49V7.82H41.76V5.82H45.68C45.55 5.48 45.41 5.17 45.26 4.89L46.04 4.77ZM54.06 7.54H57.86V12.2H54.06V7.54ZM57.19 11.56V10.19H54.74V11.56H57.19ZM54.74 9.55H57.19V8.18H54.74V9.55ZM58.98 13.92H58.14L57.96 13.25L58.83 13.27C59.13 13.27 59.29 13.06 59.29 12.66V6H55.41V5.33H59.99V12.86C59.99 13.56 59.65 13.92 58.98 13.92ZM51.99 6.49H52.69V14.01H51.99V6.49ZM53.44 4.74C53.9 5.29 54.31 5.89 54.66 6.55L54.02 6.89C53.64 6.19 53.23 5.57 52.78 5.03L53.44 4.74Z" fill="white"/>
<path d="M12.7986 14.6002L8.32935 12.0198V6.85925L12.7986 9.43968V14.6002Z" fill="white"/>
<path opacity="0.5" d="M13.2991 14.6002L17.7683 12.0198V6.85925L13.2991 9.43968V14.6002Z" fill="white"/>
<path d="M13.0285 9.02751L8.55908 6.44663L13.0285 3.86694L17.4976 6.44737L13.0285 9.02751Z" fill="white"/>
<defs>
<linearGradient id="paint0_linear_132_68485" x1="67.5625" y1="9" x2="-6.0451e-07" y2="9" gradientUnits="userSpaceOnUse">
<stop stop-color="#7279FF"/>
<stop offset="1" stop-color="#9F71E8"/>
</linearGradient>
</defs>
</svg>
