<svg width="104" height="18" viewBox="0 0 104 18" fill="none" xmlns="http://www.w3.org/2000/svg">
<rect width="104" height="18" rx="9" fill="#EFF2FA"/>
<path d="M21.72 5.86H26.5V6.57H22.54V8.97H26.29V9.68H22.54V13H21.72V5.86ZM29.6615 7.69C29.9415 7.69 30.1815 7.73 30.3715 7.81V8.61C30.1115 8.53 29.8515 8.5 29.6015 8.5C29.2015 8.5 28.8615 8.67 28.5915 9.03C28.3115 9.37 28.1815 9.78 28.1815 10.26V13H27.3915V7.83H28.1815V8.73C28.3215 8.43 28.5015 8.19 28.7215 8.02C28.9915 7.8 29.3015 7.69 29.6615 7.69ZM33.1738 7.69C34.0038 7.69 34.6338 7.97 35.0538 8.53C35.4338 9.03 35.6338 9.74 35.6538 10.64H31.5738C31.6138 11.22 31.7638 11.67 32.0438 11.99C32.3238 12.31 32.7138 12.47 33.2038 12.47C33.6238 12.47 33.9738 12.36 34.2338 12.15C34.4538 11.97 34.6238 11.7 34.7538 11.34H35.5538C35.4338 11.84 35.2038 12.24 34.8538 12.56C34.4238 12.94 33.8738 13.14 33.2038 13.14C32.4638 13.14 31.8638 12.89 31.4238 12.41C30.9638 11.91 30.7438 11.25 30.7438 10.41C30.7438 9.65 30.9538 9.01 31.3938 8.5C31.8338 7.96 32.4238 7.69 33.1738 7.69ZM33.1938 8.36C32.7338 8.36 32.3638 8.51 32.0838 8.81C31.8038 9.11 31.6438 9.51 31.5938 10.02H34.8238C34.7238 8.91 34.1738 8.36 33.1938 8.36ZM38.7207 7.69C39.5507 7.69 40.1807 7.97 40.6007 8.53C40.9807 9.03 41.1807 9.74 41.2007 10.64H37.1207C37.1607 11.22 37.3107 11.67 37.5907 11.99C37.8707 12.31 38.2607 12.47 38.7507 12.47C39.1707 12.47 39.5207 12.36 39.7807 12.15C40.0007 11.97 40.1707 11.7 40.3007 11.34H41.1007C40.9807 11.84 40.7507 12.24 40.4007 12.56C39.9707 12.94 39.4207 13.14 38.7507 13.14C38.0107 13.14 37.4107 12.89 36.9707 12.41C36.5107 11.91 36.2907 11.25 36.2907 10.41C36.2907 9.65 36.5007 9.01 36.9407 8.5C37.3807 7.96 37.9707 7.69 38.7207 7.69ZM38.7407 8.36C38.2807 8.36 37.9107 8.51 37.6307 8.81C37.3507 9.11 37.1907 9.51 37.1407 10.02H40.3707C40.2707 8.91 39.7207 8.36 38.7407 8.36ZM45.0177 5.86H50.8677V6.57H48.3477V13H47.5377V6.57H45.0177V5.86ZM53.7891 7.69C54.6191 7.69 55.2491 7.97 55.6691 8.53C56.0491 9.03 56.2491 9.74 56.2691 10.64H52.1891C52.2291 11.22 52.3791 11.67 52.6591 11.99C52.9391 12.31 53.3291 12.47 53.8191 12.47C54.2391 12.47 54.5891 12.36 54.8491 12.15C55.0691 11.97 55.2391 11.7 55.3691 11.34H56.1691C56.0491 11.84 55.8191 12.24 55.4691 12.56C55.0391 12.94 54.4891 13.14 53.8191 13.14C53.0791 13.14 52.4791 12.89 52.0391 12.41C51.5791 11.91 51.3591 11.25 51.3591 10.41C51.3591 9.65 51.5691 9.01 52.0091 8.5C52.4491 7.96 53.0391 7.69 53.7891 7.69ZM53.8091 8.36C53.3491 8.36 52.9791 8.51 52.6991 8.81C52.4191 9.11 52.2591 9.51 52.2091 10.02H55.4391C55.3391 8.91 54.7891 8.36 53.8091 8.36ZM59.4559 7.69C60.1959 7.69 60.7359 7.88 61.0959 8.27C61.3959 8.61 61.5559 9.08 61.5559 9.68V13H60.8059V12.13C60.6059 12.41 60.3359 12.64 60.0159 12.82C59.6359 13.03 59.2059 13.14 58.7259 13.14C58.2059 13.14 57.7959 13.01 57.4859 12.75C57.1659 12.48 57.0059 12.13 57.0059 11.71C57.0059 11.12 57.2359 10.68 57.7159 10.38C58.1359 10.1 58.7359 9.95 59.5159 9.94L60.7559 9.92V9.65C60.7559 8.78 60.3059 8.35 59.4059 8.35C59.0259 8.35 58.7159 8.42 58.4759 8.58C58.2059 8.74 58.0359 8.99 57.9559 9.32L57.1659 9.26C57.2759 8.72 57.5459 8.31 57.9659 8.05C58.3459 7.81 58.8359 7.69 59.4559 7.69ZM60.7559 10.52L59.5659 10.54C58.4059 10.56 57.8259 10.94 57.8259 11.69C57.8259 11.93 57.9159 12.12 58.1159 12.28C58.3159 12.43 58.5759 12.51 58.8959 12.51C59.3859 12.51 59.8159 12.35 60.1959 12.03C60.5659 11.72 60.7559 11.36 60.7559 10.96V10.52ZM65.0519 7.69C65.8419 7.69 66.3819 8.01 66.6719 8.67C66.8719 8.33 67.1119 8.08 67.3919 7.93C67.6419 7.77 67.9419 7.69 68.3019 7.69C68.8419 7.69 69.2719 7.86 69.6119 8.2C69.9319 8.55 70.1019 9.02 70.1019 9.61V13H69.3019V9.74C69.3019 9.28 69.2019 8.94 69.0119 8.72C68.8119 8.48 68.4919 8.37 68.0519 8.37C67.7119 8.37 67.4219 8.49 67.2019 8.75C66.9619 9.01 66.8519 9.34 66.8519 9.76V13H66.0519V9.74C66.0519 8.82 65.6519 8.37 64.8619 8.37C64.4919 8.37 64.1919 8.51 63.9519 8.81C63.7119 9.09 63.5919 9.44 63.5919 9.85V13H62.7919V7.83H63.5919V8.52C63.9819 7.96 64.4719 7.69 65.0519 7.69ZM73.1766 7.69C74.4566 7.69 75.1566 8.22 75.2966 9.3H74.5166C74.4466 8.98 74.3166 8.74 74.1166 8.6C73.8966 8.44 73.5766 8.36 73.1666 8.36C72.8066 8.36 72.5266 8.42 72.3266 8.56C72.1066 8.69 71.9966 8.87 71.9966 9.1C71.9966 9.32 72.1366 9.51 72.4366 9.66C72.6266 9.75 72.9866 9.86 73.5066 10C74.1266 10.15 74.5666 10.31 74.8366 10.48C75.2466 10.74 75.4566 11.09 75.4566 11.54C75.4566 12.6 74.7266 13.14 73.2666 13.14C71.9066 13.14 71.1666 12.54 71.0466 11.35H71.8266C71.8866 11.76 72.0366 12.05 72.2566 12.23C72.4766 12.39 72.8066 12.47 73.2466 12.47C74.1666 12.47 74.6366 12.17 74.6366 11.59C74.6366 11.3 74.4666 11.08 74.1466 10.92C73.9766 10.84 73.6066 10.73 73.0466 10.59C72.4366 10.44 72.0066 10.29 71.7666 10.13C71.3666 9.89 71.1766 9.56 71.1766 9.12C71.1766 8.68 71.3666 8.34 71.7566 8.08C72.1166 7.82 72.5966 7.69 73.1766 7.69ZM78.8654 7.69C79.6054 7.69 80.1954 7.96 80.6254 8.52C81.0154 9.02 81.2154 9.65 81.2154 10.43C81.2154 11.19 81.0154 11.82 80.6354 12.32C80.2154 12.86 79.6454 13.14 78.9054 13.14C78.1654 13.14 77.5954 12.78 77.1954 12.06V14.98H76.3954V7.83H77.1454V8.68C77.5154 8.02 78.0854 7.69 78.8654 7.69ZM78.7654 8.35C78.2454 8.35 77.8354 8.55 77.5554 8.96C77.2954 9.32 77.1654 9.8 77.1654 10.38V10.48C77.1654 11.08 77.3054 11.56 77.6054 11.93C77.8854 12.29 78.2554 12.48 78.7354 12.48C79.2954 12.48 79.7154 12.28 80.0054 11.9C80.2654 11.54 80.3954 11.05 80.3954 10.43C80.3954 9.82 80.2654 9.33 80.0254 8.97C79.7354 8.55 79.3154 8.35 78.7654 8.35ZM84.5048 7.69C85.2448 7.69 85.7848 7.88 86.1448 8.27C86.4448 8.61 86.6048 9.08 86.6048 9.68V13H85.8548V12.13C85.6548 12.41 85.3848 12.64 85.0648 12.82C84.6848 13.03 84.2548 13.14 83.7748 13.14C83.2548 13.14 82.8448 13.01 82.5348 12.75C82.2148 12.48 82.0548 12.13 82.0548 11.71C82.0548 11.12 82.2848 10.68 82.7648 10.38C83.1848 10.1 83.7848 9.95 84.5648 9.94L85.8048 9.92V9.65C85.8048 8.78 85.3548 8.35 84.4548 8.35C84.0748 8.35 83.7648 8.42 83.5248 8.58C83.2548 8.74 83.0848 8.99 83.0048 9.32L82.2148 9.26C82.3248 8.72 82.5948 8.31 83.0148 8.05C83.3948 7.81 83.8848 7.69 84.5048 7.69ZM85.8048 10.52L84.6148 10.54C83.4548 10.56 82.8748 10.94 82.8748 11.69C82.8748 11.93 82.9648 12.12 83.1648 12.28C83.3648 12.43 83.6248 12.51 83.9448 12.51C84.4348 12.51 84.8648 12.35 85.2448 12.03C85.6148 11.72 85.8048 11.36 85.8048 10.96V10.52ZM90.0707 7.69C90.7107 7.69 91.2207 7.84 91.6107 8.14C92.0107 8.45 92.2507 8.92 92.3407 9.55H91.5507C91.4807 9.15 91.3207 8.85 91.0707 8.65C90.8107 8.45 90.4807 8.36 90.0707 8.36C89.5707 8.36 89.1707 8.55 88.8807 8.93C88.6007 9.3 88.4607 9.8 88.4607 10.43C88.4607 11.06 88.5907 11.56 88.8707 11.92C89.1407 12.28 89.5407 12.47 90.0607 12.47C90.9407 12.47 91.4507 12.02 91.5707 11.13H92.3707C92.2507 11.79 92.0007 12.3 91.6007 12.64C91.2107 12.97 90.7007 13.14 90.0607 13.14C89.2807 13.14 88.6807 12.88 88.2507 12.36C87.8407 11.87 87.6407 11.23 87.6407 10.44C87.6407 9.65 87.8407 9.01 88.2507 8.51C88.6907 7.96 89.3007 7.69 90.0707 7.69ZM95.4395 7.69C96.2695 7.69 96.8995 7.97 97.3195 8.53C97.6995 9.03 97.8995 9.74 97.9195 10.64H93.8395C93.8795 11.22 94.0295 11.67 94.3095 11.99C94.5895 12.31 94.9795 12.47 95.4695 12.47C95.8895 12.47 96.2395 12.36 96.4995 12.15C96.7195 11.97 96.8895 11.7 97.0195 11.34H97.8195C97.6995 11.84 97.4695 12.24 97.1195 12.56C96.6895 12.94 96.1395 13.14 95.4695 13.14C94.7295 13.14 94.1295 12.89 93.6895 12.41C93.2295 11.91 93.0095 11.25 93.0095 10.41C93.0095 9.65 93.2195 9.01 93.6595 8.5C94.0995 7.96 94.6895 7.69 95.4395 7.69ZM95.4595 8.36C94.9995 8.36 94.6295 8.51 94.3495 8.81C94.0695 9.11 93.9095 9.51 93.8595 10.02H97.0895C96.9895 8.91 96.4395 8.36 95.4595 8.36Z" fill="#535179"/>
<path d="M12.7993 14.6004L8.33008 12.0199V6.85938L12.7993 9.43981V14.6004Z" fill="#AFBDDB"/>
<path opacity="0.5" d="M13.3003 14.6004L17.7695 12.0199V6.85938L13.3003 9.43981V14.6004Z" fill="#AFBDDB"/>
<path d="M13.03 9.02775L8.56055 6.44687L13.03 3.86719L17.4991 6.44762L13.03 9.02775Z" fill="#AFBDDB"/>
</svg>
