<svg width="22" height="22" viewBox="0 0 22 22" fill="none" xmlns="http://www.w3.org/2000/svg">
<rect x="3" y="3" width="6.81818" height="15" rx="1.36364" fill="currentColor"/>
<path d="M11.1816 4.36364C11.1816 3.61052 11.7922 3 12.5453 3H17.9998C18.7529 3 19.3635 3.61052 19.3635 4.36364V8.45454C19.3635 9.20766 18.7529 9.81818 17.9998 9.81818H12.5453C11.7922 9.81818 11.1816 9.20766 11.1816 8.45455V4.36364Z" fill="currentColor"/>
<path d="M11.1816 12.5453C11.1816 11.7922 11.7922 11.1816 12.5453 11.1816H17.9998C18.7529 11.1816 19.3635 11.7922 19.3635 12.5453V16.6362C19.3635 17.3893 18.7529 17.9998 17.9998 17.9998H12.5453C11.7922 17.9998 11.1816 17.3893 11.1816 16.6362V12.5453Z" fill="currentColor"/>
</svg>
