<svg width="24" height="24" viewBox="0 0 24 24" fill="none" xmlns="http://www.w3.org/2000/svg">
<circle cx="10.619" cy="13.7011" r="3.08209" fill="currentColor"/>
<path d="M17.8071 11.0115L17.0914 11.2443L14.3591 10.8053L12.5943 12.5701C12.6925 12.8875 12.6852 13.2282 12.5734 13.541C12.4615 13.8539 12.2513 14.122 11.9742 14.3052C11.697 14.4884 11.3679 14.5768 11.0363 14.5572C10.7047 14.5375 10.3883 14.4108 10.1348 14.1961C9.88128 13.9814 9.70421 13.6903 9.63017 13.3664C9.55614 13.0425 9.58912 12.7034 9.72419 12.3998C9.85925 12.0963 10.0891 11.8448 10.3793 11.6829C10.6694 11.5211 11.0042 11.4578 11.3334 11.5024L13.1946 9.64099L12.7556 6.90871L12.9883 6.19297L16.7813 2.40002L18.1678 2.82095L18.6421 5.35788L21.179 5.83213L21.6 7.21857L17.8071 11.0115ZM16.8367 4.65892L14.4451 7.05052L14.6306 8.20484L17.0476 5.78782L16.8367 4.65892ZM18.2122 6.95206L15.7952 9.36908L16.9495 9.5546L19.3411 7.16301L18.2122 6.95206Z" fill="currentColor"/>
<path fill-rule="evenodd" clip-rule="evenodd" d="M18.0514 17.2092C18.8017 15.6195 19.0226 13.8311 18.6816 12.1067L15.6592 12.7044C15.7226 13.0268 15.7558 13.36 15.7558 13.701C15.7558 16.538 13.456 18.8378 10.619 18.8378C7.78198 18.8378 5.48215 16.538 5.48215 13.701C5.48215 10.864 7.78198 8.56418 10.619 8.56418C10.9366 8.56418 11.2476 8.59302 11.5493 8.64822L12.1073 5.61808C10.3785 5.29972 8.59324 5.54403 7.01354 6.31512C5.43384 7.08621 4.14298 8.34347 3.3305 9.90229C2.51802 11.4611 2.22672 13.2394 2.49939 14.9759C2.77205 16.7125 3.5943 18.3159 4.84541 19.5507C6.09653 20.7855 7.71058 21.5867 9.45058 21.8365C11.1906 22.0864 12.9649 21.7718 14.5129 20.939C16.0609 20.1061 17.3011 18.7989 18.0514 17.2092Z" fill="currentColor"/>
</svg>
