<svg width="15" height="16" viewBox="0 0 15 16" fill="none" xmlns="http://www.w3.org/2000/svg">
<path fill-rule="evenodd" clip-rule="evenodd" d="M1.5 7.45359C1.5 4.44167 3.94167 2 6.95359 2C9.96552 2 12.4072 4.44167 12.4072 7.45359C12.4072 10.4655 9.96552 12.9072 6.95359 12.9072C3.94167 12.9072 1.5 10.4655 1.5 7.45359ZM11.5228 7.45359C11.5228 4.93009 9.4771 2.88437 6.95359 2.88437C4.43009 2.88437 2.38437 4.93009 2.38437 7.45359C2.38437 9.9771 4.43009 12.0228 6.95359 12.0228C9.4771 12.0228 11.5228 9.9771 11.5228 7.45359Z" fill="currentColor"/>
<path d="M10.2438 10.7438C10.3973 10.5903 10.6355 10.5732 10.8079 10.6926L10.8691 10.7438L13.3705 13.2451C13.5432 13.4178 13.5432 13.6978 13.3705 13.8705C13.217 14.024 12.9787 14.041 12.8064 13.9216L12.7451 13.8705L10.2438 11.3691C10.0711 11.1964 10.0711 10.9165 10.2438 10.7438Z" fill="currentColor"/>
</svg>
