<svg width="18" height="18" viewBox="0 0 18 18" fill="none" xmlns="http://www.w3.org/2000/svg">
<path d="M14.3498 4.74328L13.5567 5.36344C12.4753 3.98109 10.7934 3.09375 8.90485 3.09375C5.64376 3.09375 3.00422 5.73047 3.00001 8.99297C2.99579 12.2583 5.64094 14.9062 8.90485 14.9062C11.4544 14.9062 13.627 13.2891 14.4539 11.0236C14.475 10.9645 14.4441 10.8984 14.385 10.8787L13.5877 10.6045C13.53 10.5848 13.4667 10.6144 13.4456 10.672C13.4203 10.7423 13.3922 10.8127 13.3627 10.8816C13.1194 11.4581 12.7706 11.9756 12.3263 12.42C11.8819 12.8644 11.3644 13.2131 10.7892 13.4578C10.1944 13.7095 9.56016 13.8375 8.90766 13.8375C8.25376 13.8375 7.62094 13.7095 7.0261 13.4578C6.45094 13.2145 5.93344 12.8658 5.48907 12.42C5.04469 11.9756 4.69594 11.4581 4.45266 10.8816C4.20094 10.2853 4.07297 9.6525 4.07297 8.99859C4.07297 8.34469 4.20094 7.71187 4.45266 7.11562C4.69594 6.53906 5.04469 6.02156 5.48907 5.57719C5.93344 5.13281 6.45094 4.78406 7.0261 4.53937C7.62094 4.28766 8.25516 4.15969 8.90766 4.15969C9.56157 4.15969 10.1944 4.28766 10.7892 4.53937C11.3644 4.78266 11.8819 5.13141 12.3263 5.57719C12.4655 5.71641 12.5963 5.86406 12.7172 6.01875L11.8706 6.67969C11.7961 6.73734 11.8214 6.85547 11.9128 6.87797L14.3822 7.48266C14.4525 7.49953 14.5214 7.44609 14.5214 7.37437L14.5327 4.83047C14.5313 4.73766 14.423 4.68562 14.3498 4.74328Z" fill="currentColor"/>
</svg>
