<svg width="18" height="18" viewBox="0 0 18 18" fill="none" xmlns="http://www.w3.org/2000/svg">
<rect x="3.5" y="6.5" width="9.8" height="8" rx="1.5" stroke="#8F8F8F"/>
<rect x="3.25" y="10.45" width="10.3" height="0.5" fill="currentColor" stroke="#8F8F8F" stroke-width="0.5"/>
<path d="M16.2 7.19998C16.0909 5.99998 15.2182 3.59998 12.6 3.59998" stroke="#8F8F8F"/>
<mask id="path-4-inside-1_557_132750" fill="currentColor">
<path d="M11.4 3.34204L12.9421 1.8L12.9421 3.34204L12.9421 4.88408L11.4 3.34204Z"/>
</mask>
<path d="M11.4 3.34204L12.9421 1.8L12.9421 3.34204L12.9421 4.88408L11.4 3.34204Z" fill="currentColor"/>
<path d="M11.4 3.34204L10.2687 2.21067L9.13728 3.34204L10.2687 4.47341L11.4 3.34204ZM12.9421 1.8L14.5421 1.8L14.5421 -2.06274L11.8107 0.668629L12.9421 1.8ZM12.9421 3.34204L11.3421 3.34204L11.3421 3.34204L12.9421 3.34204ZM12.9421 4.88408L11.8107 6.01545L14.5421 8.74682L14.5421 4.88408L12.9421 4.88408ZM12.5314 4.47341L14.0734 2.93137L11.8107 0.668629L10.2687 2.21067L12.5314 4.47341ZM11.3421 1.8L11.3421 3.34204L14.5421 3.34204L14.5421 1.8L11.3421 1.8ZM11.3421 3.34204L11.3421 4.88408L14.5421 4.88408L14.5421 3.34204L11.3421 3.34204ZM14.0734 3.75271L12.5314 2.21067L10.2687 4.47341L11.8107 6.01545L14.0734 3.75271Z" fill="currentColor" mask="url(#path-4-inside-1_557_132750)"/>
</svg>
