<svg width="26" height="28" viewBox="0 0 26 28" fill="none" xmlns="http://www.w3.org/2000/svg">
<g filter="url(#filter0_d_2123_417477)">
<path d="M20 2C21.1046 2 22 2.89543 22 4L22 16.5109C22 17.2868 21.5512 17.9927 20.8487 18.322L13 22L5.15132 18.322C4.44875 17.9927 4 17.2868 4 16.5109L4 4C4 2.89543 4.89543 2 6 2L20 2Z" fill="white"/>
<path d="M20 2.25C20.9665 2.25 21.75 3.0335 21.75 4L21.75 16.5109C21.75 17.1898 21.3573 17.8075 20.7426 18.0956L13 21.7239L5.25741 18.0956C4.64266 17.8075 4.25 17.1898 4.25 16.5109L4.25 4C4.25 3.0335 5.0335 2.25 6 2.25L20 2.25Z" stroke="#EDEDED" stroke-width="0.5"/>
</g>
<defs>
<filter id="filter0_d_2123_417477" x="0" y="0" width="26" height="28" filterUnits="userSpaceOnUse" color-interpolation-filters="sRGB">
<feFlood flood-opacity="0" result="BackgroundImageFix"/>
<feColorMatrix in="SourceAlpha" type="matrix" values="0 0 0 0 0 0 0 0 0 0 0 0 0 0 0 0 0 0 127 0" result="hardAlpha"/>
<feOffset dy="2"/>
<feGaussianBlur stdDeviation="2"/>
<feColorMatrix type="matrix" values="0 0 0 0 0.823663 0 0 0 0 0.835456 0 0 0 0 0.870833 0 0 0 0.6 0"/>
<feBlend mode="normal" in2="BackgroundImageFix" result="effect1_dropShadow_2123_417477"/>
<feBlend mode="normal" in="SourceGraphic" in2="effect1_dropShadow_2123_417477" result="shape"/>
</filter>
</defs>
</svg>
