<svg width="13" height="11" viewBox="0 0 13 11" fill="none" xmlns="http://www.w3.org/2000/svg">
<path d="M6.4577 7.91541C7.26277 7.91541 7.91541 7.26277 7.91541 6.4577C7.91541 5.65264 7.26277 5 6.4577 5C5.65264 5 5 5.65264 5 6.4577C5 7.26277 5.65264 7.91541 6.4577 7.91541Z" fill="currentColor"/>
<path fill-rule="evenodd" clip-rule="evenodd" d="M9.5 2H11C12.1046 2 13 2.89543 13 4V9C13 10.1046 12.1046 11 11 11H2C0.89543 11 0 10.1046 0 9V4C0 2.89543 0.895431 2 2 2H3.5L3.81063 0.757464C3.92193 0.312297 4.32191 0 4.78078 0H8.21922C8.67809 0 9.07807 0.312297 9.18937 0.757464L9.5 2ZM6.4577 8.91541C7.81505 8.91541 8.91541 7.81505 8.91541 6.4577C8.91541 5.10035 7.81505 4 6.4577 4C5.10035 4 4 5.10035 4 6.4577C4 7.81505 5.10035 8.91541 6.4577 8.91541ZM5 1C4.72386 1 4.5 1.22386 4.5 1.5C4.5 1.77614 4.72386 2 5 2H8C8.27614 2 8.5 1.77614 8.5 1.5C8.5 1.22386 8.27614 1 8 1H5Z" fill="currentColor"/>
</svg>
