<svg width="20" height="20" viewBox="0 0 20 20" fill="none" xmlns="http://www.w3.org/2000/svg">
<path opacity="0.2" d="M6.02273 7.75V6.4375C6.02273 4.26269 7.80303 2.5 10 2.5C12.197 2.5 13.9773 4.26175 13.9773 6.4375V7.75H14.1669C15.3169 7.75 16.25 8.67456 16.25 9.8125V15.4375C16.25 16.5769 15.3184 17.5 14.1669 17.5H5.83333C4.68314 17.5 3.75 16.5754 3.75 15.4375V9.8125C3.75 8.67306 4.68163 7.75 5.83314 7.75H6.02273ZM7.15909 7.75H12.8409V6.4375C12.8409 4.88313 11.5695 3.625 10 3.625C8.43068 3.625 7.15909 4.88406 7.15909 6.4375V7.75ZM4.88636 9.8125V15.4375C4.88636 15.9543 5.31098 16.375 5.83314 16.375H14.1667C14.2911 16.3751 14.4143 16.351 14.5292 16.3039C14.6442 16.2569 14.7486 16.1878 14.8366 16.1007C14.9246 16.0137 14.9943 15.9103 15.0419 15.7964C15.0894 15.6826 15.1138 15.5607 15.1136 15.4375V9.8125C15.1136 9.29575 14.689 8.875 14.1669 8.875H5.83333C5.70893 8.87485 5.58573 8.899 5.47077 8.94606C5.35581 8.99312 5.25136 9.06217 5.16339 9.14926C5.07543 9.23634 5.00568 9.33975 4.95814 9.45356C4.91061 9.56737 4.88621 9.68934 4.88636 9.8125Z" fill="black"/>
</svg>
