<svg width="12" height="12" viewBox="0 0 12 12" fill="none" xmlns="http://www.w3.org/2000/svg">
<g clip-path="url(#clip0_646_157383)">
<path d="M6.00881 11.1136C3.58875 11.1136 1.875 9.41745 1.875 7.08214C1.875 5.84145 2.61 4.50496 2.64225 4.4502C2.67368 4.39425 2.72097 4.34884 2.77816 4.31971C2.83535 4.29059 2.89988 4.27903 2.96362 4.28652C3.09394 4.30377 3.198 4.39883 3.234 4.52483C3.23644 4.53177 3.43519 5.28308 3.696 5.69896C3.87094 5.97964 4.05 6.17652 4.251 6.3147C4.11488 5.72033 4.01156 4.82502 4.1805 3.90833C4.64175 1.39077 6.60337 0.786642 6.68719 0.76208C6.74031 0.747106 6.7964 0.746035 6.85006 0.758968C6.90372 0.771902 6.95315 0.798407 6.99362 0.835941C7.03409 0.873475 7.06424 0.920778 7.08117 0.973313C7.0981 1.02585 7.10125 1.08185 7.09031 1.13595C7.08844 1.1532 6.76312 2.91758 7.44975 4.42095C7.51237 4.55783 7.59881 4.71533 7.69237 4.87545C7.71852 4.64712 7.76304 4.42126 7.8255 4.20008C8.07862 3.30889 8.73 3.00402 8.75812 2.99239C8.81145 2.9685 8.8703 2.95964 8.9283 2.96678C8.9863 2.97391 9.04124 2.99678 9.08719 3.03289C9.13367 3.06955 9.16923 3.11823 9.19001 3.17366C9.2108 3.22909 9.21603 3.28915 9.20512 3.34733C9.20156 3.36983 9.11006 3.97695 9.62231 4.83702C10.0847 5.61345 10.2165 6.11708 10.2165 7.08421C10.2142 9.41858 8.44725 11.1136 6.00881 11.1136ZM2.90494 5.56208C2.71886 6.03686 2.62235 6.54201 2.62031 7.05196C2.62031 8.95358 4.02206 10.3332 6.01012 10.3332C8.01375 10.3332 9.46762 8.95358 9.46762 7.05139C9.46762 6.22921 9.36694 5.8497 8.97881 5.19552C8.71969 4.75939 8.59012 4.36733 8.53144 4.0542C8.46079 4.17037 8.4067 4.29583 8.37075 4.42695C8.18137 5.09633 8.23012 5.88195 8.23012 5.89077C8.23426 5.95882 8.21631 6.02639 8.17894 6.08342C8.14158 6.14045 8.08679 6.18389 8.02275 6.20727C7.89169 6.2547 7.74525 6.20764 7.66612 6.09289C7.64156 6.06008 7.08919 5.26789 6.84562 4.73258C6.3405 3.6267 6.34725 2.42933 6.39825 1.74008C5.88619 2.04158 5.09812 2.71639 4.84387 4.08795C4.59769 5.42445 5.076 6.82133 5.08087 6.83427C5.10129 6.88793 5.10681 6.94612 5.09684 7.00267C5.08687 7.05921 5.06179 7.11201 5.02425 7.15545C4.98731 7.19868 4.93907 7.23078 4.88493 7.24816C4.83079 7.26554 4.77289 7.26753 4.71769 7.25389C4.67962 7.24452 3.74006 7.01427 3.17381 6.11014C3.0697 5.93493 2.97979 5.75165 2.90494 5.56208Z" fill="white"/>
<path d="M8 7.5C8 8 7.7 9 6.5 9" stroke="white" stroke-width="0.8" stroke-linecap="round"/>
</g>
<defs>
<clipPath id="clip0_646_157383">
<rect width="12" height="12" fill="white"/>
</clipPath>
</defs>
</svg>
