<svg width="10" height="12" viewBox="0 0 10 12" fill="none" xmlns="http://www.w3.org/2000/svg">
<path d="M5.00881 11.1136C2.58875 11.1136 0.875 9.41745 0.875 7.08214C0.875 5.84145 1.61 4.50496 1.64225 4.4502C1.67368 4.39425 1.72097 4.34884 1.77816 4.31971C1.83535 4.29059 1.89988 4.27903 1.96362 4.28652C2.09394 4.30377 2.198 4.39883 2.234 4.52483C2.23644 4.53177 2.43519 5.28308 2.696 5.69896C2.87094 5.97964 3.05 6.17652 3.251 6.3147C3.11488 5.72033 3.01156 4.82502 3.1805 3.90833C3.64175 1.39077 5.60337 0.786642 5.68719 0.76208C5.74031 0.747106 5.7964 0.746035 5.85006 0.758968C5.90372 0.771902 5.95315 0.798407 5.99362 0.835941C6.03409 0.873475 6.06424 0.920778 6.08117 0.973313C6.0981 1.02585 6.10125 1.08185 6.09031 1.13595C6.08844 1.1532 5.76312 2.91758 6.44975 4.42095C6.51237 4.55783 6.59881 4.71533 6.69237 4.87545C6.71852 4.64712 6.76304 4.42126 6.8255 4.20008C7.07862 3.30889 7.73 3.00402 7.75812 2.99239C7.81145 2.9685 7.8703 2.95964 7.9283 2.96678C7.9863 2.97391 8.04124 2.99678 8.08719 3.03289C8.13367 3.06955 8.16923 3.11823 8.19001 3.17366C8.2108 3.22909 8.21603 3.28915 8.20512 3.34733C8.20156 3.36983 8.11006 3.97695 8.62231 4.83702C9.08469 5.61345 9.2165 6.11708 9.2165 7.08421C9.21425 9.41858 7.44725 11.1136 5.00881 11.1136ZM1.90494 5.56208C1.71886 6.03686 1.62235 6.54201 1.62031 7.05196C1.62031 8.95358 3.02206 10.3332 5.01012 10.3332C7.01375 10.3332 8.46762 8.95358 8.46762 7.05139C8.46762 6.22921 8.36694 5.8497 7.97881 5.19552C7.71969 4.75939 7.59012 4.36733 7.53144 4.0542C7.46079 4.17037 7.4067 4.29583 7.37075 4.42695C7.18137 5.09633 7.23012 5.88195 7.23012 5.89077C7.23426 5.95882 7.21631 6.02639 7.17894 6.08342C7.14158 6.14045 7.08679 6.18389 7.02275 6.20727C6.89169 6.2547 6.74525 6.20764 6.66612 6.09289C6.64156 6.06008 6.08919 5.26789 5.84562 4.73258C5.3405 3.6267 5.34725 2.42933 5.39825 1.74008C4.88619 2.04158 4.09812 2.71639 3.84387 4.08795C3.59769 5.42445 4.076 6.82133 4.08087 6.83427C4.10129 6.88793 4.10681 6.94612 4.09684 7.00267C4.08687 7.05921 4.06179 7.11201 4.02425 7.15545C3.98731 7.19868 3.93907 7.23078 3.88493 7.24816C3.83079 7.26554 3.77289 7.26753 3.71769 7.25389C3.67962 7.24452 2.74006 7.01427 2.17381 6.11014C2.0697 5.93493 1.97979 5.75165 1.90494 5.56208Z" fill="white"/>
</svg>
