<svg width="10" height="10" viewBox="0 0 10 10" fill="none" xmlns="http://www.w3.org/2000/svg">
<path id="+" d="M4.33663 0.673267C4.33663 0.301432 4.63807 0 5.0099 0C5.38174 0 5.68317 0.301432 5.68317 0.673267V4.31683H9.32673C9.69857 4.31683 10 4.61826 10 4.9901C10 5.36193 9.69857 5.66337 9.32673 5.66337H5.68317V9.32673C5.68317 9.69857 5.38174 10 5.0099 10C4.63807 10 4.33663 9.69857 4.33663 9.32673V5.66337H0.673267C0.301432 5.66337 0 5.36193 0 4.9901C0 4.61826 0.301432 4.31683 0.673267 4.31683H4.33663V0.673267Z" fill="currentColor"/>
</svg>
