<svg width="16" height="16" viewBox="0 0 16 16" fill="none" xmlns="http://www.w3.org/2000/svg">
<rect x="0.5" y="0.5" width="15" height="15" rx="7.5" stroke="#B4B4B4" stroke-dasharray="2 2"/>
<path fill-rule="evenodd" clip-rule="evenodd" d="M7.99045 8.22264C9.39337 8.22264 10.5352 7.08112 10.5352 5.67782C10.5352 4.27453 9.39337 3.13306 7.99045 3.13306C6.58715 3.13306 5.44563 4.27457 5.44563 5.67787C5.44563 6.52356 5.86033 7.27405 6.49697 7.73704C4.82477 8.29733 3.62793 9.77029 3.62793 11.4946C3.62793 11.6956 3.79078 11.8581 3.99146 11.8581H8.71751C8.91857 11.8581 9.08109 11.6956 9.08109 11.4946C9.08109 11.2936 8.91857 11.131 8.71751 11.131H4.37751C4.57895 9.49727 6.12221 8.22264 7.99045 8.22264ZM6.20569 5.66664C6.20569 4.67832 7.00686 3.87709 7.99523 3.87709C8.9836 3.87709 9.78477 4.67827 9.78477 5.66664C9.78477 6.655 8.9836 7.45618 7.99523 7.45618C7.00691 7.45618 6.20569 6.655 6.20569 5.66664ZM10.877 9.34589H11.6259C11.8269 9.34589 11.9894 9.50841 11.9894 9.70942C11.9894 9.91048 11.8269 10.0403 11.6259 10.0403H10.877V10.7675C10.877 10.9685 10.7363 11.131 10.5352 11.131C10.3342 11.131 10.1934 10.9685 10.1934 10.7675V10.0403H9.44462C9.24357 10.0403 9.08109 9.91048 9.08109 9.70942C9.08109 9.50841 9.24357 9.34589 9.44462 9.34589H10.1934V8.58622C10.1934 8.38516 10.3342 8.22264 10.5352 8.22264C10.7363 8.22264 10.877 8.38516 10.877 8.58622V9.34589Z" fill="#B4B4B4"/>
</svg>
