<svg width="32" height="33" viewBox="0 0 32 33" fill="none" xmlns="http://www.w3.org/2000/svg">
<path fill-rule="evenodd" clip-rule="evenodd" d="M12.4134 1C11.5782 1 10.9107 1.71786 10.9107 2.605C10.9107 3.49429 11.5798 4.21429 12.4134 4.21429H19.413C20.2059 4.21429 20.875 3.49429 20.875 2.605C20.875 1.71786 20.2075 1 19.3707 1H12.4134ZM5.10357 2.07143H8.92214C9.44875 2.07143 9.85161 2.54179 9.80071 3.07054L9.76911 3.27946C9.75839 3.36357 9.75304 3.44446 9.7525 3.52054C9.7525 4.46875 10.398 5.3125 11.013 5.3125H20.7775C21.3373 5.3125 21.977 4.45964 21.9764 3.52054C21.9764 3.44286 21.9711 3.3625 21.9604 3.27893L21.9293 3.07054C21.8784 2.54179 22.2812 2.07143 22.8079 2.07143H26.5879C29.3736 2.07143 31 3.89768 31 6.70268V27.492C31 30.5927 29.4379 32.083 26.3929 32.083H5.29804C2.39714 32.083 1 30.4673 1 27.4909V6.70268C1 3.71875 2.21125 2.07143 5.10357 2.07143ZM9.86135 17.1418L13.4667 20.0568C13.4667 20.0568 17.5323 14.6616 23.49 11.0818C23.7969 10.9028 24.1804 11.0307 24.3083 11.3375C24.4105 11.5676 24.3594 11.8233 24.1804 11.9768C22.9786 13.1018 18.2994 17.8578 15.1799 24.6594C15.0009 25.0173 14.5406 25.1196 14.2593 24.8383C12.9041 23.5343 9.58008 20.1335 8.19931 18.7016C7.89248 18.3692 7.94362 17.8067 8.32716 17.551L8.96641 17.1163C9.2221 16.9117 9.60565 16.9373 9.86135 17.1418Z" fill="url(#paint0_linear_134_14546)"/>
<defs>
<linearGradient id="paint0_linear_134_14546" x1="-11.7102" y1="16.6698" x2="15.9063" y2="44.4159" gradientUnits="userSpaceOnUse">
<stop stop-color="#37ED7E"/>
<stop offset="1" stop-color="#26C886"/>
</linearGradient>
</defs>
</svg>
