<svg width="16" height="16" viewBox="0 0 16 16" fill="none" xmlns="http://www.w3.org/2000/svg">
<path fill-rule="evenodd" clip-rule="evenodd" d="M8 15C11.866 15 15 11.866 15 8C15 4.13401 11.866 1 8 1C4.13401 1 1 4.13401 1 8C1 11.866 4.13401 15 8 15ZM8 16C12.4183 16 16 12.4183 16 8C16 3.58172 12.4183 0 8 0C3.58172 0 0 3.58172 0 8C0 12.4183 3.58172 16 8 16Z" fill="#1DD2C1"/>
<path fill-rule="evenodd" clip-rule="evenodd" d="M8.43338 4.43571C8.43338 4.19507 8.23831 4 7.99767 4C7.75704 4 7.56197 4.19507 7.56197 4.43571V7.63089H4.36735C4.12671 7.63089 3.93164 7.82597 3.93164 8.0666C3.93164 8.30724 4.12671 8.50231 4.36735 8.50231H7.56197V11.6975C7.56197 11.9381 7.75704 12.1332 7.99767 12.1332C8.23831 12.1332 8.43338 11.9381 8.43338 11.6975V8.50231H11.6291C11.8698 8.50231 12.0648 8.30724 12.0648 8.0666C12.0648 7.82597 11.8698 7.63089 11.6291 7.63089H8.43338V4.43571Z" fill="#1DD2C1"/>
</svg>
