<svg width="14" height="14" viewBox="0 0 14 14" fill="none" xmlns="http://www.w3.org/2000/svg">
<g opacity="0.45">
<path d="M7.00011 0C4.16805 -2.92971e-06 1.61503 1.70649 0.532136 4.32334C-0.550761 6.94019 0.0498579 9.95171 2.05378 11.9529C4.0577 13.9541 7.07004 14.5507 9.68542 13.4642C12.3008 12.3778 14.0038 9.82247 14 6.99041C13.9948 3.12818 10.8623 3.9954e-06 7.00011 0Z" fill="currentColor"/>
<path d="M9.99739 9.08615C10.1758 9.24498 10.2536 9.48842 10.2002 9.72127C10.1468 9.95411 9.97079 10.1394 9.74098 10.2046C9.51117 10.2699 9.26407 10.2047 9.09631 10.0346L7.00014 7.90053L4.90398 9.98721C4.64205 10.2491 4.2174 10.2491 3.95548 9.98721C3.69355 9.72529 3.69355 9.30063 3.95548 9.03871L6.04216 6.94254L3.95548 4.85587C3.69355 4.59396 3.69355 4.1693 3.95547 3.90738C4.21739 3.64546 4.64204 3.64546 4.90396 3.90737L7.00013 6.08891L9.09631 3.99274C9.36012 3.75783 9.76275 3.77464 10.006 4.03074C10.2493 4.28684 10.2455 4.6898 9.99739 4.94123L7.91069 7.02791L9.99739 9.08615Z" fill="white"/>
</g>
</svg>
