<svg width="14" height="14" viewBox="0 0 14 14" fill="none" xmlns="http://www.w3.org/2000/svg">
<path d="M0 4C0 1.79086 1.79086 0 4 0H10C12.2091 0 14 1.79086 14 4V10C14 12.2091 12.2091 14 10 14H4C1.79086 14 0 12.2091 0 10V4Z" fill="#F1F1F1"/>
<path fill-rule="evenodd" clip-rule="evenodd" d="M10 1.3H4C2.50883 1.3 1.3 2.50883 1.3 4V10C1.3 11.4912 2.50883 12.7 4 12.7H10C11.4912 12.7 12.7 11.4912 12.7 10V4C12.7 2.50883 11.4912 1.3 10 1.3ZM4 0C1.79086 0 0 1.79086 0 4V10C0 12.2091 1.79086 14 4 14H10C12.2091 14 14 12.2091 14 10V4C14 1.79086 12.2091 0 10 0H4Z" fill="#EDEDED"/>
</svg>
