<svg width="12" height="12" viewBox="0 0 12 12" fill="none" xmlns="http://www.w3.org/2000/svg">
<g id="Group 9150">
<g id="Group 9149">
<path id="Vector" d="M5.57964 0.744629C2.53836 0.744629 0 3.28263 0 6.32427C0 9.37203 2.538 11.8942 5.57964 11.9039C8.61372 11.9125 11.1694 9.35835 11.1596 6.32427C11.1492 3.28263 8.62704 0.744629 5.57964 0.744629ZM5.57964 11.1601C2.94408 11.1519 0.74376 8.96559 0.74376 6.32391C0.74376 3.68763 2.943 1.48803 5.57964 1.48803C8.22096 1.48803 10.4072 3.68763 10.4155 6.32391C10.4231 8.95335 8.20872 11.1677 5.57964 11.1601Z" fill="#6A6A6A"/>
<path id="Vector_2" d="M7.1644 3.4507C6.76804 3.09466 6.24388 2.91394 5.584 2.91394C4.9612 2.91394 4.46044 3.08206 4.081 3.4147C3.70336 3.75094 3.47404 4.23046 3.39844 4.86082L4.24912 4.96054C4.324 4.48966 4.477 4.1473 4.7146 3.92554C4.95004 3.70378 5.24668 3.59434 5.59804 3.59434C5.96452 3.59434 6.2716 3.71746 6.52288 3.96046C6.77488 4.20346 6.90088 4.48714 6.90088 4.80862C6.90088 4.98538 6.85552 5.15134 6.77236 5.30074C6.68632 5.45014 6.49984 5.65318 6.21292 5.90482C5.92672 6.15934 5.72872 6.3505 5.61892 6.48298C5.46952 6.66442 5.36008 6.8437 5.29276 7.02082C5.20204 7.2559 5.15596 7.5385 5.15596 7.8625C5.15596 7.91866 5.15848 8.00002 5.161 8.11162H5.95552C5.96308 7.78042 5.98288 7.53994 6.02536 7.39306C6.06496 7.24618 6.1276 7.1155 6.20968 7.0021C6.29068 6.88762 6.46888 6.71302 6.73924 6.47254C7.13992 6.1165 7.41028 5.81482 7.54888 5.5657C7.68568 5.3191 7.7566 5.04658 7.7566 4.75246C7.7548 4.24666 7.55932 3.8107 7.1644 3.4507ZM5.5768 8.72506C5.51009 8.72501 5.44403 8.73811 5.38238 8.76359C5.32074 8.78907 5.26471 8.82645 5.21751 8.87358C5.12218 8.96878 5.06857 9.09794 5.06848 9.23266C5.06838 9.36738 5.12181 9.49662 5.217 9.59195C5.31219 9.68728 5.44136 9.74089 5.57608 9.74098C5.7108 9.74108 5.84004 9.68765 5.93536 9.59246C6.03069 9.49726 6.0843 9.3681 6.0844 9.23338C6.08449 9.09866 6.03107 8.96942 5.93587 8.87409C5.84068 8.77876 5.71152 8.72516 5.5768 8.72506Z" fill="#6A6A6A"/>
</g>
</g>
</svg>
