<svg width="16" height="17" viewBox="0 0 16 17" fill="none" xmlns="http://www.w3.org/2000/svg">
<g id="&#233;&#128;&#128;&#229;&#135;&#186;">
<path id="&#229;&#189;&#162;&#231;&#138;&#182;&#231;&#187;&#147;&#229;&#144;&#136;" fill-rule="evenodd" clip-rule="evenodd" d="M8.67705 0.633408C8.61072 0.566121 8.52076 0.52832 8.42697 0.52832H2.41466L2.34393 0.530114C1.59107 0.568351 1 1.19876 1 1.96348V14.1624L1.00177 14.2341C1.03946 14.9979 1.66086 15.5975 2.41466 15.5975H8.42697C8.52076 15.5975 8.61072 15.5597 8.67705 15.4924C8.74337 15.4252 8.78063 15.3339 8.78063 15.2387V14.5212C8.78063 14.426 8.74337 14.3347 8.67705 14.2675C8.61072 14.2002 8.52076 14.1624 8.42697 14.1624H2.41466V1.96348H8.42697C8.52076 1.96348 8.61072 1.92568 8.67705 1.8584C8.74337 1.79111 8.78063 1.69985 8.78063 1.60469V0.887111C8.78063 0.791954 8.74337 0.700694 8.67705 0.633408ZM14.6893 7.30193L11.6527 4.22135C11.5146 4.08129 11.2908 4.08129 11.1527 4.22135L10.6526 4.72868C10.5145 4.86879 10.5145 5.0959 10.6526 5.23601L12.7311 7.34534H5.59765C5.50385 7.34534 5.41389 7.38314 5.34757 7.45043C5.28124 7.51772 5.24398 7.60898 5.24398 7.70413V8.42171C5.24398 8.51687 5.28124 8.60813 5.34757 8.67542C5.41389 8.7427 5.50385 8.78051 5.59765 8.78051H12.7311L10.6526 10.8898C10.5145 11.0299 10.5145 11.2571 10.6526 11.3972L11.1527 11.9045C11.2908 12.0446 11.5146 12.0446 11.6527 11.9045L14.6893 8.82392L14.7371 8.77225C15.1053 8.34586 15.0844 7.70281 14.6893 7.30193Z" fill="currentColor"/>
</g>
</svg>
