<svg xmlns="http://www.w3.org/2000/svg" viewBox="0 0 137.84 85.55"><defs><style>.cls-1{fill:#f1f1f1;}.cls-2{fill:#fff;}.cls-3{stroke:#f1f1f1;stroke-width:0.7px;}.cls-4,.cls-5{fill:none;stroke:#000;stroke-linecap:round;}.cls-4{stroke-width:2px;}.cls-5{stroke-width:2px;}</style></defs><g id="图层_2" data-name="图层 2"><g id="图层_1-2" data-name="图层 1"><path class="cls-1" d="M133,38.91C125.49,23.59,106.72,19.52,97.39,16,94.5,12.72,86.85,1.25,78.15.52,58.67-1.1,44,6.11,19.29,26.86s-25,44.39-4.83,43.51,25.61-10.3,20.87.47,9,15.6,19.74,14.58S65.54,74,71.6,72.67s28.46,18.83,50.86,7.17C137.6,72,142.46,58.29,133,38.91Z"/><path class="cls-2" d="M97.22,62.5h-50L43.72,59V38l5-12,3-4h41.5l8,16V59Z"/><path class="cls-3" d="M96.89,25a6.26,6.26,0,0,0-2.32-2.89A6.32,6.32,0,0,0,91,21H53.44a6.31,6.31,0,0,0-5.89,4l-5,12.75V57.33a6.32,6.32,0,0,0,6.31,6.32H95.55a6.32,6.32,0,0,0,6.32-6.32V37.53ZM46.27,35.54,50,26h0l.18-.37h0a3.68,3.68,0,0,1,3.24-1.93H91l.41,0h0a3.66,3.66,0,0,1,1.81.74A3.71,3.71,0,0,1,94.45,26l3.79,9.56.19.48H82.15a1.31,1.31,0,0,0-.89.4,1.34,1.34,0,0,0-.36.91h0a8.69,8.69,0,0,1-17.37,0s.18-1.29-1-1.29H56.44c-3.38,0-7.38,0-9.85,0h-.5Zm53,3.46V57.33h0l0,.39h0A3.68,3.68,0,0,1,95.55,61H48.86l-.39,0h0a3.68,3.68,0,0,1-3.25-3.66V38.65H61L61,39a11.32,11.32,0,0,0,22.4,0l0-.3H99.23Z"/><line class="cls-4" x1="73.22" y1="1" x2="73.22" y2="9"/><line class="cls-4" x1="52.63" y1="1" x2="61.22" y2="9.59"/><line class="cls-5" x1="93.8" y1="1" x2="85.22" y2="9.59"/></g></g></svg>