<svg width="20" height="20" viewBox="0 0 20 20" fill="none" xmlns="http://www.w3.org/2000/svg">
<g opacity="0.5">
<rect opacity="0.01" width="20" height="20" fill="#333333"/>
<path d="M10 2.25C13.6761 2.25 16.6659 5.18871 16.7483 8.84508L16.75 9V16H15.25V9C15.25 6.10051 12.8995 3.75 10 3.75C7.14804 3.75 4.82721 6.02407 4.75189 8.85785L4.75 9V16H3.25V9C3.25 5.27208 6.27208 2.25 10 2.25Z" fill="#333333"/>
<path d="M10 18.5C8.24409 18.5 6.81342 17.1075 6.75205 15.3666L6.75 15.25H8.25C8.25 16.2165 9.0335 17 10 17C10.9343 17 11.6976 16.2679 11.7474 15.346L11.75 15.25H13.25C13.25 17.0449 11.7949 18.5 10 18.5Z" fill="#333333"/>
<path d="M6.92544 9.25C6.53559 9.25 6.21521 8.95256 6.17887 8.57223L6.17544 8.5V8C6.17544 7.14233 6.5383 6.34129 7.16126 5.77667C7.7089 5.28033 8.4213 5 9.17544 5C9.55568 5 9.92728 5.07114 10.2747 5.20801C10.6601 5.35983 10.8494 5.79533 10.6976 6.18071C10.5547 6.54343 10.1605 6.73248 9.79336 6.62689L9.7249 6.60361C9.55187 6.53545 9.36671 6.5 9.17544 6.5C8.79733 6.5 8.44294 6.63945 8.1686 6.8881C7.88219 7.14768 7.70647 7.50453 7.67917 7.89325L7.67544 8V8.5C7.67544 8.91421 7.33965 9.25 6.92544 9.25Z" fill="#333333"/>
<rect x="2" y="15" width="16" height="1.5" rx="0.75" fill="#333333"/>
<rect x="9.25" y="3.75" width="3" height="1.5" rx="0.75" transform="rotate(-90 9.25 3.75)" fill="#333333"/>
</g>
</svg>
