<svg width="16" height="16" viewBox="0 0 16 16" fill="none" xmlns="http://www.w3.org/2000/svg">
<g id="&#228;&#186;&#139;&#233;&#161;&#185;&#232;&#175;&#166;&#230;&#131;&#133;">
<g id="Union">
<path fill-rule="evenodd" clip-rule="evenodd" d="M7.24023 2.21638V1.71827C7.24023 1.32306 7.58181 1 7.99965 1C8.4175 1 8.75907 1.32306 8.75907 1.71827V2.21628C11.0726 2.56175 12.8467 4.46036 12.8467 6.74423V10.1662L13.8051 11.4224C14.0588 11.8239 14.0654 12.3053 13.8217 12.7115C13.5779 13.1193 13.1368 13.3624 12.6427 13.3624H3.35727C2.86315 13.3624 2.42209 13.1193 2.17835 12.7131C1.93461 12.3069 1.94124 11.8239 2.19493 11.424L2.22146 11.3863L3.15332 10.1678V6.74423C3.15332 4.46059 4.92709 2.56214 7.24023 2.21638ZM6.48282 8.45679C6.18105 8.45679 5.9373 8.22625 5.9373 7.94083V5.78758C5.9373 5.50216 6.18105 5.27162 6.48282 5.27162C6.7846 5.27162 7.02834 5.50216 7.02834 5.78758V7.94083C7.02668 8.22625 6.78294 8.45679 6.48282 8.45679ZM9.26514 13.803C9.26514 14.4633 8.69807 14.9996 8 14.9996C7.30193 14.9996 6.73486 14.4633 6.73486 13.803H9.26514ZM3.12182 11.9682C3.06378 12.0748 3.10524 12.1689 3.12679 12.205C3.15001 12.2426 3.21799 12.332 3.35561 12.332H12.6427C12.782 12.332 12.85 12.2442 12.8715 12.205C12.8931 12.1689 12.9362 12.0748 12.8765 11.9682L11.948 10.7559C11.8203 10.5896 11.754 10.3936 11.754 10.1882V6.74423C11.754 4.78545 10.0693 3.19209 7.99834 3.19209C5.92735 3.19209 4.24271 4.78545 4.24271 6.74423V10.1866C4.24271 10.3905 4.17638 10.5865 4.04871 10.7527L3.12182 11.9682Z" fill="currentColor"/>
<path d="M7.24023 2.21638L7.25502 2.31528L7.34023 2.30255V2.21638H7.24023ZM8.75907 2.21628H8.65907V2.30245L8.7443 2.31518L8.75907 2.21628ZM12.8467 10.1662H12.7467V10.2L12.7672 10.2269L12.8467 10.1662ZM13.8051 11.4224L13.8899 11.3688L13.8846 11.3617L13.8051 11.4224ZM13.8217 12.7115L13.7359 12.6601L13.7358 12.6602L13.8217 12.7115ZM2.17835 12.7131L2.0926 12.7645H2.0926L2.17835 12.7131ZM2.19493 11.424L2.1131 11.3663L2.11049 11.3704L2.19493 11.424ZM2.22146 11.3863L2.14197 11.3255L2.13972 11.3287L2.22146 11.3863ZM3.15332 10.1678L3.23276 10.2285L3.25332 10.2016V10.1678H3.15332ZM7.02834 7.94083L7.12834 7.94141V7.94083H7.02834ZM9.26514 13.803H9.36514V13.703H9.26514V13.803ZM6.73486 13.803V13.703H6.63486V13.803H6.73486ZM3.12679 12.205L3.04094 12.2563L3.04168 12.2575L3.12679 12.205ZM3.12182 11.9682L3.0423 11.9075L3.03765 11.9136L3.03398 11.9204L3.12182 11.9682ZM12.8715 12.205L12.7857 12.1536L12.7839 12.1568L12.8715 12.205ZM12.8765 11.9682L12.9638 11.9193L12.9603 11.913L12.9559 11.9074L12.8765 11.9682ZM11.948 10.7559L12.0274 10.6951L12.0273 10.695L11.948 10.7559ZM4.04871 10.7527L3.9694 10.6918L3.96919 10.6921L4.04871 10.7527ZM7.34023 2.21638V1.71827H7.14023V2.21638H7.34023ZM7.34023 1.71827C7.34023 1.38347 7.63171 1.1 7.99965 1.1V0.9C7.5319 0.9 7.14023 1.26266 7.14023 1.71827H7.34023ZM7.99965 1.1C8.36759 1.1 8.65907 1.38347 8.65907 1.71827H8.85907C8.85907 1.26266 8.4674 0.9 7.99965 0.9V1.1ZM8.65907 1.71827V2.21628H8.85907V1.71827H8.65907ZM8.7443 2.31518C11.0138 2.65409 12.7467 4.51476 12.7467 6.74423H12.9467C12.9467 4.40596 11.1313 2.46942 8.77384 2.11737L8.7443 2.31518ZM12.7467 6.74423V10.1662H12.9467V6.74423H12.7467ZM12.7672 10.2269L13.7256 11.4831L13.8846 11.3617L12.9262 10.1055L12.7672 10.2269ZM13.7205 11.4758C13.9542 11.8456 13.9601 12.2865 13.7359 12.6601L13.9074 12.763C14.1707 12.3242 14.1633 11.8022 13.8896 11.369L13.7205 11.4758ZM13.7358 12.6602C13.511 13.0362 13.1035 13.2624 12.6427 13.2624V13.4624C13.1702 13.4624 13.6448 13.2023 13.9075 12.7628L13.7358 12.6602ZM12.6427 13.2624H3.35727V13.4624H12.6427V13.2624ZM3.35727 13.2624C2.89647 13.2624 2.48886 13.0362 2.2641 12.6616L2.0926 12.7645C2.35533 13.2024 2.82983 13.4624 3.35727 13.4624V13.2624ZM2.2641 12.6616C2.03987 12.288 2.04589 11.8456 2.27937 11.4775L2.11049 11.3704C1.83659 11.8022 1.82934 12.3258 2.0926 12.7645L2.2641 12.6616ZM2.27667 11.4816L2.3032 11.4439L2.13972 11.3287L2.11319 11.3664L2.27667 11.4816ZM2.3009 11.4471L3.23276 10.2285L3.07389 10.107L2.14203 11.3256L2.3009 11.4471ZM3.25332 10.1678V6.74423H3.05332V10.1678H3.25332ZM3.25332 6.74423C3.25332 4.51499 4.98587 2.65446 7.25502 2.31528L7.22545 2.11748C4.86832 2.46981 3.05332 4.40619 3.05332 6.74423H3.25332ZM5.8373 7.94083C5.8373 8.28666 6.13114 8.55679 6.48282 8.55679V8.35679C6.23095 8.35679 6.0373 8.16585 6.0373 7.94083H5.8373ZM5.8373 5.78758V7.94083H6.0373V5.78758H5.8373ZM6.48282 5.17162C6.13114 5.17162 5.8373 5.44175 5.8373 5.78758H6.0373C6.0373 5.56256 6.23095 5.37162 6.48282 5.37162V5.17162ZM7.12834 5.78758C7.12834 5.44175 6.83451 5.17162 6.48282 5.17162V5.37162C6.73469 5.37162 6.92834 5.56256 6.92834 5.78758H7.12834ZM7.12834 7.94083V5.78758H6.92834V7.94083H7.12834ZM6.48282 8.55679C6.8332 8.55679 7.12634 8.28646 7.12834 7.94141L6.92834 7.94025C6.92703 8.16604 6.73269 8.35679 6.48282 8.35679V8.55679ZM8 15.0996C8.74797 15.0996 9.36514 14.5237 9.36514 13.803H9.16514C9.16514 14.4029 8.64816 14.8996 8 14.8996V15.0996ZM6.63486 13.803C6.63486 14.5237 7.25203 15.0996 8 15.0996V14.8996C7.35184 14.8996 6.83486 14.4029 6.83486 13.803H6.63486ZM9.26514 13.703H6.73486V13.903H9.26514V13.703ZM3.21263 12.1537C3.19887 12.1306 3.17634 12.0772 3.20965 12.016L3.03398 11.9204C2.95123 12.0724 3.01161 12.2072 3.04095 12.2563L3.21263 12.1537ZM3.35561 12.232C3.26911 12.232 3.22763 12.178 3.21191 12.1525L3.04168 12.2575C3.07238 12.3072 3.16687 12.432 3.35561 12.432V12.232ZM12.6427 12.232H3.35561V12.432H12.6427V12.232ZM12.7839 12.1568C12.7725 12.1776 12.7323 12.232 12.6427 12.232V12.432C12.8317 12.432 12.9275 12.3108 12.9592 12.2531L12.7839 12.1568ZM12.7893 12.017C12.8228 12.0769 12.8003 12.1292 12.7857 12.1537L12.9574 12.2563C12.9859 12.2086 13.0496 12.0727 12.9638 11.9193L12.7893 12.017ZM11.8686 10.8167L12.7971 12.029L12.9559 11.9074L12.0274 10.6951L11.8686 10.8167ZM11.654 10.1882C11.654 10.4158 11.7277 10.6332 11.8687 10.8168L12.0273 10.695C11.9129 10.5461 11.854 10.3714 11.854 10.1882H11.654ZM11.654 6.74423V10.1882H11.854V6.74423H11.654ZM7.99834 3.29209C10.0194 3.29209 11.654 4.84586 11.654 6.74423H11.854C11.854 4.72505 10.1192 3.09209 7.99834 3.09209V3.29209ZM4.34271 6.74423C4.34271 4.84586 5.97726 3.29209 7.99834 3.29209V3.09209C5.87745 3.09209 4.14271 4.72505 4.14271 6.74423H4.34271ZM4.34271 10.1866V6.74423H4.14271V10.1866H4.34271ZM4.12801 10.8137C4.26896 10.6301 4.34271 10.4127 4.34271 10.1866H4.14271C4.14271 10.3682 4.0838 10.5429 3.9694 10.6918L4.12801 10.8137ZM3.20133 12.0288L4.12822 10.8134L3.96919 10.6921L3.0423 11.9075L3.20133 12.0288Z" fill="currentColor"/>
</g>
</g>
</svg>
