<svg xmlns="http://www.w3.org/2000/svg" viewBox="0 0 16 16"><defs><style>.cls-1,.cls-2{fill:#8f959e;}.cls-2{opacity:0;}</style></defs><g id="图层_2" data-name="图层 2"><g id="图层_1-2" data-name="图层 1"><path class="cls-1" d="M13.57,14.28H2.79a1.54,1.54,0,0,1-1.55-1.53V3.25A1.54,1.54,0,0,1,2.79,1.72h6A1.07,1.07,0,0,1,9.85,2.78v.55a.52.52,0,0,0,.53.51h3.19A1.19,1.19,0,0,1,14.76,5v8A1.19,1.19,0,0,1,13.57,14.28ZM2.79,2.92a.34.34,0,0,0-.35.33v9.5a.34.34,0,0,0,.35.33H13.56V5H10.38A1.73,1.73,0,0,1,8.65,3.33V2.92Z"/><path class="cls-1" d="M7.38,7.81H4.51a.6.6,0,0,1,0-1.2H7.38a.6.6,0,0,1,0,1.2Z"/><path class="cls-1" d="M10.1,10.81H4.78a.6.6,0,0,1,0-1.2H10.1a.6.6,0,0,1,0,1.2Z"/><rect class="cls-2" width="16" height="16"/></g></g></svg>