<svg width="12" height="12" viewBox="0 0 12 12" fill="none" xmlns="http://www.w3.org/2000/svg">
<path fill-rule="evenodd" clip-rule="evenodd" d="M8.57143 1.11429H3.42857C2.15043 1.11429 1.11429 2.15043 1.11429 3.42857V8.57143C1.11429 9.84957 2.15043 10.8857 3.42857 10.8857H8.57143C9.84957 10.8857 10.8857 9.84957 10.8857 8.57143V3.42857C10.8857 2.15043 9.84957 1.11429 8.57143 1.11429ZM3.42857 0C1.53502 0 0 1.53502 0 3.42857V8.57143C0 10.465 1.53502 12 3.42857 12H8.57143C10.465 12 12 10.465 12 8.57143V3.42857C12 1.53502 10.465 0 8.57143 0H3.42857Z" fill="white"/>
</svg>
