<svg width="29" height="12" viewBox="0 0 29 12" fill="none" xmlns="http://www.w3.org/2000/svg">
<path fill-rule="evenodd" clip-rule="evenodd" d="M8.5962 5.82252V2.04252H1.7832V2.86152H7.7232V5.00352H3.0162V3.77052H2.1522V8.45052C2.1522 9.24252 2.5302 9.63852 3.2952 9.63852H8.2632C8.59896 9.62214 8.86765 9.53125 9.07606 9.36584C9.08706 9.35711 9.09789 9.34817 9.10856 9.33903C9.1179 9.33102 9.12712 9.32285 9.1362 9.31452C9.27925 9.15784 9.40168 8.73306 9.49958 8.04409C9.52191 7.88697 9.54296 7.71611 9.56269 7.53157C9.57075 7.45617 9.57859 7.37848 9.5862 7.29852L8.7492 7.02852C8.74549 7.09349 8.74161 7.15655 8.73755 7.21769C8.71537 7.55186 8.68792 7.82884 8.65427 8.04863C8.61113 8.33038 8.55779 8.51816 8.49222 8.61199C8.48217 8.62637 8.47184 8.63855 8.4612 8.64852C8.45175 8.65662 8.44215 8.66442 8.4324 8.67191C8.3798 8.71234 8.32301 8.74393 8.2632 8.76667C8.24941 8.77191 8.23547 8.77668 8.22137 8.78099C8.15689 8.80067 8.08937 8.81052 8.0202 8.81052H3.5292C3.43942 8.81052 3.36142 8.79873 3.2952 8.77516C3.15014 8.72352 3.06164 8.6153 3.02971 8.45052C3.02071 8.40402 3.0162 8.35302 3.0162 8.29752V5.82252H8.5962ZM4.0162 6.82252H7.75934L7.75083 6.97147C7.73041 7.32877 7.70569 7.6052 7.67821 7.81052H4.0162V6.82252ZM7.6155 8.14098C7.6116 8.15213 7.61155 8.14943 7.61692 8.13671C7.61637 8.13843 7.6159 8.13985 7.6155 8.14098ZM10.1246 9.61429C10.0651 9.73571 9.98468 9.86832 9.87469 9.98879L9.84471 10.0216L9.81193 10.0517C9.38521 10.4428 8.85567 10.6108 8.31193 10.6373L8.28758 10.6385H3.2952C2.74953 10.6385 2.15835 10.4953 1.71552 10.0341C1.28003 9.5806 1.1522 8.98928 1.1522 8.45052V3.86152H0.783203V1.04252H9.5962V1.24897L10.4122 1.18097C11.4329 1.09591 12.3196 0.927586 13.0802 0.684856L13.9899 0.394531L14.4002 1.50114C14.5456 1.34404 14.6851 1.17468 14.8185 0.992559L15.2007 0.470813L18.027 1.07215L17.9191 1.25852H19.0462V3.14074L18.9833 3.30963C18.7994 3.8031 18.5407 4.24506 18.2155 4.63941L18.7584 4.87652H19.3142V1.29452H22.0592V0.610515H24.9412V1.29452H27.6862V5.22752H28.1272V10.8635H25.2722V10.4315H21.7282V10.8635H18.8732V8.22822C17.8688 9.51307 16.1664 10.3594 14.0294 10.8882L13.2867 11.0721L13.1858 10.8905H10.7552V9.71225L10.3734 10.2392L10.1246 9.61429ZM11.7552 9.89052H12.5832V5.98452C12.6167 6.02641 12.6513 6.07003 12.687 6.11545C12.6904 6.11979 12.6938 6.12414 12.6972 6.12852C12.7092 6.14376 12.7213 6.15921 12.7335 6.17485C12.7338 6.17527 12.7341 6.17569 12.7344 6.17611C12.7413 6.18495 12.7482 6.19385 12.7552 6.20281C12.8223 6.28923 12.8929 6.3817 12.9672 6.48062C12.9716 6.4865 12.976 6.49241 12.9804 6.49833C13.0749 6.62457 13.1751 6.76119 13.2811 6.90899C13.2929 6.92557 13.3049 6.94228 13.3169 6.95914C13.3332 6.982 13.3496 7.00513 13.3662 7.02852L13.4922 6.83952L14.0142 7.60452C14.0654 7.59065 14.1161 7.57647 14.1664 7.56197C14.1855 7.55645 14.2046 7.55089 14.2235 7.54528C14.4247 7.48588 14.6181 7.42139 14.8038 7.35193C15.0494 7.26004 15.2816 7.15945 15.5003 7.05046C15.6122 6.99467 15.7206 6.93667 15.8255 6.87652C15.9189 6.82295 16.0094 6.76766 16.0972 6.71068C16.1323 6.6879 16.167 6.66484 16.2012 6.64152H17.7132C17.6712 6.72139 17.6252 6.79973 17.5754 6.87652C17.3965 7.15216 17.1679 7.40768 16.8927 7.64152C16.8058 7.71536 16.7143 7.78703 16.6182 7.8565C16.5589 7.89935 16.4979 7.94136 16.4352 7.98252C16.3948 7.94059 16.3539 7.89892 16.3124 7.85754C16.3033 7.84843 16.2942 7.83934 16.285 7.83027C16.2711 7.8165 16.2572 7.80278 16.2432 7.78908C16.0561 7.60611 15.8591 7.42936 15.6522 7.26252L15.0492 7.69452C15.0969 7.74026 15.1445 7.78641 15.1922 7.83297C15.2974 7.9358 15.4027 8.04061 15.5079 8.14738C15.5399 8.17975 15.5718 8.2123 15.6037 8.24504C15.6439 8.28624 15.684 8.32773 15.7242 8.36952C15.677 8.39183 15.6289 8.41381 15.58 8.43545C15.5557 8.44623 15.5312 8.45692 15.5064 8.46753C15.2599 8.57335 14.9935 8.67104 14.7082 8.76104C14.5918 8.79774 14.4723 8.83317 14.3497 8.86734C14.1063 8.93521 13.8506 8.99813 13.5832 9.05635C13.5809 9.05684 13.5787 9.05733 13.5764 9.05782C13.4984 9.07478 13.4193 9.09135 13.3392 9.10752L13.7892 9.91752C14.667 9.70026 15.4309 9.43608 16.0808 9.12465C16.096 9.11737 16.1111 9.11005 16.1262 9.10272C16.4015 8.96878 16.656 8.82622 16.8897 8.67502C16.9972 8.60542 17.1004 8.53398 17.1992 8.46072C17.7607 8.04416 18.1799 7.56834 18.4567 7.03282C18.4833 6.98127 18.5086 6.92917 18.5327 6.87652C18.5758 6.78197 18.6146 6.68564 18.6492 6.58752V5.87652H17.0652C17.1259 5.79852 17.1844 5.72052 17.2409 5.64152C17.2695 5.60157 17.2975 5.56137 17.325 5.52079C17.3407 5.49772 17.3561 5.47453 17.3714 5.45118C17.3865 5.42811 17.4014 5.4049 17.4162 5.38152L16.6332 5.03952C16.6093 5.07388 16.5846 5.10783 16.5591 5.14139C16.5052 5.21228 16.4477 5.28138 16.3866 5.34869C16.2943 5.45038 16.1937 5.54798 16.085 5.64152C16.0009 5.71386 15.9119 5.78377 15.818 5.85126C15.7835 5.87606 15.7483 5.90054 15.7125 5.92468C15.5104 6.06085 15.2872 6.18664 15.0429 6.30213C14.8701 6.38382 14.6868 6.46037 14.4928 6.53179C14.4293 6.55519 14.3647 6.57804 14.2989 6.60034C14.2966 6.6011 14.2944 6.60187 14.2921 6.60263C14.1299 6.65747 13.9607 6.70898 13.7847 6.75719C13.7657 6.7624 13.7465 6.76758 13.7273 6.77272C13.6798 6.78544 13.6317 6.79792 13.5832 6.81017C13.5669 6.81428 13.5505 6.81837 13.5341 6.82242C13.5254 6.8246 13.5165 6.82676 13.5077 6.82892C13.5056 6.82945 13.5034 6.82998 13.5012 6.83052L13.8432 6.30852C13.7927 6.26127 13.7423 6.21453 13.6918 6.1683C13.6556 6.13513 13.6194 6.10222 13.5832 6.06958C13.5515 6.04102 13.5199 6.01267 13.4883 5.98452C13.4347 5.93686 13.3812 5.88977 13.3278 5.84327C13.3236 5.83968 13.3195 5.8361 13.3154 5.83252C13.2434 5.76998 13.1715 5.70849 13.0997 5.64806C13.0965 5.64534 13.0933 5.64263 13.0901 5.63992C13.0777 5.6295 13.0653 5.6191 13.0529 5.60874C12.8954 5.47692 12.7387 5.35018 12.5832 5.22852V4.83252H13.6992V4.01352H12.5832V2.70852C12.6239 2.69979 12.6645 2.69097 12.705 2.68204C12.7217 2.67834 12.7385 2.67463 12.7552 2.67089C12.7872 2.66374 12.8192 2.65652 12.8511 2.64923C12.9588 2.62462 13.0656 2.59926 13.1712 2.57314C13.3315 2.53354 13.489 2.49222 13.6432 2.44917C13.6559 2.44563 13.6686 2.44208 13.6812 2.43852L13.3842 1.63752C13.1813 1.70228 12.9716 1.76187 12.7552 1.81628C12.6418 1.84479 12.5265 1.87189 12.4094 1.89756C12.1655 1.95102 11.9135 1.99832 11.6536 2.03945C11.6302 2.04315 11.6067 2.0468 11.5832 2.0504C11.5534 2.05496 11.5235 2.05945 11.4935 2.06385C11.2013 2.1067 10.8992 2.14195 10.5873 2.1696C10.5567 2.17231 10.526 2.17495 10.4952 2.17752L10.6662 2.97852C10.6959 2.97562 10.7256 2.97266 10.7552 2.96965C11.0347 2.94122 11.3094 2.90801 11.5832 2.87397C11.6406 2.86685 11.6979 2.85968 11.7552 2.85252V4.01352H10.4592V4.83252H11.6562C11.6368 4.8933 11.6165 4.95363 11.5954 5.01352C11.5914 5.02497 11.5873 5.0364 11.5832 5.04782C11.4862 5.31835 11.3725 5.57974 11.2422 5.83252C11.2413 5.83441 11.2403 5.83631 11.2393 5.83821C11.2271 5.86178 11.2148 5.88528 11.2023 5.9087C11.1629 5.98271 11.1221 6.05598 11.0799 6.12852C10.9797 6.30059 10.8714 6.46855 10.7552 6.63258C10.7173 6.68607 10.6786 6.73914 10.639 6.7918C10.5206 6.94935 10.3946 7.1032 10.2612 7.25352L10.6302 8.18052C10.6725 8.12213 10.7142 8.0632 10.7552 8.0037C10.7997 7.93922 10.8434 7.87409 10.8863 7.8083C11.029 7.58969 11.1632 7.36385 11.2887 7.1308C11.393 6.93693 11.4913 6.73807 11.5832 6.53421C11.6432 6.40111 11.7006 6.26588 11.7552 6.12852V9.89052ZM10.089 5.83252C9.98626 5.99266 9.87468 6.14905 9.75418 6.30196L9.5962 6.251V5.83252H10.089ZM9.5962 3.01352H9.65114L9.5962 2.75618V3.01352ZM14.1852 4.06752C14.2022 4.0578 14.2192 4.04801 14.2361 4.03815C14.2501 4.02999 14.264 4.02178 14.2779 4.01352C14.4118 3.93406 14.5424 3.85006 14.6696 3.76152C14.6795 3.75462 14.6893 3.7477 14.6992 3.74075C14.8898 3.60634 15.0726 3.46163 15.2469 3.3066C15.2648 3.29068 15.2826 3.27465 15.3003 3.25852C15.3868 3.17977 15.4711 3.09844 15.5532 3.01452H17.1822C17.1312 3.09794 17.0771 3.17924 17.0197 3.25852C16.9323 3.37939 16.8374 3.49554 16.7352 3.60729C16.6507 3.69964 16.5612 3.78899 16.4666 3.87551C16.415 3.92268 16.362 3.969 16.3074 4.01452C16.2746 4.04189 16.2412 4.06897 16.2073 4.09576C16.1301 4.15681 16.0501 4.21637 15.9672 4.27452C15.9643 4.26914 15.9614 4.26376 15.9584 4.25838C15.9541 4.25057 15.9498 4.24276 15.9454 4.23495C15.9196 4.18924 15.8917 4.1435 15.8618 4.09758C15.8579 4.09162 15.854 4.08566 15.8501 4.0797C15.8357 4.05802 15.8209 4.03629 15.8056 4.01452C15.7422 3.92406 15.6708 3.83263 15.5916 3.73921C15.579 3.72438 15.5662 3.7095 15.5532 3.69457C15.5131 3.64844 15.4711 3.60179 15.4272 3.55452L14.8332 3.98652C14.8536 4.00571 14.8745 4.02619 14.8958 4.04795C14.9937 4.14775 15.1012 4.27448 15.2163 4.42813C15.2435 4.46438 15.271 4.50211 15.299 4.54135C15.3147 4.56336 15.3305 4.58583 15.3464 4.60878C15.3523 4.61729 15.3583 4.62587 15.3642 4.63452C15.3498 4.642 15.3353 4.64944 15.3207 4.65684C15.2475 4.69402 15.1725 4.73021 15.0958 4.76539C14.9684 4.82377 14.8362 4.87939 14.6992 4.93226C14.6897 4.93593 14.6802 4.93959 14.6706 4.94324C14.6683 4.94413 14.6659 4.94502 14.6636 4.94591C14.5841 4.97613 14.5031 5.00542 14.4205 5.0338C14.3018 5.07462 14.1798 5.11355 14.0548 5.15058C14.0086 5.16425 13.962 5.17767 13.915 5.19082C13.889 5.19811 13.8628 5.20531 13.8365 5.21244C13.7911 5.22474 13.7453 5.2368 13.6992 5.24863C13.6902 5.25094 13.6812 5.25323 13.6722 5.25552L14.1042 5.88552C14.1659 5.8687 14.227 5.85155 14.2874 5.83406C14.2892 5.83355 14.2909 5.83303 14.2927 5.83252C14.4224 5.79488 14.549 5.75568 14.6723 5.71491C14.6813 5.71195 14.6903 5.70898 14.6992 5.706C14.9635 5.61789 15.2131 5.52256 15.4482 5.41998C15.5374 5.38109 15.6244 5.34116 15.7094 5.30019C15.9618 5.17842 16.1958 5.04744 16.4112 4.90723C16.4167 4.90366 16.4222 4.90009 16.4276 4.8965C16.5046 4.84604 16.5791 4.79439 16.6513 4.74154C16.7089 4.69936 16.765 4.65642 16.8196 4.61272C16.976 4.4875 17.12 4.35605 17.2515 4.21834C17.4876 3.97111 17.6835 3.70372 17.8393 3.41608C17.8674 3.36422 17.8942 3.3117 17.9197 3.25852C17.9662 3.16138 18.0084 3.06205 18.0462 2.96052V2.25852H16.1652C16.2072 2.19547 16.2479 2.13243 16.2877 2.06886C16.2991 2.05079 16.3103 2.03268 16.3215 2.01452C16.3722 1.93235 16.4217 1.84906 16.4712 1.76352L15.6252 1.58352C15.5731 1.65468 15.52 1.72431 15.4661 1.79244C15.406 1.86834 15.3447 1.94236 15.2824 2.01452C15.1664 2.14876 15.0465 2.27653 14.9229 2.39789C14.8765 2.44337 14.8297 2.48795 14.7823 2.53163C14.7814 2.5324 14.7806 2.53318 14.7797 2.53396C14.6717 2.63342 14.5608 2.72823 14.4473 2.81842C14.3622 2.88604 14.2755 2.95107 14.1874 3.01352C14.0925 3.08068 13.996 3.14485 13.8977 3.20606C13.8474 3.2374 13.7966 3.26797 13.7453 3.29776C13.73 3.30667 13.7146 3.31552 13.6992 3.3243C13.6694 3.3413 13.6394 3.35804 13.6092 3.37452L14.1852 4.06752ZM19.8732 9.86352H20.7282V9.43152H26.2722V9.86352H27.1272V6.22752H26.2722V8.61252H23.9412V5.50752H26.6862V2.29452H25.8222V4.67952H23.9412V1.61052H23.0592V4.67952H21.1782V2.29452H20.3142V5.50752H23.0592V8.61252H20.7282V6.22752H19.8732V9.86352ZM21.7282 7.61252V6.50752H22.0592V7.61252H21.7282ZM24.9412 6.50752H25.2722V7.61252H24.9412V6.50752ZM4.0162 4.00352V3.86152H6.7232V4.00352H4.0162Z" fill="#F4F4F4"/>
<path d="M8.5962 5.82298V2.04298H1.7832V2.86198H7.7232V5.00398H3.0162V3.77098H2.1522V8.45098C2.1522 9.24298 2.5302 9.63898 3.2952 9.63898H8.2632C8.6322 9.62099 8.9202 9.51298 9.1362 9.31498C9.3252 9.10798 9.4782 8.43298 9.5862 7.29898L8.7492 7.02899C8.6952 7.97399 8.6052 8.51398 8.4612 8.64898C8.3352 8.75698 8.1822 8.81098 8.0202 8.81098H3.5292C3.1872 8.81098 3.0162 8.63999 3.0162 8.29799V5.82298H8.5962Z" fill="#92929D"/>
<path d="M10.6662 2.97898C11.0352 2.94298 11.3952 2.89798 11.7552 2.85298V4.01398H10.4592V4.83298H11.6562C11.3682 5.73299 10.9002 6.53398 10.2612 7.25398L10.6302 8.18098C11.0802 7.55998 11.4582 6.87598 11.7552 6.12898V9.89098H12.5832V5.98499C12.7992 6.25499 13.0602 6.59698 13.3662 7.02899L13.4922 6.83998L14.0142 7.60498C14.8782 7.37098 15.6072 7.04699 16.2012 6.64198H17.7132C17.4432 7.15498 17.0112 7.60498 16.4352 7.98298C16.1922 7.73098 15.9312 7.48798 15.6522 7.26298L15.0492 7.69498C15.2742 7.91098 15.4992 8.13598 15.7242 8.36998C15.0762 8.67598 14.2752 8.91898 13.3392 9.10798L13.7892 9.91798C16.4802 9.25199 18.1002 8.14499 18.6492 6.58799V5.87698H17.0652C17.1912 5.71498 17.3082 5.55298 17.4162 5.38198L16.6332 5.03998C16.0572 5.86798 15.0132 6.46199 13.5012 6.83099L13.8432 6.30898C13.4202 5.91298 12.9972 5.55298 12.5832 5.22898V4.83298H13.6992V4.01398H12.5832V2.70898C12.9612 2.62798 13.3302 2.53798 13.6812 2.43898L13.3842 1.63798C12.5382 1.90798 11.5752 2.08799 10.4952 2.17798L10.6662 2.97898ZM16.4712 1.76398L15.6252 1.58398C15.0582 2.35798 14.3832 2.95198 13.6092 3.37498L14.1852 4.06798C14.6892 3.77998 15.1482 3.42898 15.5532 3.01498H17.1822C16.8852 3.50099 16.4802 3.91498 15.9672 4.27498C15.8412 4.04098 15.6612 3.80698 15.4272 3.55498L14.8332 3.98698C14.9862 4.13098 15.1662 4.34698 15.3642 4.63498C14.8782 4.88698 14.3112 5.09399 13.6722 5.25599L14.1042 5.88598C16.2192 5.30998 17.5332 4.33799 18.0462 2.96098V2.25898H16.1652C16.2732 2.09698 16.3722 1.93498 16.4712 1.76398Z" fill="#92929D"/>
<path d="M25.8222 4.67998H23.9412V1.61098H23.0592V4.67998H21.1782V2.29498H20.3142V5.50798H23.0592V8.61298H20.7282V6.22798H19.8732V9.86399H20.7282V9.43198H26.2722V9.86399H27.1272V6.22798H26.2722V8.61298H23.9412V5.50798H26.6862V2.29498H25.8222V4.67998Z" fill="#92929D"/>
</svg>
