<?xml version="1.0" standalone="no"?><!DOCTYPE svg PUBLIC "-//W3C//DTD SVG 1.1//EN" "http://www.w3.org/Graphics/SVG/1.1/DTD/svg11.dtd"><svg t="1686550916850" class="icon" viewBox="0 0 1024 1024" version="1.1" xmlns="http://www.w3.org/2000/svg" p-id="8519" xmlns:xlink="http://www.w3.org/1999/xlink" width="200" height="200"><path d="M859.648 604.757333a34.986667 34.986667 0 0 1-0.341333 19.285334l-1.28 3.157333-6.826667 18.517333c-41.130667 103.338667-125.952 180.138667-231.253333 208.384-178.176 47.786667-363.264-56.490667-418.304-234.325333l-4.778667-16.896-23.893333 42.325333c-5.461333 10.24-11.178667 17.664-21.333334 20.138667a30.890667 30.890667 0 0 1-36.437333-23.808 27.136 27.136 0 0 1 2.56-20.736l2.901333-4.949333 72.192-126.976 123.733334 74.154666c7.68 4.608 13.312 12.032 15.36 20.736a31.573333 31.573333 0 0 1-3.669334 23.381334 29.44 29.44 0 0 1-37.717333 11.52l-5.376-3.242667-36.522667-28.842667C294.314667 742.4 452.266667 834.901333 603.989333 794.197333A287.744 287.744 0 0 0 802.133333 603.904a29.610667 29.610667 0 0 1 19.2-19.968 30.464 30.464 0 0 1 35.754667 14.933333l2.474667 5.888z m76.544-241.322666a31.146667 31.146667 0 0 1 0 19.456l-3.072 6.229333-74.752 127.232-120.746667-74.837333a32.426667 32.426667 0 0 1-18.090666-19.797334 30.72 30.72 0 0 1 19.712-38.826666 25.685333 25.685333 0 0 1 19.797333 1.450666l7.509333 4.949334 35.754667 27.648c-47.957333-152.576-203.946667-242.090667-353.536-201.984-87.296 23.381333-157.952 87.381333-195.328 174.336l-6.997333 17.664-52.821334-22.613334c37.205333-113.408 126.634667-199.082667 239.104-229.205333 177.322667-47.530667 361.642667 55.466667 417.536 232.021333l4.864 16.725334 24.490667-44.032a29.781333 29.781333 0 0 1 18.432-17.237334 30.464 30.464 0 0 1 35.669333 14.933334l2.474667 5.888z" fill="#FF784D" opacity=".8" p-id="8520"></path></svg>