<svg width="12" height="12" viewBox="0 0 12 12" fill="none" xmlns="http://www.w3.org/2000/svg">
<circle cx="6" cy="6" r="6" fill="white"/>
<path fill-rule="evenodd" clip-rule="evenodd" d="M0 6C0 9.31388 2.68613 12 6 12C9.31388 12 12 9.31388 12 6C12 2.68613 9.31388 0 6 0C2.68613 0 0 2.68613 0 6ZM3.70209 5.84316L5.41884 7.58016C5.41884 7.58016 7.28334 3.98579 9.42834 2.57129C9.16396 3.24929 9.25959 4.51829 9.42834 5.19479C8.38246 5.43366 6.23221 8.11679 5.53471 9.42854C4.54734 8.17604 3.39384 7.36679 2.57109 6.92429L3.70209 5.84316Z" fill="#1DD2C1"/>
</svg>
