<svg width="16" height="16" viewBox="0 0 16 16" fill="none" xmlns="http://www.w3.org/2000/svg">
<g id="&#228;&#186;&#139;&#233;&#161;&#185;&#232;&#175;&#166;&#230;&#131;&#133;">
<path id="&#229;&#189;&#162;&#231;&#138;&#182;&#231;&#187;&#147;&#229;&#144;&#136;" fill-rule="evenodd" clip-rule="evenodd" d="M15 8C15 4.13401 11.866 1 8 1C4.13401 1 1 4.13401 1 8C1 11.866 4.13401 15 8 15C11.866 15 15 11.866 15 8ZM2.20312 8C2.20312 4.79847 4.79847 2.20312 8 2.20312C11.2015 2.20312 13.7969 4.79847 13.7969 8C13.7969 11.2015 11.2015 13.7969 8 13.7969C4.79847 13.7969 2.20312 11.2015 2.20312 8ZM7.52344 5.26077C7.52344 4.9294 7.79207 4.66077 8.12344 4.66077C8.45481 4.66077 8.72344 4.9294 8.72344 5.26077V7.77795H11.1285C11.4599 7.77795 11.7285 8.04658 11.7285 8.37795C11.7285 8.70932 11.4599 8.97795 11.1285 8.97795H8.1439C7.82101 8.97795 7.55768 8.72289 7.54442 8.40325C7.53074 8.35295 7.52344 8.30002 7.52344 8.24538V5.26077Z" fill="currentColor"/>
</g>
</svg>
