<svg width="12" height="12" viewBox="0 0 12 12" fill="none" xmlns="http://www.w3.org/2000/svg">
<path d="M6.54942 3.71076H4.02787L5.28856 2.44021C5.38918 2.33579 5.445 2.19565 5.44395 2.05009C5.44289 1.90453 5.38505 1.76523 5.28292 1.6623C5.18078 1.55937 5.04257 1.50108 4.89813 1.50001C4.7537 1.49895 4.61465 1.5552 4.51104 1.65662L2.31166 3.87319C2.30525 3.87965 2.299 3.88629 2.29293 3.8931L2.28469 3.90263L2.27541 3.91354C2.27197 3.91769 2.26871 3.92202 2.26544 3.92618L2.25891 3.93466C2.25547 3.93934 2.25221 3.94419 2.24877 3.94886L2.24345 3.95666C2.24018 3.96168 2.23709 3.9667 2.23382 3.97172L2.22901 3.97952C2.22609 3.98454 2.22317 3.98956 2.22042 3.99458L2.21561 4.00324C2.21303 4.00791 2.21063 4.01276 2.20839 4.01761L2.20341 4.02783C2.20135 4.03216 2.19946 4.03666 2.19757 4.04099C2.19568 4.04532 2.19413 4.04896 2.19241 4.05294C2.1907 4.05692 2.18932 4.06073 2.18777 4.06471C2.18623 4.0687 2.18417 4.07389 2.18262 4.07874C2.18107 4.08359 2.18021 4.08567 2.17918 4.08913C2.17815 4.09259 2.17575 4.09952 2.1742 4.10472C2.17265 4.10991 2.17248 4.11095 2.17162 4.11389C2.17076 4.11684 2.16853 4.12515 2.16698 4.13121C2.16698 4.13416 2.16561 4.13693 2.16492 4.13987C2.16355 4.14576 2.16217 4.15165 2.16114 4.15719C2.16114 4.16013 2.16011 4.16307 2.1596 4.16602C2.15856 4.17191 2.15753 4.17779 2.15667 4.18334C2.15581 4.18888 2.15667 4.19009 2.15547 4.19338C2.15427 4.19667 2.1541 4.20446 2.15358 4.2107C2.15307 4.21693 2.15358 4.2197 2.15255 4.2242C2.15152 4.22871 2.15255 4.23321 2.15152 4.23771V4.29243C2.15152 4.29693 2.15152 4.30144 2.15255 4.30594C2.15358 4.31044 2.15255 4.31494 2.15358 4.31945C2.15461 4.32395 2.15478 4.33053 2.15547 4.33676C2.15616 4.343 2.15547 4.34352 2.15667 4.34681C2.15788 4.3501 2.15856 4.35858 2.1596 4.36412C2.1596 4.36707 2.16063 4.37001 2.16114 4.37296C2.16234 4.37884 2.16372 4.38473 2.16492 4.39027C2.16492 4.39322 2.16612 4.39599 2.16698 4.39893C2.16836 4.40465 2.16991 4.41036 2.17162 4.41625C2.17334 4.42214 2.17334 4.42248 2.1742 4.42543C2.17506 4.42837 2.17747 4.43582 2.17918 4.44101C2.1809 4.44621 2.18142 4.44794 2.18262 4.4514C2.18382 4.45487 2.18606 4.46075 2.18777 4.46543C2.18949 4.4701 2.1907 4.47322 2.19241 4.4772L2.19757 4.48915C2.19929 4.49314 2.20152 4.49798 2.20341 4.50231L2.20839 4.51253C2.2108 4.51738 2.21321 4.52205 2.21561 4.5269L2.22042 4.53556C2.22317 4.54058 2.22609 4.54561 2.22901 4.55063L2.23382 4.55842C2.23692 4.56344 2.24001 4.56846 2.24345 4.57349L2.24877 4.58128C2.25204 4.58613 2.2553 4.5908 2.25891 4.59548L2.26544 4.60396C2.26871 4.60829 2.27197 4.61245 2.27541 4.61661L2.28469 4.62752L2.29293 4.63704C2.299 4.64385 2.30525 4.65049 2.31166 4.65695L4.51104 6.87352C4.61417 6.97743 4.75403 7.0358 4.89986 7.03579C5.04569 7.03577 5.18554 6.97737 5.28864 6.87344C5.39175 6.7695 5.44966 6.62855 5.44965 6.48158C5.44963 6.33461 5.39168 6.19367 5.28856 6.08976L4.02804 4.81904H6.54942C7.13273 4.81904 7.69215 5.05257 8.10462 5.46826C8.51708 5.88395 8.7488 6.44774 8.7488 7.03561C8.7488 7.62348 8.51708 8.18727 8.10462 8.60296C7.69215 9.01865 7.13273 9.25218 6.54942 9.25218H3.8002C3.65437 9.25218 3.51451 9.31056 3.4114 9.41448C3.30828 9.51841 3.25035 9.65936 3.25035 9.80632C3.25035 9.95329 3.30828 10.0942 3.4114 10.1982C3.51451 10.3021 3.65437 10.3605 3.8002 10.3605H6.54942C8.36855 10.3605 9.84849 8.86896 9.84849 7.03561C9.84849 5.20226 8.36855 3.71076 6.54942 3.71076Z" fill="currentColor"/>
</svg>
