<svg width="16" height="16" viewBox="0 0 16 16" fill="none" xmlns="http://www.w3.org/2000/svg">
<path d="M8.85657 4.44669H4.92533L6.89081 2.46584C7.0477 2.30304 7.13472 2.08456 7.13307 1.85762C7.13143 1.63069 7.04125 1.41351 6.88202 1.25304C6.72279 1.09257 6.5073 1.00168 6.28212 1.00002C6.05695 0.998365 5.84016 1.08607 5.67862 1.24418L2.24967 4.69993C2.23967 4.71001 2.22994 4.72036 2.22047 4.73098L2.20761 4.74583L2.19315 4.76284C2.18779 4.76932 2.1827 4.77607 2.17761 4.78255L2.16743 4.79578C2.16207 4.80306 2.15698 4.81062 2.15162 4.81791L2.14332 4.83006C2.13823 4.83789 2.13341 4.84572 2.12832 4.85355L2.12082 4.8657C2.11626 4.87353 2.11171 4.88136 2.10742 4.88919L2.09992 4.90269C2.0959 4.90998 2.09215 4.91754 2.08867 4.9251L2.0809 4.94102C2.07769 4.94777 2.07474 4.95479 2.07179 4.96154C2.06885 4.96829 2.06644 4.97396 2.06376 4.98017C2.06108 4.98638 2.05893 4.99232 2.05652 4.99853C2.05411 5.00474 2.0509 5.01284 2.04849 5.0204C2.04608 5.02796 2.04474 5.0312 2.04313 5.0366C2.04152 5.042 2.03777 5.0528 2.03536 5.0609C2.03295 5.069 2.03268 5.07062 2.03134 5.07521C2.03 5.0798 2.02652 5.09275 2.02411 5.1022C2.02411 5.10679 2.02197 5.11111 2.02089 5.1157C2.01875 5.12488 2.01661 5.13406 2.015 5.1427C2.015 5.14729 2.01339 5.15188 2.01259 5.15647C2.01098 5.16565 2.00938 5.17483 2.00804 5.18347C2.0067 5.19211 2.00804 5.194 2.00616 5.19913C2.00429 5.20426 2.00402 5.2164 2.00321 5.22612C2.00241 5.23584 2.00321 5.24016 2.00161 5.24718C2 5.2542 2.00161 5.26122 2 5.26824V5.35356C2 5.36057 2 5.36759 2.00161 5.37461C2.00321 5.38163 2.00161 5.38865 2.00321 5.39567C2.00482 5.40269 2.00509 5.41295 2.00616 5.42267C2.00723 5.43239 2.00616 5.4332 2.00804 5.43833C2.00991 5.44346 2.01098 5.45669 2.01259 5.46533C2.01259 5.46992 2.0142 5.47451 2.015 5.4791C2.01688 5.48828 2.01902 5.49746 2.02089 5.50609C2.02089 5.51068 2.02277 5.515 2.02411 5.51959C2.02625 5.5285 2.02866 5.53741 2.03134 5.54659C2.03402 5.55577 2.03402 5.55631 2.03536 5.5609C2.0367 5.56549 2.04045 5.5771 2.04313 5.5852C2.04581 5.5933 2.04661 5.596 2.04849 5.6014C2.05036 5.6068 2.05384 5.61598 2.05652 5.62327C2.0592 5.63056 2.06108 5.63542 2.06376 5.64162L2.07179 5.66025C2.07447 5.66646 2.07796 5.67402 2.0809 5.68077L2.08867 5.6967C2.09242 5.70426 2.09617 5.71155 2.09992 5.71911L2.10742 5.73261C2.11171 5.74044 2.11626 5.74827 2.12082 5.7561L2.12832 5.76825C2.13314 5.77608 2.13796 5.7839 2.14332 5.79173L2.15162 5.80388C2.15671 5.81144 2.1618 5.81873 2.16743 5.82602L2.17761 5.83925C2.1827 5.846 2.18779 5.85248 2.19315 5.85896L2.20761 5.87597L2.22047 5.89082C2.22994 5.90144 2.23967 5.91179 2.24967 5.92186L5.67862 9.37762C5.83941 9.53962 6.05746 9.63062 6.28481 9.63059C6.51217 9.63057 6.7302 9.53952 6.89095 9.37748C7.05169 9.21545 7.14199 8.99569 7.14196 8.76656C7.14193 8.53743 7.0516 8.31769 6.89081 8.15569L4.92559 6.17457H8.85657C9.76598 6.17457 10.6382 6.53865 11.2812 7.18673C11.9243 7.83481 12.2855 8.7138 12.2855 9.63032C12.2855 10.5468 11.9243 11.4258 11.2812 12.0739C10.6382 12.722 9.76598 13.0861 8.85657 13.0861H4.57038C4.34302 13.0861 4.12498 13.1771 3.96422 13.3391C3.80345 13.5011 3.71314 13.7209 3.71314 13.95C3.71314 14.1791 3.80345 14.3989 3.96422 14.5609C4.12498 14.7229 4.34302 14.814 4.57038 14.814H8.85657C11.6927 14.814 14 12.4886 14 9.63032C14 6.77204 11.6927 4.44669 8.85657 4.44669V4.44669Z" fill="#FE4D4D"/>
</svg>
