<svg width="14" height="14" viewBox="0 0 14 14" fill="none" xmlns="http://www.w3.org/2000/svg">
<circle cx="7" cy="7" r="6" fill="#FF9D23" stroke="white"/>
<path d="M6.85003 10C6.47445 10 6.17018 9.6929 6.17018 9.31419C6.17018 8.93564 6.47444 8.62854 6.85003 8.62854C7.22562 8.62854 7.52987 8.93564 7.52987 9.31419C7.52985 9.6929 7.22561 10 6.85003 10ZM7.69278 4.96826L7.52986 7.4285C7.52986 7.8072 7.22561 8.11431 6.85002 8.11431C6.47443 8.11431 6.17017 7.80721 6.17017 7.4285L6.00726 4.96826C6.00264 4.93181 6 4.89486 6 4.85705C6 4.38369 6.38053 4 6.85001 4C7.31947 4 7.7 4.38369 7.7 4.85705C7.70002 4.89484 7.69739 4.93179 7.69278 4.96826Z" fill="white"/>
</svg>
