<svg width="17" height="16" viewBox="0 0 17 16" fill="none" xmlns="http://www.w3.org/2000/svg">
<path d="M8.85498 16C4.43685 16 0.85498 12.4181 0.85498 8C0.85498 3.58187 4.43685 0 8.85498 0C13.2731 0 16.855 3.58187 16.855 8C16.855 12.4181 13.2731 16 8.85498 16ZM8.32165 3.73333V9.6C8.32165 9.74145 8.37784 9.8771 8.47786 9.97712C8.57788 10.0771 8.71353 10.1333 8.85498 10.1333C8.99643 10.1333 9.13209 10.0771 9.23211 9.97712C9.33212 9.8771 9.38831 9.74145 9.38831 9.6V3.73333C9.38831 3.59188 9.33212 3.45623 9.23211 3.35621C9.13209 3.25619 8.99643 3.2 8.85498 3.2C8.71353 3.2 8.57788 3.25619 8.47786 3.35621C8.37784 3.45623 8.32165 3.59188 8.32165 3.73333ZM8.05498 12.5333C8.05498 12.7455 8.13927 12.949 8.2893 13.099C8.43932 13.249 8.64281 13.3333 8.85498 13.3333C9.06715 13.3333 9.27064 13.249 9.42067 13.099C9.57069 12.949 9.65498 12.7455 9.65498 12.5333C9.65498 12.3212 9.57069 12.1177 9.42067 11.9676C9.27064 11.8176 9.06715 11.7333 8.85498 11.7333C8.64281 11.7333 8.43932 11.8176 8.2893 11.9676C8.13927 12.1177 8.05498 12.3212 8.05498 12.5333Z" fill="#D8D8D8"/>
</svg>
