<svg width="17" height="18" viewBox="0 0 17 18" fill="none" xmlns="http://www.w3.org/2000/svg">
<path fill-rule="evenodd" clip-rule="evenodd" d="M8.5 0.5C3.80508 0.5 0 4.30508 0 9C0 13.6949 3.80508 17.5 8.5 17.5C13.1949 17.5 17 13.6949 17 9C17 4.30508 13.1949 0.5 8.5 0.5ZM7.93721 2.95371H9.19063C9.49941 2.95371 9.72852 3.0583 9.70195 3.52314L9.41475 10.9623C9.40147 11.1715 9.23379 11.3392 9.03291 11.3392H8.09492C7.8957 11.3392 7.72471 11.1731 7.71309 10.9623L7.42754 3.52148C7.39932 3.05996 7.62676 2.95371 7.93721 2.95371ZM7.28477 13.8941C7.28477 14.6014 7.85752 15.1741 8.56475 15.1741C9.27031 15.1741 9.84141 14.5997 9.84141 13.8941C9.84141 13.1902 9.27197 12.6175 8.56475 12.6175C7.85752 12.6175 7.28477 13.1869 7.28477 13.8941Z" fill="#F34C3C"/>
</svg>
