<svg width="60" height="60" viewBox="0 0 60 60" fill="none" xmlns="http://www.w3.org/2000/svg">
<g id="Frame">
<path id="Vector" d="M28.71 48.75C28.8 48.84 28.89 48.9 28.98 48.99H29.01C29.1 49.05 29.19 49.11 29.31 49.14H29.34C29.43 49.17 29.55 49.2 29.64 49.23H29.67C29.79 49.26 29.88 49.26 30 49.26C30.12 49.26 30.21 49.26 30.33 49.23H30.36C30.48 49.2 30.57 49.17 30.66 49.14H30.69C30.78 49.11 30.9 49.05 30.99 48.99H31.02C31.11 48.93 31.2 48.84 31.29 48.75L51.66 28.38C52.35 27.69 52.35 26.55 51.66 25.83C50.97 25.14 49.83 25.14 49.11 25.83L31.8 43.11V5.09999C31.8 4.10999 30.99 3.29999 30 3.29999C29.01 3.29999 28.2 4.10999 28.2 5.09999V43.11L10.89 25.83C10.2 25.14 9.05996 25.14 8.33996 25.83C7.64996 26.52 7.64996 27.66 8.33996 28.38L28.71 48.75ZM54.24 52.8H5.75996C4.76996 52.8 3.95996 53.61 3.95996 54.6C3.95996 55.59 4.76996 56.4 5.75996 56.4H54.27C55.26 56.4 56.07 55.59 56.07 54.6C56.07 53.61 55.23 52.8 54.24 52.8Z" fill="currentColor"/>
</g>
</svg>
