<svg width="16" height="16" viewBox="0 0 16 16" fill="none" xmlns="http://www.w3.org/2000/svg">
<path d="M12.4016 7.4C12.4016 6.23305 11.938 5.11389 11.1128 4.28873C10.2877 3.46357 9.16852 3 8.00156 3C6.83461 3 5.71545 3.46357 4.89029 4.28873C4.06513 5.11389 3.60156 6.23305 3.60156 7.4" stroke="black" stroke-linecap="round" stroke-linejoin="round"/>
<path d="M12.4 11.2497V11.5247C12.4 11.8164 12.2841 12.0962 12.0778 12.3025C11.8715 12.5088 11.5917 12.6247 11.3 12.6247H9.375M2.5 9.84057V8.80877C2.50004 8.56347 2.58206 8.32523 2.73304 8.1319C2.88401 7.93857 3.09528 7.80125 3.33325 7.74177L4.29025 7.50197C4.33888 7.48986 4.38963 7.48898 4.43865 7.49941C4.48766 7.50983 4.53366 7.53128 4.57316 7.56213C4.61265 7.59299 4.64459 7.63243 4.66657 7.67746C4.68855 7.7225 4.69998 7.77195 4.7 7.82207V10.8267C4.70009 10.8769 4.68871 10.9265 4.66674 10.9717C4.64476 11.0168 4.61277 11.0564 4.5732 11.0873C4.53363 11.1182 4.48753 11.1397 4.4384 11.1501C4.38927 11.1605 4.33841 11.1596 4.2897 11.1474L3.3327 10.9081C3.09483 10.8485 2.88369 10.7112 2.73282 10.5178C2.58195 10.3245 2.50001 10.0863 2.5 9.84112V9.84057ZM13.5 9.84057V8.80877C13.5 8.56347 13.4179 8.32523 13.267 8.1319C13.116 7.93857 12.9047 7.80125 12.6668 7.74177L11.7098 7.50197C11.6611 7.48986 11.6104 7.48898 11.5614 7.49941C11.5123 7.50983 11.4663 7.53128 11.4268 7.56213C11.3874 7.59299 11.3554 7.63243 11.3334 7.67746C11.3115 7.7225 11.3 7.77195 11.3 7.82207V10.8267C11.2999 10.8769 11.3113 10.9264 11.3332 10.9715C11.3552 11.0166 11.3871 11.0561 11.4266 11.087C11.4661 11.1179 11.5122 11.1394 11.5612 11.1499C11.6103 11.1604 11.6611 11.1595 11.7098 11.1474L12.6668 10.9081C12.9047 10.8486 13.116 10.7113 13.267 10.518C13.4179 10.3247 13.5 10.0864 13.5 9.84112V9.84057Z" stroke="black"/>
<path d="M8.82656 13.4508H7.17656C6.95776 13.4508 6.74792 13.3639 6.5932 13.2091C6.43848 13.0544 6.35156 12.8446 6.35156 12.6258C6.35156 12.407 6.43848 12.1971 6.5932 12.0424C6.74792 11.8877 6.95776 11.8008 7.17656 11.8008H8.82656C9.04537 11.8008 9.25521 11.8877 9.40993 12.0424C9.56464 12.1971 9.65156 12.407 9.65156 12.6258C9.65156 12.8446 9.56464 13.0544 9.40993 13.2091C9.25521 13.3639 9.04537 13.4508 8.82656 13.4508Z" stroke="black"/>
</svg>
