<svg width="30" height="30" viewBox="0 0 30 30" fill="none" xmlns="http://www.w3.org/2000/svg">
<path d="M4.57758 9.9043C4.47414 10.0077 4.47414 10.1754 4.57758 10.2789L19.7211 25.4224C19.7211 25.4224 19.7211 25.4224 19.7211 25.4224C19.8246 25.5259 19.9923 25.5259 20.0957 25.4224L4.57758 9.9043ZM4.57758 9.9043L8.9043 5.57758C9.00774 5.47414 9.17544 5.47414 9.27888 5.57758L24.4224 20.7211M4.57758 9.9043L24.4224 20.7211M24.4224 20.7211C24.4224 20.7211 24.4224 20.7211 24.4224 20.7211C24.5259 20.8246 24.5259 20.9922 24.4224 21.0957C24.4224 21.0957 24.4224 21.0957 24.4224 21.0957L20.0957 25.4224L24.4224 20.7211Z" fill="url(#paint0_linear_343_64274)" stroke="#FFBB64"/>
<path opacity="0.6" d="M7.82812 12.4033L9.11027 11.1212" stroke="#FFBB64" stroke-linecap="square"/>
<path opacity="0.6" d="M17.7656 22.3457L19.0478 21.0636" stroke="#FFBB64" stroke-linecap="square"/>
<path d="M11.1502 24.117C11.0773 24.19 10.9815 24.241 10.888 24.2595L5.58212 25.3058C5.39797 25.3421 5.23555 25.1807 5.2707 24.9963L4.77955 24.9027L5.2707 24.9963L6.27903 19.7079C6.29726 19.6123 6.34773 19.5169 6.4207 19.444L20.2871 5.57758C20.3905 5.47414 20.5582 5.47414 20.6617 5.57758L24.9884 9.9043C25.0919 10.0077 25.0919 10.1754 24.9884 10.2789L11.1502 24.117Z" fill="white" stroke="#FFBB64"/>
<path d="M17.1095 8.33887L21.9812 13.2108" stroke="#FFBB64" stroke-width="1.2"/>
<path d="M7.34375 18.3628L12.3287 23.4446" stroke="#FFBB64" stroke-width="1.2"/>
<defs>
<linearGradient id="paint0_linear_343_64274" x1="4" y1="3.76471" x2="26.199" y2="24.7305" gradientUnits="userSpaceOnUse">
<stop stop-color="#FFEBCB"/>
<stop offset="1" stop-color="#FFD898"/>
</linearGradient>
</defs>
</svg>
