<svg width="14" height="12" viewBox="0 0 14 12" fill="none" xmlns="http://www.w3.org/2000/svg">
<mask id="path-1-inside-1_2244_261530" fill="white">
<path d="M1.12123 9.87783L0.00701796 2.79202C-0.054866 2.39847 0.302376 2.06799 0.689927 2.16026L3.14874 2.74569C3.31298 2.7848 3.48586 2.73838 3.60842 2.62227L6.21438 0.153467C6.43462 -0.0551857 6.78097 -0.0505063 6.9955 0.16402L9.44465 2.61318C9.56614 2.73466 9.74149 2.78527 9.90902 2.74719L12.5191 2.15398C12.91 2.06515 13.2649 2.40378 13.1945 2.7984L11.9316 9.87783H1.12123Z"/>
</mask>
<path d="M1.12123 9.87783L0.00701796 2.79202C-0.054866 2.39847 0.302376 2.06799 0.689927 2.16026L3.14874 2.74569C3.31298 2.7848 3.48586 2.73838 3.60842 2.62227L6.21438 0.153467C6.43462 -0.0551857 6.78097 -0.0505063 6.9955 0.16402L9.44465 2.61318C9.56614 2.73466 9.74149 2.78527 9.90902 2.74719L12.5191 2.15398C12.91 2.06515 13.2649 2.40378 13.1945 2.7984L11.9316 9.87783H1.12123Z" fill="url(#paint0_linear_2244_261530)"/>
<path d="M0.00701796 2.79202L-0.486913 2.86969L0.00701796 2.79202ZM1.12123 9.87783L0.627301 9.9555L0.693711 10.3778H1.12123V9.87783ZM11.9316 9.87783V10.3778H12.3503L12.4239 9.96564L11.9316 9.87783ZM13.1945 2.7984L12.7023 2.7106L13.1945 2.7984ZM12.5191 2.15398L12.6299 2.64155L12.5191 2.15398ZM9.90902 2.74719L10.0198 3.23476H10.0198L9.90902 2.74719ZM9.44465 2.61318L9.79821 2.25963V2.25963L9.44465 2.61318ZM6.9955 0.16402L7.34905 -0.189533L7.34905 -0.189533L6.9955 0.16402ZM6.21438 0.153467L5.87051 -0.20951V-0.20951L6.21438 0.153467ZM3.60842 2.62227L3.26455 2.25929L3.60842 2.62227ZM3.14874 2.74569L3.26455 2.25929L3.14874 2.74569ZM0.689927 2.16026L0.574117 2.64666H0.574117L0.689927 2.16026ZM-0.486913 2.86969L0.627301 9.9555L1.61516 9.80016L0.500949 2.71435L-0.486913 2.86969ZM1.12123 10.3778H11.9316V9.37783H1.12123V10.3778ZM12.4239 9.96564L13.6868 2.88621L12.7023 2.7106L11.4394 9.79002L12.4239 9.96564ZM12.4083 1.66642L9.79821 2.25963L10.0198 3.23476L12.6299 2.64155L12.4083 1.66642ZM9.79821 2.25963L7.34905 -0.189533L6.64194 0.517574L9.0911 2.96673L9.79821 2.25963ZM5.87051 -0.20951L3.26455 2.25929L3.9523 2.98524L6.55825 0.516443L5.87051 -0.20951ZM3.26455 2.25929L0.805737 1.67386L0.574117 2.64666L3.03293 3.2321L3.26455 2.25929ZM3.26455 2.25929H3.26455L3.03293 3.2321C3.36141 3.3103 3.70717 3.21746 3.9523 2.98524L3.26455 2.25929ZM9.79821 2.25963L9.79821 2.25963L9.0911 2.96673C9.33407 3.2097 9.68476 3.31091 10.0198 3.23476L9.79821 2.25963ZM13.6868 2.88621C13.82 2.13924 13.1482 1.49826 12.4083 1.66642L12.6299 2.64155C12.6718 2.63203 12.7099 2.66831 12.7023 2.7106L13.6868 2.88621ZM7.34905 -0.189533C6.94298 -0.595601 6.2874 -0.604459 5.87051 -0.20951L6.55825 0.516443C6.58185 0.494088 6.61896 0.494589 6.64194 0.517574L7.34905 -0.189533ZM0.500949 2.71435C0.494318 2.67218 0.532595 2.63678 0.574117 2.64666L0.805737 1.67386C0.072157 1.49919 -0.60405 2.12476 -0.486913 2.86969L0.500949 2.71435Z" fill="url(#paint1_linear_2244_261530)" mask="url(#path-1-inside-1_2244_261530)"/>
<path d="M11.4139 11.7997H1.64342L1.35122 10.4848H11.7061L11.4139 11.7997Z" fill="#9881F2" stroke="url(#paint2_linear_2244_261530)" stroke-width="0.2"/>
<g opacity="0.9" filter="url(#filter0_d_2244_261530)">
<mask id="path-4-outside-2_2244_261530" maskUnits="userSpaceOnUse" x="3.58594" y="3.53516" width="6" height="6" fill="black">
<rect fill="white" x="3.58594" y="3.53516" width="6" height="6"/>
<path fill-rule="evenodd" clip-rule="evenodd" d="M4.68594 4.53516C4.63071 4.53516 4.58594 4.57993 4.58594 4.63516V5.52604C4.58594 5.58127 4.63071 5.62604 4.68594 5.62604H6.08172V8.52618C6.08172 8.58141 6.12649 8.62618 6.18172 8.62618H7.07261C7.12783 8.62618 7.1726 8.58141 7.1726 8.52618V5.62604H8.57677C8.63199 5.62604 8.67677 5.58127 8.67677 5.52604V4.63516C8.67677 4.57993 8.632 4.53516 8.57677 4.53516H4.68594Z"/>
</mask>
<path fill-rule="evenodd" clip-rule="evenodd" d="M4.68594 4.53516C4.63071 4.53516 4.58594 4.57993 4.58594 4.63516V5.52604C4.58594 5.58127 4.63071 5.62604 4.68594 5.62604H6.08172V8.52618C6.08172 8.58141 6.12649 8.62618 6.18172 8.62618H7.07261C7.12783 8.62618 7.1726 8.58141 7.1726 8.52618V5.62604H8.57677C8.63199 5.62604 8.67677 5.58127 8.67677 5.52604V4.63516C8.67677 4.57993 8.632 4.53516 8.57677 4.53516H4.68594Z" fill="white" fill-opacity="0.8" shape-rendering="crispEdges"/>
<path d="M6.08172 5.62604H6.18172V5.52604H6.08172V5.62604ZM7.1726 5.62604V5.52604H7.07261V5.62604H7.1726ZM4.68594 4.63516V4.63516V4.43516C4.57548 4.43516 4.48594 4.5247 4.48594 4.63516H4.68594ZM4.68594 5.52604V4.63516H4.48594V5.52604H4.68594ZM4.68594 5.52604H4.68594H4.48594C4.48594 5.6365 4.57548 5.72604 4.68594 5.72604V5.52604ZM6.08172 5.52604H4.68594V5.72604H6.08172V5.52604ZM6.18172 8.52618V5.62604H5.98172V8.52618H6.18172ZM6.18172 8.52618H6.18172H5.98172C5.98172 8.63664 6.07126 8.72618 6.18172 8.72618V8.52618ZM7.07261 8.52618H6.18172V8.72618H7.07261V8.52618ZM7.07261 8.52618V8.72618C7.18306 8.72618 7.2726 8.63664 7.2726 8.52618H7.07261ZM7.07261 5.62604V8.52618H7.2726V5.62604H7.07261ZM8.57677 5.52604H7.1726V5.72604H8.57677V5.52604ZM8.57677 5.52604V5.72604C8.68722 5.72604 8.77677 5.6365 8.77677 5.52604H8.57677ZM8.57677 4.63516V5.52604H8.77677V4.63516L8.57677 4.63516ZM8.57677 4.63516V4.63516L8.77677 4.63516C8.77677 4.5247 8.68722 4.43516 8.57677 4.43516V4.63516ZM4.68594 4.63516L8.57677 4.63516V4.43516L4.68594 4.43516V4.63516Z" fill="#F4F0FF" fill-opacity="0.9" mask="url(#path-4-outside-2_2244_261530)"/>
</g>
<defs>
<filter id="filter0_d_2244_261530" x="2.68438" y="2.63555" width="8.28906" height="8.29102" filterUnits="userSpaceOnUse" color-interpolation-filters="sRGB">
<feFlood flood-opacity="0" result="BackgroundImageFix"/>
<feColorMatrix in="SourceAlpha" type="matrix" values="0 0 0 0 0 0 0 0 0 0 0 0 0 0 0 0 0 0 127 0" result="hardAlpha"/>
<feOffset dx="0.2" dy="0.2"/>
<feGaussianBlur stdDeviation="1"/>
<feComposite in2="hardAlpha" operator="out"/>
<feColorMatrix type="matrix" values="0 0 0 0 0.141711 0 0 0 0 0.13125 0 0 0 0 0.5 0 0 0 0.1 0"/>
<feBlend mode="normal" in2="BackgroundImageFix" result="effect1_dropShadow_2244_261530"/>
<feBlend mode="normal" in="SourceGraphic" in2="effect1_dropShadow_2244_261530" result="shape"/>
</filter>
<linearGradient id="paint0_linear_2244_261530" x1="11.3588" y1="10.1131" x2="1.55268" y2="0.228792" gradientUnits="userSpaceOnUse">
<stop stop-color="#A274EE"/>
<stop offset="1" stop-color="#91B1FF"/>
</linearGradient>
<linearGradient id="paint1_linear_2244_261530" x1="11.0885" y1="9.88863" x2="1.81618" y2="0.0792771" gradientUnits="userSpaceOnUse">
<stop stop-color="#AA87FE"/>
<stop offset="0.48958" stop-color="#EDE6FF"/>
<stop offset="1" stop-color="#ACC1FF"/>
</linearGradient>
<linearGradient id="paint2_linear_2244_261530" x1="10.1321" y1="11.9013" x2="9.63415" y2="9.14264" gradientUnits="userSpaceOnUse">
<stop stop-color="#D2BFFF"/>
<stop offset="1" stop-color="#CAD7FF"/>
</linearGradient>
</defs>
</svg>
