<svg width="30" height="30" viewBox="0 0 30 30" fill="none" xmlns="http://www.w3.org/2000/svg">
<path d="M2.8613 14.3253L7.23103 7.5H21.1862L26.6892 14.3353C26.8531 14.5388 26.8326 14.8343 26.6422 15.0132L14.9709 25.9813C14.7761 26.1644 14.4718 26.1618 14.2801 25.9756L2.934 14.9535L2.5856 15.3121L2.934 14.9535C2.76359 14.7879 2.7332 14.5253 2.8613 14.3253Z" fill="#EEEDFF" stroke="#A9A9FF"/>
<path d="M9.62293 16.423L16.0078 10.1606C16.1464 10.0247 16.3778 10.146 16.3449 10.3373L15.6944 14.1218H20.2959C20.4761 14.1218 20.5644 14.3414 20.4343 14.4662L13.5031 21.112C13.3492 21.2596 13.1019 21.0958 13.1778 20.8964L14.7502 16.7657H9.76297C9.58386 16.7657 9.49505 16.5484 9.62293 16.423Z" fill="url(#paint0_linear_343_73391)"/>
<path d="M15.5466 14.0964L15.5164 14.2718H15.6944H20.2959C20.3409 14.2718 20.363 14.3267 20.3305 14.3579L13.3993 21.0037C13.3867 21.0158 13.3763 21.0184 13.3688 21.0188C13.3596 21.0193 13.3481 21.0166 13.3371 21.0093C13.3261 21.002 13.3191 20.9925 13.316 20.9838C13.3134 20.9767 13.3117 20.9662 13.318 20.9498L14.8903 16.8191L14.9678 16.6157H14.7502H9.76297C9.71819 16.6157 9.69599 16.5614 9.72796 16.53L16.1128 10.2677C16.1475 10.2337 16.2053 10.264 16.1971 10.3119L15.5466 14.0964Z" stroke="#6A67F4" stroke-opacity="0.3" stroke-width="0.3"/>
<defs>
<linearGradient id="paint0_linear_343_73391" x1="17.9719" y1="11.7279" x2="10.5674" y2="18.065" gradientUnits="userSpaceOnUse">
<stop stop-color="#BBBAFF"/>
<stop offset="1" stop-color="#928FFF"/>
</linearGradient>
</defs>
</svg>
