<svg width="16" height="16" viewBox="0 0 16 16" fill="none" xmlns="http://www.w3.org/2000/svg">
<path fill-rule="evenodd" clip-rule="evenodd" d="M13.1227 6.92522C13.1227 4.05334 10.7945 1.72522 7.92266 1.72522C5.05078 1.72522 2.72266 4.05334 2.72266 6.92522C2.72266 9.7971 5.05078 12.1252 7.92266 12.1252C10.7945 12.1252 13.1227 9.7971 13.1227 6.92522ZM3.68262 6.92517C3.68262 4.58348 5.58093 2.68517 7.92262 2.68517C10.2643 2.68517 12.1626 4.58348 12.1626 6.92517C12.1626 9.26686 10.2643 11.1652 7.92262 11.1652C5.58093 11.1652 3.68262 9.26686 3.68262 6.92517Z" fill="currentColor"/>
<path fill-rule="evenodd" clip-rule="evenodd" d="M11.1402 11.22C10.9527 11.0326 10.9527 10.7287 11.1402 10.5412C11.3276 10.3538 11.6316 10.3538 11.819 10.5412L14.5343 13.2565C14.7218 13.4439 14.7218 13.7479 14.5343 13.9353C14.3469 14.1228 14.0429 14.1228 13.8555 13.9353L11.1402 11.22Z" fill="currentColor"/>
</svg>
