<svg width="20" height="20" viewBox="0 0 20 20" fill="none" xmlns="http://www.w3.org/2000/svg">
<path d="M8.7583 12.6131C8.6604 12.614 8.56394 12.5895 8.47832 12.542C8.39269 12.4945 8.32082 12.4257 8.2697 12.3422L8.2326 12.2659L5.3045 8.397C5.28687 8.36249 5.2773 8.32444 5.2765 8.2857C5.2787 8.21353 5.30939 8.14518 5.36187 8.09559C5.41434 8.046 5.48432 8.01922 5.5565 8.0211C5.6195 8.0211 5.6776 8.0407 5.7245 8.0736L8.9291 9.9867C9.03972 10.0543 9.1639 10.0966 9.29277 10.1106C9.42164 10.1247 9.55202 10.1101 9.6746 10.0679L16.7614 5.8C15.2396 4.106 12.735 3 9.9 3C5.2604 3 1.5 5.961 1.5 9.6122C1.5 11.6044 2.6312 13.3978 4.4022 14.6095C4.47366 14.6565 4.53249 14.7203 4.5735 14.7954C4.61451 14.8705 4.63645 14.9545 4.6374 15.04C4.63567 15.0976 4.62577 15.1546 4.608 15.2094L4.2293 16.5422C4.2111 16.6052 4.1838 16.6703 4.1838 16.7354C4.1838 16.8824 4.3098 17 4.4638 17C4.524 17 4.5737 16.979 4.6248 16.951L6.4644 15.9486C6.603 15.873 6.7486 15.8261 6.9103 15.8261C6.9964 15.8261 7.0783 15.8387 7.1574 15.8604C8.0149 16.0935 8.941 16.2237 9.8993 16.2237C14.5389 16.223 18.3 13.262 18.3 9.6122C18.3 8.5055 17.9521 7.4639 17.3424 6.5483L9.0712 12.5228L9.0103 12.5557C8.93173 12.5937 8.84556 12.6133 8.7583 12.6131Z" fill="#15BA11"/>
</svg>
