<svg width="20" height="20" viewBox="0 0 20 20" fill="none" xmlns="http://www.w3.org/2000/svg">
<path fill-rule="evenodd" clip-rule="evenodd" d="M3 6C3 4.34326 4.34326 3 6 3H14C15.6567 3 17 4.34326 17 6V14C17 15.6567 15.6567 17 14 17H6C4.34326 17 3 15.6567 3 14V13.4834H3.96094C4.29248 13.4834 4.56104 13.2146 4.56104 12.8833C4.56104 12.6741 4.4541 12.4895 4.2915 12.3821C4.19678 12.3196 4.08301 12.2832 3.96094 12.2832H3V10.6001H3.96094C4.08594 10.6001 4.20166 10.562 4.29736 10.4968C4.375 10.4443 4.43945 10.374 4.48535 10.292C4.53369 10.2056 4.56104 10.106 4.56104 10C4.56104 9.72778 4.37988 9.49756 4.13135 9.42432C4.07715 9.40845 4.02002 9.3999 3.96094 9.3999H3V7.6001H3.96094C4.09277 7.6001 4.21484 7.55762 4.31396 7.48535C4.46387 7.37622 4.56104 7.19946 4.56104 7C4.56104 6.92529 4.54736 6.85376 4.52246 6.78784C4.49707 6.72119 4.46045 6.66016 4.41455 6.60718C4.36084 6.54517 4.29443 6.49414 4.21973 6.45825C4.1416 6.4209 4.05371 6.3999 3.96094 6.3999H3V6ZM12.5 9C12.5 9.95361 11.9658 10.7827 11.1807 11.2041C12.2231 11.5776 13.0371 12.4321 13.355 13.5H6.64502C6.96289 12.4321 7.77686 11.5776 8.81934 11.2041C8.03418 10.7827 7.5 9.95361 7.5 9C7.5 7.61938 8.61914 6.5 10 6.5C11.3809 6.5 12.5 7.61938 12.5 9Z" fill="currentColor"/>
</svg>
