<svg width="20" height="20" viewBox="0 0 20 20" fill="none" xmlns="http://www.w3.org/2000/svg">
<path fill-rule="evenodd" clip-rule="evenodd" d="M16.1667 9.48595C16.1667 13.068 13.11 15.9719 9.33937 15.9719C7.94363 15.9719 6.64562 15.574 5.56438 14.8911C5.35096 14.9417 4.2157 15.3998 3.28289 15.7826C2.84943 15.9605 2.42803 15.4989 2.64596 15.0841L3.6803 13.1154C2.94283 12.0796 2.51205 10.8306 2.51205 9.48595C2.51205 5.90386 5.56877 3 9.33937 3C13.11 3 16.1667 5.90386 16.1667 9.48595ZM6.65034 7C6.29135 7 6.00034 7.29102 6.00034 7.65C6.00034 8.00899 6.29135 8.3 6.65034 8.3H11.5503C11.9093 8.3 12.2003 8.00899 12.2003 7.65C12.2003 7.29102 11.9093 7 11.5503 7H6.65034ZM6.00034 10.65C6.00034 10.291 6.29135 10 6.65034 10H9.35034C9.70932 10 10.0003 10.291 10.0003 10.65C10.0003 11.009 9.70932 11.3 9.35034 11.3H6.65034C6.29135 11.3 6.00034 11.009 6.00034 10.65ZM14.0452 17.8256C12.9404 17.8256 11.9218 17.4566 11.1058 16.8352C14.7483 16.738 17.6713 13.7547 17.6713 10.0887C17.6713 9.96813 17.6682 9.84828 17.6619 9.72925C18.4325 10.5887 18.9012 11.7245 18.9012 12.9697C18.9012 13.9764 18.5948 14.9115 18.0703 15.687C18.1049 15.817 18.3908 16.3913 18.6899 16.9745C18.912 17.4077 18.4499 17.8787 18.0147 17.6605L16.7302 17.0164C15.9612 17.5277 15.038 17.8256 14.0452 17.8256Z" fill="currentColor"/>
</svg>
