<svg width="22" height="22" viewBox="0 0 22 22" fill="none" xmlns="http://www.w3.org/2000/svg">
<path fill-rule="evenodd" clip-rule="evenodd" d="M6.01531 3.66821C4.21193 3.66821 2.75 5.13014 2.75 6.93352V7.29821H18.15V6.93352C18.15 5.13014 16.6881 3.66821 14.8847 3.66821H6.01531ZM2.75 9.01138H18.15V15.8032C18.15 17.6066 16.6881 19.0685 14.8847 19.0685H6.01531C4.21193 19.0685 2.75 17.6066 2.75 15.8032V9.01138ZM11.0943 15.9257C11.0943 15.5005 11.439 15.1557 11.8643 15.1557H15.3528C15.7781 15.1557 16.1228 15.5005 16.1228 15.9257C16.1228 16.351 15.7781 16.6957 15.3528 16.6957H11.8643C11.439 16.6957 11.0943 16.351 11.0943 15.9257Z" fill="currentColor"/>
</svg>
