<svg width="22" height="22" viewBox="0 0 22 22" fill="none" xmlns="http://www.w3.org/2000/svg">
<path fill-rule="evenodd" clip-rule="evenodd" d="M18.7 9.11157V15.3766C18.7 17.3052 17.1678 18.8686 15.2778 18.8686H6.72218C4.83213 18.8686 3.29999 17.3052 3.29999 15.3766V9.11157H18.7ZM13.0225 11.7347L10.6026 14.204L9.39269 12.9693C9.05851 12.6284 8.51682 12.6284 8.18271 12.9693C7.84861 13.3103 7.84861 13.863 8.18271 14.204L9.9976 16.0559C10.1579 16.2199 10.3756 16.3119 10.6026 16.3116C10.8216 16.3116 11.0405 16.2264 11.2076 16.0559L14.2324 12.9693C14.5666 12.6284 14.5666 12.0756 14.2324 11.7347C13.8983 11.3937 13.3566 11.3937 13.0225 11.7347ZM14.85 3.1543C15.5588 3.1543 16.1333 3.7406 16.1333 4.46385V4.90031C17.5509 4.90031 18.7 6.07291 18.7 7.51941H3.29999C3.29999 6.07291 4.44914 4.90031 5.86663 4.90031V4.46385C5.86663 3.7406 6.4412 3.1543 7.14999 3.1543C7.85877 3.1543 8.43335 3.7406 8.43335 4.46385V4.90031H13.5666V4.46385C13.5666 3.7406 14.1412 3.1543 14.85 3.1543Z" fill="currentColor"/>
</svg>
