<svg width="22" height="22" viewBox="0 0 22 22" fill="none" xmlns="http://www.w3.org/2000/svg">
<path fill-rule="evenodd" clip-rule="evenodd" d="M13.4881 3.66687H5.63093C4.54606 3.66687 3.66663 4.56425 3.66663 5.67127V16.6835C3.66663 17.7905 4.54606 18.6879 5.63093 18.6879H13.4881C15.6578 18.6879 17.4166 16.8931 17.4166 14.6792V7.67558C17.4166 5.46163 15.6578 3.66687 13.4881 3.66687ZM10.5415 5.66921H6.61299C6.07051 5.66921 5.63083 6.16161 5.63083 6.76913V13.4517C5.63083 13.6531 5.72911 13.8384 5.88703 13.9347C6.04495 14.031 6.23725 14.023 6.3883 13.9137L8.39548 12.4623C8.56201 12.3418 8.77689 12.3453 8.94022 12.4711L10.7542 13.8688C10.9045 13.9846 11.0997 13.9976 11.2612 13.9025C11.4227 13.8074 11.5237 13.6199 11.5237 13.4156V6.76913C11.5237 6.16161 11.0839 5.66921 10.5415 5.66921Z" fill="currentColor"/>
</svg>
