<svg width="20" height="20" viewBox="0 0 20 20" fill="none" xmlns="http://www.w3.org/2000/svg">
<path d="M3 6C3 4.34314 4.34314 3 6 3H14C15.6569 3 17 4.34314 17 6V6.237H3V6Z" fill="currentColor"/>
<path fill-rule="evenodd" clip-rule="evenodd" d="M3 7.84967H17V14C17 15.6569 15.6569 17 14 17H6C4.34314 17 3 15.6569 3 14V7.84967ZM13.5168 10.5085C13.7976 10.223 13.7939 9.76401 13.5085 9.48318C13.223 9.20236 12.764 9.20612 12.4832 9.49155L10.5243 11.4827L9.8414 10.7886C9.35489 10.2941 8.55524 10.3018 8.0784 10.8057L6.47342 12.5017C6.19818 12.7925 6.21085 13.2514 6.50168 13.5266C6.79248 13.8018 7.25137 13.7892 7.52658 13.4983L8.97131 11.9717L9.65103 12.6626C10.131 13.1505 10.9176 13.1505 11.3975 12.6626L13.5168 10.5085Z" fill="currentColor"/>
</svg>
