<svg width="22" height="22" viewBox="0 0 22 22" fill="none" xmlns="http://www.w3.org/2000/svg">
<path fill-rule="evenodd" clip-rule="evenodd" d="M6.00006 3.00085C4.34321 3.00085 3.00006 4.344 3.00006 6.00085V15.3052C3.00006 16.9621 4.34321 18.3052 6.00006 18.3052H16.0001C17.6569 18.3052 19.0001 16.9621 19.0001 15.3052V6.00085C19.0001 4.344 17.6569 3.00085 16.0001 3.00085H6.00006ZM10.2983 6.34174C10.2202 6.44706 10.1773 6.5914 10.1773 6.73963V14.561C10.1812 14.7132 10.2241 14.8536 10.3022 14.9589C10.3802 15.0642 10.4894 15.1228 10.5986 15.1228H11.4217C11.5349 15.1267 11.6402 15.0681 11.7182 14.9628C11.7962 14.8575 11.8391 14.7132 11.8391 14.5649V6.74354C11.8352 6.5914 11.7923 6.45096 11.7143 6.34564C11.6363 6.24031 11.5271 6.1818 11.4178 6.1818H10.5947C10.4816 6.1779 10.3763 6.23641 10.2983 6.34174ZM13.9456 10.6523C13.7155 10.6523 13.5321 10.9019 13.5321 11.2101V14.5649C13.5321 14.8692 13.7155 15.1228 13.9456 15.1228H14.7609C14.9911 15.1228 15.1744 14.8731 15.1744 14.5649V11.2101C15.1744 10.9058 14.9911 10.6523 14.7609 10.6523H13.9456ZM6.94736 8.58088C6.86934 8.6862 6.82643 8.83054 6.82643 8.97878V14.5649C6.82643 14.8692 7.00977 15.1228 7.23603 15.1228H8.03962C8.14885 15.1228 8.25027 15.0642 8.32829 14.9589C8.40631 14.8536 8.44922 14.7093 8.44922 14.561V8.97487C8.44922 8.6706 8.26588 8.41704 8.03962 8.41704H7.23603C7.1268 8.41704 7.02538 8.47555 6.94736 8.58088Z" fill="currentColor"/>
</svg>
