<svg width="260" height="128" viewBox="0 0 260 128" fill="none" xmlns="http://www.w3.org/2000/svg">
<path fill-rule="evenodd" clip-rule="evenodd" d="M145.163 22.5799C141.723 19.14 136.146 19.14 132.706 22.5799L126.15 29.1353C118.865 23.9433 108.686 24.6152 102.15 31.1511L62.4636 70.8378C55.1788 78.1226 55.1788 89.9336 62.4636 97.2184C69.5397 104.295 80.8863 104.497 88.2071 97.8267C88.9179 102.099 90.9212 106.198 94.2171 109.494C102.621 117.898 116.247 117.898 124.651 109.494L128.432 105.713C129.163 107.896 130.397 109.947 132.136 111.685C138.132 117.682 147.855 117.682 153.852 111.685L198.203 67.3348C204.2 61.3379 204.2 51.6149 198.203 45.618C194.031 41.4465 188.057 40.1767 182.788 41.8087C182.635 36.5115 180.537 31.26 176.494 27.217C168.494 19.2167 155.761 18.8323 147.306 26.0638C146.89 24.79 146.175 23.5924 145.163 22.5799Z" fill="#F1F1F1"/>
<circle cx="128.152" cy="69.2357" r="18.6118" fill="white"/>
<path d="M133.814 60.3174C132.047 59.1127 129.911 58.4084 127.61 58.4084C121.519 58.4084 116.581 63.3464 116.581 69.4377C116.581 75.529 121.519 80.4669 127.61 80.4669C133.702 80.4669 138.64 75.529 138.64 69.4377C138.64 67.2581 138.007 65.2262 136.916 63.5153" stroke="#5C5C5C" stroke-width="1.6" stroke-linecap="round"/>
<path d="M131.059 69.4369C131.059 71.3405 129.516 72.8836 127.613 72.8836C125.709 72.8836 124.166 71.3405 124.166 69.4369C124.166 67.5334 125.709 65.9903 127.613 65.9903" stroke="#5C5C5C" stroke-width="1.6" stroke-linecap="round"/>
<path d="M138.081 54.0468C135.098 52.0139 131.494 50.8254 127.612 50.8254C117.333 50.8254 109 59.1582 109 69.4372C109 79.7163 117.333 88.0491 127.612 88.0491C137.891 88.0491 146.224 79.7163 146.224 69.4372C146.224 65.7592 145.157 62.3303 143.316 59.4432" stroke="#5C5C5C" stroke-width="1.6" stroke-linecap="round"/>
<path d="M149.553 51.999H146.504L146.766 51.7374C147.523 50.9797 146.369 49.8251 145.611 50.5828L145.349 50.8083V47.7504C145.349 47.4076 144.97 47.2542 144.727 47.4978L141.326 50.9617C141.254 51.0338 141.218 51.124 141.218 51.2323V55.0479C136.617 59.6484 131.963 64.2308 127.371 68.8313C126.614 69.589 127.768 70.7436 128.526 69.9859L142.291 56.3108L146.134 56.2928C146.242 56.2928 146.333 56.2567 146.405 56.1755L149.86 52.6124C150.103 52.3689 149.896 51.999 149.553 51.999Z" fill="#5C5C5C"/>
<path d="M150.633 50.1044H147.924L148.157 49.872C148.83 49.1989 147.804 48.1731 147.131 48.8463L146.899 49.0466V46.33C146.899 46.0255 146.562 45.8893 146.346 46.1057L143.324 49.1828C143.26 49.2469 143.228 49.3271 143.228 49.4232V52.8129C139.141 56.8998 131.221 64.7566 127.142 68.8435C126.469 69.5166 127.494 70.5424 128.167 69.8692L144.182 53.9348L147.596 53.9188C147.692 53.9188 147.772 53.8867 147.836 53.8146L150.905 50.6493C151.122 50.4329 150.937 50.1044 150.633 50.1044Z" fill="#5C5C5C"/>
<circle cx="210.322" cy="45.5887" r="14.8895" fill="white"/>
<path d="M214.851 38.454C213.437 37.4902 211.728 36.9268 209.888 36.9268C205.015 36.9268 201.064 40.8771 201.064 45.7502C201.064 50.6232 205.015 54.5735 209.888 54.5735C214.761 54.5735 218.711 50.6232 218.711 45.7502C218.711 44.0065 218.205 42.3809 217.333 41.0122" stroke="#5C5C5C" stroke-width="1.6" stroke-linecap="round"/>
<path d="M212.647 45.7495C212.647 47.2723 211.413 48.5068 209.89 48.5068C208.367 48.5068 207.133 47.2723 207.133 45.7495C207.133 44.2267 208.367 42.9922 209.89 42.9922" stroke="#5C5C5C" stroke-width="1.6" stroke-linecap="round"/>
<path d="M218.265 33.4375C215.879 31.8111 212.995 30.8604 209.889 30.8604C201.666 30.8604 195 37.5266 195 45.7498C195 53.9731 201.666 60.6393 209.889 60.6393C218.113 60.6393 224.779 53.9731 224.779 45.7498C224.779 42.8074 223.925 40.0643 222.452 37.7546" stroke="#5C5C5C" stroke-width="1.6" stroke-linecap="round"/>
<path d="M227.442 31.7993H225.003L225.212 31.59C225.818 30.9838 224.895 30.0601 224.289 30.6663L224.079 30.8467V28.4003C224.079 28.1261 223.776 28.0034 223.581 28.1983L220.861 30.9694C220.803 31.0271 220.774 31.0993 220.774 31.1859V34.2384C217.094 37.9188 213.37 41.5847 209.697 45.2651C209.091 45.8712 210.014 46.7949 210.621 46.1888L221.633 35.2487L224.707 35.2343C224.794 35.2343 224.866 35.2054 224.924 35.1405L227.687 32.29C227.882 32.0951 227.716 31.7993 227.442 31.7993Z" fill="#5C5C5C"/>
<path d="M228.306 30.2835H226.139L226.325 30.0976C226.863 29.5591 226.043 28.7385 225.504 29.277L225.318 29.4373V27.264C225.318 27.0204 225.049 26.9114 224.876 27.0845L222.459 29.5463C222.408 29.5976 222.382 29.6617 222.382 29.7386V32.4504C219.113 35.7198 212.776 42.0053 209.513 45.2748C208.974 45.8133 209.795 46.6339 210.333 46.0954L223.145 33.3479L225.876 33.335C225.953 33.335 226.017 33.3094 226.068 33.2517L228.524 30.7194C228.697 30.5464 228.549 30.2835 228.306 30.2835Z" fill="#5C5C5C"/>
<circle cx="45.3221" cy="45.5887" r="14.8895" fill="white"/>
<path d="M49.851 38.454C48.4369 37.4902 46.7282 36.9268 44.8878 36.9268C40.0148 36.9268 36.0645 40.8771 36.0645 45.7502C36.0645 50.6232 40.0148 54.5735 44.8878 54.5735C49.7609 54.5735 53.7112 50.6232 53.7112 45.7502C53.7112 44.0065 53.2055 42.3809 52.3326 41.0122" stroke="#5C5C5C" stroke-width="1.6" stroke-linecap="round"/>
<path d="M47.6474 45.7495C47.6474 47.2723 46.4129 48.5068 44.8901 48.5068C43.3673 48.5068 42.1328 47.2723 42.1328 45.7495C42.1328 44.2267 43.3673 42.9922 44.8901 42.9922" stroke="#5C5C5C" stroke-width="1.6" stroke-linecap="round"/>
<path d="M53.2648 33.4375C50.8786 31.8111 47.9951 30.8604 44.8895 30.8604C36.6662 30.8604 30 37.5266 30 45.7498C30 53.9731 36.6662 60.6393 44.8895 60.6393C53.1127 60.6393 59.779 53.9731 59.779 45.7498C59.779 42.8074 58.9254 40.0643 57.4525 37.7546" stroke="#5C5C5C" stroke-width="1.6" stroke-linecap="round"/>
<path d="M62.4421 31.7993H60.003L60.2122 31.59C60.8184 30.9838 59.8947 30.0601 59.2885 30.6663L59.0793 30.8467V28.4003C59.0793 28.1261 58.7762 28.0034 58.5813 28.1983L55.8607 30.9694C55.803 31.0271 55.7741 31.0993 55.7741 31.1859V34.2384C52.0938 37.9188 48.3701 41.5847 44.697 45.2651C44.0908 45.8712 45.0145 46.7949 45.6207 46.1888L56.6329 35.2487L59.7071 35.2343C59.7937 35.2343 59.8658 35.2054 59.9236 35.1405L62.6875 32.29C62.8823 32.0951 62.7163 31.7993 62.4421 31.7993Z" fill="#5C5C5C"/>
<path d="M63.3056 30.2835H61.1388L61.3247 30.0976C61.8632 29.5591 61.0426 28.7385 60.5041 29.277L60.3182 29.4373V27.264C60.3182 27.0204 60.049 26.9114 59.8759 27.0845L57.459 29.5463C57.4077 29.5976 57.3821 29.6617 57.3821 29.7386V32.4504C54.1126 35.7198 47.7758 42.0053 44.5128 45.2748C43.9743 45.8133 44.7948 46.6339 45.3333 46.0954L58.145 33.3479L60.876 33.335C60.9529 33.335 61.017 33.3094 61.0683 33.2517L63.5236 30.7194C63.6967 30.5464 63.5492 30.2835 63.3056 30.2835Z" fill="#5C5C5C"/>
<circle cx="210.322" cy="91.228" r="14.8895" fill="white"/>
<path d="M214.851 84.0932C213.437 83.1294 211.728 82.566 209.888 82.566C205.015 82.566 201.064 86.5164 201.064 91.3894C201.064 96.2624 205.015 100.213 209.888 100.213C214.761 100.213 218.711 96.2624 218.711 91.3894C218.711 89.6457 218.205 88.0202 217.333 86.6515" stroke="#5C5C5C" stroke-width="1.6" stroke-linecap="round"/>
<path d="M212.647 91.3887C212.647 92.9116 211.413 94.1461 209.89 94.1461C208.367 94.1461 207.133 92.9116 207.133 91.3887C207.133 89.8659 208.367 88.6314 209.89 88.6314" stroke="#5C5C5C" stroke-width="1.6" stroke-linecap="round"/>
<path d="M218.265 79.0767C215.879 77.4504 212.995 76.4996 209.889 76.4996C201.666 76.4996 195 83.1658 195 91.3891C195 99.6123 201.666 106.279 209.889 106.279C218.113 106.279 224.779 99.6123 224.779 91.3891C224.779 88.4466 223.925 85.7035 222.452 83.3939" stroke="#5C5C5C" stroke-width="1.6" stroke-linecap="round"/>
<path d="M227.442 77.4385H225.003L225.212 77.2292C225.818 76.6231 224.895 75.6994 224.289 76.3055L224.079 76.4859V74.0396C224.079 73.7654 223.776 73.6427 223.581 73.8375L220.861 76.6086C220.803 76.6664 220.774 76.7385 220.774 76.8251V79.8777C217.094 83.558 213.37 87.2239 209.697 90.9043C209.091 91.5105 210.014 92.4342 210.621 91.828L221.633 80.888L224.707 80.8735C224.794 80.8735 224.866 80.8447 224.924 80.7797L227.687 77.9292C227.882 77.7344 227.716 77.4385 227.442 77.4385Z" fill="#5C5C5C"/>
<path d="M228.306 75.9228H226.139L226.325 75.7368C226.863 75.1983 226.043 74.3778 225.504 74.9163L225.318 75.0765V72.9033C225.318 72.6597 225.049 72.5507 224.876 72.7238L222.459 75.1855C222.408 75.2368 222.382 75.3009 222.382 75.3778V78.0896C219.113 81.3591 212.776 87.6446 209.513 90.914C208.974 91.4526 209.795 92.2731 210.333 91.7346L223.145 78.9871L225.876 78.9743C225.953 78.9743 226.017 78.9486 226.068 78.891L228.524 76.3587C228.697 76.1856 228.549 75.9228 228.306 75.9228Z" fill="#5C5C5C"/>
<circle cx="45.3221" cy="91.228" r="14.8895" fill="white"/>
<path d="M49.851 84.0932C48.4369 83.1294 46.7282 82.566 44.8878 82.566C40.0148 82.566 36.0645 86.5164 36.0645 91.3894C36.0645 96.2624 40.0148 100.213 44.8878 100.213C49.7609 100.213 53.7112 96.2624 53.7112 91.3894C53.7112 89.6457 53.2055 88.0202 52.3326 86.6515" stroke="#5C5C5C" stroke-width="1.6" stroke-linecap="round"/>
<path d="M47.6474 91.3887C47.6474 92.9116 46.4129 94.1461 44.8901 94.1461C43.3673 94.1461 42.1328 92.9116 42.1328 91.3887C42.1328 89.8659 43.3673 88.6314 44.8901 88.6314" stroke="#5C5C5C" stroke-width="1.6" stroke-linecap="round"/>
<path d="M53.2648 79.0767C50.8786 77.4504 47.9951 76.4996 44.8895 76.4996C36.6662 76.4996 30 83.1658 30 91.3891C30 99.6123 36.6662 106.279 44.8895 106.279C53.1127 106.279 59.779 99.6123 59.779 91.3891C59.779 88.4466 58.9254 85.7035 57.4525 83.3939" stroke="#5C5C5C" stroke-width="1.6" stroke-linecap="round"/>
<path d="M62.4421 77.4385H60.003L60.2122 77.2292C60.8184 76.6231 59.8947 75.6994 59.2885 76.3055L59.0793 76.4859V74.0396C59.0793 73.7654 58.7762 73.6427 58.5813 73.8375L55.8607 76.6086C55.803 76.6664 55.7741 76.7385 55.7741 76.8251V79.8777C52.0938 83.558 48.3701 87.2239 44.697 90.9043C44.0908 91.5105 45.0145 92.4342 45.6207 91.828L56.6329 80.888L59.7071 80.8735C59.7937 80.8735 59.8658 80.8447 59.9236 80.7797L62.6875 77.9292C62.8823 77.7344 62.7163 77.4385 62.4421 77.4385Z" fill="#5C5C5C"/>
<path d="M63.3056 75.9228H61.1388L61.3247 75.7368C61.8632 75.1983 61.0426 74.3778 60.5041 74.9163L60.3182 75.0765V72.9033C60.3182 72.6597 60.049 72.5507 59.8759 72.7238L57.459 75.1855C57.4077 75.2368 57.3821 75.3009 57.3821 75.3778V78.0896C54.1126 81.3591 47.7758 87.6446 44.5128 90.914C43.9743 91.4526 44.7948 92.2731 45.3333 91.7346L58.145 78.9871L60.876 78.9743C60.9529 78.9743 61.017 78.9486 61.0683 78.891L63.5236 76.3587C63.6967 76.1856 63.5492 75.9228 63.3056 75.9228Z" fill="#5C5C5C"/>
<path d="M195 46H168C164.686 46 162 48.6863 162 52V86C162 89.3137 164.703 92 168.017 92C182.686 92 174.395 92 195 92" stroke="#5C5C5C" stroke-width="1.6"/>
<path d="M146 69L162 69" stroke="#5C5C5C" stroke-width="1.6"/>
<path d="M60 46H87C90.3137 46 93 48.6863 93 52V86C93 89.3137 90.2968 92 86.9831 92C72.3135 92 80.6046 92 60 92" stroke="#5C5C5C" stroke-width="1.6"/>
<path d="M109 69L93 69" stroke="#5C5C5C" stroke-width="1.6"/>
</svg>
