<svg width="16" height="16" viewBox="0 0 16 16" fill="none" xmlns="http://www.w3.org/2000/svg">
<g clip-path="url(#clip0_4189_15630)">
<path d="M5.764 3H3.5C3.36739 3 3.24021 3.05268 3.14645 3.14645C3.05268 3.24021 3 3.36739 3 3.5V5.6545C3 5.78711 3.05268 5.91429 3.14645 6.00805C3.24021 6.10182 3.36739 6.1545 3.5 6.1545C3.63261 6.1545 3.75979 6.10182 3.85355 6.00805C3.94732 5.91429 4 5.78711 4 5.6545V4H5.764C5.89661 4 6.02379 3.94732 6.11755 3.85355C6.21132 3.75979 6.264 3.63261 6.264 3.5C6.264 3.36739 6.21132 3.24021 6.11755 3.14645C6.02379 3.05268 5.89661 3 5.764 3ZM12.2635 3H10C9.86739 3 9.74021 3.05268 9.64645 3.14645C9.55268 3.24021 9.5 3.36739 9.5 3.5C9.5 3.63261 9.55268 3.75979 9.64645 3.85355C9.74021 3.94732 9.86739 4 10 4H11.7635V5.6545C11.7635 5.78711 11.8162 5.91429 11.9099 6.00805C12.0037 6.10182 12.1309 6.1545 12.2635 6.1545C12.3961 6.1545 12.5233 6.10182 12.6171 6.00805C12.7108 5.91429 12.7635 5.78711 12.7635 5.6545V3.5C12.7635 3.36739 12.7108 3.24021 12.6171 3.14645C12.5233 3.05268 12.3961 3 12.2635 3ZM5.764 12.155H4V10.5C4 10.3674 3.94732 10.2402 3.85355 10.1464C3.75979 10.0527 3.63261 10 3.5 10C3.36739 10 3.24021 10.0527 3.14645 10.1464C3.05268 10.2402 3 10.3674 3 10.5V12.655C3 12.7876 3.05268 12.9148 3.14645 13.0086C3.24021 13.1023 3.36739 13.155 3.5 13.155H5.764C5.89661 13.155 6.02379 13.1023 6.11755 13.0086C6.21132 12.9148 6.264 12.7876 6.264 12.655C6.264 12.5224 6.21132 12.3952 6.11755 12.3014C6.02379 12.2077 5.89661 12.155 5.764 12.155ZM12.2635 10C12.1309 10 12.0037 10.0527 11.9099 10.1464C11.8162 10.2402 11.7635 10.3674 11.7635 10.5V12.155H10C9.86739 12.155 9.74021 12.2077 9.64645 12.3014C9.55268 12.3952 9.5 12.5224 9.5 12.655C9.5 12.7876 9.55268 12.9148 9.64645 13.0086C9.74021 13.1023 9.86739 13.155 10 13.155H12.2635C12.3961 13.155 12.5233 13.1023 12.6171 13.0086C12.7108 12.9148 12.7635 12.7876 12.7635 12.655V10.5C12.7635 10.3674 12.7108 10.2402 12.6171 10.1464C12.5233 10.0527 12.3961 10 12.2635 10Z" fill="#262626"/>
<path d="M14.25 0.75H1.75C1.1985 0.75 0.75 1.1985 0.75 1.75V14.25C0.75 14.8015 1.1985 15.25 1.75 15.25H14.25C14.8015 15.25 15.25 14.8015 15.25 14.25V1.75C15.25 1.1985 14.8015 0.75 14.25 0.75ZM1.75 14.25V1.75H14.25L14.251 14.25H1.75Z" fill="#262626"/>
</g>
<defs>
<clipPath id="clip0_4189_15630">
<rect width="16" height="16" fill="white"/>
</clipPath>
</defs>
</svg>
