<svg width="14" height="14" viewBox="0 0 14 14" fill="none" xmlns="http://www.w3.org/2000/svg">
<path fill-rule="evenodd" clip-rule="evenodd" d="M7.7763 6.21275V2.40662C7.7763 2.04418 7.48249 1.75037 7.12005 1.75037H6.85755C6.49512 1.75037 6.2013 2.04418 6.2013 2.40662V6.21275H2.40234C2.03991 6.21275 1.74609 6.50657 1.74609 6.869V7.1315C1.74609 7.49394 2.03991 7.78775 2.40234 7.78775H6.2013V11.5941C6.2013 11.9566 6.49512 12.2504 6.85755 12.2504H7.12005C7.48249 12.2504 7.7763 11.9566 7.7763 11.5941V7.78775H11.5898C11.9523 7.78775 12.2461 7.49394 12.2461 7.1315V6.869C12.2461 6.50657 11.9523 6.21275 11.5898 6.21275H7.7763Z" fill="#262626"/>
</svg>
